G04 #@! TF.GenerationSoftware,KiCad,Pcbnew,8.0.5*
G04 #@! TF.CreationDate,2026-03-05T12:39:56-03:00*
G04 #@! TF.ProjectId,Hoja-Base,486f6a61-2d42-4617-9365-2e6b69636164,rev?*
G04 #@! TF.SameCoordinates,Original*
G04 #@! TF.FileFunction,Legend,Bot*
G04 #@! TF.FilePolarity,Positive*
%FSLAX46Y46*%
G04 Gerber Fmt 4.6, Leading zero omitted, Abs format (unit mm)*
G04 Created by KiCad (PCBNEW 8.0.5) date 2026-03-05 12:39:56*
%MOMM*%
%LPD*%
G01*
G04 APERTURE LIST*
G04 Aperture macros list*
%AMRoundRect*
0 Rectangle with rounded corners*
0 $1 Rounding radius*
0 $2 $3 $4 $5 $6 $7 $8 $9 X,Y pos of 4 corners*
0 Add a 4 corners polygon primitive as box body*
4,1,4,$2,$3,$4,$5,$6,$7,$8,$9,$2,$3,0*
0 Add four circle primitives for the rounded corners*
1,1,$1+$1,$2,$3*
1,1,$1+$1,$4,$5*
1,1,$1+$1,$6,$7*
1,1,$1+$1,$8,$9*
0 Add four rect primitives between the rounded corners*
20,1,$1+$1,$2,$3,$4,$5,0*
20,1,$1+$1,$4,$5,$6,$7,0*
20,1,$1+$1,$6,$7,$8,$9,0*
20,1,$1+$1,$8,$9,$2,$3,0*%
G04 Aperture macros list end*
%ADD10C,0.300000*%
%ADD11C,0.000000*%
%ADD12R,1.800000X1.800000*%
%ADD13C,1.800000*%
%ADD14C,1.524000*%
%ADD15R,1.600000X1.600000*%
%ADD16C,1.600000*%
%ADD17C,3.200000*%
%ADD18C,2.794000*%
%ADD19R,1.700000X1.700000*%
%ADD20O,1.700000X1.700000*%
%ADD21C,2.000000*%
%ADD22O,2.100000X1.000000*%
%ADD23O,1.800000X1.000000*%
%ADD24RoundRect,0.102000X-0.900000X-0.900000X0.900000X-0.900000X0.900000X0.900000X-0.900000X0.900000X0*%
%ADD25C,2.004000*%
%ADD26O,4.604000X2.404000*%
%ADD27O,4.204000X2.204000*%
%ADD28O,2.204000X4.204000*%
G04 APERTURE END LIST*
D10*
X-1162678572Y62050242D02*
X-1162535715Y62121671D01*
X-1162535715Y62121671D02*
X-1162321429Y62121671D01*
X-1162321429Y62121671D02*
X-1162107143Y62050242D01*
X-1162107143Y62050242D02*
X-1161964286Y61907385D01*
X-1161964286Y61907385D02*
X-1161892857Y61764528D01*
X-1161892857Y61764528D02*
X-1161821429Y61478814D01*
X-1161821429Y61478814D02*
X-1161821429Y61264528D01*
X-1161821429Y61264528D02*
X-1161892857Y60978814D01*
X-1161892857Y60978814D02*
X-1161964286Y60835957D01*
X-1161964286Y60835957D02*
X-1162107143Y60693100D01*
X-1162107143Y60693100D02*
X-1162321429Y60621671D01*
X-1162321429Y60621671D02*
X-1162464286Y60621671D01*
X-1162464286Y60621671D02*
X-1162678572Y60693100D01*
X-1162678572Y60693100D02*
X-1162750000Y60764528D01*
X-1162750000Y60764528D02*
X-1162750000Y61264528D01*
X-1162750000Y61264528D02*
X-1162464286Y61264528D01*
X-1163607143Y62121671D02*
X-1163607143Y61764528D01*
X-1163250000Y61907385D02*
X-1163607143Y61764528D01*
X-1163607143Y61764528D02*
X-1163964286Y61907385D01*
X-1163392857Y61478814D02*
X-1163607143Y61764528D01*
X-1163607143Y61764528D02*
X-1163821429Y61478814D01*
X-1164750000Y62121671D02*
X-1164750000Y61764528D01*
X-1164392857Y61907385D02*
X-1164750000Y61764528D01*
X-1164750000Y61764528D02*
X-1165107143Y61907385D01*
X-1164535714Y61478814D02*
X-1164750000Y61764528D01*
X-1164750000Y61764528D02*
X-1164964286Y61478814D01*
X-1165892857Y62121671D02*
X-1165892857Y61764528D01*
X-1165535714Y61907385D02*
X-1165892857Y61764528D01*
X-1165892857Y61764528D02*
X-1166250000Y61907385D01*
X-1165678571Y61478814D02*
X-1165892857Y61764528D01*
X-1165892857Y61764528D02*
X-1166107143Y61478814D01*
D11*
G36*
X-1148985222Y61300000D02*
G01*
X-1148985222Y46285222D01*
X-1164000000Y46285222D01*
X-1179014778Y46285222D01*
X-1179014778Y61300000D01*
X-1179014778Y67754726D01*
X-1171744092Y67754726D01*
X-1171744050Y67343830D01*
X-1171743674Y66918603D01*
X-1171742978Y66483333D01*
X-1171741972Y66042313D01*
X-1171740670Y65599830D01*
X-1171739083Y65160177D01*
X-1171737223Y64727643D01*
X-1171735103Y64306517D01*
X-1171732735Y63901091D01*
X-1171730131Y63515654D01*
X-1171727303Y63154497D01*
X-1171724263Y62821909D01*
X-1171721024Y62522180D01*
X-1171717597Y62259602D01*
X-1171713995Y62038463D01*
X-1171710230Y61863054D01*
X-1171705252Y61668935D01*
X-1171696857Y61351457D01*
X-1171689235Y61078968D01*
X-1171682237Y60848204D01*
X-1171675715Y60655901D01*
X-1171669523Y60498796D01*
X-1171663513Y60373627D01*
X-1171657536Y60277129D01*
X-1171651446Y60206038D01*
X-1171645094Y60157093D01*
X-1171638333Y60127028D01*
X-1171631015Y60112581D01*
X-1171621533Y60091779D01*
X-1171610528Y60031001D01*
X-1171605376Y59949921D01*
X-1171599209Y59833572D01*
X-1171573737Y59627059D01*
X-1171529898Y59387614D01*
X-1171468947Y59122857D01*
X-1171448762Y59040185D01*
X-1171427825Y58949189D01*
X-1171414533Y58885123D01*
X-1171399718Y58826303D01*
X-1171381361Y58785025D01*
X-1171377246Y58778358D01*
X-1171359577Y58729620D01*
X-1171343190Y58659902D01*
X-1171338703Y58638364D01*
X-1171312173Y58543640D01*
X-1171278389Y58451374D01*
X-1171265156Y58418819D01*
X-1171241492Y58350236D01*
X-1171232118Y58306109D01*
X-1171230335Y58292177D01*
X-1171213499Y58235717D01*
X-1171184661Y58164292D01*
X-1171155433Y58098286D01*
X-1171112160Y57998160D01*
X-1171069165Y57896650D01*
X-1171056632Y57867039D01*
X-1170977965Y57691394D01*
X-1170880442Y57486565D01*
X-1170769933Y57264007D01*
X-1170652306Y57035173D01*
X-1170533431Y56811519D01*
X-1170419176Y56604498D01*
X-1170315410Y56425566D01*
X-1170296984Y56394486D01*
X-1170250569Y56312673D01*
X-1170218241Y56250370D01*
X-1170206108Y56219113D01*
X-1170205388Y56213369D01*
X-1170181084Y56194976D01*
X-1170174491Y56194053D01*
X-1170156059Y56168938D01*
X-1170156022Y56167846D01*
X-1170141593Y56129387D01*
X-1170108950Y56075095D01*
X-1170089528Y56046616D01*
X-1170043414Y55978042D01*
X-1169979549Y55882504D01*
X-1169903597Y55768476D01*
X-1169821219Y55644434D01*
X-1169768459Y55564946D01*
X-1169658510Y55400101D01*
X-1169567773Y55265756D01*
X-1169490534Y55153826D01*
X-1169421081Y55056227D01*
X-1169353702Y54964874D01*
X-1169282684Y54871684D01*
X-1169202313Y54768572D01*
X-1169187364Y54749374D01*
X-1169125469Y54666669D01*
X-1169075905Y54595529D01*
X-1169048273Y54549606D01*
X-1169027175Y54513199D01*
X-1169004925Y54493301D01*
X-1169002067Y54492439D01*
X-1168976611Y54469891D01*
X-1168928004Y54415261D01*
X-1168854564Y54326530D01*
X-1168754612Y54201679D01*
X-1168626467Y54038690D01*
X-1168572205Y53970450D01*
X-1168425037Y53795110D01*
X-1168250484Y53599640D01*
X-1168043148Y53377925D01*
X-1167971190Y53301467D01*
X-1167901076Y53225000D01*
X-1167850220Y53167276D01*
X-1167826380Y53136921D01*
X-1167804619Y53108217D01*
X-1167750104Y53046385D01*
X-1167669056Y52958992D01*
X-1167566476Y52851123D01*
X-1167447369Y52727863D01*
X-1167316735Y52594294D01*
X-1167179579Y52455503D01*
X-1167040903Y52316571D01*
X-1166905708Y52182585D01*
X-1166778999Y52058628D01*
X-1166665778Y51949784D01*
X-1166571047Y51861137D01*
X-1166567739Y51858104D01*
X-1166342538Y51652470D01*
X-1166149997Y51478525D01*
X-1165986750Y51333306D01*
X-1165849431Y51213848D01*
X-1165734674Y51117187D01*
X-1165639113Y51040357D01*
X-1165604906Y51013063D01*
X-1165547603Y50964349D01*
X-1165513990Y50931596D01*
X-1165509564Y50926762D01*
X-1165470434Y50891768D01*
X-1165405524Y50838685D01*
X-1165326305Y50776963D01*
X-1165323218Y50774609D01*
X-1165226345Y50698892D01*
X-1165128054Y50619210D01*
X-1165049170Y50552432D01*
X-1165032451Y50537753D01*
X-1164917043Y50437729D01*
X-1164822869Y50359285D01*
X-1164736248Y50291300D01*
X-1164643501Y50222654D01*
X-1164579810Y50176011D01*
X-1164525895Y50135424D01*
X-1164500492Y50114816D01*
X-1164488633Y50103986D01*
X-1164433911Y50063586D01*
X-1164352385Y50009454D01*
X-1164256114Y49949050D01*
X-1164157156Y49889834D01*
X-1164067569Y49839265D01*
X-1163999410Y49804805D01*
X-1163894233Y49760953D01*
X-1163796625Y49733656D01*
X-1163708554Y49731689D01*
X-1163612428Y49755009D01*
X-1163490654Y49803575D01*
X-1163451956Y49822920D01*
X-1163376702Y49865693D01*
X-1163285578Y49920852D01*
X-1163190416Y49980895D01*
X-1163103047Y50038321D01*
X-1163035303Y50085628D01*
X-1162999015Y50115313D01*
X-1162989022Y50124172D01*
X-1162946944Y50157075D01*
X-1162886404Y50202057D01*
X-1162863789Y50218742D01*
X-1162775793Y50286247D01*
X-1162695641Y50350882D01*
X-1162658749Y50381448D01*
X-1162581274Y50444857D01*
X-1162486497Y50521847D01*
X-1162387247Y50601971D01*
X-1162340386Y50639725D01*
X-1162132029Y50808818D01*
X-1161929523Y50975060D01*
X-1161739578Y51132847D01*
X-1161568904Y51276579D01*
X-1161424211Y51400653D01*
X-1161312210Y51499467D01*
X-1161262457Y51544284D01*
X-1161159778Y51636340D01*
X-1161062672Y51722906D01*
X-1160986889Y51789918D01*
X-1160917134Y51853817D01*
X-1160816890Y51949753D01*
X-1160695323Y52068793D01*
X-1160559122Y52204172D01*
X-1160414979Y52349125D01*
X-1160269584Y52496886D01*
X-1160129628Y52640689D01*
X-1160001801Y52773769D01*
X-1159892794Y52889361D01*
X-1159809298Y52980698D01*
X-1159750943Y53045885D01*
X-1159637500Y53171226D01*
X-1159521771Y53297696D01*
X-1159421417Y53405932D01*
X-1159270535Y53571433D01*
X-1159068244Y53803856D01*
X-1158838750Y54077526D01*
X-1158767328Y54164792D01*
X-1158667967Y54288122D01*
X-1158566247Y54416116D01*
X-1158470705Y54537945D01*
X-1158389882Y54642781D01*
X-1158332315Y54719795D01*
X-1158280168Y54788690D01*
X-1158231898Y54846545D01*
X-1158201402Y54876170D01*
X-1158188001Y54887260D01*
X-1158169202Y54926219D01*
X-1158165939Y54938642D01*
X-1158138840Y54985190D01*
X-1158093263Y55043843D01*
X-1158056043Y55089251D01*
X-1157990844Y55175366D01*
X-1157928852Y55263519D01*
X-1157885368Y55326006D01*
X-1157833413Y55395052D01*
X-1157795798Y55438692D01*
X-1157768665Y55468783D01*
X-1157719589Y55532986D01*
X-1157666456Y55609982D01*
X-1157617861Y55686618D01*
X-1157582400Y55749742D01*
X-1157568670Y55786204D01*
X-1157563475Y55807134D01*
X-1157534378Y55850323D01*
X-1157530281Y55854644D01*
X-1157493315Y55903441D01*
X-1157453048Y55967989D01*
X-1157447808Y55977256D01*
X-1157409892Y56043332D01*
X-1157380985Y56092242D01*
X-1157337683Y56162865D01*
X-1157285025Y56248087D01*
X-1157250860Y56302074D01*
X-1157230597Y56332021D01*
X-1157219646Y56345123D01*
X-1157204008Y56365093D01*
X-1157169476Y56420846D01*
X-1157128695Y56493930D01*
X-1157090682Y56567984D01*
X-1157064455Y56626650D01*
X-1157039712Y56674697D01*
X-1157015680Y56695468D01*
X-1157005536Y56699414D01*
X-1156993103Y56732244D01*
X-1156991568Y56743598D01*
X-1156972569Y56796795D01*
X-1156938833Y56863623D01*
X-1156906303Y56920591D01*
X-1156841914Y57034816D01*
X-1156783694Y57139887D01*
X-1156736319Y57227234D01*
X-1156704465Y57288290D01*
X-1156692808Y57314483D01*
X-1156690432Y57321967D01*
X-1156671675Y57365767D01*
X-1156638300Y57438700D01*
X-1156595189Y57529983D01*
X-1156547860Y57629440D01*
X-1156469614Y57797279D01*
X-1156413173Y57923775D01*
X-1156378983Y58007917D01*
X-1156367488Y58048691D01*
X-1156365821Y58058785D01*
X-1156348753Y58107635D01*
X-1156319191Y58174203D01*
X-1156310430Y58193033D01*
X-1156276243Y58279001D01*
X-1156253740Y58354422D01*
X-1156253425Y58355886D01*
X-1156235864Y58419086D01*
X-1156217713Y58459705D01*
X-1156213793Y58466323D01*
X-1156196982Y58515059D01*
X-1156181554Y58584828D01*
X-1156179684Y58595390D01*
X-1156161607Y58683493D01*
X-1156142450Y58760000D01*
X-1156136911Y58779186D01*
X-1156113895Y58860175D01*
X-1156089405Y58947685D01*
X-1156079776Y58981056D01*
X-1156058189Y59047495D01*
X-1156042367Y59085320D01*
X-1156033629Y59102017D01*
X-1156007985Y59180537D01*
X-1155980134Y59306870D01*
X-1155950006Y59481450D01*
X-1155917529Y59704711D01*
X-1155882635Y59977088D01*
X-1155845251Y60299015D01*
X-1155841205Y60338192D01*
X-1155830754Y60468910D01*
X-1155821064Y60636072D01*
X-1155812122Y60840651D01*
X-1155803915Y61083617D01*
X-1155796429Y61365943D01*
X-1155789650Y61688599D01*
X-1155783565Y62052557D01*
X-1155778161Y62458789D01*
X-1155773424Y62908266D01*
X-1155769341Y63401960D01*
X-1155765897Y63940842D01*
X-1155763080Y64525884D01*
X-1155760877Y65158058D01*
X-1155759273Y65838334D01*
X-1155758255Y66567685D01*
X-1155754384Y70571626D01*
X-1155824285Y70696749D01*
X-1155852038Y70741970D01*
X-1155918681Y70831952D01*
X-1155985331Y70903611D01*
X-1155994357Y70912137D01*
X-1156007996Y70926739D01*
X-1156019656Y70940360D01*
X-1156031013Y70953033D01*
X-1156043748Y70964793D01*
X-1156059537Y70975672D01*
X-1156080060Y70985703D01*
X-1156106994Y70994921D01*
X-1156142019Y71003358D01*
X-1156186812Y71011048D01*
X-1156243052Y71018023D01*
X-1156312418Y71024319D01*
X-1156396587Y71029967D01*
X-1156497238Y71035001D01*
X-1156616049Y71039454D01*
X-1156754699Y71043361D01*
X-1156914866Y71046753D01*
X-1157098228Y71049665D01*
X-1157306464Y71052130D01*
X-1157541252Y71054181D01*
X-1157804271Y71055852D01*
X-1158097199Y71057176D01*
X-1158421714Y71058186D01*
X-1158779494Y71058915D01*
X-1159172219Y71059398D01*
X-1159601565Y71059667D01*
X-1160069213Y71059755D01*
X-1160576839Y71059697D01*
X-1161126123Y71059525D01*
X-1161718743Y71059273D01*
X-1162356377Y71058973D01*
X-1163040703Y71058661D01*
X-1163773400Y71058368D01*
X-1164490082Y71058104D01*
X-1165165501Y71057835D01*
X-1165794259Y71057551D01*
X-1166378059Y71057243D01*
X-1166918602Y71056898D01*
X-1167417592Y71056505D01*
X-1167876731Y71056053D01*
X-1168297722Y71055532D01*
X-1168682265Y71054928D01*
X-1169032065Y71054233D01*
X-1169348823Y71053433D01*
X-1169634241Y71052519D01*
X-1169890023Y71051478D01*
X-1170117870Y71050300D01*
X-1170319485Y71048973D01*
X-1170496570Y71047486D01*
X-1170650827Y71045829D01*
X-1170783959Y71043988D01*
X-1170897669Y71041955D01*
X-1170993658Y71039717D01*
X-1171073629Y71037262D01*
X-1171139285Y71034581D01*
X-1171192327Y71031661D01*
X-1171234459Y71028492D01*
X-1171267381Y71025062D01*
X-1171292798Y71021359D01*
X-1171312411Y71017374D01*
X-1171327922Y71013094D01*
X-1171341035Y71008508D01*
X-1171472705Y70941707D01*
X-1171575267Y70847368D01*
X-1171659573Y70714689D01*
X-1171671380Y70690902D01*
X-1171686903Y70654573D01*
X-1171698975Y70614298D01*
X-1171708206Y70563489D01*
X-1171715205Y70495564D01*
X-1171720582Y70403935D01*
X-1171724947Y70282020D01*
X-1171728911Y70123231D01*
X-1171733082Y69920985D01*
X-1171734030Y69869341D01*
X-1171736662Y69678891D01*
X-1171738876Y69444077D01*
X-1171740683Y69169191D01*
X-1171742096Y68858523D01*
X-1171743127Y68516363D01*
X-1171743788Y68147001D01*
X-1171744092Y67754726D01*
X-1179014778Y67754726D01*
X-1179014778Y76314778D01*
X-1164000000Y76314778D01*
X-1148985222Y76314778D01*
X-1148985222Y70571626D01*
X-1148985222Y61300000D01*
G37*
G36*
X-1155970607Y69057189D02*
G01*
X-1155970880Y68751597D01*
X-1155971465Y68406219D01*
X-1155972337Y68018490D01*
X-1155973474Y67585844D01*
X-1155974854Y67105714D01*
X-1155976248Y66676865D01*
X-1155978634Y66076483D01*
X-1155981452Y65494241D01*
X-1155984681Y64932016D01*
X-1155988293Y64391685D01*
X-1155992266Y63875124D01*
X-1155996575Y63384212D01*
X-1156001194Y62920824D01*
X-1156006100Y62486838D01*
X-1156011268Y62084131D01*
X-1156016673Y61714580D01*
X-1156022291Y61380062D01*
X-1156028097Y61082454D01*
X-1156034067Y60823633D01*
X-1156040176Y60605477D01*
X-1156046400Y60429861D01*
X-1156052713Y60298664D01*
X-1156059092Y60213762D01*
X-1156065512Y60177032D01*
X-1156077802Y60135677D01*
X-1156088214Y60057257D01*
X-1156092217Y59964304D01*
X-1156095354Y59883666D01*
X-1156104384Y59817247D01*
X-1156117241Y59786010D01*
X-1156123231Y59779223D01*
X-1156136834Y59733698D01*
X-1156142266Y59664668D01*
X-1156144867Y59616049D01*
X-1156158466Y59515490D01*
X-1156179803Y59414677D01*
X-1156195014Y59351113D01*
X-1156211098Y59267619D01*
X-1156217340Y59210699D01*
X-1156222120Y59170239D01*
X-1156238869Y59137530D01*
X-1156246504Y59127240D01*
X-1156262898Y59078183D01*
X-1156276624Y59005848D01*
X-1156294499Y58904968D01*
X-1156368714Y58659902D01*
X-1156379453Y58629630D01*
X-1156402892Y58557625D01*
X-1156429165Y58472217D01*
X-1156444690Y58423771D01*
X-1156487098Y58307940D01*
X-1156531505Y58202518D01*
X-1156556790Y58144647D01*
X-1156582677Y58075405D01*
X-1156592709Y58033602D01*
X-1156594720Y58017057D01*
X-1156611483Y57996749D01*
X-1156626162Y57978672D01*
X-1156650635Y57924407D01*
X-1156678232Y57846601D01*
X-1156703470Y57775451D01*
X-1156729246Y57718349D01*
X-1156747044Y57696453D01*
X-1156756237Y57692715D01*
X-1156767882Y57660241D01*
X-1156770812Y57643349D01*
X-1156791501Y57586628D01*
X-1156825490Y57515682D01*
X-1156838860Y57489952D01*
X-1156884965Y57394674D01*
X-1156923026Y57307546D01*
X-1156934590Y57281191D01*
X-1156975093Y57200798D01*
X-1157029932Y57101024D01*
X-1157090640Y56997530D01*
X-1157125058Y56940076D01*
X-1157173082Y56856757D01*
X-1157206067Y56795343D01*
X-1157218325Y56766137D01*
X-1157222043Y56755090D01*
X-1157246590Y56707674D01*
X-1157289041Y56634252D01*
X-1157343448Y56545320D01*
X-1157373653Y56496483D01*
X-1157422418Y56414428D01*
X-1157456041Y56353433D01*
X-1157468571Y56324027D01*
X-1157468723Y56322290D01*
X-1157486890Y56288461D01*
X-1157526120Y56240286D01*
X-1157548742Y56213158D01*
X-1157599745Y56144957D01*
X-1157663204Y56054872D01*
X-1157730378Y55955105D01*
X-1157768416Y55897725D01*
X-1157844503Y55785110D01*
X-1157916599Y55680817D01*
X-1157973125Y55601709D01*
X-1158019037Y55536524D01*
X-1158055276Y55478836D01*
X-1158069162Y55447820D01*
X-1158069898Y55443369D01*
X-1158090744Y55401199D01*
X-1158136454Y55328434D01*
X-1158201850Y55232100D01*
X-1158281759Y55119224D01*
X-1158371003Y54996832D01*
X-1158464407Y54871951D01*
X-1158556795Y54751607D01*
X-1158642992Y54642828D01*
X-1158717822Y54552640D01*
X-1158776108Y54488069D01*
X-1158804339Y54454946D01*
X-1158820570Y54424483D01*
X-1158831364Y54404276D01*
X-1158867807Y54355916D01*
X-1158920976Y54293104D01*
X-1158965527Y54242393D01*
X-1159017932Y54181625D01*
X-1159050060Y54142956D01*
X-1159072350Y54116048D01*
X-1159121427Y54059329D01*
X-1159181133Y53991976D01*
X-1159224659Y53942541D01*
X-1159307442Y53845448D01*
X-1159382491Y53754242D01*
X-1159402498Y53729811D01*
X-1159475561Y53644940D01*
X-1159563510Y53547090D01*
X-1159651506Y53452884D01*
X-1159696734Y53404678D01*
X-1159760649Y53332771D01*
X-1159804562Y53278324D01*
X-1159820887Y53250408D01*
X-1159826601Y53241932D01*
X-1159862229Y53202502D01*
X-1159926315Y53135869D01*
X-1160014009Y53046799D01*
X-1160120459Y52940063D01*
X-1160240815Y52820429D01*
X-1160370227Y52692664D01*
X-1160503842Y52561538D01*
X-1160636810Y52431819D01*
X-1160764281Y52308276D01*
X-1160881403Y52195677D01*
X-1160983325Y52098791D01*
X-1161065197Y52022385D01*
X-1161122167Y51971230D01*
X-1161166124Y51932632D01*
X-1161246365Y51860198D01*
X-1161325529Y51786922D01*
X-1161379515Y51737132D01*
X-1161490724Y51637653D01*
X-1161633095Y51512915D01*
X-1161802088Y51366835D01*
X-1161993166Y51203330D01*
X-1162201788Y51026314D01*
X-1162423416Y50839705D01*
X-1162491334Y50782636D01*
X-1162590093Y50699423D01*
X-1162675780Y50626995D01*
X-1162906908Y50438487D01*
X-1163140710Y50263492D01*
X-1163357216Y50118010D01*
X-1163549556Y50006918D01*
X-1163583156Y49990071D01*
X-1163667756Y49956551D01*
X-1163744583Y49946046D01*
X-1163825800Y49960025D01*
X-1163923569Y49999953D01*
X-1164050049Y50067298D01*
X-1164056495Y50070964D01*
X-1164118188Y50108206D01*
X-1164192125Y50155334D01*
X-1164264600Y50203301D01*
X-1164321909Y50243057D01*
X-1164350345Y50265555D01*
X-1164366573Y50279062D01*
X-1164414989Y50314471D01*
X-1164481724Y50360834D01*
X-1164532012Y50397302D01*
X-1164581460Y50439600D01*
X-1164600591Y50465537D01*
X-1164602100Y50473147D01*
X-1164629277Y50489360D01*
X-1164657169Y50502053D01*
X-1164711556Y50540502D01*
X-1164778142Y50595714D01*
X-1164849667Y50657852D01*
X-1164949180Y50742185D01*
X-1165043496Y50820235D01*
X-1165057070Y50831298D01*
X-1165152714Y50909735D01*
X-1165261995Y50999960D01*
X-1165363842Y51084587D01*
X-1165396088Y51111466D01*
X-1165480752Y51181770D01*
X-1165552804Y51241239D01*
X-1165599360Y51279228D01*
X-1165600824Y51280407D01*
X-1165650988Y51322346D01*
X-1165722799Y51384122D01*
X-1165801222Y51452808D01*
X-1165801936Y51453439D01*
X-1165883065Y51524483D01*
X-1165959990Y51590717D01*
X-1166016147Y51637878D01*
X-1166035031Y51653547D01*
X-1166064058Y51678568D01*
X-1166100842Y51711440D01*
X-1166148945Y51755495D01*
X-1166211927Y51814066D01*
X-1166293350Y51890486D01*
X-1166396775Y51988086D01*
X-1166525764Y52110201D01*
X-1166683877Y52260162D01*
X-1166874676Y52441302D01*
X-1167010182Y52571473D01*
X-1167622986Y53199031D01*
X-1168199933Y53855229D01*
X-1168227091Y53887754D01*
X-1168280982Y53952198D01*
X-1168351447Y54036410D01*
X-1168430214Y54130500D01*
X-1168544372Y54267784D01*
X-1168670674Y54422110D01*
X-1168781774Y54560559D01*
X-1168874210Y54678696D01*
X-1168944522Y54772085D01*
X-1168989248Y54836291D01*
X-1169004926Y54866879D01*
X-1169005693Y54874285D01*
X-1169024577Y54893695D01*
X-1169025602Y54893871D01*
X-1169050929Y54917377D01*
X-1169099530Y54976490D01*
X-1169167446Y55065585D01*
X-1169250719Y55179034D01*
X-1169345392Y55311211D01*
X-1169447506Y55456489D01*
X-1169553103Y55609242D01*
X-1169658225Y55763842D01*
X-1169758914Y55914664D01*
X-1169851212Y56056080D01*
X-1169931160Y56182463D01*
X-1169988411Y56274420D01*
X-1170049692Y56371764D01*
X-1170099149Y56449163D01*
X-1170129587Y56495271D01*
X-1170138151Y56508133D01*
X-1170179522Y56578796D01*
X-1170219932Y56657931D01*
X-1170222275Y56662891D01*
X-1170259919Y56737629D01*
X-1170311386Y56834266D01*
X-1170366256Y56933202D01*
X-1170458210Y57098280D01*
X-1170526497Y57228189D01*
X-1170567589Y57316689D01*
X-1170581373Y57363551D01*
X-1170589205Y57394889D01*
X-1170614369Y57457886D01*
X-1170650846Y57537462D01*
X-1170692396Y57621114D01*
X-1170732776Y57696343D01*
X-1170765747Y57750648D01*
X-1170785066Y57771527D01*
X-1170792991Y57773704D01*
X-1170806928Y57802808D01*
X-1170812024Y57825307D01*
X-1170834472Y57884388D01*
X-1170868707Y57959212D01*
X-1170892457Y58010648D01*
X-1170919990Y58081398D01*
X-1170931040Y58126651D01*
X-1170934142Y58148599D01*
X-1170954010Y58182680D01*
X-1170957907Y58186227D01*
X-1170977041Y58226160D01*
X-1170993787Y58290512D01*
X-1170996555Y58304535D01*
X-1171013398Y58370058D01*
X-1171029831Y58409655D01*
X-1171039323Y58426910D01*
X-1171064636Y58491609D01*
X-1171096853Y58589056D01*
X-1171133041Y58708743D01*
X-1171170266Y58840162D01*
X-1171205594Y58972805D01*
X-1171236092Y59096165D01*
X-1171258826Y59199735D01*
X-1171270863Y59273005D01*
X-1171276212Y59312733D01*
X-1171289424Y59393600D01*
X-1171306202Y59485714D01*
X-1171319244Y59554940D01*
X-1171332730Y59629674D01*
X-1171339864Y59673399D01*
X-1171343257Y59690192D01*
X-1171359636Y59723448D01*
X-1171361466Y59726720D01*
X-1171371148Y59767075D01*
X-1171384594Y59845059D01*
X-1171400279Y59951228D01*
X-1171416674Y60076137D01*
X-1171418597Y60092050D01*
X-1171426388Y60166176D01*
X-1171433406Y60251628D01*
X-1171439746Y60351926D01*
X-1171445503Y60470590D01*
X-1171450769Y60611141D01*
X-1171455642Y60777100D01*
X-1171460214Y60971985D01*
X-1171464580Y61199318D01*
X-1171468835Y61462618D01*
X-1171473074Y61765406D01*
X-1171477392Y62111202D01*
X-1171481881Y62503527D01*
X-1171482851Y62590697D01*
X-1171486706Y62927556D01*
X-1171490692Y63261632D01*
X-1171494736Y63587672D01*
X-1171498768Y63900425D01*
X-1171502715Y64194640D01*
X-1171506507Y64465065D01*
X-1171510071Y64706450D01*
X-1171513336Y64913541D01*
X-1171516230Y65081090D01*
X-1171518683Y65203843D01*
X-1171521209Y65331881D01*
X-1171524239Y65533458D01*
X-1171526853Y65764949D01*
X-1171529058Y66022356D01*
X-1171530862Y66301682D01*
X-1171532274Y66598927D01*
X-1171533301Y66910094D01*
X-1171533951Y67231184D01*
X-1171534233Y67558200D01*
X-1171534206Y67668859D01*
X-1171352295Y67668859D01*
X-1171352084Y67199625D01*
X-1171351214Y66724276D01*
X-1171349719Y66245488D01*
X-1171347632Y65765935D01*
X-1171344985Y65288292D01*
X-1171341813Y64815232D01*
X-1171338147Y64349430D01*
X-1171334023Y63893561D01*
X-1171329472Y63450299D01*
X-1171324528Y63022318D01*
X-1171319224Y62612294D01*
X-1171313594Y62222900D01*
X-1171307670Y61856811D01*
X-1171301486Y61516701D01*
X-1171295075Y61205245D01*
X-1171288470Y60925117D01*
X-1171281705Y60678991D01*
X-1171274813Y60469543D01*
X-1171267826Y60299446D01*
X-1171260778Y60171375D01*
X-1171253703Y60088005D01*
X-1171246633Y60052009D01*
X-1171245510Y60050053D01*
X-1171237450Y60027813D01*
X-1171227835Y59985583D01*
X-1171215673Y59917436D01*
X-1171199972Y59817446D01*
X-1171179743Y59679685D01*
X-1171153992Y59498227D01*
X-1171151974Y59484220D01*
X-1171136123Y59391954D01*
X-1171119622Y59320412D01*
X-1171105734Y59284084D01*
X-1171093987Y59262265D01*
X-1171071170Y59201327D01*
X-1171047159Y59121423D01*
X-1171042774Y59105345D01*
X-1171014969Y59007923D01*
X-1170979827Y58889627D01*
X-1170943873Y58772512D01*
X-1170935020Y58744182D01*
X-1170899746Y58630369D01*
X-1170867420Y58524790D01*
X-1170844100Y58447192D01*
X-1170781080Y58252059D01*
X-1170702457Y58053327D01*
X-1170688953Y58021311D01*
X-1170665735Y57961155D01*
X-1170656552Y57929042D01*
X-1170652313Y57915761D01*
X-1170629553Y57864271D01*
X-1170591386Y57784213D01*
X-1170542683Y57685320D01*
X-1170488311Y57577324D01*
X-1170433141Y57469960D01*
X-1170382041Y57372961D01*
X-1170339882Y57296059D01*
X-1170338864Y57294262D01*
X-1170293815Y57213494D01*
X-1170237539Y57110916D01*
X-1170181968Y57008276D01*
X-1170177806Y57000535D01*
X-1170124320Y56902683D01*
X-1170073066Y56811395D01*
X-1170034611Y56745517D01*
X-1170024979Y56729555D01*
X-1169987675Y56665357D01*
X-1169963652Y56620394D01*
X-1169958169Y56609726D01*
X-1169926113Y56554414D01*
X-1169874442Y56469735D01*
X-1169808999Y56364929D01*
X-1169735629Y56249232D01*
X-1169660176Y56131884D01*
X-1169588484Y56022123D01*
X-1169526397Y55929187D01*
X-1169504273Y55896329D01*
X-1169453675Y55818616D01*
X-1169418503Y55760790D01*
X-1169405320Y55733459D01*
X-1169400745Y55719436D01*
X-1169374039Y55682250D01*
X-1169370147Y55677813D01*
X-1169337120Y55634775D01*
X-1169287397Y55565438D01*
X-1169230148Y55482529D01*
X-1169198376Y55436117D01*
X-1169122690Y55327882D01*
X-1169039310Y55211011D01*
X-1168955485Y55095455D01*
X-1168878463Y54991161D01*
X-1168815491Y54908079D01*
X-1168773818Y54856158D01*
X-1168772165Y54854233D01*
X-1168738283Y54812766D01*
X-1168681916Y54741929D01*
X-1168610513Y54651140D01*
X-1168531524Y54549818D01*
X-1168493711Y54501216D01*
X-1168426904Y54416203D01*
X-1168363169Y54336728D01*
X-1168297313Y54256661D01*
X-1168224139Y54169874D01*
X-1168138453Y54070236D01*
X-1168035058Y53951618D01*
X-1167908760Y53807891D01*
X-1167754363Y53632924D01*
X-1167636553Y53502496D01*
X-1167491144Y53346556D01*
X-1167327276Y53174694D01*
X-1167150784Y52992754D01*
X-1166967504Y52806580D01*
X-1166783270Y52622016D01*
X-1166603917Y52444907D01*
X-1166435281Y52281096D01*
X-1166283196Y52136429D01*
X-1166153497Y52016748D01*
X-1166052020Y51927899D01*
X-1165963683Y51853231D01*
X-1165856142Y51760627D01*
X-1165760116Y51676223D01*
X-1165689162Y51611831D01*
X-1165645220Y51571805D01*
X-1165554158Y51492132D01*
X-1165448557Y51402478D01*
X-1165343423Y51315698D01*
X-1165266680Y51253415D01*
X-1165179839Y51182908D01*
X-1165111212Y51127157D01*
X-1165071126Y51094549D01*
X-1165026555Y51057383D01*
X-1164958609Y50999798D01*
X-1164882263Y50934479D01*
X-1164822353Y50884611D01*
X-1164724521Y50805922D01*
X-1164604416Y50711129D01*
X-1164471535Y50607623D01*
X-1164335373Y50502796D01*
X-1164205425Y50404037D01*
X-1164091188Y50318739D01*
X-1164063104Y50299173D01*
X-1163981028Y50248001D01*
X-1163894477Y50199872D01*
X-1163849485Y50178369D01*
X-1163778724Y50151184D01*
X-1163731817Y50141702D01*
X-1163717111Y50144462D01*
X-1163655243Y50169512D01*
X-1163570425Y50214262D01*
X-1163475039Y50271106D01*
X-1163381462Y50332438D01*
X-1163302076Y50390654D01*
X-1163249261Y50438147D01*
X-1163231666Y50453073D01*
X-1163182918Y50490494D01*
X-1163116452Y50539568D01*
X-1163014295Y50615831D01*
X-1162859629Y50736538D01*
X-1162702122Y50864419D01*
X-1162561084Y50984020D01*
X-1162556277Y50988216D01*
X-1162470810Y51062572D01*
X-1162411449Y51113205D01*
X-1162367218Y51149016D01*
X-1162327140Y51178906D01*
X-1162280241Y51211777D01*
X-1162247695Y51235393D01*
X-1162170885Y51295597D01*
X-1162094073Y51360183D01*
X-1162042639Y51405317D01*
X-1161904158Y51526627D01*
X-1161789358Y51626764D01*
X-1161687793Y51714787D01*
X-1161589022Y51799759D01*
X-1161482602Y51890739D01*
X-1161404548Y51960012D01*
X-1161290317Y52066227D01*
X-1161152594Y52197744D01*
X-1160997151Y52348786D01*
X-1160829761Y52513574D01*
X-1160656195Y52686330D01*
X-1160482227Y52861275D01*
X-1160313628Y53032633D01*
X-1160156171Y53194625D01*
X-1160015628Y53341472D01*
X-1159897772Y53467398D01*
X-1159808374Y53566622D01*
X-1159800347Y53575817D01*
X-1159706688Y53682330D01*
X-1159615613Y53784671D01*
X-1159537172Y53871612D01*
X-1159481416Y53931923D01*
X-1159439422Y53977248D01*
X-1159321459Y54113002D01*
X-1159194173Y54269485D01*
X-1159070148Y54431415D01*
X-1159037189Y54474548D01*
X-1158960702Y54568540D01*
X-1158888719Y54650579D01*
X-1158851021Y54692508D01*
X-1158810581Y54741933D01*
X-1158794877Y54767835D01*
X-1158794876Y54767889D01*
X-1158779390Y54796005D01*
X-1158742350Y54840539D01*
X-1158721255Y54864454D01*
X-1158671123Y54925429D01*
X-1158608949Y55004120D01*
X-1158541934Y55091048D01*
X-1158477276Y55176731D01*
X-1158422177Y55251689D01*
X-1158383838Y55306441D01*
X-1158369458Y55331508D01*
X-1158355851Y55356259D01*
X-1158320326Y55398968D01*
X-1158318685Y55400740D01*
X-1158260026Y55472086D01*
X-1158181656Y55578603D01*
X-1158088699Y55712391D01*
X-1157986281Y55865550D01*
X-1157879527Y56030180D01*
X-1157773561Y56198382D01*
X-1157673510Y56362256D01*
X-1157584498Y56513901D01*
X-1157511651Y56645419D01*
X-1157497951Y56670940D01*
X-1157446352Y56762469D01*
X-1157400191Y56837970D01*
X-1157368097Y56883153D01*
X-1157364206Y56887736D01*
X-1157345000Y56914477D01*
X-1157320645Y56955600D01*
X-1157288546Y57016300D01*
X-1157246109Y57101776D01*
X-1157190741Y57217222D01*
X-1157119847Y57367838D01*
X-1157030834Y57558818D01*
X-1157016410Y57589828D01*
X-1156969899Y57689474D01*
X-1156929584Y57775367D01*
X-1156902889Y57831677D01*
X-1156878262Y57892810D01*
X-1156867980Y57938032D01*
X-1156866378Y57951638D01*
X-1156849212Y57972011D01*
X-1156829751Y57988912D01*
X-1156797163Y58043512D01*
X-1156758159Y58125081D01*
X-1156717363Y58222489D01*
X-1156679399Y58324607D01*
X-1156648893Y58420305D01*
X-1156630469Y58498452D01*
X-1156624912Y58528886D01*
X-1156608538Y58596324D01*
X-1156593143Y58634877D01*
X-1156589182Y58641527D01*
X-1156572094Y58690264D01*
X-1156556196Y58760000D01*
X-1156552384Y58779624D01*
X-1156535266Y58845910D01*
X-1156518540Y58885123D01*
X-1156501232Y58923310D01*
X-1156485457Y58985222D01*
X-1156473207Y59045380D01*
X-1156452948Y59135918D01*
X-1156429407Y59235468D01*
X-1156407514Y59330521D01*
X-1156383834Y59443969D01*
X-1156367175Y59535764D01*
X-1156360316Y59577258D01*
X-1156345286Y59656991D01*
X-1156332665Y59710936D01*
X-1156325152Y59743290D01*
X-1156310930Y59831695D01*
X-1156295335Y59955552D01*
X-1156279308Y60105802D01*
X-1156263787Y60273388D01*
X-1156249709Y60449252D01*
X-1156238015Y60624335D01*
X-1156236909Y60643920D01*
X-1156231337Y60770920D01*
X-1156225687Y60944890D01*
X-1156219992Y61163268D01*
X-1156214284Y61423489D01*
X-1156208594Y61722989D01*
X-1156202955Y62059205D01*
X-1156197397Y62429572D01*
X-1156191954Y62831526D01*
X-1156186656Y63262504D01*
X-1156181536Y63719942D01*
X-1156176625Y64201275D01*
X-1156171955Y64703939D01*
X-1156167558Y65225372D01*
X-1156163467Y65763008D01*
X-1156159711Y66314284D01*
X-1156156324Y66876637D01*
X-1156153338Y67447501D01*
X-1156151170Y67891221D01*
X-1156149198Y68301724D01*
X-1156147611Y68667442D01*
X-1156146527Y68991048D01*
X-1156146067Y69275214D01*
X-1156146348Y69522610D01*
X-1156147491Y69735910D01*
X-1156149615Y69917784D01*
X-1156152838Y70070906D01*
X-1156157281Y70197946D01*
X-1156163062Y70301576D01*
X-1156170300Y70384469D01*
X-1156179115Y70449296D01*
X-1156189627Y70498729D01*
X-1156201953Y70535439D01*
X-1156216214Y70562100D01*
X-1156232529Y70581382D01*
X-1156251017Y70595957D01*
X-1156271797Y70608497D01*
X-1156294988Y70621675D01*
X-1156299418Y70624233D01*
X-1156308719Y70628947D01*
X-1156320376Y70633342D01*
X-1156336093Y70637429D01*
X-1156357572Y70641222D01*
X-1156386517Y70644735D01*
X-1156424631Y70647979D01*
X-1156473618Y70650968D01*
X-1156535181Y70653716D01*
X-1156611023Y70656234D01*
X-1156702847Y70658536D01*
X-1156812358Y70660635D01*
X-1156941258Y70662543D01*
X-1157091250Y70664275D01*
X-1157264039Y70665842D01*
X-1157461327Y70667258D01*
X-1157684817Y70668536D01*
X-1157936213Y70669688D01*
X-1158217219Y70670729D01*
X-1158529537Y70671670D01*
X-1158874871Y70672524D01*
X-1159254924Y70673305D01*
X-1159671400Y70674026D01*
X-1160126002Y70674700D01*
X-1160620433Y70675338D01*
X-1161156396Y70675956D01*
X-1161735596Y70676565D01*
X-1162359735Y70677178D01*
X-1163030516Y70677809D01*
X-1163749643Y70678471D01*
X-1163925065Y70678629D01*
X-1164690369Y70679249D01*
X-1165406927Y70679709D01*
X-1166075808Y70680006D01*
X-1166698079Y70680137D01*
X-1167274808Y70680099D01*
X-1167807064Y70679890D01*
X-1168295915Y70679505D01*
X-1168742428Y70678941D01*
X-1169147671Y70678197D01*
X-1169512712Y70677268D01*
X-1169838620Y70676152D01*
X-1170126462Y70674846D01*
X-1170377307Y70673346D01*
X-1170592222Y70671649D01*
X-1170772275Y70669753D01*
X-1170918534Y70667654D01*
X-1171032068Y70665350D01*
X-1171113944Y70662837D01*
X-1171165230Y70660112D01*
X-1171186995Y70657172D01*
X-1171244894Y70620491D01*
X-1171299716Y70562839D01*
X-1171305075Y70554092D01*
X-1171312540Y70536958D01*
X-1171319040Y70512589D01*
X-1171324656Y70477692D01*
X-1171329468Y70428973D01*
X-1171333556Y70363139D01*
X-1171337000Y70276897D01*
X-1171339881Y70166953D01*
X-1171342279Y70030013D01*
X-1171344274Y69862785D01*
X-1171345946Y69661975D01*
X-1171347375Y69424289D01*
X-1171348642Y69146434D01*
X-1171349828Y68825117D01*
X-1171351011Y68457045D01*
X-1171351814Y68129305D01*
X-1171352295Y67668859D01*
X-1171534206Y67668859D01*
X-1171534154Y67887143D01*
X-1171533723Y68214015D01*
X-1171532947Y68534819D01*
X-1171531834Y68845555D01*
X-1171530394Y69142226D01*
X-1171528632Y69420833D01*
X-1171526559Y69677379D01*
X-1171524180Y69907866D01*
X-1171521506Y70108294D01*
X-1171518543Y70274666D01*
X-1171515299Y70402984D01*
X-1171511783Y70489250D01*
X-1171508003Y70529465D01*
X-1171498253Y70566024D01*
X-1171454511Y70673190D01*
X-1171389889Y70748885D01*
X-1171293403Y70807332D01*
X-1171182614Y70859409D01*
X-1163742805Y70859409D01*
X-1163582277Y70859409D01*
X-1162869985Y70859400D01*
X-1162205678Y70859372D01*
X-1161587661Y70859312D01*
X-1161014237Y70859210D01*
X-1160483709Y70859056D01*
X-1159994381Y70858838D01*
X-1159544556Y70858546D01*
X-1159132538Y70858168D01*
X-1158756630Y70857695D01*
X-1158415136Y70857115D01*
X-1158106359Y70856418D01*
X-1157828602Y70855593D01*
X-1157580170Y70854628D01*
X-1157359365Y70853513D01*
X-1157164491Y70852238D01*
X-1156993852Y70850792D01*
X-1156845751Y70849163D01*
X-1156718491Y70847341D01*
X-1156610377Y70845315D01*
X-1156519711Y70843075D01*
X-1156444797Y70840609D01*
X-1156383938Y70837908D01*
X-1156335439Y70834959D01*
X-1156297601Y70831752D01*
X-1156268730Y70828277D01*
X-1156247128Y70824522D01*
X-1156231099Y70820477D01*
X-1156218947Y70816131D01*
X-1156208974Y70811474D01*
X-1156125816Y70765527D01*
X-1156071767Y70720961D01*
X-1156036331Y70663328D01*
X-1156005415Y70576351D01*
X-1155999760Y70555000D01*
X-1155994546Y70526697D01*
X-1155989914Y70489399D01*
X-1155985841Y70440540D01*
X-1155982304Y70377553D01*
X-1155979281Y70297874D01*
X-1155976749Y70198936D01*
X-1155974685Y70078174D01*
X-1155973068Y69933021D01*
X-1155971874Y69760912D01*
X-1155971081Y69559281D01*
X-1155970666Y69325562D01*
X-1155970655Y69275214D01*
X-1155970607Y69057189D01*
G37*
G36*
X-1163799803Y50201577D02*
G01*
X-1163812315Y50189064D01*
X-1163824827Y50201577D01*
X-1163812315Y50214089D01*
X-1163799803Y50201577D01*
G37*
G36*
X-1156521475Y65146090D02*
G01*
X-1156522546Y64577164D01*
X-1156523967Y64052867D01*
X-1156525776Y63571168D01*
X-1156528013Y63130034D01*
X-1156530717Y62727433D01*
X-1156533927Y62361331D01*
X-1156537682Y62029697D01*
X-1156542020Y61730498D01*
X-1156546981Y61461701D01*
X-1156552605Y61221274D01*
X-1156558929Y61007185D01*
X-1156565993Y60817400D01*
X-1156573837Y60649888D01*
X-1156582498Y60502617D01*
X-1156592017Y60373552D01*
X-1156602432Y60260663D01*
X-1156613782Y60161916D01*
X-1156622037Y60103888D01*
X-1156626107Y60075279D01*
X-1156639444Y59998719D01*
X-1156654234Y59920504D01*
X-1156679122Y59785088D01*
X-1156704557Y59643041D01*
X-1156728080Y59508316D01*
X-1156747236Y59394865D01*
X-1156759566Y59316641D01*
X-1156762031Y59301418D01*
X-1156777700Y59240554D01*
X-1156795550Y59208810D01*
X-1156810419Y59182397D01*
X-1156817807Y59127637D01*
X-1156817988Y59120304D01*
X-1156831070Y59041579D01*
X-1156862770Y58925904D01*
X-1156910187Y58780378D01*
X-1156970419Y58612102D01*
X-1157040564Y58428177D01*
X-1157117718Y58235701D01*
X-1157198980Y58041777D01*
X-1157281447Y57853503D01*
X-1157362217Y57677981D01*
X-1157438388Y57522311D01*
X-1157507056Y57393592D01*
X-1157565321Y57298926D01*
X-1157566758Y57296831D01*
X-1157601846Y57238640D01*
X-1157644906Y57158112D01*
X-1157689539Y57068496D01*
X-1157729343Y56983039D01*
X-1157757919Y56914990D01*
X-1157768867Y56877596D01*
X-1157773235Y56863493D01*
X-1157806404Y56836566D01*
X-1157823763Y56825975D01*
X-1157843941Y56787718D01*
X-1157855372Y56755179D01*
X-1157892218Y56709584D01*
X-1157892817Y56709038D01*
X-1157938424Y56655004D01*
X-1157980496Y56586838D01*
X-1157983301Y56581384D01*
X-1158023654Y56510253D01*
X-1158085989Y56407956D01*
X-1158164445Y56283505D01*
X-1158253160Y56145916D01*
X-1158346272Y56004200D01*
X-1158437919Y55867372D01*
X-1158522240Y55744446D01*
X-1158593373Y55644434D01*
X-1158644310Y55572718D01*
X-1158698592Y55491807D01*
X-1158735427Y55431724D01*
X-1158769342Y55377201D01*
X-1158854122Y55264693D01*
X-1158971786Y55127902D01*
X-1159004939Y55085371D01*
X-1159020410Y55052828D01*
X-1159028912Y55034450D01*
X-1159063016Y54986747D01*
X-1159114253Y54925063D01*
X-1159147850Y54886176D01*
X-1159217952Y54802988D01*
X-1159300186Y54703721D01*
X-1159382955Y54602306D01*
X-1159431435Y54543038D01*
X-1159524789Y54431606D01*
X-1159615551Y54326164D01*
X-1159689507Y54243355D01*
X-1159703658Y54227922D01*
X-1159763237Y54160740D01*
X-1159805087Y54109942D01*
X-1159820887Y54085525D01*
X-1159820952Y54084716D01*
X-1159838336Y54056326D01*
X-1159877192Y54011745D01*
X-1159880696Y54008086D01*
X-1159922548Y53963204D01*
X-1159988385Y53891508D01*
X-1160069883Y53802093D01*
X-1160158719Y53704056D01*
X-1160160878Y53701667D01*
X-1160257269Y53596708D01*
X-1160353784Y53494445D01*
X-1160439328Y53406476D01*
X-1160502808Y53344396D01*
X-1160559477Y53287693D01*
X-1160604441Y53233832D01*
X-1160621675Y53200505D01*
X-1160623452Y53187026D01*
X-1160642591Y53166995D01*
X-1160647560Y53164485D01*
X-1160682909Y53135615D01*
X-1160746212Y53078523D01*
X-1160831991Y52998306D01*
X-1160934768Y52900061D01*
X-1161049062Y52788883D01*
X-1161081275Y52757324D01*
X-1161199934Y52641625D01*
X-1161310178Y52534938D01*
X-1161405203Y52443798D01*
X-1161478205Y52374738D01*
X-1161522382Y52334294D01*
X-1161644058Y52227744D01*
X-1161782995Y52104735D01*
X-1161905342Y51994936D01*
X-1162003941Y51904777D01*
X-1162071637Y51840690D01*
X-1162129846Y51786581D01*
X-1162232356Y51697104D01*
X-1162366424Y51584241D01*
X-1162527549Y51451774D01*
X-1162711231Y51303480D01*
X-1162795526Y51234933D01*
X-1162905869Y51143183D01*
X-1163003275Y51060263D01*
X-1163036829Y51031356D01*
X-1163234786Y50868962D01*
X-1163424433Y50728810D01*
X-1163453308Y50707889D01*
X-1163533938Y50645057D01*
X-1163612118Y50579429D01*
X-1163651730Y50545749D01*
X-1163703313Y50506133D01*
X-1163731522Y50490299D01*
X-1163732550Y50490322D01*
X-1163766178Y50504252D01*
X-1163823962Y50536958D01*
X-1163890425Y50578742D01*
X-1163950092Y50619902D01*
X-1163987488Y50650738D01*
X-1164017930Y50679513D01*
X-1164083031Y50734506D01*
X-1164161234Y50796344D01*
X-1164236692Y50852217D01*
X-1164253480Y50864333D01*
X-1164324586Y50918549D01*
X-1164397518Y50977340D01*
X-1164423178Y50998601D01*
X-1164482432Y51046665D01*
X-1164522125Y51077439D01*
X-1164550395Y51100607D01*
X-1164606039Y51149919D01*
X-1164672505Y51211219D01*
X-1164728764Y51261270D01*
X-1164801485Y51319102D01*
X-1164857093Y51355753D01*
X-1164858298Y51356382D01*
X-1164906152Y51386657D01*
X-1164926110Y51409658D01*
X-1164930610Y51417059D01*
X-1164965395Y51450791D01*
X-1165027075Y51502832D01*
X-1165106650Y51565419D01*
X-1165120112Y51575763D01*
X-1165227919Y51662258D01*
X-1165339406Y51756796D01*
X-1165432456Y51840690D01*
X-1165477727Y51883080D01*
X-1165575310Y51972855D01*
X-1165684759Y52072097D01*
X-1165789823Y52166010D01*
X-1165854059Y52223768D01*
X-1166000902Y52360334D01*
X-1166169106Y52521537D01*
X-1166352895Y52701479D01*
X-1166546492Y52894260D01*
X-1166744123Y53093982D01*
X-1166940010Y53294746D01*
X-1167128377Y53490653D01*
X-1167303449Y53675804D01*
X-1167459450Y53844301D01*
X-1167590603Y53990245D01*
X-1167691133Y54107736D01*
X-1167701342Y54120073D01*
X-1167772021Y54203142D01*
X-1167857450Y54300832D01*
X-1167941379Y54394518D01*
X-1167968066Y54423959D01*
X-1168038317Y54502466D01*
X-1168095439Y54567689D01*
X-1168129064Y54607844D01*
X-1168217396Y54721540D01*
X-1168289983Y54815193D01*
X-1168336583Y54875647D01*
X-1168359752Y54906207D01*
X-1168379065Y54930663D01*
X-1168422727Y54984064D01*
X-1168478569Y55051307D01*
X-1168525506Y55110014D01*
X-1168597307Y55204332D01*
X-1168678536Y55314416D01*
X-1168759041Y55426677D01*
X-1168764690Y55434682D01*
X-1168833948Y55532106D01*
X-1168892631Y55613410D01*
X-1168934697Y55670301D01*
X-1168954105Y55694483D01*
X-1168956703Y55697184D01*
X-1168982214Y55731135D01*
X-1169026981Y55795044D01*
X-1169085060Y55880007D01*
X-1169150509Y55977117D01*
X-1169217384Y56077468D01*
X-1169279744Y56172155D01*
X-1169331644Y56252272D01*
X-1169367142Y56308912D01*
X-1169380295Y56333169D01*
X-1169392127Y56356155D01*
X-1169426475Y56408476D01*
X-1169475453Y56477571D01*
X-1169519438Y56540454D01*
X-1169574904Y56626751D01*
X-1169613780Y56695468D01*
X-1169619784Y56707620D01*
X-1169652982Y56773931D01*
X-1169677005Y56820591D01*
X-1169686442Y56838557D01*
X-1169716763Y56897363D01*
X-1169754175Y56970739D01*
X-1169803193Y57067104D01*
X-1169858777Y57174947D01*
X-1169898374Y57249057D01*
X-1169925682Y57296042D01*
X-1169944404Y57322509D01*
X-1169958240Y57335066D01*
X-1169977118Y57357142D01*
X-1170004171Y57406862D01*
X-1170025463Y57459920D01*
X-1170030558Y57493458D01*
X-1170030228Y57496156D01*
X-1170047567Y57518483D01*
X-1170055356Y57525474D01*
X-1170087978Y57570207D01*
X-1170117915Y57626780D01*
X-1170131034Y57669608D01*
X-1170133397Y57679983D01*
X-1170151875Y57729531D01*
X-1170184706Y57807202D01*
X-1170227095Y57901425D01*
X-1170240886Y57931531D01*
X-1170291043Y58044690D01*
X-1170336513Y58152274D01*
X-1170368867Y58234483D01*
X-1170387085Y58282013D01*
X-1170415474Y58347618D01*
X-1170435466Y58383379D01*
X-1170445600Y58400607D01*
X-1170456355Y58452197D01*
X-1170460343Y58476520D01*
X-1170481379Y58497242D01*
X-1170497649Y58512008D01*
X-1170506404Y58558326D01*
X-1170512198Y58600442D01*
X-1170532092Y58635287D01*
X-1170539616Y58641442D01*
X-1170553170Y58680557D01*
X-1170553845Y58705735D01*
X-1170567364Y58760000D01*
X-1170589561Y58821260D01*
X-1170630769Y58952089D01*
X-1170654829Y59057172D01*
X-1170659332Y59126897D01*
X-1170660082Y59148826D01*
X-1170680379Y59184679D01*
X-1170682294Y59186088D01*
X-1170699524Y59223461D01*
X-1170706601Y59285517D01*
X-1170706668Y59292118D01*
X-1170713762Y59351857D01*
X-1170728982Y59383982D01*
X-1170734989Y59390735D01*
X-1170752257Y59435640D01*
X-1170766230Y59504326D01*
X-1170769041Y59524021D01*
X-1170782088Y59607827D01*
X-1170793801Y59673399D01*
X-1170801076Y59719308D01*
X-1170811240Y59803038D01*
X-1170820670Y59898621D01*
X-1170829762Y59979110D01*
X-1170843545Y60060670D01*
X-1170854508Y60100069D01*
X-1169849832Y60100069D01*
X-1169839328Y60056046D01*
X-1169805652Y59990768D01*
X-1169788700Y59960714D01*
X-1169746805Y59892210D01*
X-1169714410Y59846601D01*
X-1169695175Y59820601D01*
X-1169680591Y59787343D01*
X-1169678618Y59780357D01*
X-1169654510Y59741543D01*
X-1169611773Y59687515D01*
X-1169567003Y59634820D01*
X-1169499668Y59554574D01*
X-1169430630Y59471502D01*
X-1169406363Y59442579D01*
X-1169301091Y59323739D01*
X-1169175594Y59189850D01*
X-1169038731Y59049704D01*
X-1168899359Y58912090D01*
X-1168766338Y58785800D01*
X-1168648525Y58679623D01*
X-1168554778Y58602351D01*
X-1168515506Y58572155D01*
X-1168428922Y58503305D01*
X-1168357621Y58443617D01*
X-1168314073Y58403399D01*
X-1168269259Y58363736D01*
X-1168235613Y58347094D01*
X-1168215329Y58339983D01*
X-1168177065Y58307089D01*
X-1168170885Y58300564D01*
X-1168125475Y58263074D01*
X-1168053523Y58210897D01*
X-1167967548Y58153227D01*
X-1167955636Y58145531D01*
X-1167855385Y58080500D01*
X-1167758210Y58017084D01*
X-1167683622Y57968010D01*
X-1167643221Y57941768D01*
X-1167590035Y57909323D01*
X-1167564258Y57896650D01*
X-1167554981Y57893196D01*
X-1167512845Y57870198D01*
X-1167451270Y57832745D01*
X-1167380393Y57789286D01*
X-1167188618Y57680406D01*
X-1166972482Y57567231D01*
X-1166748175Y57457781D01*
X-1166531885Y57360075D01*
X-1166339803Y57282132D01*
X-1166275886Y57258266D01*
X-1166045584Y57173743D01*
X-1165857890Y57107462D01*
X-1165713685Y57059717D01*
X-1165613848Y57030802D01*
X-1165559260Y57021012D01*
X-1165523854Y57016012D01*
X-1165488965Y56995764D01*
X-1165464404Y56979734D01*
X-1165410769Y56970739D01*
X-1165364186Y56966060D01*
X-1165305136Y56947778D01*
X-1165302395Y56946425D01*
X-1165253115Y56930947D01*
X-1165172058Y56912752D01*
X-1165075304Y56895496D01*
X-1164968714Y56878448D01*
X-1164848663Y56858654D01*
X-1164750739Y56841918D01*
X-1164739851Y56840034D01*
X-1164641477Y56824643D01*
X-1164520431Y56807655D01*
X-1164400394Y56792415D01*
X-1164344576Y56786383D01*
X-1164221206Y56775847D01*
X-1164083324Y56766830D01*
X-1163940134Y56759636D01*
X-1163800840Y56754569D01*
X-1163674647Y56751931D01*
X-1163570759Y56752026D01*
X-1163498378Y56755159D01*
X-1163466710Y56761631D01*
X-1163461672Y56764599D01*
X-1163417082Y56776039D01*
X-1163339615Y56788313D01*
X-1163242349Y56799231D01*
X-1163233542Y56800055D01*
X-1163113278Y56812856D01*
X-1162993501Y56827929D01*
X-1162898916Y56842184D01*
X-1162809148Y56857499D01*
X-1162689869Y56877403D01*
X-1162573596Y56896434D01*
X-1162558724Y56898894D01*
X-1162467259Y56916582D01*
X-1162397004Y56934371D01*
X-1162362138Y56948753D01*
X-1162344297Y56959641D01*
X-1162292447Y56970739D01*
X-1162283695Y56971503D01*
X-1162229376Y56983081D01*
X-1162145471Y57005460D01*
X-1162045547Y57034591D01*
X-1161943169Y57066428D01*
X-1161851905Y57096923D01*
X-1161785320Y57122029D01*
X-1161778200Y57125015D01*
X-1161713600Y57151167D01*
X-1161615088Y57190149D01*
X-1161493558Y57237675D01*
X-1161359901Y57289458D01*
X-1161338208Y57298292D01*
X-1161259830Y57333337D01*
X-1161153427Y57383552D01*
X-1161028151Y57444349D01*
X-1160893153Y57511141D01*
X-1160757583Y57579339D01*
X-1160630591Y57644356D01*
X-1160521327Y57701604D01*
X-1160438944Y57746495D01*
X-1160392590Y57774442D01*
X-1160389566Y57776576D01*
X-1160339465Y57808430D01*
X-1160309245Y57821577D01*
X-1160287119Y57830870D01*
X-1160233618Y57861130D01*
X-1160162960Y57905106D01*
X-1160149570Y57913746D01*
X-1160059292Y57971836D01*
X-1159951230Y58041179D01*
X-1159845911Y58108598D01*
X-1159728445Y58184913D01*
X-1159621429Y58257761D01*
X-1159517827Y58332695D01*
X-1159409497Y58415975D01*
X-1159288300Y58513860D01*
X-1159146095Y58632611D01*
X-1158974743Y58778486D01*
X-1158852114Y58887518D01*
X-1158712066Y59019965D01*
X-1158567572Y59163538D01*
X-1158423150Y59313162D01*
X-1158283322Y59463767D01*
X-1158152605Y59610278D01*
X-1158035520Y59747623D01*
X-1157936587Y59870730D01*
X-1157860325Y59974525D01*
X-1157811253Y60053935D01*
X-1157793891Y60103888D01*
X-1157802178Y60126043D01*
X-1157835966Y60182607D01*
X-1157889766Y60260909D01*
X-1157957061Y60351073D01*
X-1157999210Y60405508D01*
X-1158081802Y60512213D01*
X-1158158496Y60611341D01*
X-1158216916Y60686897D01*
X-1158251807Y60730197D01*
X-1158364493Y60856140D01*
X-1158507657Y61002132D01*
X-1158673984Y61161702D01*
X-1158856160Y61328381D01*
X-1159046870Y61495698D01*
X-1159238802Y61657183D01*
X-1159424640Y61806367D01*
X-1159597071Y61936780D01*
X-1159748780Y62041951D01*
X-1159789142Y62068462D01*
X-1159849147Y62108883D01*
X-1159883448Y62133380D01*
X-1159884636Y62134313D01*
X-1159922234Y62160330D01*
X-1159993231Y62206856D01*
X-1160089103Y62268417D01*
X-1160201326Y62339536D01*
X-1160321379Y62414737D01*
X-1160360518Y62438379D01*
X-1160482867Y62507220D01*
X-1160636656Y62588652D01*
X-1160811673Y62677452D01*
X-1160997708Y62768397D01*
X-1161184551Y62856264D01*
X-1161283753Y62899966D01*
X-1161478839Y62978348D01*
X-1161718385Y63066887D01*
X-1162003794Y63166096D01*
X-1162336466Y63276485D01*
X-1162353765Y63281910D01*
X-1162389480Y63291630D01*
X-1162436164Y63302035D01*
X-1162501506Y63314564D01*
X-1162593199Y63330654D01*
X-1162718934Y63351742D01*
X-1162886404Y63379266D01*
X-1162924769Y63385514D01*
X-1163100641Y63412983D01*
X-1163245667Y63432570D01*
X-1163375224Y63445563D01*
X-1163504686Y63453250D01*
X-1163649429Y63456917D01*
X-1163824827Y63457854D01*
X-1163925898Y63457198D01*
X-1164083855Y63453796D01*
X-1164230440Y63447983D01*
X-1164352762Y63440319D01*
X-1164437931Y63431359D01*
X-1164449948Y63429539D01*
X-1164731329Y63385160D01*
X-1164974276Y63342977D01*
X-1165189790Y63300976D01*
X-1165388867Y63257140D01*
X-1165474220Y63234063D01*
X-1165600843Y63194841D01*
X-1165751788Y63144796D01*
X-1165915556Y63087999D01*
X-1166080642Y63028524D01*
X-1166235547Y62970442D01*
X-1166368769Y62917827D01*
X-1166468805Y62874752D01*
X-1166520139Y62851070D01*
X-1166604782Y62812737D01*
X-1166665283Y62786304D01*
X-1166691059Y62776453D01*
X-1166695724Y62775421D01*
X-1166736880Y62758471D01*
X-1166810461Y62724259D01*
X-1166907320Y62677381D01*
X-1167018308Y62622435D01*
X-1167134280Y62564016D01*
X-1167246087Y62506721D01*
X-1167344583Y62455145D01*
X-1167420620Y62413887D01*
X-1167465050Y62387540D01*
X-1167489824Y62371038D01*
X-1167541709Y62338813D01*
X-1167568134Y62326010D01*
X-1167569032Y62325921D01*
X-1167598484Y62311313D01*
X-1167648353Y62279290D01*
X-1167683337Y62255768D01*
X-1167759060Y62206427D01*
X-1167841281Y62154170D01*
X-1167892492Y62121718D01*
X-1167981918Y62061808D01*
X-1168065557Y61999550D01*
X-1168164888Y61919360D01*
X-1168186715Y61901846D01*
X-1168237628Y61865154D01*
X-1168266568Y61850542D01*
X-1168280986Y61846286D01*
X-1168333519Y61812907D01*
X-1168412753Y61750489D01*
X-1168513554Y61663981D01*
X-1168630791Y61558335D01*
X-1168759331Y61438498D01*
X-1168894042Y61309422D01*
X-1169029792Y61176055D01*
X-1169161448Y61043347D01*
X-1169283878Y60916247D01*
X-1169391950Y60799707D01*
X-1169480531Y60698674D01*
X-1169544490Y60618099D01*
X-1169590343Y60554091D01*
X-1169687337Y60411761D01*
X-1169765524Y60286895D01*
X-1169818228Y60189936D01*
X-1169838575Y60145175D01*
X-1169849832Y60100069D01*
X-1170854508Y60100069D01*
X-1170857641Y60111330D01*
X-1170868373Y60149397D01*
X-1170878488Y60216637D01*
X-1170887869Y60314001D01*
X-1170896537Y60442735D01*
X-1170904510Y60604083D01*
X-1170911810Y60799291D01*
X-1170918454Y61029604D01*
X-1170924463Y61296268D01*
X-1170929857Y61600526D01*
X-1170934654Y61943626D01*
X-1170938875Y62326811D01*
X-1170942538Y62751327D01*
X-1170945665Y63218420D01*
X-1170948273Y63729334D01*
X-1170950384Y64285314D01*
X-1170952015Y64887607D01*
X-1170952744Y65291599D01*
X-1170368770Y65291599D01*
X-1170364269Y65230935D01*
X-1170351712Y65196697D01*
X-1170329253Y65177759D01*
X-1170326467Y65176839D01*
X-1170284554Y65172649D01*
X-1170200248Y65168936D01*
X-1170079899Y65165718D01*
X-1169929855Y65163013D01*
X-1169756465Y65160836D01*
X-1169566078Y65159205D01*
X-1169365043Y65158137D01*
X-1169159710Y65157649D01*
X-1168956427Y65157758D01*
X-1168761542Y65158481D01*
X-1168581406Y65159835D01*
X-1168422367Y65161836D01*
X-1168290773Y65164502D01*
X-1168192975Y65167850D01*
X-1168135320Y65171896D01*
X-1168053990Y65181989D01*
X-1168053990Y66467753D01*
X-1168053990Y67734025D01*
X-1167659680Y67734025D01*
X-1167659584Y67733196D01*
X-1167640136Y67671754D01*
X-1167603077Y67605547D01*
X-1167577852Y67567480D01*
X-1167529927Y67488114D01*
X-1167481604Y67401728D01*
X-1167435275Y67318072D01*
X-1167372189Y67208926D01*
X-1167310156Y67105550D01*
X-1167253548Y67011105D01*
X-1167191505Y66903219D01*
X-1167142214Y66813078D01*
X-1167111419Y66757573D01*
X-1167069529Y66691509D01*
X-1167038690Y66653775D01*
X-1167020230Y66634657D01*
X-1167002955Y66597872D01*
X-1166997123Y66576349D01*
X-1166969189Y66532118D01*
X-1166952680Y66508360D01*
X-1166914756Y66445198D01*
X-1166865076Y66356955D01*
X-1166810092Y66254877D01*
X-1166773498Y66185742D01*
X-1166715664Y66077495D01*
X-1166665210Y65984208D01*
X-1166630047Y65920576D01*
X-1166606290Y65872302D01*
X-1166589982Y65818794D01*
X-1166579640Y65749096D01*
X-1166573596Y65651927D01*
X-1166570178Y65516001D01*
X-1166570079Y65510292D01*
X-1166566364Y65390939D01*
X-1166560266Y65290344D01*
X-1166552608Y65218938D01*
X-1166544214Y65187150D01*
X-1166544030Y65186970D01*
X-1166507181Y65174954D01*
X-1166434488Y65166255D01*
X-1166339877Y65161074D01*
X-1166237272Y65159615D01*
X-1166140597Y65162077D01*
X-1166063778Y65168663D01*
X-1166020739Y65179573D01*
X-1166005390Y65192447D01*
X-1165990876Y65221419D01*
X-1165982217Y65272288D01*
X-1165978034Y65354427D01*
X-1165977680Y65394324D01*
X-1164650988Y65394324D01*
X-1164645828Y65297285D01*
X-1164633817Y65215570D01*
X-1164615140Y65164832D01*
X-1164605587Y65153846D01*
X-1164590653Y65144012D01*
X-1164566447Y65135992D01*
X-1164528437Y65129569D01*
X-1164472092Y65124525D01*
X-1164392883Y65120643D01*
X-1164286278Y65117704D01*
X-1164147747Y65115492D01*
X-1163972758Y65113788D01*
X-1163756782Y65112374D01*
X-1163495288Y65111034D01*
X-1163218243Y65110156D01*
X-1162961970Y65110487D01*
X-1162752742Y65112196D01*
X-1162588999Y65115314D01*
X-1162469182Y65119870D01*
X-1162391730Y65125897D01*
X-1162355085Y65133424D01*
X-1162314075Y65170225D01*
X-1162288194Y65235368D01*
X-1159889522Y65235368D01*
X-1159877181Y65192247D01*
X-1159828411Y65167805D01*
X-1159738704Y65156836D01*
X-1159603550Y65154135D01*
X-1159568007Y65154200D01*
X-1159454599Y65158996D01*
X-1159375708Y65176440D01*
X-1159319036Y65213721D01*
X-1159272289Y65278030D01*
X-1159223170Y65376556D01*
X-1159141294Y65554187D01*
X-1158372982Y65554187D01*
X-1157604669Y65554187D01*
X-1157513580Y65370099D01*
X-1157484397Y65311972D01*
X-1157445310Y65242144D01*
X-1157412251Y65201931D01*
X-1157375832Y65181289D01*
X-1157326664Y65170177D01*
X-1157251361Y65160411D01*
X-1157131561Y65154601D01*
X-1157020611Y65159656D01*
X-1156928720Y65174359D01*
X-1156866098Y65197493D01*
X-1156842955Y65227840D01*
X-1156846802Y65241070D01*
X-1156868804Y65294179D01*
X-1156907034Y65378922D01*
X-1156957730Y65487040D01*
X-1157017130Y65610272D01*
X-1157047292Y65672363D01*
X-1157109763Y65802825D01*
X-1157165488Y65921565D01*
X-1157209317Y66017540D01*
X-1157236096Y66079705D01*
X-1157266479Y66151084D01*
X-1157313158Y66252884D01*
X-1157362217Y66353784D01*
X-1157365294Y66359916D01*
X-1157404835Y66442935D01*
X-1157432886Y66509481D01*
X-1157443547Y66545640D01*
X-1157444491Y66555558D01*
X-1157462315Y66584368D01*
X-1157464708Y66586082D01*
X-1157488174Y66620299D01*
X-1157526844Y66691019D01*
X-1157576725Y66790339D01*
X-1157633820Y66910352D01*
X-1157694136Y67043153D01*
X-1157703894Y67064990D01*
X-1157755194Y67176295D01*
X-1157814192Y67299949D01*
X-1157876077Y67426335D01*
X-1157936037Y67545837D01*
X-1157989261Y67648839D01*
X-1158030936Y67725723D01*
X-1158056252Y67766874D01*
X-1158074163Y67785550D01*
X-1158104307Y67800499D01*
X-1158153430Y67808432D01*
X-1158231867Y67810837D01*
X-1158349953Y67809205D01*
X-1158446052Y67805966D01*
X-1158547217Y67797809D01*
X-1158612290Y67784427D01*
X-1158649441Y67764603D01*
X-1158649483Y67764564D01*
X-1158670463Y67733410D01*
X-1158710033Y67663589D01*
X-1158764972Y67561447D01*
X-1158832058Y67433333D01*
X-1158908071Y67285593D01*
X-1158989788Y67124574D01*
X-1159073988Y66956625D01*
X-1159157451Y66788092D01*
X-1159236954Y66625322D01*
X-1159309277Y66474664D01*
X-1159337377Y66414670D01*
X-1159371198Y66342463D01*
X-1159375312Y66333532D01*
X-1159434745Y66205188D01*
X-1159502789Y66059554D01*
X-1159583791Y65887354D01*
X-1159682101Y65679311D01*
X-1159699452Y65643291D01*
X-1159709053Y65623361D01*
X-1159766001Y65508864D01*
X-1159820017Y65404040D01*
X-1159822957Y65398468D01*
X-1159869945Y65302373D01*
X-1159889522Y65235368D01*
X-1162288194Y65235368D01*
X-1162282691Y65249219D01*
X-1162279593Y65288720D01*
X-1162277221Y65371945D01*
X-1162275719Y65492068D01*
X-1162275024Y65643291D01*
X-1162275073Y65819819D01*
X-1162275803Y66015856D01*
X-1162277149Y66225603D01*
X-1162278984Y66435797D01*
X-1161769937Y66435797D01*
X-1161769045Y66365470D01*
X-1161760711Y66324612D01*
X-1161742009Y66301484D01*
X-1161710009Y66284347D01*
X-1161697708Y66280650D01*
X-1161635450Y66272524D01*
X-1161534614Y66265980D01*
X-1161403254Y66261010D01*
X-1161249426Y66257607D01*
X-1161081185Y66255763D01*
X-1160906585Y66255470D01*
X-1160733682Y66256720D01*
X-1160570531Y66259505D01*
X-1160425187Y66263818D01*
X-1160305704Y66269649D01*
X-1160220138Y66276993D01*
X-1160176544Y66285840D01*
X-1160158442Y66295534D01*
X-1160137361Y66316234D01*
X-1160126695Y66352076D01*
X-1160123916Y66414670D01*
X-1160126495Y66515625D01*
X-1160133694Y66717833D01*
X-1160858866Y66735023D01*
X-1160891945Y66735786D01*
X-1161080427Y66739335D01*
X-1161255222Y66741331D01*
X-1161409061Y66741783D01*
X-1161534677Y66740700D01*
X-1161624801Y66738093D01*
X-1161672167Y66733969D01*
X-1161760295Y66715726D01*
X-1161767492Y66514771D01*
X-1161769937Y66435797D01*
X-1162278984Y66435797D01*
X-1162279049Y66443266D01*
X-1162281440Y66663048D01*
X-1162284257Y66879152D01*
X-1162287438Y67085782D01*
X-1162290919Y67277141D01*
X-1162294636Y67447433D01*
X-1162298527Y67590862D01*
X-1162302528Y67701631D01*
X-1162306575Y67773943D01*
X-1162310606Y67802003D01*
X-1162334672Y67805543D01*
X-1162403225Y67809163D01*
X-1162509910Y67812517D01*
X-1162648523Y67815568D01*
X-1162812861Y67818281D01*
X-1162996723Y67820617D01*
X-1163193906Y67822540D01*
X-1163398206Y67824014D01*
X-1163603422Y67825002D01*
X-1163803351Y67825467D01*
X-1163991790Y67825373D01*
X-1164162537Y67824682D01*
X-1164309388Y67823358D01*
X-1164426143Y67821365D01*
X-1164506597Y67818665D01*
X-1164544549Y67815222D01*
X-1164566125Y67807863D01*
X-1164585006Y67790337D01*
X-1164595292Y67754271D01*
X-1164596295Y67738811D01*
X-1164599514Y67689166D01*
X-1164600208Y67584520D01*
X-1164599807Y67547733D01*
X-1164595335Y67449085D01*
X-1164586989Y67372089D01*
X-1164576119Y67330936D01*
X-1164574429Y67328636D01*
X-1164558718Y67318458D01*
X-1164527186Y67310062D01*
X-1164474942Y67303159D01*
X-1164397097Y67297459D01*
X-1164288763Y67292672D01*
X-1164145048Y67288507D01*
X-1163961064Y67284675D01*
X-1163731921Y67280887D01*
X-1162911428Y67268375D01*
X-1162911428Y67080690D01*
X-1162911428Y66893005D01*
X-1163614580Y66880493D01*
X-1163777493Y66877318D01*
X-1163963141Y66872615D01*
X-1164106948Y66867281D01*
X-1164213679Y66861016D01*
X-1164288099Y66853520D01*
X-1164334972Y66844493D01*
X-1164359063Y66833636D01*
X-1164373689Y66817155D01*
X-1164389729Y66774675D01*
X-1164398029Y66703368D01*
X-1164400394Y66592710D01*
X-1164399528Y66518885D01*
X-1164393696Y66433868D01*
X-1164380809Y66381676D01*
X-1164359063Y66351784D01*
X-1164343731Y66343740D01*
X-1164303652Y66334235D01*
X-1164237348Y66326345D01*
X-1164140053Y66319769D01*
X-1164007003Y66314207D01*
X-1163833434Y66309359D01*
X-1163614580Y66304926D01*
X-1162911428Y66292414D01*
X-1162904292Y66020086D01*
X-1162902631Y65941798D01*
X-1162903056Y65840555D01*
X-1162908597Y65773375D01*
X-1162920359Y65730213D01*
X-1162939451Y65701022D01*
X-1162941567Y65698741D01*
X-1162956593Y65686258D01*
X-1162978828Y65676351D01*
X-1163013628Y65668723D01*
X-1163066348Y65663080D01*
X-1163142343Y65659126D01*
X-1163246967Y65656565D01*
X-1163385575Y65655102D01*
X-1163563523Y65654441D01*
X-1163786164Y65654286D01*
X-1163955865Y65654032D01*
X-1164165321Y65652682D01*
X-1164330635Y65650055D01*
X-1164455314Y65646025D01*
X-1164542864Y65640466D01*
X-1164596794Y65633252D01*
X-1164620611Y65624256D01*
X-1164623495Y65620831D01*
X-1164640008Y65571751D01*
X-1164649110Y65491030D01*
X-1164650988Y65394324D01*
X-1165977680Y65394324D01*
X-1165976946Y65477211D01*
X-1165976939Y65485529D01*
X-1165972874Y65643649D01*
X-1165958483Y65768339D01*
X-1165929629Y65875145D01*
X-1165882178Y65979612D01*
X-1165811995Y66097284D01*
X-1165764371Y66172838D01*
X-1165709977Y66261737D01*
X-1165670000Y66329951D01*
X-1165669659Y66330559D01*
X-1165637814Y66386885D01*
X-1165587929Y66474542D01*
X-1165526772Y66581657D01*
X-1165461111Y66696357D01*
X-1165452615Y66711212D01*
X-1165393532Y66816497D01*
X-1165345448Y66905560D01*
X-1165313114Y66969403D01*
X-1165301281Y66999030D01*
X-1165288581Y67026358D01*
X-1165251231Y67068178D01*
X-1165218335Y67106293D01*
X-1165201182Y67147130D01*
X-1165199582Y67160708D01*
X-1165182414Y67180984D01*
X-1165163662Y67194531D01*
X-1165136031Y67237289D01*
X-1165118837Y67271706D01*
X-1165060193Y67383642D01*
X-1164997950Y67496103D01*
X-1164940646Y67593932D01*
X-1164896817Y67661971D01*
X-1164842102Y67738811D01*
X-1164895050Y67781685D01*
X-1164904516Y67788596D01*
X-1164956244Y67810278D01*
X-1165037109Y67823181D01*
X-1165157439Y67829176D01*
X-1165290953Y67827676D01*
X-1165407050Y67812976D01*
X-1165481727Y67783384D01*
X-1165518703Y67737962D01*
X-1165540707Y67691883D01*
X-1165577756Y67631232D01*
X-1165588696Y67613866D01*
X-1165624590Y67551054D01*
X-1165675434Y67457902D01*
X-1165736112Y67343846D01*
X-1165801512Y67218325D01*
X-1165838165Y67147474D01*
X-1165897717Y67033402D01*
X-1165947621Y66939123D01*
X-1165983490Y66872890D01*
X-1166000941Y66842956D01*
X-1166003577Y66839141D01*
X-1166027878Y66798344D01*
X-1166066936Y66728675D01*
X-1166113645Y66642759D01*
X-1166161789Y66554819D01*
X-1166208582Y66477212D01*
X-1166243073Y66433953D01*
X-1166270405Y66418921D01*
X-1166295718Y66425995D01*
X-1166297394Y66427261D01*
X-1166322361Y66460669D01*
X-1166363562Y66528646D01*
X-1166415672Y66622025D01*
X-1166473363Y66731642D01*
X-1166514130Y66810975D01*
X-1166622760Y67019148D01*
X-1166719686Y67200043D01*
X-1166801668Y67347675D01*
X-1166865467Y67456059D01*
X-1166875374Y67472542D01*
X-1166923002Y67560077D01*
X-1166965779Y67649284D01*
X-1166969511Y67657610D01*
X-1167022836Y67740570D01*
X-1167097414Y67794000D01*
X-1167201805Y67821949D01*
X-1167344570Y67828468D01*
X-1167455978Y67824888D01*
X-1167558308Y67815259D01*
X-1167622122Y67798178D01*
X-1167653789Y67771736D01*
X-1167656635Y67753517D01*
X-1167659680Y67734025D01*
X-1168053990Y67734025D01*
X-1168053990Y67753517D01*
X-1168110295Y67793631D01*
X-1168110367Y67793682D01*
X-1168128284Y67803457D01*
X-1168154836Y67811330D01*
X-1168194622Y67817402D01*
X-1168252244Y67821770D01*
X-1168332302Y67824534D01*
X-1168439396Y67825794D01*
X-1168578127Y67825648D01*
X-1168753096Y67824195D01*
X-1168968902Y67821535D01*
X-1169230148Y67817768D01*
X-1169354269Y67815845D01*
X-1169605434Y67811456D01*
X-1169812055Y67806971D01*
X-1169977969Y67802220D01*
X-1170107014Y67797030D01*
X-1170203026Y67791230D01*
X-1170269841Y67784647D01*
X-1170311298Y67777109D01*
X-1170331231Y67768445D01*
X-1170339412Y67759635D01*
X-1170355824Y67720318D01*
X-1170362405Y67652376D01*
X-1170360529Y67545350D01*
X-1170360528Y67545324D01*
X-1170354345Y67445524D01*
X-1170344159Y67383580D01*
X-1170326517Y67347301D01*
X-1170297967Y67324499D01*
X-1170291814Y67321687D01*
X-1170248108Y67312151D01*
X-1170169263Y67303912D01*
X-1170052297Y67296819D01*
X-1169894228Y67290718D01*
X-1169692075Y67285458D01*
X-1169442857Y67280887D01*
X-1168642069Y67268375D01*
X-1168634476Y67106487D01*
X-1168632601Y67026920D01*
X-1168634794Y66942290D01*
X-1168641209Y66887521D01*
X-1168655535Y66830444D01*
X-1169375767Y66830444D01*
X-1169436526Y66830406D01*
X-1169653375Y66829434D01*
X-1169824665Y66827044D01*
X-1169953985Y66823090D01*
X-1170044926Y66817430D01*
X-1170101077Y66809919D01*
X-1170126029Y66800414D01*
X-1170140236Y66767909D01*
X-1170151804Y66693787D01*
X-1170156059Y66592710D01*
X-1170152966Y66505562D01*
X-1170142394Y66426544D01*
X-1170126029Y66385005D01*
X-1170124916Y66384021D01*
X-1170096753Y66374519D01*
X-1170036624Y66367083D01*
X-1169940918Y66361560D01*
X-1169806019Y66357802D01*
X-1169628316Y66355657D01*
X-1169404194Y66354976D01*
X-1169326536Y66354954D01*
X-1169137507Y66354549D01*
X-1168990679Y66353350D01*
X-1168880250Y66350996D01*
X-1168800417Y66347124D01*
X-1168745376Y66341371D01*
X-1168709324Y66333377D01*
X-1168686457Y66322778D01*
X-1168670972Y66309212D01*
X-1168663556Y66299948D01*
X-1168646826Y66263672D01*
X-1168636407Y66206116D01*
X-1168631063Y66117713D01*
X-1168629556Y65988897D01*
X-1168629679Y65955741D01*
X-1168633870Y65818419D01*
X-1168643896Y65727364D01*
X-1168659586Y65684315D01*
X-1168674801Y65677418D01*
X-1168720731Y65669835D01*
X-1168799244Y65663908D01*
X-1168913831Y65659513D01*
X-1169067983Y65656527D01*
X-1169265191Y65654826D01*
X-1169508947Y65654286D01*
X-1169744762Y65653566D01*
X-1169949935Y65651374D01*
X-1170114864Y65647780D01*
X-1170237100Y65642859D01*
X-1170314196Y65636684D01*
X-1170343703Y65629327D01*
X-1170345691Y65624627D01*
X-1170353841Y65578890D01*
X-1170361271Y65500416D01*
X-1170366580Y65403047D01*
X-1170367056Y65389817D01*
X-1170368770Y65291599D01*
X-1170952744Y65291599D01*
X-1170953188Y65537457D01*
X-1170953921Y66236109D01*
X-1170956847Y70308867D01*
X-1163737241Y70308867D01*
X-1156517635Y70308867D01*
X-1156520361Y66198572D01*
X-1156520715Y65761679D01*
X-1156521374Y65227840D01*
X-1156521475Y65146090D01*
G37*
G36*
X-1161384356Y59894173D02*
G01*
X-1161406357Y59681606D01*
X-1161445676Y59498227D01*
X-1161518621Y59274244D01*
X-1161614439Y59036086D01*
X-1161718329Y58829896D01*
X-1161826165Y58664716D01*
X-1161830225Y58659473D01*
X-1161895360Y58583349D01*
X-1161986338Y58486267D01*
X-1162092158Y58379141D01*
X-1162201822Y58272882D01*
X-1162304331Y58178402D01*
X-1162388686Y58106615D01*
X-1162446755Y58065798D01*
X-1162554383Y58002934D01*
X-1162684005Y57936761D01*
X-1162824725Y57871987D01*
X-1162965646Y57813324D01*
X-1163095870Y57765481D01*
X-1163204501Y57733168D01*
X-1163280641Y57721095D01*
X-1163318899Y57716629D01*
X-1163374384Y57696453D01*
X-1163385433Y57692371D01*
X-1163442296Y57684295D01*
X-1163534106Y57678280D01*
X-1163650316Y57674342D01*
X-1163780379Y57672496D01*
X-1163913748Y57672757D01*
X-1164039878Y57675140D01*
X-1164148220Y57679659D01*
X-1164228227Y57686332D01*
X-1164269354Y57695171D01*
X-1164286153Y57702389D01*
X-1164350665Y57720074D01*
X-1164431091Y57734154D01*
X-1164468882Y57740120D01*
X-1164532374Y57756092D01*
X-1164563948Y57772973D01*
X-1164574266Y57783276D01*
X-1164617578Y57796552D01*
X-1164627937Y57797865D01*
X-1164684245Y57816424D01*
X-1164769268Y57852634D01*
X-1164871966Y57900995D01*
X-1164981295Y57956006D01*
X-1165086216Y58012169D01*
X-1165175687Y58063982D01*
X-1165238666Y58105945D01*
X-1165269721Y58130289D01*
X-1165395170Y58238305D01*
X-1165526849Y58364285D01*
X-1165653168Y58496264D01*
X-1165762537Y58622273D01*
X-1165843365Y58730342D01*
X-1165873261Y58776822D01*
X-1166010640Y59024029D01*
X-1166123410Y59285208D01*
X-1166208956Y59550977D01*
X-1166264661Y59811956D01*
X-1166287910Y60058765D01*
X-1166285116Y60111515D01*
X-1165623251Y60111515D01*
X-1165618002Y59949625D01*
X-1165606512Y59798029D01*
X-1165589101Y59669886D01*
X-1165566088Y59578353D01*
X-1165536949Y59504830D01*
X-1165423229Y59272455D01*
X-1165284819Y59054142D01*
X-1165129974Y58861887D01*
X-1164966948Y58707685D01*
X-1164837535Y58615951D01*
X-1164674566Y58519513D01*
X-1164505060Y58434537D01*
X-1164350345Y58372613D01*
X-1164325520Y58364725D01*
X-1164209091Y58336850D01*
X-1164072062Y58319245D01*
X-1163899901Y58309886D01*
X-1163876541Y58309208D01*
X-1163691553Y58307323D01*
X-1163540307Y58315138D01*
X-1163408491Y58335697D01*
X-1163281792Y58372047D01*
X-1163145900Y58427234D01*
X-1162986502Y58504305D01*
X-1162939679Y58528912D01*
X-1162698284Y58687676D01*
X-1162486518Y58882450D01*
X-1162309057Y59107477D01*
X-1162170578Y59357002D01*
X-1162075758Y59625266D01*
X-1162055611Y59708430D01*
X-1162038441Y59802628D01*
X-1162029284Y59899301D01*
X-1162026781Y60014255D01*
X-1162029578Y60163296D01*
X-1162033771Y60261974D01*
X-1162045100Y60412119D01*
X-1162060815Y60542046D01*
X-1162079347Y60636847D01*
X-1162080801Y60642155D01*
X-1162128068Y60770593D01*
X-1162202750Y60922805D01*
X-1162298327Y61086641D01*
X-1162408282Y61249951D01*
X-1162467199Y61322205D01*
X-1162585374Y61440099D01*
X-1162723855Y61555966D01*
X-1162866962Y61657050D01*
X-1162999015Y61730591D01*
X-1162999954Y61731021D01*
X-1163087487Y61771482D01*
X-1163161166Y61806233D01*
X-1163205128Y61827791D01*
X-1163232226Y61838921D01*
X-1163293966Y61850542D01*
X-1163319235Y61854208D01*
X-1163369554Y61880747D01*
X-1163402147Y61893672D01*
X-1163478426Y61903619D01*
X-1163599805Y61909675D01*
X-1163768697Y61912028D01*
X-1163900695Y61911444D01*
X-1164044543Y61906425D01*
X-1164160418Y61894667D01*
X-1164260944Y61874113D01*
X-1164358746Y61842707D01*
X-1164466450Y61798394D01*
X-1164490205Y61788216D01*
X-1164570273Y61757131D01*
X-1164633525Y61736850D01*
X-1164685315Y61715339D01*
X-1164736219Y61676389D01*
X-1164765493Y61634379D01*
X-1164761409Y61601703D01*
X-1164734769Y61585909D01*
X-1164672170Y61558420D01*
X-1164590750Y61527854D01*
X-1164503260Y61494213D01*
X-1164415618Y61445711D01*
X-1164347150Y61381384D01*
X-1164280449Y61287765D01*
X-1164264408Y61261215D01*
X-1164234968Y61195069D01*
X-1164220461Y61118755D01*
X-1164216277Y61012495D01*
X-1164219979Y60911677D01*
X-1164242932Y60797263D01*
X-1164292770Y60701128D01*
X-1164376275Y60606039D01*
X-1164421334Y60569252D01*
X-1164530766Y60508682D01*
X-1164654532Y60465579D01*
X-1164769526Y60449163D01*
X-1164814360Y60453873D01*
X-1164910873Y60485354D01*
X-1165013853Y60539655D01*
X-1165112590Y60608816D01*
X-1165196376Y60684876D01*
X-1165254501Y60759873D01*
X-1165276256Y60825847D01*
X-1165277412Y60842845D01*
X-1165293241Y60902642D01*
X-1165320975Y60961015D01*
X-1165352069Y61002394D01*
X-1165377980Y61011212D01*
X-1165392139Y60997264D01*
X-1165427975Y60941808D01*
X-1165471510Y60858249D01*
X-1165516904Y60758950D01*
X-1165558315Y60656273D01*
X-1165589906Y60562582D01*
X-1165598378Y60527362D01*
X-1165613758Y60413542D01*
X-1165621943Y60270540D01*
X-1165623251Y60111515D01*
X-1166285116Y60111515D01*
X-1166276086Y60282023D01*
X-1166265632Y60352848D01*
X-1166235581Y60537752D01*
X-1166204863Y60689427D01*
X-1166169797Y60820371D01*
X-1166126703Y60943081D01*
X-1166071902Y61070052D01*
X-1166001715Y61213782D01*
X-1165982819Y61250271D01*
X-1165893449Y61406191D01*
X-1165793524Y61558830D01*
X-1165690780Y61697580D01*
X-1165592953Y61811836D01*
X-1165507779Y61890991D01*
X-1165488189Y61906172D01*
X-1165409295Y61971028D01*
X-1165341259Y62031730D01*
X-1165314642Y62055709D01*
X-1165225518Y62125777D01*
X-1165120922Y62198291D01*
X-1165018530Y62261408D01*
X-1164936017Y62303285D01*
X-1164863348Y62333555D01*
X-1164782875Y62367832D01*
X-1164695412Y62402316D01*
X-1164588676Y62438799D01*
X-1164483121Y62470448D01*
X-1164393870Y62492746D01*
X-1164336049Y62501182D01*
X-1164297448Y62506439D01*
X-1164262758Y62526207D01*
X-1164257725Y62529639D01*
X-1164211726Y62538527D01*
X-1164123976Y62545337D01*
X-1164000648Y62549696D01*
X-1163847915Y62551232D01*
X-1163692765Y62549670D01*
X-1163520320Y62541447D01*
X-1163370693Y62523751D01*
X-1163228515Y62493908D01*
X-1163078419Y62449242D01*
X-1162905037Y62387076D01*
X-1162831536Y62358753D01*
X-1162692669Y62299925D01*
X-1162581150Y62242271D01*
X-1162482364Y62177725D01*
X-1162381700Y62098222D01*
X-1162379614Y62096467D01*
X-1162295699Y62028045D01*
X-1162215254Y61965996D01*
X-1162155425Y61923556D01*
X-1162113241Y61890295D01*
X-1162045031Y61822242D01*
X-1161980253Y61744323D01*
X-1161940658Y61691153D01*
X-1161862118Y61585870D01*
X-1161790237Y61489707D01*
X-1161719188Y61385309D01*
X-1161646991Y61252363D01*
X-1161574713Y61087291D01*
X-1161570232Y61076313D01*
X-1161543986Y61013825D01*
X-1161512014Y60939397D01*
X-1161457627Y60777739D01*
X-1161416309Y60577709D01*
X-1161389927Y60355153D01*
X-1161379078Y60122998D01*
X-1161381586Y60014255D01*
X-1161384356Y59894173D01*
G37*
G36*
X-1158351667Y67086758D02*
G01*
X-1158324895Y67049348D01*
X-1158282073Y66975804D01*
X-1158226694Y66872880D01*
X-1158162252Y66747331D01*
X-1158092241Y66605911D01*
X-1158020155Y66455374D01*
X-1157949489Y66302475D01*
X-1157922264Y66240563D01*
X-1157894409Y66166161D01*
X-1157887488Y66122350D01*
X-1157899440Y66100831D01*
X-1157928993Y66094320D01*
X-1158000807Y66088492D01*
X-1158103594Y66084318D01*
X-1158227232Y66081794D01*
X-1158361595Y66080917D01*
X-1158496560Y66081685D01*
X-1158622003Y66084093D01*
X-1158727800Y66088139D01*
X-1158803827Y66093819D01*
X-1158839959Y66101130D01*
X-1158845690Y66113971D01*
X-1158839282Y66150448D01*
X-1158816045Y66213597D01*
X-1158774169Y66307720D01*
X-1158711841Y66437118D01*
X-1158627250Y66606094D01*
X-1158597558Y66664360D01*
X-1158526670Y66800482D01*
X-1158463560Y66917573D01*
X-1158411832Y67009176D01*
X-1158375092Y67068836D01*
X-1158356946Y67090096D01*
X-1158351667Y67086758D01*
G37*
%LPC*%
D12*
X-1187840000Y46930000D03*
D13*
X-1187840000Y49470000D03*
X-1185300000Y46930000D03*
X-1185300000Y49470000D03*
X-1182760000Y46930000D03*
X-1182760000Y49470000D03*
D12*
X-1176090000Y81530000D03*
D13*
X-1176090000Y84070000D03*
X-1173550000Y81530000D03*
X-1173550000Y84070000D03*
X-1171010000Y81530000D03*
X-1171010000Y84070000D03*
X-1168470000Y81530000D03*
X-1168470000Y84070000D03*
X-1165930000Y81530000D03*
X-1165930000Y84070000D03*
X-1163390000Y81530000D03*
X-1163390000Y84070000D03*
X-1160850000Y81530000D03*
X-1160850000Y84070000D03*
X-1158310000Y81530000D03*
X-1158310000Y84070000D03*
D14*
X-1103970000Y131370000D03*
X-1103970000Y128830000D03*
X-1106510000Y131370000D03*
X-1106510000Y128830000D03*
X-1109050000Y131370000D03*
X-1109050000Y128830000D03*
X-1111590000Y131370000D03*
X-1111590000Y128830000D03*
X-1114130000Y131370000D03*
X-1114130000Y128830000D03*
X-1116670000Y131370000D03*
X-1116670000Y128830000D03*
X-1119210000Y131370000D03*
X-1119210000Y128830000D03*
X-1121750000Y131370000D03*
X-1121750000Y128830000D03*
X-1124290000Y131370000D03*
X-1124290000Y128830000D03*
X-1126830000Y131370000D03*
X-1126830000Y128830000D03*
X-1129370000Y131370000D03*
X-1129370000Y128830000D03*
X-1131910000Y131370000D03*
X-1131910000Y128830000D03*
X-1134450000Y131370000D03*
X-1134450000Y128830000D03*
X-1136990000Y131370000D03*
X-1136990000Y128830000D03*
X-1139530000Y131370000D03*
X-1139530000Y128830000D03*
X-1142070000Y131370000D03*
X-1142070000Y128830000D03*
X-1144610000Y131370000D03*
X-1144610000Y128830000D03*
X-1147150000Y131370000D03*
X-1147150000Y128830000D03*
X-1149690000Y131370000D03*
X-1149690000Y128830000D03*
X-1152230000Y131370000D03*
X-1152230000Y128830000D03*
D15*
X-1160150000Y125200000D03*
D16*
X-1162650000Y125200000D03*
X-1165150000Y125200000D03*
X-1167650000Y125200000D03*
D17*
X-1186200000Y131000000D03*
D18*
X-1127300000Y49800000D03*
X-1139500000Y49799500D03*
X-1139500000Y37800500D03*
X-1127300000Y37800000D03*
X-1125300000Y43800000D03*
D19*
X-1124000000Y81400000D03*
D20*
X-1124000000Y83940000D03*
X-1124000000Y86480000D03*
D19*
X-1113300000Y52300000D03*
D20*
X-1110760000Y52300000D03*
X-1108220000Y52300000D03*
D12*
X-1108810000Y123570000D03*
D13*
X-1108810000Y121030000D03*
X-1111350000Y123570000D03*
X-1111350000Y121030000D03*
X-1113890000Y123570000D03*
X-1113890000Y121030000D03*
X-1116430000Y123570000D03*
X-1116430000Y121030000D03*
X-1118970000Y123570000D03*
X-1118970000Y121030000D03*
X-1121510000Y123570000D03*
X-1121510000Y121030000D03*
X-1124050000Y123570000D03*
X-1124050000Y121030000D03*
X-1126590000Y123570000D03*
X-1126590000Y121030000D03*
D21*
X-1174795500Y130600000D03*
X-1179804500Y130600000D03*
D22*
X-1098848500Y103680000D03*
X-1098848500Y112320000D03*
D23*
X-1094668500Y112320000D03*
X-1094668500Y103680000D03*
D15*
X-1180900000Y81400000D03*
D16*
X-1180900000Y78900000D03*
X-1180900000Y76400000D03*
D19*
X-1113400000Y56700000D03*
D20*
X-1110860000Y56700000D03*
X-1108320000Y56700000D03*
D17*
X-1094900000Y130800000D03*
D12*
X-1176090000Y86630000D03*
D13*
X-1176090000Y89170000D03*
X-1173550000Y86630000D03*
X-1173550000Y89170000D03*
X-1171010000Y86630000D03*
X-1171010000Y89170000D03*
X-1168470000Y86630000D03*
X-1168470000Y89170000D03*
X-1165930000Y86630000D03*
X-1165930000Y89170000D03*
X-1163390000Y86630000D03*
X-1163390000Y89170000D03*
X-1160850000Y86630000D03*
X-1160850000Y89170000D03*
X-1158310000Y86630000D03*
X-1158310000Y89170000D03*
D12*
X-1124870000Y76140000D03*
D13*
X-1122330000Y76140000D03*
X-1124870000Y73600000D03*
X-1122330000Y73600000D03*
X-1124870000Y71060000D03*
X-1122330000Y71060000D03*
D24*
X-1119717500Y40600000D03*
D25*
X-1114717500Y40600000D03*
X-1109717500Y40600000D03*
X-1104717500Y40600000D03*
X-1099717500Y40600000D03*
X-1094717500Y40600000D03*
D26*
X-1152100000Y43600000D03*
D27*
X-1152100000Y37600000D03*
D28*
X-1147400000Y40600000D03*
D15*
X-1180900000Y95150000D03*
D16*
X-1180900000Y92650000D03*
X-1180900000Y90150000D03*
X-1180900000Y87650000D03*
D26*
X-1170100000Y43100000D03*
D27*
X-1170100000Y37100000D03*
D28*
X-1165400000Y40100000D03*
D19*
X-1113950000Y47000000D03*
D20*
X-1111410000Y47000000D03*
X-1108870000Y47000000D03*
X-1106330000Y47000000D03*
X-1103790000Y47000000D03*
X-1101250000Y47000000D03*
D21*
X-1095600000Y116595500D03*
X-1095600000Y121604500D03*
D17*
X-1186200000Y39500000D03*
%LPD*%
M02*
