M48
; DRILL file {KiCad 8.0.5} date 2026-03-05T12:40:01-0300
; FORMAT={-:-/ absolute / metric / decimal}
; #@! TF.CreationDate,2026-03-05T12:40:01-03:00
; #@! TF.GenerationSoftware,Kicad,Pcbnew,8.0.5
; #@! TF.FileFunction,Plated,1,2,PTH
FMAT,2
METRIC
; #@! TA.AperFunction,Plated,PTH,ViaDrill
T1C0.300
; #@! TA.AperFunction,Plated,PTH,ComponentDrill
T2C0.600
; #@! TA.AperFunction,Plated,PTH,ComponentDrill
T3C1.000
; #@! TA.AperFunction,Plated,PTH,ComponentDrill
T4C1.050
; #@! TA.AperFunction,Plated,PTH,ComponentDrill
T5C1.100
; #@! TA.AperFunction,Plated,PTH,ComponentDrill
T6C1.200
; #@! TA.AperFunction,Plated,PTH,ComponentDrill
T7C1.524
%
G90
G05
T1
X-1189.8Y101.8
X-1188.4Y73.2
X-1187.5Y98.9
X-1186.7Y77.6
X-1186.0Y101.8
X-1185.9Y95.0
X-1185.9Y85.8
X-1183.1Y103.7
X-1183.1Y83.1
X-1182.0Y43.0
X-1180.5Y53.1
X-1179.2Y41.6
X-1178.8Y86.1
X-1174.9Y101.5
X-1173.4Y75.9
X-1173.0Y113.6
X-1172.5Y124.6
X-1172.4Y119.5
X-1172.1Y105.7
X-1171.7Y127.2
X-1171.6Y112.7
X-1171.3Y131.8
X-1170.6Y98.4
X-1170.3Y122.0
X-1169.3Y104.8
X-1169.171Y112.629
X-1168.5Y102.9
X-1168.438Y110.725
X-1168.25Y117.225
X-1168.0Y112.2
X-1167.9Y102.3
X-1167.8Y110.225
X-1167.757Y117.957
X-1167.754Y116.154
X-1167.6Y100.2
X-1167.3Y113.0
X-1166.991Y108.252
X-1166.8Y109.7
X-1166.8Y109.0
X-1166.725Y115.671
X-1166.679Y117.479
X-1166.6Y113.6
X-1166.594Y110.421
X-1166.2Y116.8
X-1166.1Y96.5
X-1165.8Y107.6
X-1165.6Y114.4
X-1165.5Y67.1
X-1165.3Y94.8
X-1164.812Y114.643
X-1164.8Y105.675
X-1164.7Y122.8
X-1164.2Y117.0
X-1164.1Y100.7
X-1164.0Y60.0
X-1163.9Y112.9
X-1163.2Y104.8
X-1163.0Y130.6
X-1162.8Y112.4
X-1162.6Y54.4
X-1162.4Y122.2
X-1162.4Y104.8
X-1162.1Y117.225
X-1161.7Y121.2
X-1161.4Y111.8
X-1160.875Y111.2
X-1160.8Y117.6
X-1160.7Y102.9
X-1160.6Y107.6
X-1160.384Y118.224
X-1160.0Y38.3
X-1159.971Y118.789
X-1159.775Y108.475
X-1159.275Y117.8
X-1159.275Y109.0
X-1158.75Y118.4
X-1158.725Y110.0
X-1158.2Y119.2
X-1158.2Y111.475
X-1157.309Y95.83
X-1157.075Y108.2
X-1156.6Y96.2
X-1156.462Y117.441
X-1156.453Y118.241
X-1156.4Y102.1
X-1156.375Y108.2
X-1156.2Y119.0
X-1155.9Y115.9
X-1155.675Y108.2
X-1154.6Y132.2
X-1154.2Y124.1
X-1153.8Y76.4
X-1152.8Y118.8
X-1152.4Y113.1
X-1152.4Y87.1
X-1152.0Y84.5
X-1151.8Y77.2
X-1150.2Y125.2
X-1147.5Y112.8
X-1147.0Y100.3
X-1147.0Y75.0
X-1146.5Y123.9
X-1144.7Y126.1
X-1144.3Y119.6
X-1144.1Y96.4
X-1143.3Y84.7
X-1142.75Y113.85
X-1142.307Y115.107
X-1140.7Y98.9
X-1139.6Y76.7
X-1139.4Y57.5
X-1139.1Y86.9
X-1138.3Y69.0
X-1138.3Y54.4
X-1138.2Y100.7
X-1134.4Y62.9
X-1134.3Y49.5
X-1133.5Y118.9
X-1133.1Y67.8
X-1133.0Y105.8
X-1132.4Y101.9
X-1130.6Y101.7
X-1129.3Y69.9
X-1129.0Y64.9
X-1128.9Y104.6
X-1128.9Y85.0
X-1128.6Y80.5
X-1128.1Y96.4
X-1128.0Y66.6
X-1127.7Y87.6
X-1126.4Y112.575
X-1126.2Y101.05
X-1125.9Y63.5
X-1125.7Y104.9
X-1125.3Y67.5
X-1124.9Y64.8
X-1124.4Y113.6
X-1123.1Y37.0
X-1122.6Y116.0
X-1122.3Y102.2
X-1122.2Y107.2
X-1121.8Y85.1
X-1121.5Y99.6
X-1121.3Y81.3
X-1121.0Y79.991
X-1120.8Y79.1
X-1120.8Y72.4
X-1120.75Y92.55
X-1120.6Y87.0
X-1120.3Y50.3
X-1120.2Y73.925
X-1119.8Y83.6
X-1118.2Y88.2
X-1118.0Y99.8
X-1118.0Y65.4
X-1117.5Y59.4
X-1117.4Y47.3
X-1117.1Y93.3
X-1117.0Y61.7
X-1116.6Y101.8
X-1116.0Y63.6
X-1115.6Y61.0
X-1115.394Y93.3
X-1115.0Y82.6
X-1114.8Y102.575
X-1114.7Y117.4
X-1114.7Y77.1
X-1114.6Y87.2
X-1114.6Y73.2
X-1114.519Y91.1
X-1114.313Y66.513
X-1114.313Y63.6
X-1113.8Y101.8
X-1113.5Y93.3
X-1113.2Y62.5
X-1113.043Y66.6
X-1112.9Y93.9
X-1111.8Y66.4
X-1111.8Y64.6
X-1111.7Y91.5
X-1111.429Y62.761
X-1111.2Y98.1
X-1111.0Y106.9
X-1109.7Y90.8
X-1109.5Y99.9
X-1108.58Y87.74
X-1108.5Y82.7
X-1108.2Y73.5
X-1108.1Y90.175
X-1108.1Y87.0
X-1107.8Y91.3
X-1107.6Y64.2
X-1107.4Y37.5
X-1107.2Y88.2
X-1106.8Y66.0
X-1106.4Y90.3
X-1106.0Y114.0
X-1106.0Y58.75
X-1105.7Y65.2
X-1104.7Y89.3
X-1104.0Y116.2
X-1103.9Y78.3
X-1103.8Y60.2
X-1103.6Y81.4
X-1103.6Y63.0
X-1103.4Y72.4
X-1102.9Y66.1
X-1102.8Y101.8
X-1102.1Y58.8
X-1102.0Y91.0
X-1101.8Y120.2
X-1101.613Y66.0
X-1100.6Y110.4
X-1100.6Y105.9
X-1100.6Y64.0
X-1098.3Y124.9
X-1098.0Y51.0
X-1096.9Y102.4
X-1096.5Y47.8
X-1096.0Y106.3
X-1094.9Y109.9
T3
X-1180.9Y95.15
X-1180.9Y92.65
X-1180.9Y90.15
X-1180.9Y87.65
X-1180.9Y81.4
X-1180.9Y78.9
X-1180.9Y76.4
X-1167.65Y125.2
X-1165.15Y125.2
X-1162.65Y125.2
X-1160.15Y125.2
X-1124.0Y86.48
X-1124.0Y83.94
X-1124.0Y81.4
X-1113.95Y47.0
X-1113.4Y56.7
X-1113.3Y52.3
X-1111.41Y47.0
X-1110.86Y56.7
X-1110.76Y52.3
X-1108.87Y47.0
X-1108.32Y56.7
X-1108.22Y52.3
X-1106.33Y47.0
X-1103.79Y47.0
X-1101.25Y47.0
T4
X-1187.84Y49.47
X-1187.84Y46.93
X-1185.3Y49.47
X-1185.3Y46.93
X-1182.76Y49.47
X-1182.76Y46.93
X-1124.87Y76.14
X-1124.87Y73.6
X-1124.87Y71.06
X-1122.33Y76.14
X-1122.33Y73.6
X-1122.33Y71.06
T5
X-1152.23Y131.37
X-1152.23Y128.83
X-1149.69Y131.37
X-1149.69Y128.83
X-1147.15Y131.37
X-1147.15Y128.83
X-1144.61Y131.37
X-1144.61Y128.83
X-1142.07Y131.37
X-1142.07Y128.83
X-1139.53Y131.37
X-1139.53Y128.83
X-1136.99Y131.37
X-1136.99Y128.83
X-1134.45Y131.37
X-1134.45Y128.83
X-1131.91Y131.37
X-1131.91Y128.83
X-1129.37Y131.37
X-1129.37Y128.83
X-1126.83Y131.37
X-1126.83Y128.83
X-1124.29Y131.37
X-1124.29Y128.83
X-1121.75Y131.37
X-1121.75Y128.83
X-1119.21Y131.37
X-1119.21Y128.83
X-1116.67Y131.37
X-1116.67Y128.83
X-1114.13Y131.37
X-1114.13Y128.83
X-1111.59Y131.37
X-1111.59Y128.83
X-1109.05Y131.37
X-1109.05Y128.83
X-1106.51Y131.37
X-1106.51Y128.83
X-1103.97Y131.37
X-1103.97Y128.83
T6
X-1179.804Y130.6
X-1176.09Y89.17
X-1176.09Y86.63
X-1176.09Y84.07
X-1176.09Y81.53
X-1174.795Y130.6
X-1173.55Y89.17
X-1173.55Y86.63
X-1173.55Y84.07
X-1173.55Y81.53
X-1171.01Y89.17
X-1171.01Y86.63
X-1171.01Y84.07
X-1171.01Y81.53
X-1168.47Y89.17
X-1168.47Y86.63
X-1168.47Y84.07
X-1168.47Y81.53
X-1165.93Y89.17
X-1165.93Y86.63
X-1165.93Y84.07
X-1165.93Y81.53
X-1163.39Y89.17
X-1163.39Y86.63
X-1163.39Y84.07
X-1163.39Y81.53
X-1160.85Y89.17
X-1160.85Y86.63
X-1160.85Y84.07
X-1160.85Y81.53
X-1158.31Y89.17
X-1158.31Y86.63
X-1158.31Y84.07
X-1158.31Y81.53
X-1126.59Y123.57
X-1126.59Y121.03
X-1124.05Y123.57
X-1124.05Y121.03
X-1121.51Y123.57
X-1121.51Y121.03
X-1119.717Y40.6
X-1118.97Y123.57
X-1118.97Y121.03
X-1116.43Y123.57
X-1116.43Y121.03
X-1114.717Y40.6
X-1113.89Y123.57
X-1113.89Y121.03
X-1111.35Y123.57
X-1111.35Y121.03
X-1109.717Y40.6
X-1108.81Y123.57
X-1108.81Y121.03
X-1104.717Y40.6
X-1099.717Y40.6
X-1095.6Y121.605
X-1095.6Y116.596
X-1094.717Y40.6
T7
X-1139.5Y49.799
X-1139.5Y37.8
X-1127.3Y49.8
X-1127.3Y37.8
X-1125.3Y43.8
T2
X-1099.399Y112.32G85X-1098.298Y112.32
G05
X-1099.399Y103.68G85X-1098.298Y103.68
G05
X-1095.068Y112.32G85X-1094.268Y112.32
G05
X-1095.068Y103.68G85X-1094.268Y103.68
G05
T3
X-1171.35Y43.1G85X-1168.85Y43.1
G05
X-1171.1Y37.1G85X-1169.1Y37.1
G05
X-1165.4Y39.1G85X-1165.4Y41.1
G05
X-1153.35Y43.6G85X-1150.85Y43.6
G05
X-1153.1Y37.6G85X-1151.1Y37.6
G05
X-1147.4Y39.6G85X-1147.4Y41.6
G05
M30
