%TF.GenerationSoftware,KiCad,Pcbnew,8.0.5*%
%TF.CreationDate,2026-03-03T15:18:42-03:00*%
%TF.ProjectId,Hoja-Base,486f6a61-2d42-4617-9365-2e6b69636164,rev?*%
%TF.SameCoordinates,Original*%
%TF.FileFunction,Drillmap*%
%TF.FilePolarity,Positive*%
%FSLAX45Y45*%
G04 Gerber Fmt 4.5, Leading zero omitted, Abs format (unit mm)*
G04 Created by KiCad (PCBNEW 8.0.5) date 2026-03-03 15:18:42*
%MOMM*%
%LPD*%
G01*
G04 APERTURE LIST*
%ADD10C,0.050000*%
%ADD11C,0.000000*%
%ADD12C,0.200000*%
%ADD13C,0.320000*%
G04 APERTURE END LIST*
D10*
X-119100000Y13520000D02*
X-119100000Y3520000D01*
X-109100000Y13520000D02*
X-119100000Y13520000D01*
X-109100000Y10160000D02*
X-109100000Y10120000D01*
X-109100000Y10120000D02*
X-109890000Y10120000D01*
X-109100000Y5250000D02*
X-109100000Y3520000D01*
X-109100000Y13520000D02*
X-109100000Y10160000D01*
X-109100000Y5250000D02*
X-109890000Y5249630D01*
X-109100000Y3520000D02*
X-119100000Y3520000D01*
X-109890000Y10120000D02*
X-109890000Y5249630D01*
D11*
G36*
X-109796884Y11009540D02*
G01*
X-109787109Y11003896D01*
X-109779854Y10995250D01*
X-109775994Y10984644D01*
X-109775994Y10973356D01*
X-109779854Y10962750D01*
X-109787109Y10954104D01*
X-109796884Y10948460D01*
X-109808000Y10946500D01*
X-109819116Y10948460D01*
X-109828891Y10954104D01*
X-109836146Y10962750D01*
X-109840006Y10973356D01*
X-109840006Y10984644D01*
X-109836146Y10995250D01*
X-109828891Y11003896D01*
X-109819116Y11009540D01*
X-109808000Y11011500D01*
X-109796884Y11009540D01*
G37*
G36*
X-109796884Y10430540D02*
G01*
X-109787109Y10424896D01*
X-109779854Y10416250D01*
X-109775994Y10405644D01*
X-109775994Y10394356D01*
X-109779854Y10383750D01*
X-109787109Y10375104D01*
X-109796884Y10369460D01*
X-109808000Y10367500D01*
X-109819116Y10369460D01*
X-109828891Y10375104D01*
X-109836146Y10383750D01*
X-109840006Y10394356D01*
X-109840006Y10405644D01*
X-109836146Y10416250D01*
X-109828891Y10424896D01*
X-109819116Y10430540D01*
X-109808000Y10432500D01*
X-109796884Y10430540D01*
G37*
D12*
D13*
X-118780000Y13260000D02*
X-118460000Y12940000D01*
X-118460000Y13260000D02*
X-118780000Y12940000D01*
X-118780000Y4110000D02*
X-118460000Y3790000D01*
X-118460000Y4110000D02*
X-118780000Y3790000D01*
X-109650000Y13240000D02*
X-109330000Y12920000D01*
X-109330000Y13240000D02*
X-109650000Y12920000D01*
D12*
X-118841723Y3206016D02*
X-118841723Y3406016D01*
X-118841723Y3406016D02*
X-118794104Y3406016D01*
X-118794104Y3406016D02*
X-118765533Y3396492D01*
X-118765533Y3396492D02*
X-118746485Y3377445D01*
X-118746485Y3377445D02*
X-118736961Y3358397D01*
X-118736961Y3358397D02*
X-118727437Y3320302D01*
X-118727437Y3320302D02*
X-118727437Y3291730D01*
X-118727437Y3291730D02*
X-118736961Y3253635D01*
X-118736961Y3253635D02*
X-118746485Y3234588D01*
X-118746485Y3234588D02*
X-118765533Y3215540D01*
X-118765533Y3215540D02*
X-118794104Y3206016D01*
X-118794104Y3206016D02*
X-118841723Y3206016D01*
X-118641723Y3206016D02*
X-118641723Y3339349D01*
X-118641723Y3301254D02*
X-118632199Y3320302D01*
X-118632199Y3320302D02*
X-118622675Y3329826D01*
X-118622675Y3329826D02*
X-118603628Y3339349D01*
X-118603628Y3339349D02*
X-118584580Y3339349D01*
X-118517914Y3206016D02*
X-118517914Y3339349D01*
X-118517914Y3406016D02*
X-118527437Y3396492D01*
X-118527437Y3396492D02*
X-118517914Y3386968D01*
X-118517914Y3386968D02*
X-118508390Y3396492D01*
X-118508390Y3396492D02*
X-118517914Y3406016D01*
X-118517914Y3406016D02*
X-118517914Y3386968D01*
X-118394104Y3206016D02*
X-118413152Y3215540D01*
X-118413152Y3215540D02*
X-118422675Y3234588D01*
X-118422675Y3234588D02*
X-118422675Y3406016D01*
X-118289342Y3206016D02*
X-118308390Y3215540D01*
X-118308390Y3215540D02*
X-118317914Y3234588D01*
X-118317914Y3234588D02*
X-118317914Y3406016D01*
X-118060771Y3206016D02*
X-118060771Y3406016D01*
X-118060771Y3406016D02*
X-117994104Y3263159D01*
X-117994104Y3263159D02*
X-117927437Y3406016D01*
X-117927437Y3406016D02*
X-117927437Y3206016D01*
X-117746485Y3206016D02*
X-117746485Y3310778D01*
X-117746485Y3310778D02*
X-117756009Y3329826D01*
X-117756009Y3329826D02*
X-117775056Y3339349D01*
X-117775056Y3339349D02*
X-117813152Y3339349D01*
X-117813152Y3339349D02*
X-117832199Y3329826D01*
X-117746485Y3215540D02*
X-117765533Y3206016D01*
X-117765533Y3206016D02*
X-117813152Y3206016D01*
X-117813152Y3206016D02*
X-117832199Y3215540D01*
X-117832199Y3215540D02*
X-117841723Y3234588D01*
X-117841723Y3234588D02*
X-117841723Y3253635D01*
X-117841723Y3253635D02*
X-117832199Y3272683D01*
X-117832199Y3272683D02*
X-117813152Y3282207D01*
X-117813152Y3282207D02*
X-117765533Y3282207D01*
X-117765533Y3282207D02*
X-117746485Y3291730D01*
X-117651247Y3339349D02*
X-117651247Y3139349D01*
X-117651247Y3329826D02*
X-117632199Y3339349D01*
X-117632199Y3339349D02*
X-117594104Y3339349D01*
X-117594104Y3339349D02*
X-117575056Y3329826D01*
X-117575056Y3329826D02*
X-117565533Y3320302D01*
X-117565533Y3320302D02*
X-117556009Y3301254D01*
X-117556009Y3301254D02*
X-117556009Y3244111D01*
X-117556009Y3244111D02*
X-117565533Y3225064D01*
X-117565533Y3225064D02*
X-117575056Y3215540D01*
X-117575056Y3215540D02*
X-117594104Y3206016D01*
X-117594104Y3206016D02*
X-117632199Y3206016D01*
X-117632199Y3206016D02*
X-117651247Y3215540D01*
X-117470294Y3225064D02*
X-117460771Y3215540D01*
X-117460771Y3215540D02*
X-117470294Y3206016D01*
X-117470294Y3206016D02*
X-117479818Y3215540D01*
X-117479818Y3215540D02*
X-117470294Y3225064D01*
X-117470294Y3225064D02*
X-117470294Y3206016D01*
X-117470294Y3329826D02*
X-117460771Y3320302D01*
X-117460771Y3320302D02*
X-117470294Y3310778D01*
X-117470294Y3310778D02*
X-117479818Y3320302D01*
X-117479818Y3320302D02*
X-117470294Y3329826D01*
X-117470294Y3329826D02*
X-117470294Y3310778D01*
X-119302500Y2977500D02*
X-119102500Y2777500D01*
X-119102500Y2977500D02*
X-119302500Y2777500D01*
X-118860771Y2986016D02*
X-118736961Y2986016D01*
X-118736961Y2986016D02*
X-118803628Y2909826D01*
X-118803628Y2909826D02*
X-118775056Y2909826D01*
X-118775056Y2909826D02*
X-118756009Y2900302D01*
X-118756009Y2900302D02*
X-118746485Y2890778D01*
X-118746485Y2890778D02*
X-118736961Y2871730D01*
X-118736961Y2871730D02*
X-118736961Y2824111D01*
X-118736961Y2824111D02*
X-118746485Y2805064D01*
X-118746485Y2805064D02*
X-118756009Y2795540D01*
X-118756009Y2795540D02*
X-118775056Y2786016D01*
X-118775056Y2786016D02*
X-118832199Y2786016D01*
X-118832199Y2786016D02*
X-118851247Y2795540D01*
X-118851247Y2795540D02*
X-118860771Y2805064D01*
X-118651247Y2805064D02*
X-118641723Y2795540D01*
X-118641723Y2795540D02*
X-118651247Y2786016D01*
X-118651247Y2786016D02*
X-118660771Y2795540D01*
X-118660771Y2795540D02*
X-118651247Y2805064D01*
X-118651247Y2805064D02*
X-118651247Y2786016D01*
X-118565533Y2966968D02*
X-118556009Y2976492D01*
X-118556009Y2976492D02*
X-118536961Y2986016D01*
X-118536961Y2986016D02*
X-118489342Y2986016D01*
X-118489342Y2986016D02*
X-118470294Y2976492D01*
X-118470294Y2976492D02*
X-118460771Y2966968D01*
X-118460771Y2966968D02*
X-118451247Y2947921D01*
X-118451247Y2947921D02*
X-118451247Y2928873D01*
X-118451247Y2928873D02*
X-118460771Y2900302D01*
X-118460771Y2900302D02*
X-118575056Y2786016D01*
X-118575056Y2786016D02*
X-118451247Y2786016D01*
X-118327437Y2986016D02*
X-118308390Y2986016D01*
X-118308390Y2986016D02*
X-118289342Y2976492D01*
X-118289342Y2976492D02*
X-118279818Y2966968D01*
X-118279818Y2966968D02*
X-118270294Y2947921D01*
X-118270294Y2947921D02*
X-118260771Y2909826D01*
X-118260771Y2909826D02*
X-118260771Y2862207D01*
X-118260771Y2862207D02*
X-118270294Y2824111D01*
X-118270294Y2824111D02*
X-118279818Y2805064D01*
X-118279818Y2805064D02*
X-118289342Y2795540D01*
X-118289342Y2795540D02*
X-118308390Y2786016D01*
X-118308390Y2786016D02*
X-118327437Y2786016D01*
X-118327437Y2786016D02*
X-118346485Y2795540D01*
X-118346485Y2795540D02*
X-118356009Y2805064D01*
X-118356009Y2805064D02*
X-118365533Y2824111D01*
X-118365533Y2824111D02*
X-118375056Y2862207D01*
X-118375056Y2862207D02*
X-118375056Y2909826D01*
X-118375056Y2909826D02*
X-118365533Y2947921D01*
X-118365533Y2947921D02*
X-118356009Y2966968D01*
X-118356009Y2966968D02*
X-118346485Y2976492D01*
X-118346485Y2976492D02*
X-118327437Y2986016D01*
X-118136961Y2986016D02*
X-118117913Y2986016D01*
X-118117913Y2986016D02*
X-118098866Y2976492D01*
X-118098866Y2976492D02*
X-118089342Y2966968D01*
X-118089342Y2966968D02*
X-118079818Y2947921D01*
X-118079818Y2947921D02*
X-118070294Y2909826D01*
X-118070294Y2909826D02*
X-118070294Y2862207D01*
X-118070294Y2862207D02*
X-118079818Y2824111D01*
X-118079818Y2824111D02*
X-118089342Y2805064D01*
X-118089342Y2805064D02*
X-118098866Y2795540D01*
X-118098866Y2795540D02*
X-118117913Y2786016D01*
X-118117913Y2786016D02*
X-118136961Y2786016D01*
X-118136961Y2786016D02*
X-118156009Y2795540D01*
X-118156009Y2795540D02*
X-118165533Y2805064D01*
X-118165533Y2805064D02*
X-118175056Y2824111D01*
X-118175056Y2824111D02*
X-118184580Y2862207D01*
X-118184580Y2862207D02*
X-118184580Y2909826D01*
X-118184580Y2909826D02*
X-118175056Y2947921D01*
X-118175056Y2947921D02*
X-118165533Y2966968D01*
X-118165533Y2966968D02*
X-118156009Y2976492D01*
X-118156009Y2976492D02*
X-118136961Y2986016D01*
X-117984580Y2786016D02*
X-117984580Y2919349D01*
X-117984580Y2900302D02*
X-117975056Y2909826D01*
X-117975056Y2909826D02*
X-117956009Y2919349D01*
X-117956009Y2919349D02*
X-117927437Y2919349D01*
X-117927437Y2919349D02*
X-117908390Y2909826D01*
X-117908390Y2909826D02*
X-117898866Y2890778D01*
X-117898866Y2890778D02*
X-117898866Y2786016D01*
X-117898866Y2890778D02*
X-117889342Y2909826D01*
X-117889342Y2909826D02*
X-117870294Y2919349D01*
X-117870294Y2919349D02*
X-117841723Y2919349D01*
X-117841723Y2919349D02*
X-117822675Y2909826D01*
X-117822675Y2909826D02*
X-117813152Y2890778D01*
X-117813152Y2890778D02*
X-117813152Y2786016D01*
X-117717913Y2786016D02*
X-117717913Y2919349D01*
X-117717913Y2900302D02*
X-117708390Y2909826D01*
X-117708390Y2909826D02*
X-117689342Y2919349D01*
X-117689342Y2919349D02*
X-117660771Y2919349D01*
X-117660771Y2919349D02*
X-117641723Y2909826D01*
X-117641723Y2909826D02*
X-117632199Y2890778D01*
X-117632199Y2890778D02*
X-117632199Y2786016D01*
X-117632199Y2890778D02*
X-117622675Y2909826D01*
X-117622675Y2909826D02*
X-117603628Y2919349D01*
X-117603628Y2919349D02*
X-117575056Y2919349D01*
X-117575056Y2919349D02*
X-117556009Y2909826D01*
X-117556009Y2909826D02*
X-117546485Y2890778D01*
X-117546485Y2890778D02*
X-117546485Y2786016D01*
X-117156009Y2995540D02*
X-117327437Y2738397D01*
X-116898866Y2986016D02*
X-116879818Y2986016D01*
X-116879818Y2986016D02*
X-116860770Y2976492D01*
X-116860770Y2976492D02*
X-116851247Y2966968D01*
X-116851247Y2966968D02*
X-116841723Y2947921D01*
X-116841723Y2947921D02*
X-116832199Y2909826D01*
X-116832199Y2909826D02*
X-116832199Y2862207D01*
X-116832199Y2862207D02*
X-116841723Y2824111D01*
X-116841723Y2824111D02*
X-116851247Y2805064D01*
X-116851247Y2805064D02*
X-116860770Y2795540D01*
X-116860770Y2795540D02*
X-116879818Y2786016D01*
X-116879818Y2786016D02*
X-116898866Y2786016D01*
X-116898866Y2786016D02*
X-116917913Y2795540D01*
X-116917913Y2795540D02*
X-116927437Y2805064D01*
X-116927437Y2805064D02*
X-116936961Y2824111D01*
X-116936961Y2824111D02*
X-116946485Y2862207D01*
X-116946485Y2862207D02*
X-116946485Y2909826D01*
X-116946485Y2909826D02*
X-116936961Y2947921D01*
X-116936961Y2947921D02*
X-116927437Y2966968D01*
X-116927437Y2966968D02*
X-116917913Y2976492D01*
X-116917913Y2976492D02*
X-116898866Y2986016D01*
X-116746485Y2805064D02*
X-116736961Y2795540D01*
X-116736961Y2795540D02*
X-116746485Y2786016D01*
X-116746485Y2786016D02*
X-116756009Y2795540D01*
X-116756009Y2795540D02*
X-116746485Y2805064D01*
X-116746485Y2805064D02*
X-116746485Y2786016D01*
X-116546485Y2786016D02*
X-116660770Y2786016D01*
X-116603628Y2786016D02*
X-116603628Y2986016D01*
X-116603628Y2986016D02*
X-116622675Y2957445D01*
X-116622675Y2957445D02*
X-116641723Y2938397D01*
X-116641723Y2938397D02*
X-116660770Y2928873D01*
X-116470294Y2966968D02*
X-116460770Y2976492D01*
X-116460770Y2976492D02*
X-116441723Y2986016D01*
X-116441723Y2986016D02*
X-116394104Y2986016D01*
X-116394104Y2986016D02*
X-116375056Y2976492D01*
X-116375056Y2976492D02*
X-116365532Y2966968D01*
X-116365532Y2966968D02*
X-116356009Y2947921D01*
X-116356009Y2947921D02*
X-116356009Y2928873D01*
X-116356009Y2928873D02*
X-116365532Y2900302D01*
X-116365532Y2900302D02*
X-116479818Y2786016D01*
X-116479818Y2786016D02*
X-116356009Y2786016D01*
X-116184580Y2986016D02*
X-116222675Y2986016D01*
X-116222675Y2986016D02*
X-116241723Y2976492D01*
X-116241723Y2976492D02*
X-116251247Y2966968D01*
X-116251247Y2966968D02*
X-116270294Y2938397D01*
X-116270294Y2938397D02*
X-116279818Y2900302D01*
X-116279818Y2900302D02*
X-116279818Y2824111D01*
X-116279818Y2824111D02*
X-116270294Y2805064D01*
X-116270294Y2805064D02*
X-116260770Y2795540D01*
X-116260770Y2795540D02*
X-116241723Y2786016D01*
X-116241723Y2786016D02*
X-116203628Y2786016D01*
X-116203628Y2786016D02*
X-116184580Y2795540D01*
X-116184580Y2795540D02*
X-116175056Y2805064D01*
X-116175056Y2805064D02*
X-116165532Y2824111D01*
X-116165532Y2824111D02*
X-116165532Y2871730D01*
X-116165532Y2871730D02*
X-116175056Y2890778D01*
X-116175056Y2890778D02*
X-116184580Y2900302D01*
X-116184580Y2900302D02*
X-116203628Y2909826D01*
X-116203628Y2909826D02*
X-116241723Y2909826D01*
X-116241723Y2909826D02*
X-116260770Y2900302D01*
X-116260770Y2900302D02*
X-116270294Y2890778D01*
X-116270294Y2890778D02*
X-116279818Y2871730D01*
X-116041723Y2986016D02*
X-116022675Y2986016D01*
X-116022675Y2986016D02*
X-116003628Y2976492D01*
X-116003628Y2976492D02*
X-115994104Y2966968D01*
X-115994104Y2966968D02*
X-115984580Y2947921D01*
X-115984580Y2947921D02*
X-115975056Y2909826D01*
X-115975056Y2909826D02*
X-115975056Y2862207D01*
X-115975056Y2862207D02*
X-115984580Y2824111D01*
X-115984580Y2824111D02*
X-115994104Y2805064D01*
X-115994104Y2805064D02*
X-116003628Y2795540D01*
X-116003628Y2795540D02*
X-116022675Y2786016D01*
X-116022675Y2786016D02*
X-116041723Y2786016D01*
X-116041723Y2786016D02*
X-116060770Y2795540D01*
X-116060770Y2795540D02*
X-116070294Y2805064D01*
X-116070294Y2805064D02*
X-116079818Y2824111D01*
X-116079818Y2824111D02*
X-116089342Y2862207D01*
X-116089342Y2862207D02*
X-116089342Y2909826D01*
X-116089342Y2909826D02*
X-116079818Y2947921D01*
X-116079818Y2947921D02*
X-116070294Y2966968D01*
X-116070294Y2966968D02*
X-116060770Y2976492D01*
X-116060770Y2976492D02*
X-116041723Y2986016D01*
X-115898866Y2986016D02*
X-115898866Y2947921D01*
X-115822675Y2986016D02*
X-115822675Y2947921D01*
X-115527437Y2709826D02*
X-115536961Y2719350D01*
X-115536961Y2719350D02*
X-115556008Y2747921D01*
X-115556008Y2747921D02*
X-115565532Y2766969D01*
X-115565532Y2766969D02*
X-115575056Y2795540D01*
X-115575056Y2795540D02*
X-115584580Y2843159D01*
X-115584580Y2843159D02*
X-115584580Y2881254D01*
X-115584580Y2881254D02*
X-115575056Y2928873D01*
X-115575056Y2928873D02*
X-115565532Y2957445D01*
X-115565532Y2957445D02*
X-115556008Y2976492D01*
X-115556008Y2976492D02*
X-115536961Y3005064D01*
X-115536961Y3005064D02*
X-115527437Y3014588D01*
X-115470294Y2986016D02*
X-115346485Y2986016D01*
X-115346485Y2986016D02*
X-115413151Y2909826D01*
X-115413151Y2909826D02*
X-115384580Y2909826D01*
X-115384580Y2909826D02*
X-115365532Y2900302D01*
X-115365532Y2900302D02*
X-115356008Y2890778D01*
X-115356008Y2890778D02*
X-115346485Y2871730D01*
X-115346485Y2871730D02*
X-115346485Y2824111D01*
X-115346485Y2824111D02*
X-115356008Y2805064D01*
X-115356008Y2805064D02*
X-115365532Y2795540D01*
X-115365532Y2795540D02*
X-115384580Y2786016D01*
X-115384580Y2786016D02*
X-115441723Y2786016D01*
X-115441723Y2786016D02*
X-115460770Y2795540D01*
X-115460770Y2795540D02*
X-115470294Y2805064D01*
X-115108389Y2786016D02*
X-115108389Y2986016D01*
X-115022675Y2786016D02*
X-115022675Y2890778D01*
X-115022675Y2890778D02*
X-115032199Y2909826D01*
X-115032199Y2909826D02*
X-115051246Y2919349D01*
X-115051246Y2919349D02*
X-115079818Y2919349D01*
X-115079818Y2919349D02*
X-115098866Y2909826D01*
X-115098866Y2909826D02*
X-115108389Y2900302D01*
X-114898866Y2786016D02*
X-114917913Y2795540D01*
X-114917913Y2795540D02*
X-114927437Y2805064D01*
X-114927437Y2805064D02*
X-114936961Y2824111D01*
X-114936961Y2824111D02*
X-114936961Y2881254D01*
X-114936961Y2881254D02*
X-114927437Y2900302D01*
X-114927437Y2900302D02*
X-114917913Y2909826D01*
X-114917913Y2909826D02*
X-114898866Y2919349D01*
X-114898866Y2919349D02*
X-114870294Y2919349D01*
X-114870294Y2919349D02*
X-114851246Y2909826D01*
X-114851246Y2909826D02*
X-114841723Y2900302D01*
X-114841723Y2900302D02*
X-114832199Y2881254D01*
X-114832199Y2881254D02*
X-114832199Y2824111D01*
X-114832199Y2824111D02*
X-114841723Y2805064D01*
X-114841723Y2805064D02*
X-114851246Y2795540D01*
X-114851246Y2795540D02*
X-114870294Y2786016D01*
X-114870294Y2786016D02*
X-114898866Y2786016D01*
X-114717913Y2786016D02*
X-114736961Y2795540D01*
X-114736961Y2795540D02*
X-114746485Y2814588D01*
X-114746485Y2814588D02*
X-114746485Y2986016D01*
X-114565532Y2795540D02*
X-114584580Y2786016D01*
X-114584580Y2786016D02*
X-114622675Y2786016D01*
X-114622675Y2786016D02*
X-114641723Y2795540D01*
X-114641723Y2795540D02*
X-114651246Y2814588D01*
X-114651246Y2814588D02*
X-114651246Y2890778D01*
X-114651246Y2890778D02*
X-114641723Y2909826D01*
X-114641723Y2909826D02*
X-114622675Y2919349D01*
X-114622675Y2919349D02*
X-114584580Y2919349D01*
X-114584580Y2919349D02*
X-114565532Y2909826D01*
X-114565532Y2909826D02*
X-114556008Y2890778D01*
X-114556008Y2890778D02*
X-114556008Y2871730D01*
X-114556008Y2871730D02*
X-114651246Y2852683D01*
X-114479818Y2795540D02*
X-114460770Y2786016D01*
X-114460770Y2786016D02*
X-114422675Y2786016D01*
X-114422675Y2786016D02*
X-114403627Y2795540D01*
X-114403627Y2795540D02*
X-114394104Y2814588D01*
X-114394104Y2814588D02*
X-114394104Y2824111D01*
X-114394104Y2824111D02*
X-114403627Y2843159D01*
X-114403627Y2843159D02*
X-114422675Y2852683D01*
X-114422675Y2852683D02*
X-114451246Y2852683D01*
X-114451246Y2852683D02*
X-114470294Y2862207D01*
X-114470294Y2862207D02*
X-114479818Y2881254D01*
X-114479818Y2881254D02*
X-114479818Y2890778D01*
X-114479818Y2890778D02*
X-114470294Y2909826D01*
X-114470294Y2909826D02*
X-114451246Y2919349D01*
X-114451246Y2919349D02*
X-114422675Y2919349D01*
X-114422675Y2919349D02*
X-114403627Y2909826D01*
X-114327437Y2709826D02*
X-114317913Y2719350D01*
X-114317913Y2719350D02*
X-114298865Y2747921D01*
X-114298865Y2747921D02*
X-114289342Y2766969D01*
X-114289342Y2766969D02*
X-114279818Y2795540D01*
X-114279818Y2795540D02*
X-114270294Y2843159D01*
X-114270294Y2843159D02*
X-114270294Y2881254D01*
X-114270294Y2881254D02*
X-114279818Y2928873D01*
X-114279818Y2928873D02*
X-114289342Y2957445D01*
X-114289342Y2957445D02*
X-114298865Y2976492D01*
X-114298865Y2976492D02*
X-114317913Y3005064D01*
X-114317913Y3005064D02*
X-114327437Y3014588D01*
X-113965532Y2709826D02*
X-113975056Y2719350D01*
X-113975056Y2719350D02*
X-113994104Y2747921D01*
X-113994104Y2747921D02*
X-114003627Y2766969D01*
X-114003627Y2766969D02*
X-114013151Y2795540D01*
X-114013151Y2795540D02*
X-114022675Y2843159D01*
X-114022675Y2843159D02*
X-114022675Y2881254D01*
X-114022675Y2881254D02*
X-114013151Y2928873D01*
X-114013151Y2928873D02*
X-114003627Y2957445D01*
X-114003627Y2957445D02*
X-113994104Y2976492D01*
X-113994104Y2976492D02*
X-113975056Y3005064D01*
X-113975056Y3005064D02*
X-113965532Y3014588D01*
X-113889342Y2919349D02*
X-113889342Y2786016D01*
X-113889342Y2900302D02*
X-113879818Y2909826D01*
X-113879818Y2909826D02*
X-113860770Y2919349D01*
X-113860770Y2919349D02*
X-113832199Y2919349D01*
X-113832199Y2919349D02*
X-113813151Y2909826D01*
X-113813151Y2909826D02*
X-113803627Y2890778D01*
X-113803627Y2890778D02*
X-113803627Y2786016D01*
X-113679818Y2786016D02*
X-113698865Y2795540D01*
X-113698865Y2795540D02*
X-113708389Y2805064D01*
X-113708389Y2805064D02*
X-113717913Y2824111D01*
X-113717913Y2824111D02*
X-113717913Y2881254D01*
X-113717913Y2881254D02*
X-113708389Y2900302D01*
X-113708389Y2900302D02*
X-113698865Y2909826D01*
X-113698865Y2909826D02*
X-113679818Y2919349D01*
X-113679818Y2919349D02*
X-113651246Y2919349D01*
X-113651246Y2919349D02*
X-113632199Y2909826D01*
X-113632199Y2909826D02*
X-113622675Y2900302D01*
X-113622675Y2900302D02*
X-113613151Y2881254D01*
X-113613151Y2881254D02*
X-113613151Y2824111D01*
X-113613151Y2824111D02*
X-113622675Y2805064D01*
X-113622675Y2805064D02*
X-113632199Y2795540D01*
X-113632199Y2795540D02*
X-113651246Y2786016D01*
X-113651246Y2786016D02*
X-113679818Y2786016D01*
X-113556008Y2919349D02*
X-113479818Y2919349D01*
X-113527437Y2986016D02*
X-113527437Y2814588D01*
X-113527437Y2814588D02*
X-113517913Y2795540D01*
X-113517913Y2795540D02*
X-113498865Y2786016D01*
X-113498865Y2786016D02*
X-113479818Y2786016D01*
X-113260770Y2919349D02*
X-113260770Y2719350D01*
X-113260770Y2909826D02*
X-113241723Y2919349D01*
X-113241723Y2919349D02*
X-113203627Y2919349D01*
X-113203627Y2919349D02*
X-113184580Y2909826D01*
X-113184580Y2909826D02*
X-113175056Y2900302D01*
X-113175056Y2900302D02*
X-113165532Y2881254D01*
X-113165532Y2881254D02*
X-113165532Y2824111D01*
X-113165532Y2824111D02*
X-113175056Y2805064D01*
X-113175056Y2805064D02*
X-113184580Y2795540D01*
X-113184580Y2795540D02*
X-113203627Y2786016D01*
X-113203627Y2786016D02*
X-113241723Y2786016D01*
X-113241723Y2786016D02*
X-113260770Y2795540D01*
X-113051246Y2786016D02*
X-113070294Y2795540D01*
X-113070294Y2795540D02*
X-113079818Y2814588D01*
X-113079818Y2814588D02*
X-113079818Y2986016D01*
X-112889342Y2786016D02*
X-112889342Y2890778D01*
X-112889342Y2890778D02*
X-112898865Y2909826D01*
X-112898865Y2909826D02*
X-112917913Y2919349D01*
X-112917913Y2919349D02*
X-112956008Y2919349D01*
X-112956008Y2919349D02*
X-112975056Y2909826D01*
X-112889342Y2795540D02*
X-112908389Y2786016D01*
X-112908389Y2786016D02*
X-112956008Y2786016D01*
X-112956008Y2786016D02*
X-112975056Y2795540D01*
X-112975056Y2795540D02*
X-112984580Y2814588D01*
X-112984580Y2814588D02*
X-112984580Y2833635D01*
X-112984580Y2833635D02*
X-112975056Y2852683D01*
X-112975056Y2852683D02*
X-112956008Y2862207D01*
X-112956008Y2862207D02*
X-112908389Y2862207D01*
X-112908389Y2862207D02*
X-112889342Y2871730D01*
X-112822675Y2919349D02*
X-112746484Y2919349D01*
X-112794103Y2986016D02*
X-112794103Y2814588D01*
X-112794103Y2814588D02*
X-112784580Y2795540D01*
X-112784580Y2795540D02*
X-112765532Y2786016D01*
X-112765532Y2786016D02*
X-112746484Y2786016D01*
X-112603627Y2795540D02*
X-112622675Y2786016D01*
X-112622675Y2786016D02*
X-112660770Y2786016D01*
X-112660770Y2786016D02*
X-112679818Y2795540D01*
X-112679818Y2795540D02*
X-112689342Y2814588D01*
X-112689342Y2814588D02*
X-112689342Y2890778D01*
X-112689342Y2890778D02*
X-112679818Y2909826D01*
X-112679818Y2909826D02*
X-112660770Y2919349D01*
X-112660770Y2919349D02*
X-112622675Y2919349D01*
X-112622675Y2919349D02*
X-112603627Y2909826D01*
X-112603627Y2909826D02*
X-112594103Y2890778D01*
X-112594103Y2890778D02*
X-112594103Y2871730D01*
X-112594103Y2871730D02*
X-112689342Y2852683D01*
X-112422675Y2786016D02*
X-112422675Y2986016D01*
X-112422675Y2795540D02*
X-112441722Y2786016D01*
X-112441722Y2786016D02*
X-112479818Y2786016D01*
X-112479818Y2786016D02*
X-112498865Y2795540D01*
X-112498865Y2795540D02*
X-112508389Y2805064D01*
X-112508389Y2805064D02*
X-112517913Y2824111D01*
X-112517913Y2824111D02*
X-112517913Y2881254D01*
X-112517913Y2881254D02*
X-112508389Y2900302D01*
X-112508389Y2900302D02*
X-112498865Y2909826D01*
X-112498865Y2909826D02*
X-112479818Y2919349D01*
X-112479818Y2919349D02*
X-112441722Y2919349D01*
X-112441722Y2919349D02*
X-112422675Y2909826D01*
X-112346484Y2709826D02*
X-112336961Y2719350D01*
X-112336961Y2719350D02*
X-112317913Y2747921D01*
X-112317913Y2747921D02*
X-112308389Y2766969D01*
X-112308389Y2766969D02*
X-112298865Y2795540D01*
X-112298865Y2795540D02*
X-112289342Y2843159D01*
X-112289342Y2843159D02*
X-112289342Y2881254D01*
X-112289342Y2881254D02*
X-112298865Y2928873D01*
X-112298865Y2928873D02*
X-112308389Y2957445D01*
X-112308389Y2957445D02*
X-112317913Y2976492D01*
X-112317913Y2976492D02*
X-112336961Y3005064D01*
X-112336961Y3005064D02*
X-112346484Y3014588D01*
M02*
