G04 #@! TF.GenerationSoftware,KiCad,Pcbnew,8.0.5*
G04 #@! TF.CreationDate,2026-03-03T15:17:13-03:00*
G04 #@! TF.ProjectId,Hoja-Base,486f6a61-2d42-4617-9365-2e6b69636164,rev?*
G04 #@! TF.SameCoordinates,Original*
G04 #@! TF.FileFunction,Soldermask,Bot*
G04 #@! TF.FilePolarity,Negative*
%FSLAX46Y46*%
G04 Gerber Fmt 4.6, Leading zero omitted, Abs format (unit mm)*
G04 Created by KiCad (PCBNEW 8.0.5) date 2026-03-03 15:17:13*
%MOMM*%
%LPD*%
G01*
G04 APERTURE LIST*
G04 Aperture macros list*
%AMRoundRect*
0 Rectangle with rounded corners*
0 $1 Rounding radius*
0 $2 $3 $4 $5 $6 $7 $8 $9 X,Y pos of 4 corners*
0 Add a 4 corners polygon primitive as box body*
4,1,4,$2,$3,$4,$5,$6,$7,$8,$9,$2,$3,0*
0 Add four circle primitives for the rounded corners*
1,1,$1+$1,$2,$3*
1,1,$1+$1,$4,$5*
1,1,$1+$1,$6,$7*
1,1,$1+$1,$8,$9*
0 Add four rect primitives between the rounded corners*
20,1,$1+$1,$2,$3,$4,$5,0*
20,1,$1+$1,$4,$5,$6,$7,0*
20,1,$1+$1,$6,$7,$8,$9,0*
20,1,$1+$1,$8,$9,$2,$3,0*%
G04 Aperture macros list end*
%ADD10C,2.794000*%
%ADD11R,1.800000X1.800000*%
%ADD12C,1.800000*%
%ADD13R,1.700000X1.700000*%
%ADD14O,1.700000X1.700000*%
%ADD15C,1.524000*%
%ADD16R,1.600000X1.600000*%
%ADD17C,1.600000*%
%ADD18C,1.879500*%
%ADD19C,3.200000*%
%ADD20C,2.000000*%
%ADD21O,2.100000X1.000000*%
%ADD22O,1.800000X1.000000*%
%ADD23R,2.600000X2.600000*%
%ADD24O,2.600000X2.600000*%
%ADD25C,1.400000*%
%ADD26RoundRect,0.102000X-0.900000X-0.900000X0.900000X-0.900000X0.900000X0.900000X-0.900000X0.900000X0*%
%ADD27C,2.004000*%
%ADD28O,4.604000X2.404000*%
%ADD29O,4.204000X2.204000*%
%ADD30O,2.204000X4.204000*%
G04 APERTURE END LIST*
D10*
X-1138600000Y94700000D03*
X-1138600500Y106900000D03*
X-1150599500Y106900000D03*
X-1150600000Y94700000D03*
X-1144600000Y92700000D03*
D11*
X-1187840000Y46930000D03*
D12*
X-1187840000Y49470000D03*
X-1185300000Y46930000D03*
X-1185300000Y49470000D03*
X-1182760000Y46930000D03*
X-1182760000Y49470000D03*
D11*
X-1176090000Y81530000D03*
D12*
X-1176090000Y84070000D03*
X-1173550000Y81530000D03*
X-1173550000Y84070000D03*
X-1171010000Y81530000D03*
X-1171010000Y84070000D03*
X-1168470000Y81530000D03*
X-1168470000Y84070000D03*
X-1165930000Y81530000D03*
X-1165930000Y84070000D03*
X-1163390000Y81530000D03*
X-1163390000Y84070000D03*
X-1160850000Y81530000D03*
X-1160850000Y84070000D03*
X-1158310000Y81530000D03*
X-1158310000Y84070000D03*
D13*
X-1113500000Y52100000D03*
D14*
X-1110960000Y52100000D03*
X-1108420000Y52100000D03*
D13*
X-1114000000Y47400000D03*
D14*
X-1111460000Y47400000D03*
X-1108920000Y47400000D03*
X-1106380000Y47400000D03*
X-1103840000Y47400000D03*
X-1101300000Y47400000D03*
D15*
X-1103970000Y131370000D03*
X-1103970000Y128830000D03*
X-1106510000Y131370000D03*
X-1106510000Y128830000D03*
X-1109050000Y131370000D03*
X-1109050000Y128830000D03*
X-1111590000Y131370000D03*
X-1111590000Y128830000D03*
X-1114130000Y131370000D03*
X-1114130000Y128830000D03*
X-1116670000Y131370000D03*
X-1116670000Y128830000D03*
X-1119210000Y131370000D03*
X-1119210000Y128830000D03*
X-1121750000Y131370000D03*
X-1121750000Y128830000D03*
X-1124290000Y131370000D03*
X-1124290000Y128830000D03*
X-1126830000Y131370000D03*
X-1126830000Y128830000D03*
X-1129370000Y131370000D03*
X-1129370000Y128830000D03*
X-1131910000Y131370000D03*
X-1131910000Y128830000D03*
X-1134450000Y131370000D03*
X-1134450000Y128830000D03*
X-1136990000Y131370000D03*
X-1136990000Y128830000D03*
X-1139530000Y131370000D03*
X-1139530000Y128830000D03*
X-1142070000Y131370000D03*
X-1142070000Y128830000D03*
X-1144610000Y131370000D03*
X-1144610000Y128830000D03*
X-1147150000Y131370000D03*
X-1147150000Y128830000D03*
X-1149690000Y131370000D03*
X-1149690000Y128830000D03*
X-1152230000Y131370000D03*
X-1152230000Y128830000D03*
D16*
X-1160150000Y125200000D03*
D17*
X-1162650000Y125200000D03*
X-1165150000Y125200000D03*
X-1167650000Y125200000D03*
D18*
X-1134900000Y103400000D03*
X-1124400000Y103400000D03*
D19*
X-1186200000Y131000000D03*
D10*
X-1127300000Y49800000D03*
X-1139500000Y49799500D03*
X-1139500000Y37800500D03*
X-1127300000Y37800000D03*
X-1125300000Y43800000D03*
D13*
X-1124000000Y81400000D03*
D14*
X-1124000000Y83940000D03*
X-1124000000Y86480000D03*
D11*
X-1108810000Y123570000D03*
D12*
X-1108810000Y121030000D03*
X-1111350000Y123570000D03*
X-1111350000Y121030000D03*
X-1113890000Y123570000D03*
X-1113890000Y121030000D03*
X-1116430000Y123570000D03*
X-1116430000Y121030000D03*
X-1118970000Y123570000D03*
X-1118970000Y121030000D03*
X-1121510000Y123570000D03*
X-1121510000Y121030000D03*
X-1124050000Y123570000D03*
X-1124050000Y121030000D03*
X-1126590000Y123570000D03*
X-1126590000Y121030000D03*
D20*
X-1174795500Y130600000D03*
X-1179804500Y130600000D03*
D21*
X-1098580000Y102580000D03*
X-1098580000Y111220000D03*
D22*
X-1094400000Y111220000D03*
X-1094400000Y102580000D03*
D16*
X-1180900000Y81400000D03*
D17*
X-1180900000Y78900000D03*
X-1180900000Y76400000D03*
D23*
X-1135400000Y55200000D03*
D24*
X-1120160000Y55200000D03*
D19*
X-1094900000Y130800000D03*
D11*
X-1176090000Y86630000D03*
D12*
X-1176090000Y89170000D03*
X-1173550000Y86630000D03*
X-1173550000Y89170000D03*
X-1171010000Y86630000D03*
X-1171010000Y89170000D03*
X-1168470000Y86630000D03*
X-1168470000Y89170000D03*
X-1165930000Y86630000D03*
X-1165930000Y89170000D03*
X-1163390000Y86630000D03*
X-1163390000Y89170000D03*
X-1160850000Y86630000D03*
X-1160850000Y89170000D03*
X-1158310000Y86630000D03*
X-1158310000Y89170000D03*
D25*
X-1118650000Y105400000D03*
X-1111350000Y105400000D03*
D11*
X-1124870000Y76140000D03*
D12*
X-1122330000Y76140000D03*
X-1124870000Y73600000D03*
X-1122330000Y73600000D03*
X-1124870000Y71060000D03*
X-1122330000Y71060000D03*
D26*
X-1119717500Y40600000D03*
D27*
X-1114717500Y40600000D03*
X-1109717500Y40600000D03*
X-1104717500Y40600000D03*
X-1099717500Y40600000D03*
X-1094717500Y40600000D03*
D28*
X-1152100000Y43600000D03*
D29*
X-1152100000Y37600000D03*
D30*
X-1147400000Y40600000D03*
D23*
X-1148600000Y87600000D03*
D24*
X-1133360000Y87600000D03*
D16*
X-1180900000Y95150000D03*
D17*
X-1180900000Y92650000D03*
X-1180900000Y90150000D03*
X-1180900000Y87650000D03*
D28*
X-1170100000Y43100000D03*
D29*
X-1170100000Y37100000D03*
D30*
X-1165400000Y40100000D03*
D20*
X-1095600000Y116595500D03*
X-1095600000Y121604500D03*
D13*
X-1113300000Y56600000D03*
D14*
X-1110760000Y56600000D03*
X-1108220000Y56600000D03*
D19*
X-1186200000Y39500000D03*
M02*
