%TF.GenerationSoftware,KiCad,Pcbnew,8.0.5*%
%TF.CreationDate,2026-03-05T12:40:02-03:00*%
%TF.ProjectId,Hoja-Base,486f6a61-2d42-4617-9365-2e6b69636164,rev?*%
%TF.SameCoordinates,Original*%
%TF.FileFunction,Drillmap*%
%TF.FilePolarity,Positive*%
%FSLAX45Y45*%
G04 Gerber Fmt 4.5, Leading zero omitted, Abs format (unit mm)*
G04 Created by KiCad (PCBNEW 8.0.5) date 2026-03-05 12:40:02*
%MOMM*%
%LPD*%
G01*
G04 APERTURE LIST*
%ADD10C,0.050000*%
%ADD11C,0.000000*%
%ADD12C,0.200000*%
%ADD13C,0.100000*%
%ADD14C,0.105000*%
%ADD15C,0.110000*%
%ADD16C,0.120000*%
%ADD17C,0.152400*%
G04 APERTURE END LIST*
D10*
X-119100000Y13520000D02*
X-119100000Y3520000D01*
X-109100000Y13520000D02*
X-119100000Y13520000D01*
X-109100000Y10160000D02*
X-109100000Y10120000D01*
X-109100000Y10120000D02*
X-109890000Y10120000D01*
X-109100000Y5250000D02*
X-109100000Y3520000D01*
X-109100000Y13520000D02*
X-109100000Y10160000D01*
X-109100000Y5250000D02*
X-109890000Y5249630D01*
X-109100000Y3520000D02*
X-119100000Y3520000D01*
X-109890000Y10120000D02*
X-109890000Y5249630D01*
D11*
G36*
X-109823734Y11119540D02*
G01*
X-109813959Y11113896D01*
X-109806704Y11105250D01*
X-109802844Y11094644D01*
X-109802844Y11083356D01*
X-109806704Y11072750D01*
X-109813959Y11064104D01*
X-109823734Y11058460D01*
X-109834850Y11056500D01*
X-109845966Y11058460D01*
X-109855741Y11064104D01*
X-109862996Y11072750D01*
X-109866856Y11083356D01*
X-109866856Y11094644D01*
X-109862996Y11105250D01*
X-109855741Y11113896D01*
X-109845966Y11119540D01*
X-109834850Y11121500D01*
X-109823734Y11119540D01*
G37*
G36*
X-109823734Y10540540D02*
G01*
X-109813959Y10534896D01*
X-109806704Y10526250D01*
X-109802844Y10515644D01*
X-109802844Y10504356D01*
X-109806704Y10493750D01*
X-109813959Y10485104D01*
X-109823734Y10479460D01*
X-109834850Y10477500D01*
X-109845966Y10479460D01*
X-109855741Y10485104D01*
X-109862996Y10493750D01*
X-109866856Y10504356D01*
X-109866856Y10515644D01*
X-109862996Y10526250D01*
X-109855741Y10534896D01*
X-109845966Y10540540D01*
X-109834850Y10542500D01*
X-109823734Y10540540D01*
G37*
D12*
D13*
X-118995000Y10195000D02*
X-118965000Y10165000D01*
X-118965000Y10195000D02*
X-118995000Y10165000D01*
X-118855000Y7335000D02*
X-118825000Y7305000D01*
X-118825000Y7335000D02*
X-118855000Y7305000D01*
X-118765000Y9905000D02*
X-118735000Y9875000D01*
X-118735000Y9905000D02*
X-118765000Y9875000D01*
X-118685000Y7775000D02*
X-118655000Y7745000D01*
X-118655000Y7775000D02*
X-118685000Y7745000D01*
X-118615000Y10195000D02*
X-118585000Y10165000D01*
X-118585000Y10195000D02*
X-118615000Y10165000D01*
X-118605000Y9515000D02*
X-118575000Y9485000D01*
X-118575000Y9515000D02*
X-118605000Y9485000D01*
X-118605000Y8595000D02*
X-118575000Y8565000D01*
X-118575000Y8595000D02*
X-118605000Y8565000D01*
X-118325000Y10385000D02*
X-118295000Y10355000D01*
X-118295000Y10385000D02*
X-118325000Y10355000D01*
X-118325000Y8325000D02*
X-118295000Y8295000D01*
X-118295000Y8325000D02*
X-118325000Y8295000D01*
X-118215000Y4315000D02*
X-118185000Y4285000D01*
X-118185000Y4315000D02*
X-118215000Y4285000D01*
X-118065000Y5325000D02*
X-118035000Y5295000D01*
X-118035000Y5325000D02*
X-118065000Y5295000D01*
X-117935000Y4175000D02*
X-117905000Y4145000D01*
X-117905000Y4175000D02*
X-117935000Y4145000D01*
X-117895000Y8625000D02*
X-117865000Y8595000D01*
X-117865000Y8625000D02*
X-117895000Y8595000D01*
X-117505000Y10165000D02*
X-117475000Y10135000D01*
X-117475000Y10165000D02*
X-117505000Y10135000D01*
X-117355000Y7605000D02*
X-117325000Y7575000D01*
X-117325000Y7605000D02*
X-117355000Y7575000D01*
X-117315000Y11375000D02*
X-117285000Y11345000D01*
X-117285000Y11375000D02*
X-117315000Y11345000D01*
X-117265000Y12475000D02*
X-117235000Y12445000D01*
X-117235000Y12475000D02*
X-117265000Y12445000D01*
X-117255000Y11965000D02*
X-117225000Y11935000D01*
X-117225000Y11965000D02*
X-117255000Y11935000D01*
X-117225000Y10585000D02*
X-117195000Y10555000D01*
X-117195000Y10585000D02*
X-117225000Y10555000D01*
X-117185000Y12735000D02*
X-117155000Y12705000D01*
X-117155000Y12735000D02*
X-117185000Y12705000D01*
X-117175000Y11285000D02*
X-117145000Y11255000D01*
X-117145000Y11285000D02*
X-117175000Y11255000D01*
X-117145000Y13195000D02*
X-117115000Y13165000D01*
X-117115000Y13195000D02*
X-117145000Y13165000D01*
X-117075000Y9855000D02*
X-117045000Y9825000D01*
X-117045000Y9855000D02*
X-117075000Y9825000D01*
X-117045000Y12215000D02*
X-117015000Y12185000D01*
X-117015000Y12215000D02*
X-117045000Y12185000D01*
X-116945000Y10495000D02*
X-116915000Y10465000D01*
X-116915000Y10495000D02*
X-116945000Y10465000D01*
X-116932123Y11277877D02*
X-116902123Y11247877D01*
X-116902123Y11277877D02*
X-116932123Y11247877D01*
X-116865000Y10305000D02*
X-116835000Y10275000D01*
X-116835000Y10305000D02*
X-116865000Y10275000D01*
X-116858750Y11087500D02*
X-116828750Y11057500D01*
X-116828750Y11087500D02*
X-116858750Y11057500D01*
X-116840017Y11737500D02*
X-116810017Y11707500D01*
X-116810017Y11737500D02*
X-116840017Y11707500D01*
X-116815000Y11235000D02*
X-116785000Y11205000D01*
X-116785000Y11235000D02*
X-116815000Y11205000D01*
X-116805000Y10245000D02*
X-116775000Y10215000D01*
X-116775000Y10245000D02*
X-116805000Y10215000D01*
X-116795000Y11037500D02*
X-116765000Y11007500D01*
X-116765000Y11037500D02*
X-116795000Y11007500D01*
X-116790702Y11810702D02*
X-116760702Y11780702D01*
X-116760702Y11810702D02*
X-116790702Y11780702D01*
X-116790420Y11630420D02*
X-116760420Y11600420D01*
X-116760420Y11630420D02*
X-116790420Y11600420D01*
X-116775000Y10035000D02*
X-116745000Y10005000D01*
X-116745000Y10035000D02*
X-116775000Y10005000D01*
X-116745000Y11315000D02*
X-116715000Y11285000D01*
X-116715000Y11315000D02*
X-116745000Y11285000D01*
X-116714133Y10840182D02*
X-116684133Y10810182D01*
X-116684133Y10840182D02*
X-116714133Y10810182D01*
X-116695000Y10985000D02*
X-116665000Y10955000D01*
X-116665000Y10985000D02*
X-116695000Y10955000D01*
X-116695000Y10915000D02*
X-116665000Y10885000D01*
X-116665000Y10915000D02*
X-116695000Y10885000D01*
X-116687500Y11582123D02*
X-116657500Y11552123D01*
X-116657500Y11582123D02*
X-116687500Y11552123D01*
X-116682920Y11762920D02*
X-116652920Y11732920D01*
X-116652920Y11762920D02*
X-116682920Y11732920D01*
X-116675000Y11375000D02*
X-116645000Y11345000D01*
X-116645000Y11375000D02*
X-116675000Y11345000D01*
X-116674396Y11057115D02*
X-116644396Y11027115D01*
X-116644396Y11057115D02*
X-116674396Y11027115D01*
X-116635000Y11695000D02*
X-116605000Y11665000D01*
X-116605000Y11695000D02*
X-116635000Y11665000D01*
X-116625000Y9665000D02*
X-116595000Y9635000D01*
X-116595000Y9665000D02*
X-116625000Y9635000D01*
X-116595000Y10775000D02*
X-116565000Y10745000D01*
X-116565000Y10775000D02*
X-116595000Y10745000D01*
X-116575000Y11455000D02*
X-116545000Y11425000D01*
X-116545000Y11455000D02*
X-116575000Y11425000D01*
X-116565000Y6725000D02*
X-116535000Y6695000D01*
X-116535000Y6725000D02*
X-116565000Y6695000D01*
X-116545000Y9495000D02*
X-116515000Y9465000D01*
X-116515000Y9495000D02*
X-116545000Y9465000D01*
X-116496169Y11479348D02*
X-116466169Y11449348D01*
X-116466169Y11479348D02*
X-116496169Y11449348D01*
X-116495000Y10582500D02*
X-116465000Y10552500D01*
X-116465000Y10582500D02*
X-116495000Y10552500D01*
X-116485000Y12295000D02*
X-116455000Y12265000D01*
X-116455000Y12295000D02*
X-116485000Y12265000D01*
X-116435000Y11715000D02*
X-116405000Y11685000D01*
X-116405000Y11715000D02*
X-116435000Y11685000D01*
X-116425000Y10085000D02*
X-116395000Y10055000D01*
X-116395000Y10085000D02*
X-116425000Y10055000D01*
X-116415000Y6015000D02*
X-116385000Y5985000D01*
X-116385000Y6015000D02*
X-116415000Y5985000D01*
X-116405000Y11305000D02*
X-116375000Y11275000D01*
X-116375000Y11305000D02*
X-116405000Y11275000D01*
X-116335000Y10495000D02*
X-116305000Y10465000D01*
X-116305000Y10495000D02*
X-116335000Y10465000D01*
X-116315000Y13075000D02*
X-116285000Y13045000D01*
X-116285000Y13075000D02*
X-116315000Y13045000D01*
X-116295000Y11255000D02*
X-116265000Y11225000D01*
X-116265000Y11255000D02*
X-116295000Y11225000D01*
X-116275000Y5455000D02*
X-116245000Y5425000D01*
X-116245000Y5455000D02*
X-116275000Y5425000D01*
X-116255000Y12235000D02*
X-116225000Y12205000D01*
X-116225000Y12235000D02*
X-116255000Y12205000D01*
X-116255000Y10495000D02*
X-116225000Y10465000D01*
X-116225000Y10495000D02*
X-116255000Y10465000D01*
X-116225000Y11737500D02*
X-116195000Y11707500D01*
X-116195000Y11737500D02*
X-116225000Y11707500D01*
X-116185000Y12135000D02*
X-116155000Y12105000D01*
X-116155000Y12135000D02*
X-116185000Y12105000D01*
X-116155000Y11195000D02*
X-116125000Y11165000D01*
X-116125000Y11195000D02*
X-116155000Y11165000D01*
X-116102500Y11135000D02*
X-116072500Y11105000D01*
X-116072500Y11135000D02*
X-116102500Y11105000D01*
X-116095000Y11775000D02*
X-116065000Y11745000D01*
X-116065000Y11775000D02*
X-116095000Y11745000D01*
X-116085000Y10305000D02*
X-116055000Y10275000D01*
X-116055000Y10305000D02*
X-116085000Y10275000D01*
X-116075000Y10775000D02*
X-116045000Y10745000D01*
X-116045000Y10775000D02*
X-116075000Y10745000D01*
X-116053397Y11837404D02*
X-116023397Y11807404D01*
X-116023397Y11837404D02*
X-116053397Y11807404D01*
X-116015000Y3845000D02*
X-115985000Y3815000D01*
X-115985000Y3845000D02*
X-116015000Y3815000D01*
X-116012059Y11893894D02*
X-115982059Y11863894D01*
X-115982059Y11893894D02*
X-116012059Y11863894D01*
X-115992500Y10862500D02*
X-115962500Y10832500D01*
X-115962500Y10862500D02*
X-115992500Y10832500D01*
X-115942500Y11795000D02*
X-115912500Y11765000D01*
X-115912500Y11795000D02*
X-115942500Y11765000D01*
X-115942500Y10915000D02*
X-115912500Y10885000D01*
X-115912500Y10915000D02*
X-115942500Y10885000D01*
X-115890000Y11855000D02*
X-115860000Y11825000D01*
X-115860000Y11855000D02*
X-115890000Y11825000D01*
X-115887500Y11015000D02*
X-115857500Y10985000D01*
X-115857500Y11015000D02*
X-115887500Y10985000D01*
X-115835000Y11935000D02*
X-115805000Y11905000D01*
X-115805000Y11935000D02*
X-115835000Y11905000D01*
X-115835000Y11162500D02*
X-115805000Y11132500D01*
X-115805000Y11162500D02*
X-115835000Y11132500D01*
X-115745927Y9597995D02*
X-115715927Y9567995D01*
X-115715927Y9597995D02*
X-115745927Y9567995D01*
X-115722501Y10835000D02*
X-115692501Y10805000D01*
X-115692501Y10835000D02*
X-115722501Y10805000D01*
X-115675000Y9635000D02*
X-115645000Y9605000D01*
X-115645000Y9635000D02*
X-115675000Y9605000D01*
X-115661151Y11759109D02*
X-115631151Y11729109D01*
X-115631151Y11759109D02*
X-115661151Y11729109D01*
X-115660298Y11839105D02*
X-115630298Y11809105D01*
X-115630298Y11839105D02*
X-115660298Y11809105D01*
X-115655000Y10225000D02*
X-115625000Y10195000D01*
X-115625000Y10225000D02*
X-115655000Y10195000D01*
X-115652500Y10835000D02*
X-115622500Y10805000D01*
X-115622500Y10835000D02*
X-115652500Y10805000D01*
X-115635000Y11915000D02*
X-115605000Y11885000D01*
X-115605000Y11915000D02*
X-115635000Y11885000D01*
X-115605000Y11605000D02*
X-115575000Y11575000D01*
X-115575000Y11605000D02*
X-115605000Y11575000D01*
X-115582500Y10835000D02*
X-115552500Y10805000D01*
X-115552500Y10835000D02*
X-115582500Y10805000D01*
X-115475000Y13235000D02*
X-115445000Y13205000D01*
X-115445000Y13235000D02*
X-115475000Y13205000D01*
X-115435000Y12425000D02*
X-115405000Y12395000D01*
X-115405000Y12425000D02*
X-115435000Y12395000D01*
X-115395000Y7655000D02*
X-115365000Y7625000D01*
X-115365000Y7655000D02*
X-115395000Y7625000D01*
X-115295000Y11895000D02*
X-115265000Y11865000D01*
X-115265000Y11895000D02*
X-115295000Y11865000D01*
X-115255000Y11325000D02*
X-115225000Y11295000D01*
X-115225000Y11325000D02*
X-115255000Y11295000D01*
X-115255000Y8725000D02*
X-115225000Y8695000D01*
X-115225000Y8725000D02*
X-115255000Y8695000D01*
X-115215000Y8465000D02*
X-115185000Y8435000D01*
X-115185000Y8465000D02*
X-115215000Y8435000D01*
X-115195000Y7735000D02*
X-115165000Y7705000D01*
X-115165000Y7735000D02*
X-115195000Y7705000D01*
X-115035000Y12535000D02*
X-115005000Y12505000D01*
X-115005000Y12535000D02*
X-115035000Y12505000D01*
X-114765000Y11295000D02*
X-114735000Y11265000D01*
X-114735000Y11295000D02*
X-114765000Y11265000D01*
X-114715000Y10045000D02*
X-114685000Y10015000D01*
X-114685000Y10045000D02*
X-114715000Y10015000D01*
X-114715000Y7515000D02*
X-114685000Y7485000D01*
X-114685000Y7515000D02*
X-114715000Y7485000D01*
X-114665000Y12405000D02*
X-114635000Y12375000D01*
X-114635000Y12405000D02*
X-114665000Y12375000D01*
X-114485000Y12625000D02*
X-114455000Y12595000D01*
X-114455000Y12625000D02*
X-114485000Y12595000D01*
X-114445000Y11975000D02*
X-114415000Y11945000D01*
X-114415000Y11975000D02*
X-114445000Y11945000D01*
X-114425000Y9655000D02*
X-114395000Y9625000D01*
X-114395000Y9655000D02*
X-114425000Y9625000D01*
X-114345000Y8485000D02*
X-114315000Y8455000D01*
X-114315000Y8485000D02*
X-114345000Y8455000D01*
X-114290000Y11400000D02*
X-114260000Y11370000D01*
X-114260000Y11400000D02*
X-114290000Y11370000D01*
X-114245659Y11525659D02*
X-114215659Y11495659D01*
X-114215659Y11525659D02*
X-114245659Y11495659D01*
X-114085000Y9905000D02*
X-114055000Y9875000D01*
X-114055000Y9905000D02*
X-114085000Y9875000D01*
X-113975000Y7685000D02*
X-113945000Y7655000D01*
X-113945000Y7685000D02*
X-113975000Y7655000D01*
X-113955000Y5765000D02*
X-113925000Y5735000D01*
X-113925000Y5765000D02*
X-113955000Y5735000D01*
X-113925000Y8705000D02*
X-113895000Y8675000D01*
X-113895000Y8705000D02*
X-113925000Y8675000D01*
X-113845000Y6915000D02*
X-113815000Y6885000D01*
X-113815000Y6915000D02*
X-113845000Y6885000D01*
X-113845000Y5455000D02*
X-113815000Y5425000D01*
X-113815000Y5455000D02*
X-113845000Y5425000D01*
X-113835000Y10085000D02*
X-113805000Y10055000D01*
X-113805000Y10085000D02*
X-113835000Y10055000D01*
X-113455000Y6305000D02*
X-113425000Y6275000D01*
X-113425000Y6305000D02*
X-113455000Y6275000D01*
X-113445000Y4965000D02*
X-113415000Y4935000D01*
X-113415000Y4965000D02*
X-113445000Y4935000D01*
X-113365000Y11905000D02*
X-113335000Y11875000D01*
X-113335000Y11905000D02*
X-113365000Y11875000D01*
X-113325000Y6795000D02*
X-113295000Y6765000D01*
X-113295000Y6795000D02*
X-113325000Y6765000D01*
X-113315000Y10595000D02*
X-113285000Y10565000D01*
X-113285000Y10595000D02*
X-113315000Y10565000D01*
X-113255000Y10205000D02*
X-113225000Y10175000D01*
X-113225000Y10205000D02*
X-113255000Y10175000D01*
X-113075000Y10185000D02*
X-113045000Y10155000D01*
X-113045000Y10185000D02*
X-113075000Y10155000D01*
X-112945000Y7005000D02*
X-112915000Y6975000D01*
X-112915000Y7005000D02*
X-112945000Y6975000D01*
X-112915000Y6505000D02*
X-112885000Y6475000D01*
X-112885000Y6505000D02*
X-112915000Y6475000D01*
X-112905000Y10475000D02*
X-112875000Y10445000D01*
X-112875000Y10475000D02*
X-112905000Y10445000D01*
X-112905000Y8515000D02*
X-112875000Y8485000D01*
X-112875000Y8515000D02*
X-112905000Y8485000D01*
X-112875000Y8065000D02*
X-112845000Y8035000D01*
X-112845000Y8065000D02*
X-112875000Y8035000D01*
X-112825000Y9655000D02*
X-112795000Y9625000D01*
X-112795000Y9655000D02*
X-112825000Y9625000D01*
X-112815000Y6675000D02*
X-112785000Y6645000D01*
X-112785000Y6675000D02*
X-112815000Y6645000D01*
X-112785000Y8775000D02*
X-112755000Y8745000D01*
X-112755000Y8775000D02*
X-112785000Y8745000D01*
X-112655000Y11272500D02*
X-112625000Y11242500D01*
X-112625000Y11272500D02*
X-112655000Y11242500D01*
X-112635000Y10120000D02*
X-112605000Y10090000D01*
X-112605000Y10120000D02*
X-112635000Y10090000D01*
X-112605000Y6365000D02*
X-112575000Y6335000D01*
X-112575000Y6365000D02*
X-112605000Y6335000D01*
X-112585000Y10505000D02*
X-112555000Y10475000D01*
X-112555000Y10505000D02*
X-112585000Y10475000D01*
X-112545000Y6765000D02*
X-112515000Y6735000D01*
X-112515000Y6765000D02*
X-112545000Y6735000D01*
X-112505000Y6495000D02*
X-112475000Y6465000D01*
X-112475000Y6495000D02*
X-112505000Y6465000D01*
X-112455000Y11375000D02*
X-112425000Y11345000D01*
X-112425000Y11375000D02*
X-112455000Y11345000D01*
X-112325000Y3715000D02*
X-112295000Y3685000D01*
X-112295000Y3715000D02*
X-112325000Y3685000D01*
X-112275000Y11615000D02*
X-112245000Y11585000D01*
X-112245000Y11615000D02*
X-112275000Y11585000D01*
X-112245000Y10235000D02*
X-112215000Y10205000D01*
X-112215000Y10235000D02*
X-112245000Y10205000D01*
X-112235000Y10735000D02*
X-112205000Y10705000D01*
X-112205000Y10735000D02*
X-112235000Y10705000D01*
X-112195000Y8525000D02*
X-112165000Y8495000D01*
X-112165000Y8525000D02*
X-112195000Y8495000D01*
X-112165000Y9975000D02*
X-112135000Y9945000D01*
X-112135000Y9975000D02*
X-112165000Y9945000D01*
X-112145000Y8145000D02*
X-112115000Y8115000D01*
X-112115000Y8145000D02*
X-112145000Y8115000D01*
X-112115000Y8014139D02*
X-112085000Y7984139D01*
X-112085000Y8014139D02*
X-112115000Y7984139D01*
X-112095000Y7925000D02*
X-112065000Y7895000D01*
X-112065000Y7925000D02*
X-112095000Y7895000D01*
X-112095000Y7255000D02*
X-112065000Y7225000D01*
X-112065000Y7255000D02*
X-112095000Y7225000D01*
X-112090000Y9270000D02*
X-112060000Y9240000D01*
X-112060000Y9270000D02*
X-112090000Y9240000D01*
X-112075000Y8715000D02*
X-112045000Y8685000D01*
X-112045000Y8715000D02*
X-112075000Y8685000D01*
X-112045000Y5045000D02*
X-112015000Y5015000D01*
X-112015000Y5045000D02*
X-112045000Y5015000D01*
X-112035000Y7407500D02*
X-112005000Y7377500D01*
X-112005000Y7407500D02*
X-112035000Y7377500D01*
X-111995000Y8375000D02*
X-111965000Y8345000D01*
X-111965000Y8375000D02*
X-111995000Y8345000D01*
X-111835000Y8835000D02*
X-111805000Y8805000D01*
X-111805000Y8835000D02*
X-111835000Y8805000D01*
X-111815000Y9995000D02*
X-111785000Y9965000D01*
X-111785000Y9995000D02*
X-111815000Y9965000D01*
X-111815000Y6555000D02*
X-111785000Y6525000D01*
X-111785000Y6555000D02*
X-111815000Y6525000D01*
X-111765000Y5955000D02*
X-111735000Y5925000D01*
X-111735000Y5955000D02*
X-111765000Y5925000D01*
X-111755000Y4745000D02*
X-111725000Y4715000D01*
X-111725000Y4745000D02*
X-111755000Y4715000D01*
X-111725000Y9345000D02*
X-111695000Y9315000D01*
X-111695000Y9345000D02*
X-111725000Y9315000D01*
X-111715000Y6185000D02*
X-111685000Y6155000D01*
X-111685000Y6185000D02*
X-111715000Y6155000D01*
X-111675000Y10195000D02*
X-111645000Y10165000D01*
X-111645000Y10195000D02*
X-111675000Y10165000D01*
X-111615000Y6375000D02*
X-111585000Y6345000D01*
X-111585000Y6375000D02*
X-111615000Y6345000D01*
X-111575000Y6115000D02*
X-111545000Y6085000D01*
X-111545000Y6115000D02*
X-111575000Y6085000D01*
X-111554350Y9345000D02*
X-111524350Y9315000D01*
X-111524350Y9345000D02*
X-111554350Y9315000D01*
X-111515000Y8275000D02*
X-111485000Y8245000D01*
X-111485000Y8275000D02*
X-111515000Y8245000D01*
X-111495000Y10272500D02*
X-111465000Y10242500D01*
X-111465000Y10272500D02*
X-111495000Y10242500D01*
X-111485000Y11755000D02*
X-111455000Y11725000D01*
X-111455000Y11755000D02*
X-111485000Y11725000D01*
X-111485000Y7725000D02*
X-111455000Y7695000D01*
X-111455000Y7725000D02*
X-111485000Y7695000D01*
X-111475000Y8735000D02*
X-111445000Y8705000D01*
X-111445000Y8735000D02*
X-111475000Y8705000D01*
X-111475000Y7335000D02*
X-111445000Y7305000D01*
X-111445000Y7335000D02*
X-111475000Y7305000D01*
X-111466850Y9125000D02*
X-111436850Y9095000D01*
X-111436850Y9125000D02*
X-111466850Y9095000D01*
X-111446350Y6666350D02*
X-111416350Y6636350D01*
X-111416350Y6666350D02*
X-111446350Y6636350D01*
X-111446350Y6375000D02*
X-111416350Y6345000D01*
X-111416350Y6375000D02*
X-111446350Y6345000D01*
X-111395000Y10195000D02*
X-111365000Y10165000D01*
X-111365000Y10195000D02*
X-111395000Y10165000D01*
X-111365000Y9345000D02*
X-111335000Y9315000D01*
X-111335000Y9345000D02*
X-111365000Y9315000D01*
X-111335000Y6265000D02*
X-111305000Y6235000D01*
X-111305000Y6265000D02*
X-111335000Y6235000D01*
X-111319350Y6675000D02*
X-111289350Y6645000D01*
X-111289350Y6675000D02*
X-111319350Y6645000D01*
X-111305000Y9405000D02*
X-111275000Y9375000D01*
X-111275000Y9405000D02*
X-111305000Y9375000D01*
X-111195000Y6655000D02*
X-111165000Y6625000D01*
X-111165000Y6655000D02*
X-111195000Y6625000D01*
X-111195000Y6475000D02*
X-111165000Y6445000D01*
X-111165000Y6475000D02*
X-111195000Y6445000D01*
X-111185000Y9165000D02*
X-111155000Y9135000D01*
X-111155000Y9165000D02*
X-111185000Y9135000D01*
X-111157908Y6291118D02*
X-111127908Y6261118D01*
X-111127908Y6291118D02*
X-111157908Y6261118D01*
X-111135000Y9825000D02*
X-111105000Y9795000D01*
X-111105000Y9825000D02*
X-111135000Y9795000D01*
X-111115000Y10705000D02*
X-111085000Y10675000D01*
X-111085000Y10705000D02*
X-111115000Y10675000D01*
X-110985000Y9095000D02*
X-110955000Y9065000D01*
X-110955000Y9095000D02*
X-110985000Y9065000D01*
X-110965000Y10005000D02*
X-110935000Y9975000D01*
X-110935000Y10005000D02*
X-110965000Y9975000D01*
X-110873000Y8789000D02*
X-110843000Y8759000D01*
X-110843000Y8789000D02*
X-110873000Y8759000D01*
X-110865000Y8285000D02*
X-110835000Y8255000D01*
X-110835000Y8285000D02*
X-110865000Y8255000D01*
X-110835000Y7365000D02*
X-110805000Y7335000D01*
X-110805000Y7365000D02*
X-110835000Y7335000D01*
X-110825000Y9032500D02*
X-110795000Y9002500D01*
X-110795000Y9032500D02*
X-110825000Y9002500D01*
X-110825000Y8715000D02*
X-110795000Y8685000D01*
X-110795000Y8715000D02*
X-110825000Y8685000D01*
X-110795000Y9145000D02*
X-110765000Y9115000D01*
X-110765000Y9145000D02*
X-110795000Y9115000D01*
X-110775000Y6435000D02*
X-110745000Y6405000D01*
X-110745000Y6435000D02*
X-110775000Y6405000D01*
X-110755000Y3765000D02*
X-110725000Y3735000D01*
X-110725000Y3765000D02*
X-110755000Y3735000D01*
X-110735000Y8835000D02*
X-110705000Y8805000D01*
X-110705000Y8835000D02*
X-110735000Y8805000D01*
X-110695000Y6615000D02*
X-110665000Y6585000D01*
X-110665000Y6615000D02*
X-110695000Y6585000D01*
X-110655000Y9045000D02*
X-110625000Y9015000D01*
X-110625000Y9045000D02*
X-110655000Y9015000D01*
X-110615000Y11415000D02*
X-110585000Y11385000D01*
X-110585000Y11415000D02*
X-110615000Y11385000D01*
X-110615000Y5890000D02*
X-110585000Y5860000D01*
X-110585000Y5890000D02*
X-110615000Y5860000D01*
X-110585000Y6535000D02*
X-110555000Y6505000D01*
X-110555000Y6535000D02*
X-110585000Y6505000D01*
X-110485000Y8945000D02*
X-110455000Y8915000D01*
X-110455000Y8945000D02*
X-110485000Y8915000D01*
X-110415000Y11635000D02*
X-110385000Y11605000D01*
X-110385000Y11635000D02*
X-110415000Y11605000D01*
X-110405000Y7845000D02*
X-110375000Y7815000D01*
X-110375000Y7845000D02*
X-110405000Y7815000D01*
X-110395000Y6035000D02*
X-110365000Y6005000D01*
X-110365000Y6035000D02*
X-110395000Y6005000D01*
X-110375000Y8155000D02*
X-110345000Y8125000D01*
X-110345000Y8155000D02*
X-110375000Y8125000D01*
X-110375000Y6315000D02*
X-110345000Y6285000D01*
X-110345000Y6315000D02*
X-110375000Y6285000D01*
X-110355000Y7255000D02*
X-110325000Y7225000D01*
X-110325000Y7255000D02*
X-110355000Y7225000D01*
X-110305000Y6625000D02*
X-110275000Y6595000D01*
X-110275000Y6625000D02*
X-110305000Y6595000D01*
X-110295000Y10195000D02*
X-110265000Y10165000D01*
X-110265000Y10195000D02*
X-110295000Y10165000D01*
X-110225000Y5895000D02*
X-110195000Y5865000D01*
X-110195000Y5895000D02*
X-110225000Y5865000D01*
X-110215000Y9115000D02*
X-110185000Y9085000D01*
X-110185000Y9115000D02*
X-110215000Y9085000D01*
X-110195000Y12035000D02*
X-110165000Y12005000D01*
X-110165000Y12035000D02*
X-110195000Y12005000D01*
X-110176350Y6615000D02*
X-110146350Y6585000D01*
X-110146350Y6615000D02*
X-110176350Y6585000D01*
X-110075000Y11055000D02*
X-110045000Y11025000D01*
X-110045000Y11055000D02*
X-110075000Y11025000D01*
X-110075000Y10605000D02*
X-110045000Y10575000D01*
X-110045000Y10605000D02*
X-110075000Y10575000D01*
X-110075000Y6415000D02*
X-110045000Y6385000D01*
X-110045000Y6415000D02*
X-110075000Y6385000D01*
X-109845000Y12505000D02*
X-109815000Y12475000D01*
X-109815000Y12505000D02*
X-109845000Y12475000D01*
X-109815000Y5115000D02*
X-109785000Y5085000D01*
X-109785000Y5115000D02*
X-109815000Y5085000D01*
X-109705000Y10255000D02*
X-109675000Y10225000D01*
X-109675000Y10255000D02*
X-109705000Y10225000D01*
X-109665000Y4795000D02*
X-109635000Y4765000D01*
X-109635000Y4795000D02*
X-109665000Y4765000D01*
X-109615000Y10645000D02*
X-109585000Y10615000D01*
X-109585000Y10645000D02*
X-109615000Y10615000D01*
X-109505000Y11005000D02*
X-109475000Y10975000D01*
X-109475000Y11005000D02*
X-109505000Y10975000D01*
X-109854850Y11232000D02*
G75*
G02*
X-109914850Y11232000I-30000J0D01*
G01*
X-109914850Y11232000D02*
G75*
G02*
X-109854850Y11232000I30000J0D01*
G01*
X-109939850Y11202000D02*
X-109829850Y11202000D01*
X-109829850Y11262000D02*
G75*
G02*
X-109829850Y11202000I0J-30000D01*
G01*
X-109829850Y11262000D02*
X-109939850Y11262000D01*
X-109939850Y11262000D02*
G75*
G03*
X-109939850Y11202000I0J-30000D01*
G01*
X-109854850Y10368000D02*
G75*
G02*
X-109914850Y10368000I-30000J0D01*
G01*
X-109914850Y10368000D02*
G75*
G02*
X-109854850Y10368000I30000J0D01*
G01*
X-109939850Y10338000D02*
X-109829850Y10338000D01*
X-109829850Y10398000D02*
G75*
G02*
X-109829850Y10338000I0J-30000D01*
G01*
X-109829850Y10398000D02*
X-109939850Y10398000D01*
X-109939850Y10398000D02*
G75*
G03*
X-109939850Y10338000I0J-30000D01*
G01*
X-109436850Y11232000D02*
G75*
G02*
X-109496850Y11232000I-30000J0D01*
G01*
X-109496850Y11232000D02*
G75*
G02*
X-109436850Y11232000I30000J0D01*
G01*
X-109506850Y11202000D02*
X-109426850Y11202000D01*
X-109426850Y11262000D02*
G75*
G02*
X-109426850Y11202000I0J-30000D01*
G01*
X-109426850Y11262000D02*
X-109506850Y11262000D01*
X-109506850Y11262000D02*
G75*
G03*
X-109506850Y11202000I0J-30000D01*
G01*
X-109436850Y10368000D02*
G75*
G02*
X-109496850Y10368000I-30000J0D01*
G01*
X-109496850Y10368000D02*
G75*
G02*
X-109436850Y10368000I30000J0D01*
G01*
X-109506850Y10338000D02*
X-109426850Y10338000D01*
X-109426850Y10398000D02*
G75*
G02*
X-109426850Y10338000I0J-30000D01*
G01*
X-109426850Y10398000D02*
X-109506850Y10398000D01*
X-109506850Y10398000D02*
G75*
G03*
X-109506850Y10338000I0J-30000D01*
G01*
X-118090000Y9565000D02*
X-118090000Y9465000D01*
X-118140000Y9515000D02*
X-118040000Y9515000D01*
X-118090000Y9315000D02*
X-118090000Y9215000D01*
X-118140000Y9265000D02*
X-118040000Y9265000D01*
X-118090000Y9065000D02*
X-118090000Y8965000D01*
X-118140000Y9015000D02*
X-118040000Y9015000D01*
X-118090000Y8815000D02*
X-118090000Y8715000D01*
X-118140000Y8765000D02*
X-118040000Y8765000D01*
X-118090000Y8190000D02*
X-118090000Y8090000D01*
X-118140000Y8140000D02*
X-118040000Y8140000D01*
X-118090000Y7940000D02*
X-118090000Y7840000D01*
X-118140000Y7890000D02*
X-118040000Y7890000D01*
X-118090000Y7690000D02*
X-118090000Y7590000D01*
X-118140000Y7640000D02*
X-118040000Y7640000D01*
X-117010000Y4360000D02*
X-117010000Y4260000D01*
X-117060000Y4310000D02*
X-116960000Y4310000D01*
X-117135000Y4260000D02*
X-116885000Y4260000D01*
X-116885000Y4360000D02*
G75*
G02*
X-116885000Y4260000I0J-50000D01*
G01*
X-116885000Y4360000D02*
X-117135000Y4360000D01*
X-117135000Y4360000D02*
G75*
G03*
X-117135000Y4260000I0J-50000D01*
G01*
X-117010000Y3760000D02*
X-117010000Y3660000D01*
X-117060000Y3710000D02*
X-116960000Y3710000D01*
X-117110000Y3660000D02*
X-116910000Y3660000D01*
X-116910000Y3760000D02*
G75*
G02*
X-116910000Y3660000I0J-50000D01*
G01*
X-116910000Y3760000D02*
X-117110000Y3760000D01*
X-117110000Y3760000D02*
G75*
G03*
X-117110000Y3660000I0J-50000D01*
G01*
X-116765000Y12570000D02*
X-116765000Y12470000D01*
X-116815000Y12520000D02*
X-116715000Y12520000D01*
X-116540000Y4060000D02*
X-116540000Y3960000D01*
X-116590000Y4010000D02*
X-116490000Y4010000D01*
X-116490000Y3910000D02*
X-116490000Y4110000D01*
X-116590000Y4110000D02*
G75*
G02*
X-116490000Y4110000I50000J0D01*
G01*
X-116590000Y4110000D02*
X-116590000Y3910000D01*
X-116590000Y3910000D02*
G75*
G03*
X-116490000Y3910000I50000J0D01*
G01*
X-116515000Y12570000D02*
X-116515000Y12470000D01*
X-116565000Y12520000D02*
X-116465000Y12520000D01*
X-116265000Y12570000D02*
X-116265000Y12470000D01*
X-116315000Y12520000D02*
X-116215000Y12520000D01*
X-116015000Y12570000D02*
X-116015000Y12470000D01*
X-116065000Y12520000D02*
X-115965000Y12520000D01*
X-115210000Y4410000D02*
X-115210000Y4310000D01*
X-115260000Y4360000D02*
X-115160000Y4360000D01*
X-115335000Y4310000D02*
X-115085000Y4310000D01*
X-115085000Y4410000D02*
G75*
G02*
X-115085000Y4310000I0J-50000D01*
G01*
X-115085000Y4410000D02*
X-115335000Y4410000D01*
X-115335000Y4410000D02*
G75*
G03*
X-115335000Y4310000I0J-50000D01*
G01*
X-115210000Y3810000D02*
X-115210000Y3710000D01*
X-115260000Y3760000D02*
X-115160000Y3760000D01*
X-115310000Y3710000D02*
X-115110000Y3710000D01*
X-115110000Y3810000D02*
G75*
G02*
X-115110000Y3710000I0J-50000D01*
G01*
X-115110000Y3810000D02*
X-115310000Y3810000D01*
X-115310000Y3810000D02*
G75*
G03*
X-115310000Y3710000I0J-50000D01*
G01*
X-114740000Y4110000D02*
X-114740000Y4010000D01*
X-114790000Y4060000D02*
X-114690000Y4060000D01*
X-114690000Y3960000D02*
X-114690000Y4160000D01*
X-114790000Y4160000D02*
G75*
G02*
X-114690000Y4160000I50000J0D01*
G01*
X-114790000Y4160000D02*
X-114790000Y3960000D01*
X-114790000Y3960000D02*
G75*
G03*
X-114690000Y3960000I50000J0D01*
G01*
X-112400000Y8698000D02*
X-112400000Y8598000D01*
X-112450000Y8648000D02*
X-112350000Y8648000D01*
X-112400000Y8444000D02*
X-112400000Y8344000D01*
X-112450000Y8394000D02*
X-112350000Y8394000D01*
X-112400000Y8190000D02*
X-112400000Y8090000D01*
X-112450000Y8140000D02*
X-112350000Y8140000D01*
X-111395000Y4750000D02*
X-111395000Y4650000D01*
X-111445000Y4700000D02*
X-111345000Y4700000D01*
X-111340000Y5720000D02*
X-111340000Y5620000D01*
X-111390000Y5670000D02*
X-111290000Y5670000D01*
X-111330000Y5280000D02*
X-111330000Y5180000D01*
X-111380000Y5230000D02*
X-111280000Y5230000D01*
X-111141000Y4750000D02*
X-111141000Y4650000D01*
X-111191000Y4700000D02*
X-111091000Y4700000D01*
X-111086000Y5720000D02*
X-111086000Y5620000D01*
X-111136000Y5670000D02*
X-111036000Y5670000D01*
X-111076000Y5280000D02*
X-111076000Y5180000D01*
X-111126000Y5230000D02*
X-111026000Y5230000D01*
X-110887000Y4750000D02*
X-110887000Y4650000D01*
X-110937000Y4700000D02*
X-110837000Y4700000D01*
X-110832000Y5720000D02*
X-110832000Y5620000D01*
X-110882000Y5670000D02*
X-110782000Y5670000D01*
X-110822000Y5280000D02*
X-110822000Y5180000D01*
X-110872000Y5230000D02*
X-110772000Y5230000D01*
X-110633000Y4750000D02*
X-110633000Y4650000D01*
X-110683000Y4700000D02*
X-110583000Y4700000D01*
X-110379000Y4750000D02*
X-110379000Y4650000D01*
X-110429000Y4700000D02*
X-110329000Y4700000D01*
X-110125000Y4750000D02*
X-110125000Y4650000D01*
X-110175000Y4700000D02*
X-110075000Y4700000D01*
D14*
X-118746876Y4909877D02*
X-118746876Y4984124D01*
X-118821123Y4984124D01*
X-118821123Y4909877D01*
X-118746876Y4909877D01*
X-118746876Y4655877D02*
X-118746876Y4730124D01*
X-118821123Y4730124D01*
X-118821123Y4655877D01*
X-118746876Y4655877D01*
X-118492876Y4909877D02*
X-118492876Y4984124D01*
X-118567123Y4984124D01*
X-118567123Y4909877D01*
X-118492876Y4909877D01*
X-118492876Y4655877D02*
X-118492876Y4730124D01*
X-118567123Y4730124D01*
X-118567123Y4655877D01*
X-118492876Y4655877D01*
X-118238876Y4909877D02*
X-118238876Y4984124D01*
X-118313123Y4984124D01*
X-118313123Y4909877D01*
X-118238876Y4909877D01*
X-118238876Y4655877D02*
X-118238876Y4730124D01*
X-118313123Y4730124D01*
X-118313123Y4655877D01*
X-118238876Y4655877D01*
X-112449876Y7576876D02*
X-112449876Y7651123D01*
X-112524123Y7651123D01*
X-112524123Y7576876D01*
X-112449876Y7576876D01*
X-112449876Y7322876D02*
X-112449876Y7397123D01*
X-112524123Y7397123D01*
X-112524123Y7322876D01*
X-112449876Y7322876D01*
X-112449876Y7068876D02*
X-112449876Y7143123D01*
X-112524123Y7143123D01*
X-112524123Y7068876D01*
X-112449876Y7068876D01*
X-112195876Y7576876D02*
X-112195876Y7651123D01*
X-112270123Y7651123D01*
X-112270123Y7576876D01*
X-112195876Y7576876D01*
X-112195876Y7322876D02*
X-112195876Y7397123D01*
X-112270123Y7397123D01*
X-112270123Y7322876D01*
X-112195876Y7322876D01*
X-112195876Y7068876D02*
X-112195876Y7143123D01*
X-112270123Y7143123D01*
X-112270123Y7068876D01*
X-112195876Y7068876D01*
D15*
X-115223000Y13082000D02*
X-115168000Y13137000D01*
X-115223000Y13192000D01*
X-115278000Y13137000D01*
X-115223000Y13082000D01*
X-115223000Y12828000D02*
X-115168000Y12883000D01*
X-115223000Y12938000D01*
X-115278000Y12883000D01*
X-115223000Y12828000D01*
X-114969000Y13082000D02*
X-114914000Y13137000D01*
X-114969000Y13192000D01*
X-115024000Y13137000D01*
X-114969000Y13082000D01*
X-114969000Y12828000D02*
X-114914000Y12883000D01*
X-114969000Y12938000D01*
X-115024000Y12883000D01*
X-114969000Y12828000D01*
X-114715000Y13082000D02*
X-114660000Y13137000D01*
X-114715000Y13192000D01*
X-114770000Y13137000D01*
X-114715000Y13082000D01*
X-114715000Y12828000D02*
X-114660000Y12883000D01*
X-114715000Y12938000D01*
X-114770000Y12883000D01*
X-114715000Y12828000D01*
X-114461000Y13082000D02*
X-114406000Y13137000D01*
X-114461000Y13192000D01*
X-114516000Y13137000D01*
X-114461000Y13082000D01*
X-114461000Y12828000D02*
X-114406000Y12883000D01*
X-114461000Y12938000D01*
X-114516000Y12883000D01*
X-114461000Y12828000D01*
X-114207000Y13082000D02*
X-114152000Y13137000D01*
X-114207000Y13192000D01*
X-114262000Y13137000D01*
X-114207000Y13082000D01*
X-114207000Y12828000D02*
X-114152000Y12883000D01*
X-114207000Y12938000D01*
X-114262000Y12883000D01*
X-114207000Y12828000D01*
X-113953000Y13082000D02*
X-113898000Y13137000D01*
X-113953000Y13192000D01*
X-114008000Y13137000D01*
X-113953000Y13082000D01*
X-113953000Y12828000D02*
X-113898000Y12883000D01*
X-113953000Y12938000D01*
X-114008000Y12883000D01*
X-113953000Y12828000D01*
X-113699000Y13082000D02*
X-113644000Y13137000D01*
X-113699000Y13192000D01*
X-113754000Y13137000D01*
X-113699000Y13082000D01*
X-113699000Y12828000D02*
X-113644000Y12883000D01*
X-113699000Y12938000D01*
X-113754000Y12883000D01*
X-113699000Y12828000D01*
X-113445000Y13082000D02*
X-113390000Y13137000D01*
X-113445000Y13192000D01*
X-113500000Y13137000D01*
X-113445000Y13082000D01*
X-113445000Y12828000D02*
X-113390000Y12883000D01*
X-113445000Y12938000D01*
X-113500000Y12883000D01*
X-113445000Y12828000D01*
X-113191000Y13082000D02*
X-113136000Y13137000D01*
X-113191000Y13192000D01*
X-113246000Y13137000D01*
X-113191000Y13082000D01*
X-113191000Y12828000D02*
X-113136000Y12883000D01*
X-113191000Y12938000D01*
X-113246000Y12883000D01*
X-113191000Y12828000D01*
X-112937000Y13082000D02*
X-112882000Y13137000D01*
X-112937000Y13192000D01*
X-112992000Y13137000D01*
X-112937000Y13082000D01*
X-112937000Y12828000D02*
X-112882000Y12883000D01*
X-112937000Y12938000D01*
X-112992000Y12883000D01*
X-112937000Y12828000D01*
X-112683000Y13082000D02*
X-112628000Y13137000D01*
X-112683000Y13192000D01*
X-112738000Y13137000D01*
X-112683000Y13082000D01*
X-112683000Y12828000D02*
X-112628000Y12883000D01*
X-112683000Y12938000D01*
X-112738000Y12883000D01*
X-112683000Y12828000D01*
X-112429000Y13082000D02*
X-112374000Y13137000D01*
X-112429000Y13192000D01*
X-112484000Y13137000D01*
X-112429000Y13082000D01*
X-112429000Y12828000D02*
X-112374000Y12883000D01*
X-112429000Y12938000D01*
X-112484000Y12883000D01*
X-112429000Y12828000D01*
X-112175000Y13082000D02*
X-112120000Y13137000D01*
X-112175000Y13192000D01*
X-112230000Y13137000D01*
X-112175000Y13082000D01*
X-112175000Y12828000D02*
X-112120000Y12883000D01*
X-112175000Y12938000D01*
X-112230000Y12883000D01*
X-112175000Y12828000D01*
X-111921000Y13082000D02*
X-111866000Y13137000D01*
X-111921000Y13192000D01*
X-111976000Y13137000D01*
X-111921000Y13082000D01*
X-111921000Y12828000D02*
X-111866000Y12883000D01*
X-111921000Y12938000D01*
X-111976000Y12883000D01*
X-111921000Y12828000D01*
X-111667000Y13082000D02*
X-111612000Y13137000D01*
X-111667000Y13192000D01*
X-111722000Y13137000D01*
X-111667000Y13082000D01*
X-111667000Y12828000D02*
X-111612000Y12883000D01*
X-111667000Y12938000D01*
X-111722000Y12883000D01*
X-111667000Y12828000D01*
X-111413000Y13082000D02*
X-111358000Y13137000D01*
X-111413000Y13192000D01*
X-111468000Y13137000D01*
X-111413000Y13082000D01*
X-111413000Y12828000D02*
X-111358000Y12883000D01*
X-111413000Y12938000D01*
X-111468000Y12883000D01*
X-111413000Y12828000D01*
X-111159000Y13082000D02*
X-111104000Y13137000D01*
X-111159000Y13192000D01*
X-111214000Y13137000D01*
X-111159000Y13082000D01*
X-111159000Y12828000D02*
X-111104000Y12883000D01*
X-111159000Y12938000D01*
X-111214000Y12883000D01*
X-111159000Y12828000D01*
X-110905000Y13082000D02*
X-110850000Y13137000D01*
X-110905000Y13192000D01*
X-110960000Y13137000D01*
X-110905000Y13082000D01*
X-110905000Y12828000D02*
X-110850000Y12883000D01*
X-110905000Y12938000D01*
X-110960000Y12883000D01*
X-110905000Y12828000D01*
X-110651000Y13082000D02*
X-110596000Y13137000D01*
X-110651000Y13192000D01*
X-110706000Y13137000D01*
X-110651000Y13082000D01*
X-110651000Y12828000D02*
X-110596000Y12883000D01*
X-110651000Y12938000D01*
X-110706000Y12883000D01*
X-110651000Y12828000D01*
X-110397000Y13082000D02*
X-110342000Y13137000D01*
X-110397000Y13192000D01*
X-110452000Y13137000D01*
X-110397000Y13082000D01*
X-110397000Y12828000D02*
X-110342000Y12883000D01*
X-110397000Y12938000D01*
X-110452000Y12883000D01*
X-110397000Y12828000D01*
D16*
X-118040450Y13120000D02*
X-117920450Y13000000D01*
X-117920450Y13120000D02*
X-118040450Y13000000D01*
X-117920450Y13060000D02*
G75*
G02*
X-118040450Y13060000I-60000J0D01*
G01*
X-118040450Y13060000D02*
G75*
G02*
X-117920450Y13060000I60000J0D01*
G01*
X-117669000Y8977000D02*
X-117549000Y8857000D01*
X-117549000Y8977000D02*
X-117669000Y8857000D01*
X-117549000Y8917000D02*
G75*
G02*
X-117669000Y8917000I-60000J0D01*
G01*
X-117669000Y8917000D02*
G75*
G02*
X-117549000Y8917000I60000J0D01*
G01*
X-117669000Y8723000D02*
X-117549000Y8603000D01*
X-117549000Y8723000D02*
X-117669000Y8603000D01*
X-117549000Y8663000D02*
G75*
G02*
X-117669000Y8663000I-60000J0D01*
G01*
X-117669000Y8663000D02*
G75*
G02*
X-117549000Y8663000I60000J0D01*
G01*
X-117669000Y8467000D02*
X-117549000Y8347000D01*
X-117549000Y8467000D02*
X-117669000Y8347000D01*
X-117549000Y8407000D02*
G75*
G02*
X-117669000Y8407000I-60000J0D01*
G01*
X-117669000Y8407000D02*
G75*
G02*
X-117549000Y8407000I60000J0D01*
G01*
X-117669000Y8213000D02*
X-117549000Y8093000D01*
X-117549000Y8213000D02*
X-117669000Y8093000D01*
X-117549000Y8153000D02*
G75*
G02*
X-117669000Y8153000I-60000J0D01*
G01*
X-117669000Y8153000D02*
G75*
G02*
X-117549000Y8153000I60000J0D01*
G01*
X-117539550Y13120000D02*
X-117419550Y13000000D01*
X-117419550Y13120000D02*
X-117539550Y13000000D01*
X-117419550Y13060000D02*
G75*
G02*
X-117539550Y13060000I-60000J0D01*
G01*
X-117539550Y13060000D02*
G75*
G02*
X-117419550Y13060000I60000J0D01*
G01*
X-117415000Y8977000D02*
X-117295000Y8857000D01*
X-117295000Y8977000D02*
X-117415000Y8857000D01*
X-117295000Y8917000D02*
G75*
G02*
X-117415000Y8917000I-60000J0D01*
G01*
X-117415000Y8917000D02*
G75*
G02*
X-117295000Y8917000I60000J0D01*
G01*
X-117415000Y8723000D02*
X-117295000Y8603000D01*
X-117295000Y8723000D02*
X-117415000Y8603000D01*
X-117295000Y8663000D02*
G75*
G02*
X-117415000Y8663000I-60000J0D01*
G01*
X-117415000Y8663000D02*
G75*
G02*
X-117295000Y8663000I60000J0D01*
G01*
X-117415000Y8467000D02*
X-117295000Y8347000D01*
X-117295000Y8467000D02*
X-117415000Y8347000D01*
X-117295000Y8407000D02*
G75*
G02*
X-117415000Y8407000I-60000J0D01*
G01*
X-117415000Y8407000D02*
G75*
G02*
X-117295000Y8407000I60000J0D01*
G01*
X-117415000Y8213000D02*
X-117295000Y8093000D01*
X-117295000Y8213000D02*
X-117415000Y8093000D01*
X-117295000Y8153000D02*
G75*
G02*
X-117415000Y8153000I-60000J0D01*
G01*
X-117415000Y8153000D02*
G75*
G02*
X-117295000Y8153000I60000J0D01*
G01*
X-117161000Y8977000D02*
X-117041000Y8857000D01*
X-117041000Y8977000D02*
X-117161000Y8857000D01*
X-117041000Y8917000D02*
G75*
G02*
X-117161000Y8917000I-60000J0D01*
G01*
X-117161000Y8917000D02*
G75*
G02*
X-117041000Y8917000I60000J0D01*
G01*
X-117161000Y8723000D02*
X-117041000Y8603000D01*
X-117041000Y8723000D02*
X-117161000Y8603000D01*
X-117041000Y8663000D02*
G75*
G02*
X-117161000Y8663000I-60000J0D01*
G01*
X-117161000Y8663000D02*
G75*
G02*
X-117041000Y8663000I60000J0D01*
G01*
X-117161000Y8467000D02*
X-117041000Y8347000D01*
X-117041000Y8467000D02*
X-117161000Y8347000D01*
X-117041000Y8407000D02*
G75*
G02*
X-117161000Y8407000I-60000J0D01*
G01*
X-117161000Y8407000D02*
G75*
G02*
X-117041000Y8407000I60000J0D01*
G01*
X-117161000Y8213000D02*
X-117041000Y8093000D01*
X-117041000Y8213000D02*
X-117161000Y8093000D01*
X-117041000Y8153000D02*
G75*
G02*
X-117161000Y8153000I-60000J0D01*
G01*
X-117161000Y8153000D02*
G75*
G02*
X-117041000Y8153000I60000J0D01*
G01*
X-116907000Y8977000D02*
X-116787000Y8857000D01*
X-116787000Y8977000D02*
X-116907000Y8857000D01*
X-116787000Y8917000D02*
G75*
G02*
X-116907000Y8917000I-60000J0D01*
G01*
X-116907000Y8917000D02*
G75*
G02*
X-116787000Y8917000I60000J0D01*
G01*
X-116907000Y8723000D02*
X-116787000Y8603000D01*
X-116787000Y8723000D02*
X-116907000Y8603000D01*
X-116787000Y8663000D02*
G75*
G02*
X-116907000Y8663000I-60000J0D01*
G01*
X-116907000Y8663000D02*
G75*
G02*
X-116787000Y8663000I60000J0D01*
G01*
X-116907000Y8467000D02*
X-116787000Y8347000D01*
X-116787000Y8467000D02*
X-116907000Y8347000D01*
X-116787000Y8407000D02*
G75*
G02*
X-116907000Y8407000I-60000J0D01*
G01*
X-116907000Y8407000D02*
G75*
G02*
X-116787000Y8407000I60000J0D01*
G01*
X-116907000Y8213000D02*
X-116787000Y8093000D01*
X-116787000Y8213000D02*
X-116907000Y8093000D01*
X-116787000Y8153000D02*
G75*
G02*
X-116907000Y8153000I-60000J0D01*
G01*
X-116907000Y8153000D02*
G75*
G02*
X-116787000Y8153000I60000J0D01*
G01*
X-116653000Y8977000D02*
X-116533000Y8857000D01*
X-116533000Y8977000D02*
X-116653000Y8857000D01*
X-116533000Y8917000D02*
G75*
G02*
X-116653000Y8917000I-60000J0D01*
G01*
X-116653000Y8917000D02*
G75*
G02*
X-116533000Y8917000I60000J0D01*
G01*
X-116653000Y8723000D02*
X-116533000Y8603000D01*
X-116533000Y8723000D02*
X-116653000Y8603000D01*
X-116533000Y8663000D02*
G75*
G02*
X-116653000Y8663000I-60000J0D01*
G01*
X-116653000Y8663000D02*
G75*
G02*
X-116533000Y8663000I60000J0D01*
G01*
X-116653000Y8467000D02*
X-116533000Y8347000D01*
X-116533000Y8467000D02*
X-116653000Y8347000D01*
X-116533000Y8407000D02*
G75*
G02*
X-116653000Y8407000I-60000J0D01*
G01*
X-116653000Y8407000D02*
G75*
G02*
X-116533000Y8407000I60000J0D01*
G01*
X-116653000Y8213000D02*
X-116533000Y8093000D01*
X-116533000Y8213000D02*
X-116653000Y8093000D01*
X-116533000Y8153000D02*
G75*
G02*
X-116653000Y8153000I-60000J0D01*
G01*
X-116653000Y8153000D02*
G75*
G02*
X-116533000Y8153000I60000J0D01*
G01*
X-116399000Y8977000D02*
X-116279000Y8857000D01*
X-116279000Y8977000D02*
X-116399000Y8857000D01*
X-116279000Y8917000D02*
G75*
G02*
X-116399000Y8917000I-60000J0D01*
G01*
X-116399000Y8917000D02*
G75*
G02*
X-116279000Y8917000I60000J0D01*
G01*
X-116399000Y8723000D02*
X-116279000Y8603000D01*
X-116279000Y8723000D02*
X-116399000Y8603000D01*
X-116279000Y8663000D02*
G75*
G02*
X-116399000Y8663000I-60000J0D01*
G01*
X-116399000Y8663000D02*
G75*
G02*
X-116279000Y8663000I60000J0D01*
G01*
X-116399000Y8467000D02*
X-116279000Y8347000D01*
X-116279000Y8467000D02*
X-116399000Y8347000D01*
X-116279000Y8407000D02*
G75*
G02*
X-116399000Y8407000I-60000J0D01*
G01*
X-116399000Y8407000D02*
G75*
G02*
X-116279000Y8407000I60000J0D01*
G01*
X-116399000Y8213000D02*
X-116279000Y8093000D01*
X-116279000Y8213000D02*
X-116399000Y8093000D01*
X-116279000Y8153000D02*
G75*
G02*
X-116399000Y8153000I-60000J0D01*
G01*
X-116399000Y8153000D02*
G75*
G02*
X-116279000Y8153000I60000J0D01*
G01*
X-116145000Y8977000D02*
X-116025000Y8857000D01*
X-116025000Y8977000D02*
X-116145000Y8857000D01*
X-116025000Y8917000D02*
G75*
G02*
X-116145000Y8917000I-60000J0D01*
G01*
X-116145000Y8917000D02*
G75*
G02*
X-116025000Y8917000I60000J0D01*
G01*
X-116145000Y8723000D02*
X-116025000Y8603000D01*
X-116025000Y8723000D02*
X-116145000Y8603000D01*
X-116025000Y8663000D02*
G75*
G02*
X-116145000Y8663000I-60000J0D01*
G01*
X-116145000Y8663000D02*
G75*
G02*
X-116025000Y8663000I60000J0D01*
G01*
X-116145000Y8467000D02*
X-116025000Y8347000D01*
X-116025000Y8467000D02*
X-116145000Y8347000D01*
X-116025000Y8407000D02*
G75*
G02*
X-116145000Y8407000I-60000J0D01*
G01*
X-116145000Y8407000D02*
G75*
G02*
X-116025000Y8407000I60000J0D01*
G01*
X-116145000Y8213000D02*
X-116025000Y8093000D01*
X-116025000Y8213000D02*
X-116145000Y8093000D01*
X-116025000Y8153000D02*
G75*
G02*
X-116145000Y8153000I-60000J0D01*
G01*
X-116145000Y8153000D02*
G75*
G02*
X-116025000Y8153000I60000J0D01*
G01*
X-115891000Y8977000D02*
X-115771000Y8857000D01*
X-115771000Y8977000D02*
X-115891000Y8857000D01*
X-115771000Y8917000D02*
G75*
G02*
X-115891000Y8917000I-60000J0D01*
G01*
X-115891000Y8917000D02*
G75*
G02*
X-115771000Y8917000I60000J0D01*
G01*
X-115891000Y8723000D02*
X-115771000Y8603000D01*
X-115771000Y8723000D02*
X-115891000Y8603000D01*
X-115771000Y8663000D02*
G75*
G02*
X-115891000Y8663000I-60000J0D01*
G01*
X-115891000Y8663000D02*
G75*
G02*
X-115771000Y8663000I60000J0D01*
G01*
X-115891000Y8467000D02*
X-115771000Y8347000D01*
X-115771000Y8467000D02*
X-115891000Y8347000D01*
X-115771000Y8407000D02*
G75*
G02*
X-115891000Y8407000I-60000J0D01*
G01*
X-115891000Y8407000D02*
G75*
G02*
X-115771000Y8407000I60000J0D01*
G01*
X-115891000Y8213000D02*
X-115771000Y8093000D01*
X-115771000Y8213000D02*
X-115891000Y8093000D01*
X-115771000Y8153000D02*
G75*
G02*
X-115891000Y8153000I-60000J0D01*
G01*
X-115891000Y8153000D02*
G75*
G02*
X-115771000Y8153000I60000J0D01*
G01*
X-112719000Y12417000D02*
X-112599000Y12297000D01*
X-112599000Y12417000D02*
X-112719000Y12297000D01*
X-112599000Y12357000D02*
G75*
G02*
X-112719000Y12357000I-60000J0D01*
G01*
X-112719000Y12357000D02*
G75*
G02*
X-112599000Y12357000I60000J0D01*
G01*
X-112719000Y12163000D02*
X-112599000Y12043000D01*
X-112599000Y12163000D02*
X-112719000Y12043000D01*
X-112599000Y12103000D02*
G75*
G02*
X-112719000Y12103000I-60000J0D01*
G01*
X-112719000Y12103000D02*
G75*
G02*
X-112599000Y12103000I60000J0D01*
G01*
X-112465000Y12417000D02*
X-112345000Y12297000D01*
X-112345000Y12417000D02*
X-112465000Y12297000D01*
X-112345000Y12357000D02*
G75*
G02*
X-112465000Y12357000I-60000J0D01*
G01*
X-112465000Y12357000D02*
G75*
G02*
X-112345000Y12357000I60000J0D01*
G01*
X-112465000Y12163000D02*
X-112345000Y12043000D01*
X-112345000Y12163000D02*
X-112465000Y12043000D01*
X-112345000Y12103000D02*
G75*
G02*
X-112465000Y12103000I-60000J0D01*
G01*
X-112465000Y12103000D02*
G75*
G02*
X-112345000Y12103000I60000J0D01*
G01*
X-112211000Y12417000D02*
X-112091000Y12297000D01*
X-112091000Y12417000D02*
X-112211000Y12297000D01*
X-112091000Y12357000D02*
G75*
G02*
X-112211000Y12357000I-60000J0D01*
G01*
X-112211000Y12357000D02*
G75*
G02*
X-112091000Y12357000I60000J0D01*
G01*
X-112211000Y12163000D02*
X-112091000Y12043000D01*
X-112091000Y12163000D02*
X-112211000Y12043000D01*
X-112091000Y12103000D02*
G75*
G02*
X-112211000Y12103000I-60000J0D01*
G01*
X-112211000Y12103000D02*
G75*
G02*
X-112091000Y12103000I60000J0D01*
G01*
X-112031750Y4120000D02*
X-111911750Y4000000D01*
X-111911750Y4120000D02*
X-112031750Y4000000D01*
X-111911750Y4060000D02*
G75*
G02*
X-112031750Y4060000I-60000J0D01*
G01*
X-112031750Y4060000D02*
G75*
G02*
X-111911750Y4060000I60000J0D01*
G01*
X-111957000Y12417000D02*
X-111837000Y12297000D01*
X-111837000Y12417000D02*
X-111957000Y12297000D01*
X-111837000Y12357000D02*
G75*
G02*
X-111957000Y12357000I-60000J0D01*
G01*
X-111957000Y12357000D02*
G75*
G02*
X-111837000Y12357000I60000J0D01*
G01*
X-111957000Y12163000D02*
X-111837000Y12043000D01*
X-111837000Y12163000D02*
X-111957000Y12043000D01*
X-111837000Y12103000D02*
G75*
G02*
X-111957000Y12103000I-60000J0D01*
G01*
X-111957000Y12103000D02*
G75*
G02*
X-111837000Y12103000I60000J0D01*
G01*
X-111703000Y12417000D02*
X-111583000Y12297000D01*
X-111583000Y12417000D02*
X-111703000Y12297000D01*
X-111583000Y12357000D02*
G75*
G02*
X-111703000Y12357000I-60000J0D01*
G01*
X-111703000Y12357000D02*
G75*
G02*
X-111583000Y12357000I60000J0D01*
G01*
X-111703000Y12163000D02*
X-111583000Y12043000D01*
X-111583000Y12163000D02*
X-111703000Y12043000D01*
X-111583000Y12103000D02*
G75*
G02*
X-111703000Y12103000I-60000J0D01*
G01*
X-111703000Y12103000D02*
G75*
G02*
X-111583000Y12103000I60000J0D01*
G01*
X-111531750Y4120000D02*
X-111411750Y4000000D01*
X-111411750Y4120000D02*
X-111531750Y4000000D01*
X-111411750Y4060000D02*
G75*
G02*
X-111531750Y4060000I-60000J0D01*
G01*
X-111531750Y4060000D02*
G75*
G02*
X-111411750Y4060000I60000J0D01*
G01*
X-111449000Y12417000D02*
X-111329000Y12297000D01*
X-111329000Y12417000D02*
X-111449000Y12297000D01*
X-111329000Y12357000D02*
G75*
G02*
X-111449000Y12357000I-60000J0D01*
G01*
X-111449000Y12357000D02*
G75*
G02*
X-111329000Y12357000I60000J0D01*
G01*
X-111449000Y12163000D02*
X-111329000Y12043000D01*
X-111329000Y12163000D02*
X-111449000Y12043000D01*
X-111329000Y12103000D02*
G75*
G02*
X-111449000Y12103000I-60000J0D01*
G01*
X-111449000Y12103000D02*
G75*
G02*
X-111329000Y12103000I60000J0D01*
G01*
X-111195000Y12417000D02*
X-111075000Y12297000D01*
X-111075000Y12417000D02*
X-111195000Y12297000D01*
X-111075000Y12357000D02*
G75*
G02*
X-111195000Y12357000I-60000J0D01*
G01*
X-111195000Y12357000D02*
G75*
G02*
X-111075000Y12357000I60000J0D01*
G01*
X-111195000Y12163000D02*
X-111075000Y12043000D01*
X-111075000Y12163000D02*
X-111195000Y12043000D01*
X-111075000Y12103000D02*
G75*
G02*
X-111195000Y12103000I-60000J0D01*
G01*
X-111195000Y12103000D02*
G75*
G02*
X-111075000Y12103000I60000J0D01*
G01*
X-111031750Y4120000D02*
X-110911750Y4000000D01*
X-110911750Y4120000D02*
X-111031750Y4000000D01*
X-110911750Y4060000D02*
G75*
G02*
X-111031750Y4060000I-60000J0D01*
G01*
X-111031750Y4060000D02*
G75*
G02*
X-110911750Y4060000I60000J0D01*
G01*
X-110941000Y12417000D02*
X-110821000Y12297000D01*
X-110821000Y12417000D02*
X-110941000Y12297000D01*
X-110821000Y12357000D02*
G75*
G02*
X-110941000Y12357000I-60000J0D01*
G01*
X-110941000Y12357000D02*
G75*
G02*
X-110821000Y12357000I60000J0D01*
G01*
X-110941000Y12163000D02*
X-110821000Y12043000D01*
X-110821000Y12163000D02*
X-110941000Y12043000D01*
X-110821000Y12103000D02*
G75*
G02*
X-110941000Y12103000I-60000J0D01*
G01*
X-110941000Y12103000D02*
G75*
G02*
X-110821000Y12103000I60000J0D01*
G01*
X-110531750Y4120000D02*
X-110411750Y4000000D01*
X-110411750Y4120000D02*
X-110531750Y4000000D01*
X-110411750Y4060000D02*
G75*
G02*
X-110531750Y4060000I-60000J0D01*
G01*
X-110531750Y4060000D02*
G75*
G02*
X-110411750Y4060000I60000J0D01*
G01*
X-110031750Y4120000D02*
X-109911750Y4000000D01*
X-109911750Y4120000D02*
X-110031750Y4000000D01*
X-109911750Y4060000D02*
G75*
G02*
X-110031750Y4060000I-60000J0D01*
G01*
X-110031750Y4060000D02*
G75*
G02*
X-109911750Y4060000I60000J0D01*
G01*
X-109620000Y12220450D02*
X-109500000Y12100450D01*
X-109500000Y12220450D02*
X-109620000Y12100450D01*
X-109500000Y12160450D02*
G75*
G02*
X-109620000Y12160450I-60000J0D01*
G01*
X-109620000Y12160450D02*
G75*
G02*
X-109500000Y12160450I60000J0D01*
G01*
X-109620000Y11719550D02*
X-109500000Y11599550D01*
X-109500000Y11719550D02*
X-109620000Y11599550D01*
X-109500000Y11659550D02*
G75*
G02*
X-109620000Y11659550I-60000J0D01*
G01*
X-109620000Y11659550D02*
G75*
G02*
X-109500000Y11659550I60000J0D01*
G01*
X-109531750Y4120000D02*
X-109411750Y4000000D01*
X-109411750Y4120000D02*
X-109531750Y4000000D01*
X-109411750Y4060000D02*
G75*
G02*
X-109531750Y4060000I-60000J0D01*
G01*
X-109531750Y4060000D02*
G75*
G02*
X-109411750Y4060000I60000J0D01*
G01*
D17*
X-114026200Y5056150D02*
X-113873800Y4903750D01*
X-113873800Y5056150D02*
X-114026200Y4903750D01*
X-113950000Y5056150D02*
X-113950000Y4903750D01*
X-114026200Y4979950D02*
X-113873800Y4979950D01*
X-114026200Y3856250D02*
X-113873800Y3703850D01*
X-113873800Y3856250D02*
X-114026200Y3703850D01*
X-113950000Y3856250D02*
X-113950000Y3703850D01*
X-114026200Y3780050D02*
X-113873800Y3780050D01*
X-112806200Y5056200D02*
X-112653800Y4903800D01*
X-112653800Y5056200D02*
X-112806200Y4903800D01*
X-112730000Y5056200D02*
X-112730000Y4903800D01*
X-112806200Y4980000D02*
X-112653800Y4980000D01*
X-112806200Y3856200D02*
X-112653800Y3703800D01*
X-112653800Y3856200D02*
X-112806200Y3703800D01*
X-112730000Y3856200D02*
X-112730000Y3703800D01*
X-112806200Y3780000D02*
X-112653800Y3780000D01*
X-112606200Y4456200D02*
X-112453800Y4303800D01*
X-112453800Y4456200D02*
X-112606200Y4303800D01*
X-112530000Y4456200D02*
X-112530000Y4303800D01*
X-112606200Y4380000D02*
X-112453800Y4380000D01*
D12*
X-118841723Y3206016D02*
X-118841723Y3406016D01*
X-118841723Y3406016D02*
X-118794104Y3406016D01*
X-118794104Y3406016D02*
X-118765533Y3396492D01*
X-118765533Y3396492D02*
X-118746485Y3377445D01*
X-118746485Y3377445D02*
X-118736961Y3358397D01*
X-118736961Y3358397D02*
X-118727437Y3320302D01*
X-118727437Y3320302D02*
X-118727437Y3291730D01*
X-118727437Y3291730D02*
X-118736961Y3253635D01*
X-118736961Y3253635D02*
X-118746485Y3234588D01*
X-118746485Y3234588D02*
X-118765533Y3215540D01*
X-118765533Y3215540D02*
X-118794104Y3206016D01*
X-118794104Y3206016D02*
X-118841723Y3206016D01*
X-118641723Y3206016D02*
X-118641723Y3339349D01*
X-118641723Y3301254D02*
X-118632199Y3320302D01*
X-118632199Y3320302D02*
X-118622675Y3329826D01*
X-118622675Y3329826D02*
X-118603628Y3339349D01*
X-118603628Y3339349D02*
X-118584580Y3339349D01*
X-118517914Y3206016D02*
X-118517914Y3339349D01*
X-118517914Y3406016D02*
X-118527437Y3396492D01*
X-118527437Y3396492D02*
X-118517914Y3386968D01*
X-118517914Y3386968D02*
X-118508390Y3396492D01*
X-118508390Y3396492D02*
X-118517914Y3406016D01*
X-118517914Y3406016D02*
X-118517914Y3386968D01*
X-118394104Y3206016D02*
X-118413152Y3215540D01*
X-118413152Y3215540D02*
X-118422675Y3234588D01*
X-118422675Y3234588D02*
X-118422675Y3406016D01*
X-118289342Y3206016D02*
X-118308390Y3215540D01*
X-118308390Y3215540D02*
X-118317914Y3234588D01*
X-118317914Y3234588D02*
X-118317914Y3406016D01*
X-118060771Y3206016D02*
X-118060771Y3406016D01*
X-118060771Y3406016D02*
X-117994104Y3263159D01*
X-117994104Y3263159D02*
X-117927437Y3406016D01*
X-117927437Y3406016D02*
X-117927437Y3206016D01*
X-117746485Y3206016D02*
X-117746485Y3310778D01*
X-117746485Y3310778D02*
X-117756009Y3329826D01*
X-117756009Y3329826D02*
X-117775056Y3339349D01*
X-117775056Y3339349D02*
X-117813152Y3339349D01*
X-117813152Y3339349D02*
X-117832199Y3329826D01*
X-117746485Y3215540D02*
X-117765533Y3206016D01*
X-117765533Y3206016D02*
X-117813152Y3206016D01*
X-117813152Y3206016D02*
X-117832199Y3215540D01*
X-117832199Y3215540D02*
X-117841723Y3234588D01*
X-117841723Y3234588D02*
X-117841723Y3253635D01*
X-117841723Y3253635D02*
X-117832199Y3272683D01*
X-117832199Y3272683D02*
X-117813152Y3282207D01*
X-117813152Y3282207D02*
X-117765533Y3282207D01*
X-117765533Y3282207D02*
X-117746485Y3291730D01*
X-117651247Y3339349D02*
X-117651247Y3139349D01*
X-117651247Y3329826D02*
X-117632199Y3339349D01*
X-117632199Y3339349D02*
X-117594104Y3339349D01*
X-117594104Y3339349D02*
X-117575056Y3329826D01*
X-117575056Y3329826D02*
X-117565533Y3320302D01*
X-117565533Y3320302D02*
X-117556009Y3301254D01*
X-117556009Y3301254D02*
X-117556009Y3244111D01*
X-117556009Y3244111D02*
X-117565533Y3225064D01*
X-117565533Y3225064D02*
X-117575056Y3215540D01*
X-117575056Y3215540D02*
X-117594104Y3206016D01*
X-117594104Y3206016D02*
X-117632199Y3206016D01*
X-117632199Y3206016D02*
X-117651247Y3215540D01*
X-117470294Y3225064D02*
X-117460771Y3215540D01*
X-117460771Y3215540D02*
X-117470294Y3206016D01*
X-117470294Y3206016D02*
X-117479818Y3215540D01*
X-117479818Y3215540D02*
X-117470294Y3225064D01*
X-117470294Y3225064D02*
X-117470294Y3206016D01*
X-117470294Y3329826D02*
X-117460771Y3320302D01*
X-117460771Y3320302D02*
X-117470294Y3310778D01*
X-117470294Y3310778D02*
X-117479818Y3320302D01*
X-117479818Y3320302D02*
X-117470294Y3329826D01*
X-117470294Y3329826D02*
X-117470294Y3310778D01*
D13*
X-119132500Y2892500D02*
X-119102500Y2862500D01*
X-119102500Y2892500D02*
X-119132500Y2862500D01*
D12*
X-118803628Y2986016D02*
X-118784580Y2986016D01*
X-118784580Y2986016D02*
X-118765533Y2976492D01*
X-118765533Y2976492D02*
X-118756009Y2966968D01*
X-118756009Y2966968D02*
X-118746485Y2947921D01*
X-118746485Y2947921D02*
X-118736961Y2909826D01*
X-118736961Y2909826D02*
X-118736961Y2862207D01*
X-118736961Y2862207D02*
X-118746485Y2824111D01*
X-118746485Y2824111D02*
X-118756009Y2805064D01*
X-118756009Y2805064D02*
X-118765533Y2795540D01*
X-118765533Y2795540D02*
X-118784580Y2786016D01*
X-118784580Y2786016D02*
X-118803628Y2786016D01*
X-118803628Y2786016D02*
X-118822675Y2795540D01*
X-118822675Y2795540D02*
X-118832199Y2805064D01*
X-118832199Y2805064D02*
X-118841723Y2824111D01*
X-118841723Y2824111D02*
X-118851247Y2862207D01*
X-118851247Y2862207D02*
X-118851247Y2909826D01*
X-118851247Y2909826D02*
X-118841723Y2947921D01*
X-118841723Y2947921D02*
X-118832199Y2966968D01*
X-118832199Y2966968D02*
X-118822675Y2976492D01*
X-118822675Y2976492D02*
X-118803628Y2986016D01*
X-118651247Y2805064D02*
X-118641723Y2795540D01*
X-118641723Y2795540D02*
X-118651247Y2786016D01*
X-118651247Y2786016D02*
X-118660771Y2795540D01*
X-118660771Y2795540D02*
X-118651247Y2805064D01*
X-118651247Y2805064D02*
X-118651247Y2786016D01*
X-118575056Y2986016D02*
X-118451247Y2986016D01*
X-118451247Y2986016D02*
X-118517914Y2909826D01*
X-118517914Y2909826D02*
X-118489342Y2909826D01*
X-118489342Y2909826D02*
X-118470294Y2900302D01*
X-118470294Y2900302D02*
X-118460771Y2890778D01*
X-118460771Y2890778D02*
X-118451247Y2871730D01*
X-118451247Y2871730D02*
X-118451247Y2824111D01*
X-118451247Y2824111D02*
X-118460771Y2805064D01*
X-118460771Y2805064D02*
X-118470294Y2795540D01*
X-118470294Y2795540D02*
X-118489342Y2786016D01*
X-118489342Y2786016D02*
X-118546485Y2786016D01*
X-118546485Y2786016D02*
X-118565533Y2795540D01*
X-118565533Y2795540D02*
X-118575056Y2805064D01*
X-118327437Y2986016D02*
X-118308390Y2986016D01*
X-118308390Y2986016D02*
X-118289342Y2976492D01*
X-118289342Y2976492D02*
X-118279818Y2966968D01*
X-118279818Y2966968D02*
X-118270294Y2947921D01*
X-118270294Y2947921D02*
X-118260771Y2909826D01*
X-118260771Y2909826D02*
X-118260771Y2862207D01*
X-118260771Y2862207D02*
X-118270294Y2824111D01*
X-118270294Y2824111D02*
X-118279818Y2805064D01*
X-118279818Y2805064D02*
X-118289342Y2795540D01*
X-118289342Y2795540D02*
X-118308390Y2786016D01*
X-118308390Y2786016D02*
X-118327437Y2786016D01*
X-118327437Y2786016D02*
X-118346485Y2795540D01*
X-118346485Y2795540D02*
X-118356009Y2805064D01*
X-118356009Y2805064D02*
X-118365533Y2824111D01*
X-118365533Y2824111D02*
X-118375056Y2862207D01*
X-118375056Y2862207D02*
X-118375056Y2909826D01*
X-118375056Y2909826D02*
X-118365533Y2947921D01*
X-118365533Y2947921D02*
X-118356009Y2966968D01*
X-118356009Y2966968D02*
X-118346485Y2976492D01*
X-118346485Y2976492D02*
X-118327437Y2986016D01*
X-118136961Y2986016D02*
X-118117913Y2986016D01*
X-118117913Y2986016D02*
X-118098866Y2976492D01*
X-118098866Y2976492D02*
X-118089342Y2966968D01*
X-118089342Y2966968D02*
X-118079818Y2947921D01*
X-118079818Y2947921D02*
X-118070294Y2909826D01*
X-118070294Y2909826D02*
X-118070294Y2862207D01*
X-118070294Y2862207D02*
X-118079818Y2824111D01*
X-118079818Y2824111D02*
X-118089342Y2805064D01*
X-118089342Y2805064D02*
X-118098866Y2795540D01*
X-118098866Y2795540D02*
X-118117913Y2786016D01*
X-118117913Y2786016D02*
X-118136961Y2786016D01*
X-118136961Y2786016D02*
X-118156009Y2795540D01*
X-118156009Y2795540D02*
X-118165533Y2805064D01*
X-118165533Y2805064D02*
X-118175056Y2824111D01*
X-118175056Y2824111D02*
X-118184580Y2862207D01*
X-118184580Y2862207D02*
X-118184580Y2909826D01*
X-118184580Y2909826D02*
X-118175056Y2947921D01*
X-118175056Y2947921D02*
X-118165533Y2966968D01*
X-118165533Y2966968D02*
X-118156009Y2976492D01*
X-118156009Y2976492D02*
X-118136961Y2986016D01*
X-117984580Y2786016D02*
X-117984580Y2919349D01*
X-117984580Y2900302D02*
X-117975056Y2909826D01*
X-117975056Y2909826D02*
X-117956009Y2919349D01*
X-117956009Y2919349D02*
X-117927437Y2919349D01*
X-117927437Y2919349D02*
X-117908390Y2909826D01*
X-117908390Y2909826D02*
X-117898866Y2890778D01*
X-117898866Y2890778D02*
X-117898866Y2786016D01*
X-117898866Y2890778D02*
X-117889342Y2909826D01*
X-117889342Y2909826D02*
X-117870294Y2919349D01*
X-117870294Y2919349D02*
X-117841723Y2919349D01*
X-117841723Y2919349D02*
X-117822675Y2909826D01*
X-117822675Y2909826D02*
X-117813152Y2890778D01*
X-117813152Y2890778D02*
X-117813152Y2786016D01*
X-117717913Y2786016D02*
X-117717913Y2919349D01*
X-117717913Y2900302D02*
X-117708390Y2909826D01*
X-117708390Y2909826D02*
X-117689342Y2919349D01*
X-117689342Y2919349D02*
X-117660771Y2919349D01*
X-117660771Y2919349D02*
X-117641723Y2909826D01*
X-117641723Y2909826D02*
X-117632199Y2890778D01*
X-117632199Y2890778D02*
X-117632199Y2786016D01*
X-117632199Y2890778D02*
X-117622675Y2909826D01*
X-117622675Y2909826D02*
X-117603628Y2919349D01*
X-117603628Y2919349D02*
X-117575056Y2919349D01*
X-117575056Y2919349D02*
X-117556009Y2909826D01*
X-117556009Y2909826D02*
X-117546485Y2890778D01*
X-117546485Y2890778D02*
X-117546485Y2786016D01*
X-117156009Y2995540D02*
X-117327437Y2738397D01*
X-116898866Y2986016D02*
X-116879818Y2986016D01*
X-116879818Y2986016D02*
X-116860770Y2976492D01*
X-116860770Y2976492D02*
X-116851247Y2966968D01*
X-116851247Y2966968D02*
X-116841723Y2947921D01*
X-116841723Y2947921D02*
X-116832199Y2909826D01*
X-116832199Y2909826D02*
X-116832199Y2862207D01*
X-116832199Y2862207D02*
X-116841723Y2824111D01*
X-116841723Y2824111D02*
X-116851247Y2805064D01*
X-116851247Y2805064D02*
X-116860770Y2795540D01*
X-116860770Y2795540D02*
X-116879818Y2786016D01*
X-116879818Y2786016D02*
X-116898866Y2786016D01*
X-116898866Y2786016D02*
X-116917913Y2795540D01*
X-116917913Y2795540D02*
X-116927437Y2805064D01*
X-116927437Y2805064D02*
X-116936961Y2824111D01*
X-116936961Y2824111D02*
X-116946485Y2862207D01*
X-116946485Y2862207D02*
X-116946485Y2909826D01*
X-116946485Y2909826D02*
X-116936961Y2947921D01*
X-116936961Y2947921D02*
X-116927437Y2966968D01*
X-116927437Y2966968D02*
X-116917913Y2976492D01*
X-116917913Y2976492D02*
X-116898866Y2986016D01*
X-116746485Y2805064D02*
X-116736961Y2795540D01*
X-116736961Y2795540D02*
X-116746485Y2786016D01*
X-116746485Y2786016D02*
X-116756009Y2795540D01*
X-116756009Y2795540D02*
X-116746485Y2805064D01*
X-116746485Y2805064D02*
X-116746485Y2786016D01*
X-116613151Y2986016D02*
X-116594104Y2986016D01*
X-116594104Y2986016D02*
X-116575056Y2976492D01*
X-116575056Y2976492D02*
X-116565532Y2966968D01*
X-116565532Y2966968D02*
X-116556009Y2947921D01*
X-116556009Y2947921D02*
X-116546485Y2909826D01*
X-116546485Y2909826D02*
X-116546485Y2862207D01*
X-116546485Y2862207D02*
X-116556009Y2824111D01*
X-116556009Y2824111D02*
X-116565532Y2805064D01*
X-116565532Y2805064D02*
X-116575056Y2795540D01*
X-116575056Y2795540D02*
X-116594104Y2786016D01*
X-116594104Y2786016D02*
X-116613151Y2786016D01*
X-116613151Y2786016D02*
X-116632199Y2795540D01*
X-116632199Y2795540D02*
X-116641723Y2805064D01*
X-116641723Y2805064D02*
X-116651247Y2824111D01*
X-116651247Y2824111D02*
X-116660770Y2862207D01*
X-116660770Y2862207D02*
X-116660770Y2909826D01*
X-116660770Y2909826D02*
X-116651247Y2947921D01*
X-116651247Y2947921D02*
X-116641723Y2966968D01*
X-116641723Y2966968D02*
X-116632199Y2976492D01*
X-116632199Y2976492D02*
X-116613151Y2986016D01*
X-116356009Y2786016D02*
X-116470294Y2786016D01*
X-116413151Y2786016D02*
X-116413151Y2986016D01*
X-116413151Y2986016D02*
X-116432199Y2957445D01*
X-116432199Y2957445D02*
X-116451247Y2938397D01*
X-116451247Y2938397D02*
X-116470294Y2928873D01*
X-116165532Y2786016D02*
X-116279818Y2786016D01*
X-116222675Y2786016D02*
X-116222675Y2986016D01*
X-116222675Y2986016D02*
X-116241723Y2957445D01*
X-116241723Y2957445D02*
X-116260770Y2938397D01*
X-116260770Y2938397D02*
X-116279818Y2928873D01*
X-116051247Y2900302D02*
X-116070294Y2909826D01*
X-116070294Y2909826D02*
X-116079818Y2919349D01*
X-116079818Y2919349D02*
X-116089342Y2938397D01*
X-116089342Y2938397D02*
X-116089342Y2947921D01*
X-116089342Y2947921D02*
X-116079818Y2966968D01*
X-116079818Y2966968D02*
X-116070294Y2976492D01*
X-116070294Y2976492D02*
X-116051247Y2986016D01*
X-116051247Y2986016D02*
X-116013151Y2986016D01*
X-116013151Y2986016D02*
X-115994104Y2976492D01*
X-115994104Y2976492D02*
X-115984580Y2966968D01*
X-115984580Y2966968D02*
X-115975056Y2947921D01*
X-115975056Y2947921D02*
X-115975056Y2938397D01*
X-115975056Y2938397D02*
X-115984580Y2919349D01*
X-115984580Y2919349D02*
X-115994104Y2909826D01*
X-115994104Y2909826D02*
X-116013151Y2900302D01*
X-116013151Y2900302D02*
X-116051247Y2900302D01*
X-116051247Y2900302D02*
X-116070294Y2890778D01*
X-116070294Y2890778D02*
X-116079818Y2881254D01*
X-116079818Y2881254D02*
X-116089342Y2862207D01*
X-116089342Y2862207D02*
X-116089342Y2824111D01*
X-116089342Y2824111D02*
X-116079818Y2805064D01*
X-116079818Y2805064D02*
X-116070294Y2795540D01*
X-116070294Y2795540D02*
X-116051247Y2786016D01*
X-116051247Y2786016D02*
X-116013151Y2786016D01*
X-116013151Y2786016D02*
X-115994104Y2795540D01*
X-115994104Y2795540D02*
X-115984580Y2805064D01*
X-115984580Y2805064D02*
X-115975056Y2824111D01*
X-115975056Y2824111D02*
X-115975056Y2862207D01*
X-115975056Y2862207D02*
X-115984580Y2881254D01*
X-115984580Y2881254D02*
X-115994104Y2890778D01*
X-115994104Y2890778D02*
X-116013151Y2900302D01*
X-115898866Y2986016D02*
X-115898866Y2947921D01*
X-115822675Y2986016D02*
X-115822675Y2947921D01*
X-115527437Y2709826D02*
X-115536961Y2719350D01*
X-115536961Y2719350D02*
X-115556008Y2747921D01*
X-115556008Y2747921D02*
X-115565532Y2766969D01*
X-115565532Y2766969D02*
X-115575056Y2795540D01*
X-115575056Y2795540D02*
X-115584580Y2843159D01*
X-115584580Y2843159D02*
X-115584580Y2881254D01*
X-115584580Y2881254D02*
X-115575056Y2928873D01*
X-115575056Y2928873D02*
X-115565532Y2957445D01*
X-115565532Y2957445D02*
X-115556008Y2976492D01*
X-115556008Y2976492D02*
X-115536961Y3005064D01*
X-115536961Y3005064D02*
X-115527437Y3014588D01*
X-115460770Y2966968D02*
X-115451247Y2976492D01*
X-115451247Y2976492D02*
X-115432199Y2986016D01*
X-115432199Y2986016D02*
X-115384580Y2986016D01*
X-115384580Y2986016D02*
X-115365532Y2976492D01*
X-115365532Y2976492D02*
X-115356008Y2966968D01*
X-115356008Y2966968D02*
X-115346485Y2947921D01*
X-115346485Y2947921D02*
X-115346485Y2928873D01*
X-115346485Y2928873D02*
X-115356008Y2900302D01*
X-115356008Y2900302D02*
X-115470294Y2786016D01*
X-115470294Y2786016D02*
X-115346485Y2786016D01*
X-115270294Y2966968D02*
X-115260770Y2976492D01*
X-115260770Y2976492D02*
X-115241723Y2986016D01*
X-115241723Y2986016D02*
X-115194104Y2986016D01*
X-115194104Y2986016D02*
X-115175056Y2976492D01*
X-115175056Y2976492D02*
X-115165532Y2966968D01*
X-115165532Y2966968D02*
X-115156008Y2947921D01*
X-115156008Y2947921D02*
X-115156008Y2928873D01*
X-115156008Y2928873D02*
X-115165532Y2900302D01*
X-115165532Y2900302D02*
X-115279818Y2786016D01*
X-115279818Y2786016D02*
X-115156008Y2786016D01*
X-114965532Y2786016D02*
X-115079818Y2786016D01*
X-115022675Y2786016D02*
X-115022675Y2986016D01*
X-115022675Y2986016D02*
X-115041723Y2957445D01*
X-115041723Y2957445D02*
X-115060770Y2938397D01*
X-115060770Y2938397D02*
X-115079818Y2928873D01*
X-114727437Y2786016D02*
X-114727437Y2986016D01*
X-114641723Y2786016D02*
X-114641723Y2890778D01*
X-114641723Y2890778D02*
X-114651246Y2909826D01*
X-114651246Y2909826D02*
X-114670294Y2919349D01*
X-114670294Y2919349D02*
X-114698866Y2919349D01*
X-114698866Y2919349D02*
X-114717913Y2909826D01*
X-114717913Y2909826D02*
X-114727437Y2900302D01*
X-114517913Y2786016D02*
X-114536961Y2795540D01*
X-114536961Y2795540D02*
X-114546485Y2805064D01*
X-114546485Y2805064D02*
X-114556008Y2824111D01*
X-114556008Y2824111D02*
X-114556008Y2881254D01*
X-114556008Y2881254D02*
X-114546485Y2900302D01*
X-114546485Y2900302D02*
X-114536961Y2909826D01*
X-114536961Y2909826D02*
X-114517913Y2919349D01*
X-114517913Y2919349D02*
X-114489342Y2919349D01*
X-114489342Y2919349D02*
X-114470294Y2909826D01*
X-114470294Y2909826D02*
X-114460770Y2900302D01*
X-114460770Y2900302D02*
X-114451246Y2881254D01*
X-114451246Y2881254D02*
X-114451246Y2824111D01*
X-114451246Y2824111D02*
X-114460770Y2805064D01*
X-114460770Y2805064D02*
X-114470294Y2795540D01*
X-114470294Y2795540D02*
X-114489342Y2786016D01*
X-114489342Y2786016D02*
X-114517913Y2786016D01*
X-114336961Y2786016D02*
X-114356008Y2795540D01*
X-114356008Y2795540D02*
X-114365532Y2814588D01*
X-114365532Y2814588D02*
X-114365532Y2986016D01*
X-114184580Y2795540D02*
X-114203627Y2786016D01*
X-114203627Y2786016D02*
X-114241723Y2786016D01*
X-114241723Y2786016D02*
X-114260770Y2795540D01*
X-114260770Y2795540D02*
X-114270294Y2814588D01*
X-114270294Y2814588D02*
X-114270294Y2890778D01*
X-114270294Y2890778D02*
X-114260770Y2909826D01*
X-114260770Y2909826D02*
X-114241723Y2919349D01*
X-114241723Y2919349D02*
X-114203627Y2919349D01*
X-114203627Y2919349D02*
X-114184580Y2909826D01*
X-114184580Y2909826D02*
X-114175056Y2890778D01*
X-114175056Y2890778D02*
X-114175056Y2871730D01*
X-114175056Y2871730D02*
X-114270294Y2852683D01*
X-114098865Y2795540D02*
X-114079818Y2786016D01*
X-114079818Y2786016D02*
X-114041723Y2786016D01*
X-114041723Y2786016D02*
X-114022675Y2795540D01*
X-114022675Y2795540D02*
X-114013151Y2814588D01*
X-114013151Y2814588D02*
X-114013151Y2824111D01*
X-114013151Y2824111D02*
X-114022675Y2843159D01*
X-114022675Y2843159D02*
X-114041723Y2852683D01*
X-114041723Y2852683D02*
X-114070294Y2852683D01*
X-114070294Y2852683D02*
X-114089342Y2862207D01*
X-114089342Y2862207D02*
X-114098865Y2881254D01*
X-114098865Y2881254D02*
X-114098865Y2890778D01*
X-114098865Y2890778D02*
X-114089342Y2909826D01*
X-114089342Y2909826D02*
X-114070294Y2919349D01*
X-114070294Y2919349D02*
X-114041723Y2919349D01*
X-114041723Y2919349D02*
X-114022675Y2909826D01*
X-113946484Y2709826D02*
X-113936961Y2719350D01*
X-113936961Y2719350D02*
X-113917913Y2747921D01*
X-113917913Y2747921D02*
X-113908389Y2766969D01*
X-113908389Y2766969D02*
X-113898865Y2795540D01*
X-113898865Y2795540D02*
X-113889342Y2843159D01*
X-113889342Y2843159D02*
X-113889342Y2881254D01*
X-113889342Y2881254D02*
X-113898865Y2928873D01*
X-113898865Y2928873D02*
X-113908389Y2957445D01*
X-113908389Y2957445D02*
X-113917913Y2976492D01*
X-113917913Y2976492D02*
X-113936961Y3005064D01*
X-113936961Y3005064D02*
X-113946484Y3014588D01*
D13*
X-119102500Y2613500D02*
G75*
G02*
X-119162500Y2613500I-30000J0D01*
G01*
X-119162500Y2613500D02*
G75*
G02*
X-119102500Y2613500I30000J0D01*
G01*
D12*
X-118803628Y2722016D02*
X-118784580Y2722016D01*
X-118784580Y2722016D02*
X-118765533Y2712492D01*
X-118765533Y2712492D02*
X-118756009Y2702969D01*
X-118756009Y2702969D02*
X-118746485Y2683921D01*
X-118746485Y2683921D02*
X-118736961Y2645826D01*
X-118736961Y2645826D02*
X-118736961Y2598207D01*
X-118736961Y2598207D02*
X-118746485Y2560111D01*
X-118746485Y2560111D02*
X-118756009Y2541064D01*
X-118756009Y2541064D02*
X-118765533Y2531540D01*
X-118765533Y2531540D02*
X-118784580Y2522016D01*
X-118784580Y2522016D02*
X-118803628Y2522016D01*
X-118803628Y2522016D02*
X-118822675Y2531540D01*
X-118822675Y2531540D02*
X-118832199Y2541064D01*
X-118832199Y2541064D02*
X-118841723Y2560111D01*
X-118841723Y2560111D02*
X-118851247Y2598207D01*
X-118851247Y2598207D02*
X-118851247Y2645826D01*
X-118851247Y2645826D02*
X-118841723Y2683921D01*
X-118841723Y2683921D02*
X-118832199Y2702969D01*
X-118832199Y2702969D02*
X-118822675Y2712492D01*
X-118822675Y2712492D02*
X-118803628Y2722016D01*
X-118651247Y2541064D02*
X-118641723Y2531540D01*
X-118641723Y2531540D02*
X-118651247Y2522016D01*
X-118651247Y2522016D02*
X-118660771Y2531540D01*
X-118660771Y2531540D02*
X-118651247Y2541064D01*
X-118651247Y2541064D02*
X-118651247Y2522016D01*
X-118470294Y2722016D02*
X-118508390Y2722016D01*
X-118508390Y2722016D02*
X-118527437Y2712492D01*
X-118527437Y2712492D02*
X-118536961Y2702969D01*
X-118536961Y2702969D02*
X-118556009Y2674397D01*
X-118556009Y2674397D02*
X-118565533Y2636302D01*
X-118565533Y2636302D02*
X-118565533Y2560111D01*
X-118565533Y2560111D02*
X-118556009Y2541064D01*
X-118556009Y2541064D02*
X-118546485Y2531540D01*
X-118546485Y2531540D02*
X-118527437Y2522016D01*
X-118527437Y2522016D02*
X-118489342Y2522016D01*
X-118489342Y2522016D02*
X-118470294Y2531540D01*
X-118470294Y2531540D02*
X-118460771Y2541064D01*
X-118460771Y2541064D02*
X-118451247Y2560111D01*
X-118451247Y2560111D02*
X-118451247Y2607730D01*
X-118451247Y2607730D02*
X-118460771Y2626778D01*
X-118460771Y2626778D02*
X-118470294Y2636302D01*
X-118470294Y2636302D02*
X-118489342Y2645826D01*
X-118489342Y2645826D02*
X-118527437Y2645826D01*
X-118527437Y2645826D02*
X-118546485Y2636302D01*
X-118546485Y2636302D02*
X-118556009Y2626778D01*
X-118556009Y2626778D02*
X-118565533Y2607730D01*
X-118327437Y2722016D02*
X-118308390Y2722016D01*
X-118308390Y2722016D02*
X-118289342Y2712492D01*
X-118289342Y2712492D02*
X-118279818Y2702969D01*
X-118279818Y2702969D02*
X-118270294Y2683921D01*
X-118270294Y2683921D02*
X-118260771Y2645826D01*
X-118260771Y2645826D02*
X-118260771Y2598207D01*
X-118260771Y2598207D02*
X-118270294Y2560111D01*
X-118270294Y2560111D02*
X-118279818Y2541064D01*
X-118279818Y2541064D02*
X-118289342Y2531540D01*
X-118289342Y2531540D02*
X-118308390Y2522016D01*
X-118308390Y2522016D02*
X-118327437Y2522016D01*
X-118327437Y2522016D02*
X-118346485Y2531540D01*
X-118346485Y2531540D02*
X-118356009Y2541064D01*
X-118356009Y2541064D02*
X-118365533Y2560111D01*
X-118365533Y2560111D02*
X-118375056Y2598207D01*
X-118375056Y2598207D02*
X-118375056Y2645826D01*
X-118375056Y2645826D02*
X-118365533Y2683921D01*
X-118365533Y2683921D02*
X-118356009Y2702969D01*
X-118356009Y2702969D02*
X-118346485Y2712492D01*
X-118346485Y2712492D02*
X-118327437Y2722016D01*
X-118136961Y2722016D02*
X-118117913Y2722016D01*
X-118117913Y2722016D02*
X-118098866Y2712492D01*
X-118098866Y2712492D02*
X-118089342Y2702969D01*
X-118089342Y2702969D02*
X-118079818Y2683921D01*
X-118079818Y2683921D02*
X-118070294Y2645826D01*
X-118070294Y2645826D02*
X-118070294Y2598207D01*
X-118070294Y2598207D02*
X-118079818Y2560111D01*
X-118079818Y2560111D02*
X-118089342Y2541064D01*
X-118089342Y2541064D02*
X-118098866Y2531540D01*
X-118098866Y2531540D02*
X-118117913Y2522016D01*
X-118117913Y2522016D02*
X-118136961Y2522016D01*
X-118136961Y2522016D02*
X-118156009Y2531540D01*
X-118156009Y2531540D02*
X-118165533Y2541064D01*
X-118165533Y2541064D02*
X-118175056Y2560111D01*
X-118175056Y2560111D02*
X-118184580Y2598207D01*
X-118184580Y2598207D02*
X-118184580Y2645826D01*
X-118184580Y2645826D02*
X-118175056Y2683921D01*
X-118175056Y2683921D02*
X-118165533Y2702969D01*
X-118165533Y2702969D02*
X-118156009Y2712492D01*
X-118156009Y2712492D02*
X-118136961Y2722016D01*
X-117984580Y2522016D02*
X-117984580Y2655350D01*
X-117984580Y2636302D02*
X-117975056Y2645826D01*
X-117975056Y2645826D02*
X-117956009Y2655350D01*
X-117956009Y2655350D02*
X-117927437Y2655350D01*
X-117927437Y2655350D02*
X-117908390Y2645826D01*
X-117908390Y2645826D02*
X-117898866Y2626778D01*
X-117898866Y2626778D02*
X-117898866Y2522016D01*
X-117898866Y2626778D02*
X-117889342Y2645826D01*
X-117889342Y2645826D02*
X-117870294Y2655350D01*
X-117870294Y2655350D02*
X-117841723Y2655350D01*
X-117841723Y2655350D02*
X-117822675Y2645826D01*
X-117822675Y2645826D02*
X-117813152Y2626778D01*
X-117813152Y2626778D02*
X-117813152Y2522016D01*
X-117717913Y2522016D02*
X-117717913Y2655350D01*
X-117717913Y2636302D02*
X-117708390Y2645826D01*
X-117708390Y2645826D02*
X-117689342Y2655350D01*
X-117689342Y2655350D02*
X-117660771Y2655350D01*
X-117660771Y2655350D02*
X-117641723Y2645826D01*
X-117641723Y2645826D02*
X-117632199Y2626778D01*
X-117632199Y2626778D02*
X-117632199Y2522016D01*
X-117632199Y2626778D02*
X-117622675Y2645826D01*
X-117622675Y2645826D02*
X-117603628Y2655350D01*
X-117603628Y2655350D02*
X-117575056Y2655350D01*
X-117575056Y2655350D02*
X-117556009Y2645826D01*
X-117556009Y2645826D02*
X-117546485Y2626778D01*
X-117546485Y2626778D02*
X-117546485Y2522016D01*
X-117156009Y2731540D02*
X-117327437Y2474397D01*
X-116898866Y2722016D02*
X-116879818Y2722016D01*
X-116879818Y2722016D02*
X-116860770Y2712492D01*
X-116860770Y2712492D02*
X-116851247Y2702969D01*
X-116851247Y2702969D02*
X-116841723Y2683921D01*
X-116841723Y2683921D02*
X-116832199Y2645826D01*
X-116832199Y2645826D02*
X-116832199Y2598207D01*
X-116832199Y2598207D02*
X-116841723Y2560111D01*
X-116841723Y2560111D02*
X-116851247Y2541064D01*
X-116851247Y2541064D02*
X-116860770Y2531540D01*
X-116860770Y2531540D02*
X-116879818Y2522016D01*
X-116879818Y2522016D02*
X-116898866Y2522016D01*
X-116898866Y2522016D02*
X-116917913Y2531540D01*
X-116917913Y2531540D02*
X-116927437Y2541064D01*
X-116927437Y2541064D02*
X-116936961Y2560111D01*
X-116936961Y2560111D02*
X-116946485Y2598207D01*
X-116946485Y2598207D02*
X-116946485Y2645826D01*
X-116946485Y2645826D02*
X-116936961Y2683921D01*
X-116936961Y2683921D02*
X-116927437Y2702969D01*
X-116927437Y2702969D02*
X-116917913Y2712492D01*
X-116917913Y2712492D02*
X-116898866Y2722016D01*
X-116746485Y2541064D02*
X-116736961Y2531540D01*
X-116736961Y2531540D02*
X-116746485Y2522016D01*
X-116746485Y2522016D02*
X-116756009Y2531540D01*
X-116756009Y2531540D02*
X-116746485Y2541064D01*
X-116746485Y2541064D02*
X-116746485Y2522016D01*
X-116613151Y2722016D02*
X-116594104Y2722016D01*
X-116594104Y2722016D02*
X-116575056Y2712492D01*
X-116575056Y2712492D02*
X-116565532Y2702969D01*
X-116565532Y2702969D02*
X-116556009Y2683921D01*
X-116556009Y2683921D02*
X-116546485Y2645826D01*
X-116546485Y2645826D02*
X-116546485Y2598207D01*
X-116546485Y2598207D02*
X-116556009Y2560111D01*
X-116556009Y2560111D02*
X-116565532Y2541064D01*
X-116565532Y2541064D02*
X-116575056Y2531540D01*
X-116575056Y2531540D02*
X-116594104Y2522016D01*
X-116594104Y2522016D02*
X-116613151Y2522016D01*
X-116613151Y2522016D02*
X-116632199Y2531540D01*
X-116632199Y2531540D02*
X-116641723Y2541064D01*
X-116641723Y2541064D02*
X-116651247Y2560111D01*
X-116651247Y2560111D02*
X-116660770Y2598207D01*
X-116660770Y2598207D02*
X-116660770Y2645826D01*
X-116660770Y2645826D02*
X-116651247Y2683921D01*
X-116651247Y2683921D02*
X-116641723Y2702969D01*
X-116641723Y2702969D02*
X-116632199Y2712492D01*
X-116632199Y2712492D02*
X-116613151Y2722016D01*
X-116470294Y2702969D02*
X-116460770Y2712492D01*
X-116460770Y2712492D02*
X-116441723Y2722016D01*
X-116441723Y2722016D02*
X-116394104Y2722016D01*
X-116394104Y2722016D02*
X-116375056Y2712492D01*
X-116375056Y2712492D02*
X-116365532Y2702969D01*
X-116365532Y2702969D02*
X-116356009Y2683921D01*
X-116356009Y2683921D02*
X-116356009Y2664873D01*
X-116356009Y2664873D02*
X-116365532Y2636302D01*
X-116365532Y2636302D02*
X-116479818Y2522016D01*
X-116479818Y2522016D02*
X-116356009Y2522016D01*
X-116289342Y2722016D02*
X-116165532Y2722016D01*
X-116165532Y2722016D02*
X-116232199Y2645826D01*
X-116232199Y2645826D02*
X-116203628Y2645826D01*
X-116203628Y2645826D02*
X-116184580Y2636302D01*
X-116184580Y2636302D02*
X-116175056Y2626778D01*
X-116175056Y2626778D02*
X-116165532Y2607730D01*
X-116165532Y2607730D02*
X-116165532Y2560111D01*
X-116165532Y2560111D02*
X-116175056Y2541064D01*
X-116175056Y2541064D02*
X-116184580Y2531540D01*
X-116184580Y2531540D02*
X-116203628Y2522016D01*
X-116203628Y2522016D02*
X-116260770Y2522016D01*
X-116260770Y2522016D02*
X-116279818Y2531540D01*
X-116279818Y2531540D02*
X-116289342Y2541064D01*
X-115994104Y2722016D02*
X-116032199Y2722016D01*
X-116032199Y2722016D02*
X-116051247Y2712492D01*
X-116051247Y2712492D02*
X-116060770Y2702969D01*
X-116060770Y2702969D02*
X-116079818Y2674397D01*
X-116079818Y2674397D02*
X-116089342Y2636302D01*
X-116089342Y2636302D02*
X-116089342Y2560111D01*
X-116089342Y2560111D02*
X-116079818Y2541064D01*
X-116079818Y2541064D02*
X-116070294Y2531540D01*
X-116070294Y2531540D02*
X-116051247Y2522016D01*
X-116051247Y2522016D02*
X-116013151Y2522016D01*
X-116013151Y2522016D02*
X-115994104Y2531540D01*
X-115994104Y2531540D02*
X-115984580Y2541064D01*
X-115984580Y2541064D02*
X-115975056Y2560111D01*
X-115975056Y2560111D02*
X-115975056Y2607730D01*
X-115975056Y2607730D02*
X-115984580Y2626778D01*
X-115984580Y2626778D02*
X-115994104Y2636302D01*
X-115994104Y2636302D02*
X-116013151Y2645826D01*
X-116013151Y2645826D02*
X-116051247Y2645826D01*
X-116051247Y2645826D02*
X-116070294Y2636302D01*
X-116070294Y2636302D02*
X-116079818Y2626778D01*
X-116079818Y2626778D02*
X-116089342Y2607730D01*
X-115898866Y2722016D02*
X-115898866Y2683921D01*
X-115822675Y2722016D02*
X-115822675Y2683921D01*
X-115527437Y2445826D02*
X-115536961Y2455350D01*
X-115536961Y2455350D02*
X-115556008Y2483921D01*
X-115556008Y2483921D02*
X-115565532Y2502969D01*
X-115565532Y2502969D02*
X-115575056Y2531540D01*
X-115575056Y2531540D02*
X-115584580Y2579159D01*
X-115584580Y2579159D02*
X-115584580Y2617254D01*
X-115584580Y2617254D02*
X-115575056Y2664873D01*
X-115575056Y2664873D02*
X-115565532Y2693445D01*
X-115565532Y2693445D02*
X-115556008Y2712492D01*
X-115556008Y2712492D02*
X-115536961Y2741064D01*
X-115536961Y2741064D02*
X-115527437Y2750588D01*
X-115413151Y2722016D02*
X-115394104Y2722016D01*
X-115394104Y2722016D02*
X-115375056Y2712492D01*
X-115375056Y2712492D02*
X-115365532Y2702969D01*
X-115365532Y2702969D02*
X-115356008Y2683921D01*
X-115356008Y2683921D02*
X-115346485Y2645826D01*
X-115346485Y2645826D02*
X-115346485Y2598207D01*
X-115346485Y2598207D02*
X-115356008Y2560111D01*
X-115356008Y2560111D02*
X-115365532Y2541064D01*
X-115365532Y2541064D02*
X-115375056Y2531540D01*
X-115375056Y2531540D02*
X-115394104Y2522016D01*
X-115394104Y2522016D02*
X-115413151Y2522016D01*
X-115413151Y2522016D02*
X-115432199Y2531540D01*
X-115432199Y2531540D02*
X-115441723Y2541064D01*
X-115441723Y2541064D02*
X-115451247Y2560111D01*
X-115451247Y2560111D02*
X-115460770Y2598207D01*
X-115460770Y2598207D02*
X-115460770Y2645826D01*
X-115460770Y2645826D02*
X-115451247Y2683921D01*
X-115451247Y2683921D02*
X-115441723Y2702969D01*
X-115441723Y2702969D02*
X-115432199Y2712492D01*
X-115432199Y2712492D02*
X-115413151Y2722016D01*
X-115108389Y2522016D02*
X-115108389Y2722016D01*
X-115022675Y2522016D02*
X-115022675Y2626778D01*
X-115022675Y2626778D02*
X-115032199Y2645826D01*
X-115032199Y2645826D02*
X-115051246Y2655350D01*
X-115051246Y2655350D02*
X-115079818Y2655350D01*
X-115079818Y2655350D02*
X-115098866Y2645826D01*
X-115098866Y2645826D02*
X-115108389Y2636302D01*
X-114898866Y2522016D02*
X-114917913Y2531540D01*
X-114917913Y2531540D02*
X-114927437Y2541064D01*
X-114927437Y2541064D02*
X-114936961Y2560111D01*
X-114936961Y2560111D02*
X-114936961Y2617254D01*
X-114936961Y2617254D02*
X-114927437Y2636302D01*
X-114927437Y2636302D02*
X-114917913Y2645826D01*
X-114917913Y2645826D02*
X-114898866Y2655350D01*
X-114898866Y2655350D02*
X-114870294Y2655350D01*
X-114870294Y2655350D02*
X-114851246Y2645826D01*
X-114851246Y2645826D02*
X-114841723Y2636302D01*
X-114841723Y2636302D02*
X-114832199Y2617254D01*
X-114832199Y2617254D02*
X-114832199Y2560111D01*
X-114832199Y2560111D02*
X-114841723Y2541064D01*
X-114841723Y2541064D02*
X-114851246Y2531540D01*
X-114851246Y2531540D02*
X-114870294Y2522016D01*
X-114870294Y2522016D02*
X-114898866Y2522016D01*
X-114717913Y2522016D02*
X-114736961Y2531540D01*
X-114736961Y2531540D02*
X-114746485Y2550588D01*
X-114746485Y2550588D02*
X-114746485Y2722016D01*
X-114565532Y2531540D02*
X-114584580Y2522016D01*
X-114584580Y2522016D02*
X-114622675Y2522016D01*
X-114622675Y2522016D02*
X-114641723Y2531540D01*
X-114641723Y2531540D02*
X-114651246Y2550588D01*
X-114651246Y2550588D02*
X-114651246Y2626778D01*
X-114651246Y2626778D02*
X-114641723Y2645826D01*
X-114641723Y2645826D02*
X-114622675Y2655350D01*
X-114622675Y2655350D02*
X-114584580Y2655350D01*
X-114584580Y2655350D02*
X-114565532Y2645826D01*
X-114565532Y2645826D02*
X-114556008Y2626778D01*
X-114556008Y2626778D02*
X-114556008Y2607730D01*
X-114556008Y2607730D02*
X-114651246Y2588683D01*
X-114479818Y2531540D02*
X-114460770Y2522016D01*
X-114460770Y2522016D02*
X-114422675Y2522016D01*
X-114422675Y2522016D02*
X-114403627Y2531540D01*
X-114403627Y2531540D02*
X-114394104Y2550588D01*
X-114394104Y2550588D02*
X-114394104Y2560111D01*
X-114394104Y2560111D02*
X-114403627Y2579159D01*
X-114403627Y2579159D02*
X-114422675Y2588683D01*
X-114422675Y2588683D02*
X-114451246Y2588683D01*
X-114451246Y2588683D02*
X-114470294Y2598207D01*
X-114470294Y2598207D02*
X-114479818Y2617254D01*
X-114479818Y2617254D02*
X-114479818Y2626778D01*
X-114479818Y2626778D02*
X-114470294Y2645826D01*
X-114470294Y2645826D02*
X-114451246Y2655350D01*
X-114451246Y2655350D02*
X-114422675Y2655350D01*
X-114422675Y2655350D02*
X-114403627Y2645826D01*
X-114156008Y2598207D02*
X-114003627Y2598207D01*
X-114079818Y2522016D02*
X-114079818Y2674397D01*
X-113670294Y2655350D02*
X-113670294Y2522016D01*
X-113717913Y2731540D02*
X-113765532Y2588683D01*
X-113765532Y2588683D02*
X-113641723Y2588683D01*
X-113422675Y2531540D02*
X-113403627Y2522016D01*
X-113403627Y2522016D02*
X-113365532Y2522016D01*
X-113365532Y2522016D02*
X-113346484Y2531540D01*
X-113346484Y2531540D02*
X-113336961Y2550588D01*
X-113336961Y2550588D02*
X-113336961Y2560111D01*
X-113336961Y2560111D02*
X-113346484Y2579159D01*
X-113346484Y2579159D02*
X-113365532Y2588683D01*
X-113365532Y2588683D02*
X-113394103Y2588683D01*
X-113394103Y2588683D02*
X-113413151Y2598207D01*
X-113413151Y2598207D02*
X-113422675Y2617254D01*
X-113422675Y2617254D02*
X-113422675Y2626778D01*
X-113422675Y2626778D02*
X-113413151Y2645826D01*
X-113413151Y2645826D02*
X-113394103Y2655350D01*
X-113394103Y2655350D02*
X-113365532Y2655350D01*
X-113365532Y2655350D02*
X-113346484Y2645826D01*
X-113222675Y2522016D02*
X-113241722Y2531540D01*
X-113241722Y2531540D02*
X-113251246Y2550588D01*
X-113251246Y2550588D02*
X-113251246Y2722016D01*
X-113117913Y2522016D02*
X-113136961Y2531540D01*
X-113136961Y2531540D02*
X-113146484Y2541064D01*
X-113146484Y2541064D02*
X-113156008Y2560111D01*
X-113156008Y2560111D02*
X-113156008Y2617254D01*
X-113156008Y2617254D02*
X-113146484Y2636302D01*
X-113146484Y2636302D02*
X-113136961Y2645826D01*
X-113136961Y2645826D02*
X-113117913Y2655350D01*
X-113117913Y2655350D02*
X-113089341Y2655350D01*
X-113089341Y2655350D02*
X-113070294Y2645826D01*
X-113070294Y2645826D02*
X-113060770Y2636302D01*
X-113060770Y2636302D02*
X-113051246Y2617254D01*
X-113051246Y2617254D02*
X-113051246Y2560111D01*
X-113051246Y2560111D02*
X-113060770Y2541064D01*
X-113060770Y2541064D02*
X-113070294Y2531540D01*
X-113070294Y2531540D02*
X-113089341Y2522016D01*
X-113089341Y2522016D02*
X-113117913Y2522016D01*
X-112994103Y2655350D02*
X-112917913Y2655350D01*
X-112965532Y2722016D02*
X-112965532Y2550588D01*
X-112965532Y2550588D02*
X-112956008Y2531540D01*
X-112956008Y2531540D02*
X-112936961Y2522016D01*
X-112936961Y2522016D02*
X-112917913Y2522016D01*
X-112860770Y2531540D02*
X-112841722Y2522016D01*
X-112841722Y2522016D02*
X-112803627Y2522016D01*
X-112803627Y2522016D02*
X-112784580Y2531540D01*
X-112784580Y2531540D02*
X-112775056Y2550588D01*
X-112775056Y2550588D02*
X-112775056Y2560111D01*
X-112775056Y2560111D02*
X-112784580Y2579159D01*
X-112784580Y2579159D02*
X-112803627Y2588683D01*
X-112803627Y2588683D02*
X-112832199Y2588683D01*
X-112832199Y2588683D02*
X-112851246Y2598207D01*
X-112851246Y2598207D02*
X-112860770Y2617254D01*
X-112860770Y2617254D02*
X-112860770Y2626778D01*
X-112860770Y2626778D02*
X-112851246Y2645826D01*
X-112851246Y2645826D02*
X-112832199Y2655350D01*
X-112832199Y2655350D02*
X-112803627Y2655350D01*
X-112803627Y2655350D02*
X-112784580Y2645826D01*
X-112708389Y2445826D02*
X-112698865Y2455350D01*
X-112698865Y2455350D02*
X-112679818Y2483921D01*
X-112679818Y2483921D02*
X-112670294Y2502969D01*
X-112670294Y2502969D02*
X-112660770Y2531540D01*
X-112660770Y2531540D02*
X-112651246Y2579159D01*
X-112651246Y2579159D02*
X-112651246Y2617254D01*
X-112651246Y2617254D02*
X-112660770Y2664873D01*
X-112660770Y2664873D02*
X-112670294Y2693445D01*
X-112670294Y2693445D02*
X-112679818Y2712492D01*
X-112679818Y2712492D02*
X-112698865Y2741064D01*
X-112698865Y2741064D02*
X-112708389Y2750588D01*
D13*
X-119152500Y2399500D02*
X-119152500Y2299500D01*
X-119202500Y2349500D02*
X-119102500Y2349500D01*
D12*
X-118736961Y2258016D02*
X-118851247Y2258016D01*
X-118794104Y2258016D02*
X-118794104Y2458016D01*
X-118794104Y2458016D02*
X-118813152Y2429445D01*
X-118813152Y2429445D02*
X-118832199Y2410397D01*
X-118832199Y2410397D02*
X-118851247Y2400873D01*
X-118651247Y2277064D02*
X-118641723Y2267540D01*
X-118641723Y2267540D02*
X-118651247Y2258016D01*
X-118651247Y2258016D02*
X-118660771Y2267540D01*
X-118660771Y2267540D02*
X-118651247Y2277064D01*
X-118651247Y2277064D02*
X-118651247Y2258016D01*
X-118517914Y2458016D02*
X-118498866Y2458016D01*
X-118498866Y2458016D02*
X-118479818Y2448492D01*
X-118479818Y2448492D02*
X-118470294Y2438969D01*
X-118470294Y2438969D02*
X-118460771Y2419921D01*
X-118460771Y2419921D02*
X-118451247Y2381826D01*
X-118451247Y2381826D02*
X-118451247Y2334207D01*
X-118451247Y2334207D02*
X-118460771Y2296111D01*
X-118460771Y2296111D02*
X-118470294Y2277064D01*
X-118470294Y2277064D02*
X-118479818Y2267540D01*
X-118479818Y2267540D02*
X-118498866Y2258016D01*
X-118498866Y2258016D02*
X-118517914Y2258016D01*
X-118517914Y2258016D02*
X-118536961Y2267540D01*
X-118536961Y2267540D02*
X-118546485Y2277064D01*
X-118546485Y2277064D02*
X-118556009Y2296111D01*
X-118556009Y2296111D02*
X-118565533Y2334207D01*
X-118565533Y2334207D02*
X-118565533Y2381826D01*
X-118565533Y2381826D02*
X-118556009Y2419921D01*
X-118556009Y2419921D02*
X-118546485Y2438969D01*
X-118546485Y2438969D02*
X-118536961Y2448492D01*
X-118536961Y2448492D02*
X-118517914Y2458016D01*
X-118327437Y2458016D02*
X-118308390Y2458016D01*
X-118308390Y2458016D02*
X-118289342Y2448492D01*
X-118289342Y2448492D02*
X-118279818Y2438969D01*
X-118279818Y2438969D02*
X-118270294Y2419921D01*
X-118270294Y2419921D02*
X-118260771Y2381826D01*
X-118260771Y2381826D02*
X-118260771Y2334207D01*
X-118260771Y2334207D02*
X-118270294Y2296111D01*
X-118270294Y2296111D02*
X-118279818Y2277064D01*
X-118279818Y2277064D02*
X-118289342Y2267540D01*
X-118289342Y2267540D02*
X-118308390Y2258016D01*
X-118308390Y2258016D02*
X-118327437Y2258016D01*
X-118327437Y2258016D02*
X-118346485Y2267540D01*
X-118346485Y2267540D02*
X-118356009Y2277064D01*
X-118356009Y2277064D02*
X-118365533Y2296111D01*
X-118365533Y2296111D02*
X-118375056Y2334207D01*
X-118375056Y2334207D02*
X-118375056Y2381826D01*
X-118375056Y2381826D02*
X-118365533Y2419921D01*
X-118365533Y2419921D02*
X-118356009Y2438969D01*
X-118356009Y2438969D02*
X-118346485Y2448492D01*
X-118346485Y2448492D02*
X-118327437Y2458016D01*
X-118136961Y2458016D02*
X-118117913Y2458016D01*
X-118117913Y2458016D02*
X-118098866Y2448492D01*
X-118098866Y2448492D02*
X-118089342Y2438969D01*
X-118089342Y2438969D02*
X-118079818Y2419921D01*
X-118079818Y2419921D02*
X-118070294Y2381826D01*
X-118070294Y2381826D02*
X-118070294Y2334207D01*
X-118070294Y2334207D02*
X-118079818Y2296111D01*
X-118079818Y2296111D02*
X-118089342Y2277064D01*
X-118089342Y2277064D02*
X-118098866Y2267540D01*
X-118098866Y2267540D02*
X-118117913Y2258016D01*
X-118117913Y2258016D02*
X-118136961Y2258016D01*
X-118136961Y2258016D02*
X-118156009Y2267540D01*
X-118156009Y2267540D02*
X-118165533Y2277064D01*
X-118165533Y2277064D02*
X-118175056Y2296111D01*
X-118175056Y2296111D02*
X-118184580Y2334207D01*
X-118184580Y2334207D02*
X-118184580Y2381826D01*
X-118184580Y2381826D02*
X-118175056Y2419921D01*
X-118175056Y2419921D02*
X-118165533Y2438969D01*
X-118165533Y2438969D02*
X-118156009Y2448492D01*
X-118156009Y2448492D02*
X-118136961Y2458016D01*
X-117984580Y2258016D02*
X-117984580Y2391350D01*
X-117984580Y2372302D02*
X-117975056Y2381826D01*
X-117975056Y2381826D02*
X-117956009Y2391350D01*
X-117956009Y2391350D02*
X-117927437Y2391350D01*
X-117927437Y2391350D02*
X-117908390Y2381826D01*
X-117908390Y2381826D02*
X-117898866Y2362778D01*
X-117898866Y2362778D02*
X-117898866Y2258016D01*
X-117898866Y2362778D02*
X-117889342Y2381826D01*
X-117889342Y2381826D02*
X-117870294Y2391350D01*
X-117870294Y2391350D02*
X-117841723Y2391350D01*
X-117841723Y2391350D02*
X-117822675Y2381826D01*
X-117822675Y2381826D02*
X-117813152Y2362778D01*
X-117813152Y2362778D02*
X-117813152Y2258016D01*
X-117717913Y2258016D02*
X-117717913Y2391350D01*
X-117717913Y2372302D02*
X-117708390Y2381826D01*
X-117708390Y2381826D02*
X-117689342Y2391350D01*
X-117689342Y2391350D02*
X-117660771Y2391350D01*
X-117660771Y2391350D02*
X-117641723Y2381826D01*
X-117641723Y2381826D02*
X-117632199Y2362778D01*
X-117632199Y2362778D02*
X-117632199Y2258016D01*
X-117632199Y2362778D02*
X-117622675Y2381826D01*
X-117622675Y2381826D02*
X-117603628Y2391350D01*
X-117603628Y2391350D02*
X-117575056Y2391350D01*
X-117575056Y2391350D02*
X-117556009Y2381826D01*
X-117556009Y2381826D02*
X-117546485Y2362778D01*
X-117546485Y2362778D02*
X-117546485Y2258016D01*
X-117156009Y2467540D02*
X-117327437Y2210397D01*
X-116898866Y2458016D02*
X-116879818Y2458016D01*
X-116879818Y2458016D02*
X-116860770Y2448492D01*
X-116860770Y2448492D02*
X-116851247Y2438969D01*
X-116851247Y2438969D02*
X-116841723Y2419921D01*
X-116841723Y2419921D02*
X-116832199Y2381826D01*
X-116832199Y2381826D02*
X-116832199Y2334207D01*
X-116832199Y2334207D02*
X-116841723Y2296111D01*
X-116841723Y2296111D02*
X-116851247Y2277064D01*
X-116851247Y2277064D02*
X-116860770Y2267540D01*
X-116860770Y2267540D02*
X-116879818Y2258016D01*
X-116879818Y2258016D02*
X-116898866Y2258016D01*
X-116898866Y2258016D02*
X-116917913Y2267540D01*
X-116917913Y2267540D02*
X-116927437Y2277064D01*
X-116927437Y2277064D02*
X-116936961Y2296111D01*
X-116936961Y2296111D02*
X-116946485Y2334207D01*
X-116946485Y2334207D02*
X-116946485Y2381826D01*
X-116946485Y2381826D02*
X-116936961Y2419921D01*
X-116936961Y2419921D02*
X-116927437Y2438969D01*
X-116927437Y2438969D02*
X-116917913Y2448492D01*
X-116917913Y2448492D02*
X-116898866Y2458016D01*
X-116746485Y2277064D02*
X-116736961Y2267540D01*
X-116736961Y2267540D02*
X-116746485Y2258016D01*
X-116746485Y2258016D02*
X-116756009Y2267540D01*
X-116756009Y2267540D02*
X-116746485Y2277064D01*
X-116746485Y2277064D02*
X-116746485Y2258016D01*
X-116613151Y2458016D02*
X-116594104Y2458016D01*
X-116594104Y2458016D02*
X-116575056Y2448492D01*
X-116575056Y2448492D02*
X-116565532Y2438969D01*
X-116565532Y2438969D02*
X-116556009Y2419921D01*
X-116556009Y2419921D02*
X-116546485Y2381826D01*
X-116546485Y2381826D02*
X-116546485Y2334207D01*
X-116546485Y2334207D02*
X-116556009Y2296111D01*
X-116556009Y2296111D02*
X-116565532Y2277064D01*
X-116565532Y2277064D02*
X-116575056Y2267540D01*
X-116575056Y2267540D02*
X-116594104Y2258016D01*
X-116594104Y2258016D02*
X-116613151Y2258016D01*
X-116613151Y2258016D02*
X-116632199Y2267540D01*
X-116632199Y2267540D02*
X-116641723Y2277064D01*
X-116641723Y2277064D02*
X-116651247Y2296111D01*
X-116651247Y2296111D02*
X-116660770Y2334207D01*
X-116660770Y2334207D02*
X-116660770Y2381826D01*
X-116660770Y2381826D02*
X-116651247Y2419921D01*
X-116651247Y2419921D02*
X-116641723Y2438969D01*
X-116641723Y2438969D02*
X-116632199Y2448492D01*
X-116632199Y2448492D02*
X-116613151Y2458016D01*
X-116479818Y2458016D02*
X-116356009Y2458016D01*
X-116356009Y2458016D02*
X-116422675Y2381826D01*
X-116422675Y2381826D02*
X-116394104Y2381826D01*
X-116394104Y2381826D02*
X-116375056Y2372302D01*
X-116375056Y2372302D02*
X-116365532Y2362778D01*
X-116365532Y2362778D02*
X-116356009Y2343730D01*
X-116356009Y2343730D02*
X-116356009Y2296111D01*
X-116356009Y2296111D02*
X-116365532Y2277064D01*
X-116365532Y2277064D02*
X-116375056Y2267540D01*
X-116375056Y2267540D02*
X-116394104Y2258016D01*
X-116394104Y2258016D02*
X-116451247Y2258016D01*
X-116451247Y2258016D02*
X-116470294Y2267540D01*
X-116470294Y2267540D02*
X-116479818Y2277064D01*
X-116260770Y2258016D02*
X-116222675Y2258016D01*
X-116222675Y2258016D02*
X-116203628Y2267540D01*
X-116203628Y2267540D02*
X-116194104Y2277064D01*
X-116194104Y2277064D02*
X-116175056Y2305635D01*
X-116175056Y2305635D02*
X-116165532Y2343730D01*
X-116165532Y2343730D02*
X-116165532Y2419921D01*
X-116165532Y2419921D02*
X-116175056Y2438969D01*
X-116175056Y2438969D02*
X-116184580Y2448492D01*
X-116184580Y2448492D02*
X-116203628Y2458016D01*
X-116203628Y2458016D02*
X-116241723Y2458016D01*
X-116241723Y2458016D02*
X-116260770Y2448492D01*
X-116260770Y2448492D02*
X-116270294Y2438969D01*
X-116270294Y2438969D02*
X-116279818Y2419921D01*
X-116279818Y2419921D02*
X-116279818Y2372302D01*
X-116279818Y2372302D02*
X-116270294Y2353254D01*
X-116270294Y2353254D02*
X-116260770Y2343730D01*
X-116260770Y2343730D02*
X-116241723Y2334207D01*
X-116241723Y2334207D02*
X-116203628Y2334207D01*
X-116203628Y2334207D02*
X-116184580Y2343730D01*
X-116184580Y2343730D02*
X-116175056Y2353254D01*
X-116175056Y2353254D02*
X-116165532Y2372302D01*
X-115994104Y2391350D02*
X-115994104Y2258016D01*
X-116041723Y2467540D02*
X-116089342Y2324683D01*
X-116089342Y2324683D02*
X-115965532Y2324683D01*
X-115898866Y2458016D02*
X-115898866Y2419921D01*
X-115822675Y2458016D02*
X-115822675Y2419921D01*
X-115527437Y2181826D02*
X-115536961Y2191350D01*
X-115536961Y2191350D02*
X-115556008Y2219921D01*
X-115556008Y2219921D02*
X-115565532Y2238969D01*
X-115565532Y2238969D02*
X-115575056Y2267540D01*
X-115575056Y2267540D02*
X-115584580Y2315159D01*
X-115584580Y2315159D02*
X-115584580Y2353254D01*
X-115584580Y2353254D02*
X-115575056Y2400873D01*
X-115575056Y2400873D02*
X-115565532Y2429445D01*
X-115565532Y2429445D02*
X-115556008Y2448492D01*
X-115556008Y2448492D02*
X-115536961Y2477064D01*
X-115536961Y2477064D02*
X-115527437Y2486588D01*
X-115460770Y2438969D02*
X-115451247Y2448492D01*
X-115451247Y2448492D02*
X-115432199Y2458016D01*
X-115432199Y2458016D02*
X-115384580Y2458016D01*
X-115384580Y2458016D02*
X-115365532Y2448492D01*
X-115365532Y2448492D02*
X-115356008Y2438969D01*
X-115356008Y2438969D02*
X-115346485Y2419921D01*
X-115346485Y2419921D02*
X-115346485Y2400873D01*
X-115346485Y2400873D02*
X-115356008Y2372302D01*
X-115356008Y2372302D02*
X-115470294Y2258016D01*
X-115470294Y2258016D02*
X-115346485Y2258016D01*
X-115175056Y2458016D02*
X-115213151Y2458016D01*
X-115213151Y2458016D02*
X-115232199Y2448492D01*
X-115232199Y2448492D02*
X-115241723Y2438969D01*
X-115241723Y2438969D02*
X-115260770Y2410397D01*
X-115260770Y2410397D02*
X-115270294Y2372302D01*
X-115270294Y2372302D02*
X-115270294Y2296111D01*
X-115270294Y2296111D02*
X-115260770Y2277064D01*
X-115260770Y2277064D02*
X-115251247Y2267540D01*
X-115251247Y2267540D02*
X-115232199Y2258016D01*
X-115232199Y2258016D02*
X-115194104Y2258016D01*
X-115194104Y2258016D02*
X-115175056Y2267540D01*
X-115175056Y2267540D02*
X-115165532Y2277064D01*
X-115165532Y2277064D02*
X-115156008Y2296111D01*
X-115156008Y2296111D02*
X-115156008Y2343730D01*
X-115156008Y2343730D02*
X-115165532Y2362778D01*
X-115165532Y2362778D02*
X-115175056Y2372302D01*
X-115175056Y2372302D02*
X-115194104Y2381826D01*
X-115194104Y2381826D02*
X-115232199Y2381826D01*
X-115232199Y2381826D02*
X-115251247Y2372302D01*
X-115251247Y2372302D02*
X-115260770Y2362778D01*
X-115260770Y2362778D02*
X-115270294Y2343730D01*
X-114917913Y2258016D02*
X-114917913Y2458016D01*
X-114832199Y2258016D02*
X-114832199Y2362778D01*
X-114832199Y2362778D02*
X-114841723Y2381826D01*
X-114841723Y2381826D02*
X-114860770Y2391350D01*
X-114860770Y2391350D02*
X-114889342Y2391350D01*
X-114889342Y2391350D02*
X-114908389Y2381826D01*
X-114908389Y2381826D02*
X-114917913Y2372302D01*
X-114708389Y2258016D02*
X-114727437Y2267540D01*
X-114727437Y2267540D02*
X-114736961Y2277064D01*
X-114736961Y2277064D02*
X-114746485Y2296111D01*
X-114746485Y2296111D02*
X-114746485Y2353254D01*
X-114746485Y2353254D02*
X-114736961Y2372302D01*
X-114736961Y2372302D02*
X-114727437Y2381826D01*
X-114727437Y2381826D02*
X-114708389Y2391350D01*
X-114708389Y2391350D02*
X-114679818Y2391350D01*
X-114679818Y2391350D02*
X-114660770Y2381826D01*
X-114660770Y2381826D02*
X-114651246Y2372302D01*
X-114651246Y2372302D02*
X-114641723Y2353254D01*
X-114641723Y2353254D02*
X-114641723Y2296111D01*
X-114641723Y2296111D02*
X-114651246Y2277064D01*
X-114651246Y2277064D02*
X-114660770Y2267540D01*
X-114660770Y2267540D02*
X-114679818Y2258016D01*
X-114679818Y2258016D02*
X-114708389Y2258016D01*
X-114527437Y2258016D02*
X-114546485Y2267540D01*
X-114546485Y2267540D02*
X-114556008Y2286588D01*
X-114556008Y2286588D02*
X-114556008Y2458016D01*
X-114375056Y2267540D02*
X-114394104Y2258016D01*
X-114394104Y2258016D02*
X-114432199Y2258016D01*
X-114432199Y2258016D02*
X-114451246Y2267540D01*
X-114451246Y2267540D02*
X-114460770Y2286588D01*
X-114460770Y2286588D02*
X-114460770Y2362778D01*
X-114460770Y2362778D02*
X-114451246Y2381826D01*
X-114451246Y2381826D02*
X-114432199Y2391350D01*
X-114432199Y2391350D02*
X-114394104Y2391350D01*
X-114394104Y2391350D02*
X-114375056Y2381826D01*
X-114375056Y2381826D02*
X-114365532Y2362778D01*
X-114365532Y2362778D02*
X-114365532Y2343730D01*
X-114365532Y2343730D02*
X-114460770Y2324683D01*
X-114289342Y2267540D02*
X-114270294Y2258016D01*
X-114270294Y2258016D02*
X-114232199Y2258016D01*
X-114232199Y2258016D02*
X-114213151Y2267540D01*
X-114213151Y2267540D02*
X-114203627Y2286588D01*
X-114203627Y2286588D02*
X-114203627Y2296111D01*
X-114203627Y2296111D02*
X-114213151Y2315159D01*
X-114213151Y2315159D02*
X-114232199Y2324683D01*
X-114232199Y2324683D02*
X-114260770Y2324683D01*
X-114260770Y2324683D02*
X-114279818Y2334207D01*
X-114279818Y2334207D02*
X-114289342Y2353254D01*
X-114289342Y2353254D02*
X-114289342Y2362778D01*
X-114289342Y2362778D02*
X-114279818Y2381826D01*
X-114279818Y2381826D02*
X-114260770Y2391350D01*
X-114260770Y2391350D02*
X-114232199Y2391350D01*
X-114232199Y2391350D02*
X-114213151Y2381826D01*
X-113965532Y2334207D02*
X-113813151Y2334207D01*
X-113889342Y2258016D02*
X-113889342Y2410397D01*
X-113479818Y2458016D02*
X-113517913Y2458016D01*
X-113517913Y2458016D02*
X-113536961Y2448492D01*
X-113536961Y2448492D02*
X-113546484Y2438969D01*
X-113546484Y2438969D02*
X-113565532Y2410397D01*
X-113565532Y2410397D02*
X-113575056Y2372302D01*
X-113575056Y2372302D02*
X-113575056Y2296111D01*
X-113575056Y2296111D02*
X-113565532Y2277064D01*
X-113565532Y2277064D02*
X-113556008Y2267540D01*
X-113556008Y2267540D02*
X-113536961Y2258016D01*
X-113536961Y2258016D02*
X-113498865Y2258016D01*
X-113498865Y2258016D02*
X-113479818Y2267540D01*
X-113479818Y2267540D02*
X-113470294Y2277064D01*
X-113470294Y2277064D02*
X-113460770Y2296111D01*
X-113460770Y2296111D02*
X-113460770Y2343730D01*
X-113460770Y2343730D02*
X-113470294Y2362778D01*
X-113470294Y2362778D02*
X-113479818Y2372302D01*
X-113479818Y2372302D02*
X-113498865Y2381826D01*
X-113498865Y2381826D02*
X-113536961Y2381826D01*
X-113536961Y2381826D02*
X-113556008Y2372302D01*
X-113556008Y2372302D02*
X-113565532Y2362778D01*
X-113565532Y2362778D02*
X-113575056Y2343730D01*
X-113232199Y2267540D02*
X-113213151Y2258016D01*
X-113213151Y2258016D02*
X-113175056Y2258016D01*
X-113175056Y2258016D02*
X-113156008Y2267540D01*
X-113156008Y2267540D02*
X-113146484Y2286588D01*
X-113146484Y2286588D02*
X-113146484Y2296111D01*
X-113146484Y2296111D02*
X-113156008Y2315159D01*
X-113156008Y2315159D02*
X-113175056Y2324683D01*
X-113175056Y2324683D02*
X-113203627Y2324683D01*
X-113203627Y2324683D02*
X-113222675Y2334207D01*
X-113222675Y2334207D02*
X-113232199Y2353254D01*
X-113232199Y2353254D02*
X-113232199Y2362778D01*
X-113232199Y2362778D02*
X-113222675Y2381826D01*
X-113222675Y2381826D02*
X-113203627Y2391350D01*
X-113203627Y2391350D02*
X-113175056Y2391350D01*
X-113175056Y2391350D02*
X-113156008Y2381826D01*
X-113032199Y2258016D02*
X-113051246Y2267540D01*
X-113051246Y2267540D02*
X-113060770Y2286588D01*
X-113060770Y2286588D02*
X-113060770Y2458016D01*
X-112927437Y2258016D02*
X-112946484Y2267540D01*
X-112946484Y2267540D02*
X-112956008Y2277064D01*
X-112956008Y2277064D02*
X-112965532Y2296111D01*
X-112965532Y2296111D02*
X-112965532Y2353254D01*
X-112965532Y2353254D02*
X-112956008Y2372302D01*
X-112956008Y2372302D02*
X-112946484Y2381826D01*
X-112946484Y2381826D02*
X-112927437Y2391350D01*
X-112927437Y2391350D02*
X-112898865Y2391350D01*
X-112898865Y2391350D02*
X-112879818Y2381826D01*
X-112879818Y2381826D02*
X-112870294Y2372302D01*
X-112870294Y2372302D02*
X-112860770Y2353254D01*
X-112860770Y2353254D02*
X-112860770Y2296111D01*
X-112860770Y2296111D02*
X-112870294Y2277064D01*
X-112870294Y2277064D02*
X-112879818Y2267540D01*
X-112879818Y2267540D02*
X-112898865Y2258016D01*
X-112898865Y2258016D02*
X-112927437Y2258016D01*
X-112803627Y2391350D02*
X-112727437Y2391350D01*
X-112775056Y2458016D02*
X-112775056Y2286588D01*
X-112775056Y2286588D02*
X-112765532Y2267540D01*
X-112765532Y2267540D02*
X-112746484Y2258016D01*
X-112746484Y2258016D02*
X-112727437Y2258016D01*
X-112670294Y2267540D02*
X-112651246Y2258016D01*
X-112651246Y2258016D02*
X-112613151Y2258016D01*
X-112613151Y2258016D02*
X-112594103Y2267540D01*
X-112594103Y2267540D02*
X-112584580Y2286588D01*
X-112584580Y2286588D02*
X-112584580Y2296111D01*
X-112584580Y2296111D02*
X-112594103Y2315159D01*
X-112594103Y2315159D02*
X-112613151Y2324683D01*
X-112613151Y2324683D02*
X-112641722Y2324683D01*
X-112641722Y2324683D02*
X-112660770Y2334207D01*
X-112660770Y2334207D02*
X-112670294Y2353254D01*
X-112670294Y2353254D02*
X-112670294Y2362778D01*
X-112670294Y2362778D02*
X-112660770Y2381826D01*
X-112660770Y2381826D02*
X-112641722Y2391350D01*
X-112641722Y2391350D02*
X-112613151Y2391350D01*
X-112613151Y2391350D02*
X-112594103Y2381826D01*
X-112517913Y2181826D02*
X-112508389Y2191350D01*
X-112508389Y2191350D02*
X-112489341Y2219921D01*
X-112489341Y2219921D02*
X-112479818Y2238969D01*
X-112479818Y2238969D02*
X-112470294Y2267540D01*
X-112470294Y2267540D02*
X-112460770Y2315159D01*
X-112460770Y2315159D02*
X-112460770Y2353254D01*
X-112460770Y2353254D02*
X-112470294Y2400873D01*
X-112470294Y2400873D02*
X-112479818Y2429445D01*
X-112479818Y2429445D02*
X-112489341Y2448492D01*
X-112489341Y2448492D02*
X-112508389Y2477064D01*
X-112508389Y2477064D02*
X-112517913Y2486588D01*
D14*
X-119117876Y2048376D02*
X-119117876Y2122624D01*
X-119192123Y2122624D01*
X-119192123Y2048376D01*
X-119117876Y2048376D01*
D12*
X-118736961Y1994016D02*
X-118851247Y1994016D01*
X-118794104Y1994016D02*
X-118794104Y2194016D01*
X-118794104Y2194016D02*
X-118813152Y2165445D01*
X-118813152Y2165445D02*
X-118832199Y2146397D01*
X-118832199Y2146397D02*
X-118851247Y2136873D01*
X-118651247Y2013064D02*
X-118641723Y2003540D01*
X-118641723Y2003540D02*
X-118651247Y1994016D01*
X-118651247Y1994016D02*
X-118660771Y2003540D01*
X-118660771Y2003540D02*
X-118651247Y2013064D01*
X-118651247Y2013064D02*
X-118651247Y1994016D01*
X-118517914Y2194016D02*
X-118498866Y2194016D01*
X-118498866Y2194016D02*
X-118479818Y2184492D01*
X-118479818Y2184492D02*
X-118470294Y2174969D01*
X-118470294Y2174969D02*
X-118460771Y2155921D01*
X-118460771Y2155921D02*
X-118451247Y2117826D01*
X-118451247Y2117826D02*
X-118451247Y2070207D01*
X-118451247Y2070207D02*
X-118460771Y2032111D01*
X-118460771Y2032111D02*
X-118470294Y2013064D01*
X-118470294Y2013064D02*
X-118479818Y2003540D01*
X-118479818Y2003540D02*
X-118498866Y1994016D01*
X-118498866Y1994016D02*
X-118517914Y1994016D01*
X-118517914Y1994016D02*
X-118536961Y2003540D01*
X-118536961Y2003540D02*
X-118546485Y2013064D01*
X-118546485Y2013064D02*
X-118556009Y2032111D01*
X-118556009Y2032111D02*
X-118565533Y2070207D01*
X-118565533Y2070207D02*
X-118565533Y2117826D01*
X-118565533Y2117826D02*
X-118556009Y2155921D01*
X-118556009Y2155921D02*
X-118546485Y2174969D01*
X-118546485Y2174969D02*
X-118536961Y2184492D01*
X-118536961Y2184492D02*
X-118517914Y2194016D01*
X-118270294Y2194016D02*
X-118365533Y2194016D01*
X-118365533Y2194016D02*
X-118375056Y2098778D01*
X-118375056Y2098778D02*
X-118365533Y2108302D01*
X-118365533Y2108302D02*
X-118346485Y2117826D01*
X-118346485Y2117826D02*
X-118298866Y2117826D01*
X-118298866Y2117826D02*
X-118279818Y2108302D01*
X-118279818Y2108302D02*
X-118270294Y2098778D01*
X-118270294Y2098778D02*
X-118260771Y2079730D01*
X-118260771Y2079730D02*
X-118260771Y2032111D01*
X-118260771Y2032111D02*
X-118270294Y2013064D01*
X-118270294Y2013064D02*
X-118279818Y2003540D01*
X-118279818Y2003540D02*
X-118298866Y1994016D01*
X-118298866Y1994016D02*
X-118346485Y1994016D01*
X-118346485Y1994016D02*
X-118365533Y2003540D01*
X-118365533Y2003540D02*
X-118375056Y2013064D01*
X-118136961Y2194016D02*
X-118117913Y2194016D01*
X-118117913Y2194016D02*
X-118098866Y2184492D01*
X-118098866Y2184492D02*
X-118089342Y2174969D01*
X-118089342Y2174969D02*
X-118079818Y2155921D01*
X-118079818Y2155921D02*
X-118070294Y2117826D01*
X-118070294Y2117826D02*
X-118070294Y2070207D01*
X-118070294Y2070207D02*
X-118079818Y2032111D01*
X-118079818Y2032111D02*
X-118089342Y2013064D01*
X-118089342Y2013064D02*
X-118098866Y2003540D01*
X-118098866Y2003540D02*
X-118117913Y1994016D01*
X-118117913Y1994016D02*
X-118136961Y1994016D01*
X-118136961Y1994016D02*
X-118156009Y2003540D01*
X-118156009Y2003540D02*
X-118165533Y2013064D01*
X-118165533Y2013064D02*
X-118175056Y2032111D01*
X-118175056Y2032111D02*
X-118184580Y2070207D01*
X-118184580Y2070207D02*
X-118184580Y2117826D01*
X-118184580Y2117826D02*
X-118175056Y2155921D01*
X-118175056Y2155921D02*
X-118165533Y2174969D01*
X-118165533Y2174969D02*
X-118156009Y2184492D01*
X-118156009Y2184492D02*
X-118136961Y2194016D01*
X-117984580Y1994016D02*
X-117984580Y2127350D01*
X-117984580Y2108302D02*
X-117975056Y2117826D01*
X-117975056Y2117826D02*
X-117956009Y2127350D01*
X-117956009Y2127350D02*
X-117927437Y2127350D01*
X-117927437Y2127350D02*
X-117908390Y2117826D01*
X-117908390Y2117826D02*
X-117898866Y2098778D01*
X-117898866Y2098778D02*
X-117898866Y1994016D01*
X-117898866Y2098778D02*
X-117889342Y2117826D01*
X-117889342Y2117826D02*
X-117870294Y2127350D01*
X-117870294Y2127350D02*
X-117841723Y2127350D01*
X-117841723Y2127350D02*
X-117822675Y2117826D01*
X-117822675Y2117826D02*
X-117813152Y2098778D01*
X-117813152Y2098778D02*
X-117813152Y1994016D01*
X-117717913Y1994016D02*
X-117717913Y2127350D01*
X-117717913Y2108302D02*
X-117708390Y2117826D01*
X-117708390Y2117826D02*
X-117689342Y2127350D01*
X-117689342Y2127350D02*
X-117660771Y2127350D01*
X-117660771Y2127350D02*
X-117641723Y2117826D01*
X-117641723Y2117826D02*
X-117632199Y2098778D01*
X-117632199Y2098778D02*
X-117632199Y1994016D01*
X-117632199Y2098778D02*
X-117622675Y2117826D01*
X-117622675Y2117826D02*
X-117603628Y2127350D01*
X-117603628Y2127350D02*
X-117575056Y2127350D01*
X-117575056Y2127350D02*
X-117556009Y2117826D01*
X-117556009Y2117826D02*
X-117546485Y2098778D01*
X-117546485Y2098778D02*
X-117546485Y1994016D01*
X-117156009Y2203540D02*
X-117327437Y1946397D01*
X-116898866Y2194016D02*
X-116879818Y2194016D01*
X-116879818Y2194016D02*
X-116860770Y2184492D01*
X-116860770Y2184492D02*
X-116851247Y2174969D01*
X-116851247Y2174969D02*
X-116841723Y2155921D01*
X-116841723Y2155921D02*
X-116832199Y2117826D01*
X-116832199Y2117826D02*
X-116832199Y2070207D01*
X-116832199Y2070207D02*
X-116841723Y2032111D01*
X-116841723Y2032111D02*
X-116851247Y2013064D01*
X-116851247Y2013064D02*
X-116860770Y2003540D01*
X-116860770Y2003540D02*
X-116879818Y1994016D01*
X-116879818Y1994016D02*
X-116898866Y1994016D01*
X-116898866Y1994016D02*
X-116917913Y2003540D01*
X-116917913Y2003540D02*
X-116927437Y2013064D01*
X-116927437Y2013064D02*
X-116936961Y2032111D01*
X-116936961Y2032111D02*
X-116946485Y2070207D01*
X-116946485Y2070207D02*
X-116946485Y2117826D01*
X-116946485Y2117826D02*
X-116936961Y2155921D01*
X-116936961Y2155921D02*
X-116927437Y2174969D01*
X-116927437Y2174969D02*
X-116917913Y2184492D01*
X-116917913Y2184492D02*
X-116898866Y2194016D01*
X-116746485Y2013064D02*
X-116736961Y2003540D01*
X-116736961Y2003540D02*
X-116746485Y1994016D01*
X-116746485Y1994016D02*
X-116756009Y2003540D01*
X-116756009Y2003540D02*
X-116746485Y2013064D01*
X-116746485Y2013064D02*
X-116746485Y1994016D01*
X-116613151Y2194016D02*
X-116594104Y2194016D01*
X-116594104Y2194016D02*
X-116575056Y2184492D01*
X-116575056Y2184492D02*
X-116565532Y2174969D01*
X-116565532Y2174969D02*
X-116556009Y2155921D01*
X-116556009Y2155921D02*
X-116546485Y2117826D01*
X-116546485Y2117826D02*
X-116546485Y2070207D01*
X-116546485Y2070207D02*
X-116556009Y2032111D01*
X-116556009Y2032111D02*
X-116565532Y2013064D01*
X-116565532Y2013064D02*
X-116575056Y2003540D01*
X-116575056Y2003540D02*
X-116594104Y1994016D01*
X-116594104Y1994016D02*
X-116613151Y1994016D01*
X-116613151Y1994016D02*
X-116632199Y2003540D01*
X-116632199Y2003540D02*
X-116641723Y2013064D01*
X-116641723Y2013064D02*
X-116651247Y2032111D01*
X-116651247Y2032111D02*
X-116660770Y2070207D01*
X-116660770Y2070207D02*
X-116660770Y2117826D01*
X-116660770Y2117826D02*
X-116651247Y2155921D01*
X-116651247Y2155921D02*
X-116641723Y2174969D01*
X-116641723Y2174969D02*
X-116632199Y2184492D01*
X-116632199Y2184492D02*
X-116613151Y2194016D01*
X-116375056Y2127350D02*
X-116375056Y1994016D01*
X-116422675Y2203540D02*
X-116470294Y2060683D01*
X-116470294Y2060683D02*
X-116346485Y2060683D01*
X-116165532Y1994016D02*
X-116279818Y1994016D01*
X-116222675Y1994016D02*
X-116222675Y2194016D01*
X-116222675Y2194016D02*
X-116241723Y2165445D01*
X-116241723Y2165445D02*
X-116260770Y2146397D01*
X-116260770Y2146397D02*
X-116279818Y2136873D01*
X-116098866Y2194016D02*
X-115975056Y2194016D01*
X-115975056Y2194016D02*
X-116041723Y2117826D01*
X-116041723Y2117826D02*
X-116013151Y2117826D01*
X-116013151Y2117826D02*
X-115994104Y2108302D01*
X-115994104Y2108302D02*
X-115984580Y2098778D01*
X-115984580Y2098778D02*
X-115975056Y2079730D01*
X-115975056Y2079730D02*
X-115975056Y2032111D01*
X-115975056Y2032111D02*
X-115984580Y2013064D01*
X-115984580Y2013064D02*
X-115994104Y2003540D01*
X-115994104Y2003540D02*
X-116013151Y1994016D01*
X-116013151Y1994016D02*
X-116070294Y1994016D01*
X-116070294Y1994016D02*
X-116089342Y2003540D01*
X-116089342Y2003540D02*
X-116098866Y2013064D01*
X-115898866Y2194016D02*
X-115898866Y2155921D01*
X-115822675Y2194016D02*
X-115822675Y2155921D01*
X-115527437Y1917826D02*
X-115536961Y1927349D01*
X-115536961Y1927349D02*
X-115556008Y1955921D01*
X-115556008Y1955921D02*
X-115565532Y1974968D01*
X-115565532Y1974968D02*
X-115575056Y2003540D01*
X-115575056Y2003540D02*
X-115584580Y2051159D01*
X-115584580Y2051159D02*
X-115584580Y2089254D01*
X-115584580Y2089254D02*
X-115575056Y2136873D01*
X-115575056Y2136873D02*
X-115565532Y2165445D01*
X-115565532Y2165445D02*
X-115556008Y2184492D01*
X-115556008Y2184492D02*
X-115536961Y2213064D01*
X-115536961Y2213064D02*
X-115527437Y2222588D01*
X-115346485Y1994016D02*
X-115460770Y1994016D01*
X-115403628Y1994016D02*
X-115403628Y2194016D01*
X-115403628Y2194016D02*
X-115422675Y2165445D01*
X-115422675Y2165445D02*
X-115441723Y2146397D01*
X-115441723Y2146397D02*
X-115460770Y2136873D01*
X-115270294Y2174969D02*
X-115260770Y2184492D01*
X-115260770Y2184492D02*
X-115241723Y2194016D01*
X-115241723Y2194016D02*
X-115194104Y2194016D01*
X-115194104Y2194016D02*
X-115175056Y2184492D01*
X-115175056Y2184492D02*
X-115165532Y2174969D01*
X-115165532Y2174969D02*
X-115156008Y2155921D01*
X-115156008Y2155921D02*
X-115156008Y2136873D01*
X-115156008Y2136873D02*
X-115165532Y2108302D01*
X-115165532Y2108302D02*
X-115279818Y1994016D01*
X-115279818Y1994016D02*
X-115156008Y1994016D01*
X-114917913Y1994016D02*
X-114917913Y2194016D01*
X-114832199Y1994016D02*
X-114832199Y2098778D01*
X-114832199Y2098778D02*
X-114841723Y2117826D01*
X-114841723Y2117826D02*
X-114860770Y2127350D01*
X-114860770Y2127350D02*
X-114889342Y2127350D01*
X-114889342Y2127350D02*
X-114908389Y2117826D01*
X-114908389Y2117826D02*
X-114917913Y2108302D01*
X-114708389Y1994016D02*
X-114727437Y2003540D01*
X-114727437Y2003540D02*
X-114736961Y2013064D01*
X-114736961Y2013064D02*
X-114746485Y2032111D01*
X-114746485Y2032111D02*
X-114746485Y2089254D01*
X-114746485Y2089254D02*
X-114736961Y2108302D01*
X-114736961Y2108302D02*
X-114727437Y2117826D01*
X-114727437Y2117826D02*
X-114708389Y2127350D01*
X-114708389Y2127350D02*
X-114679818Y2127350D01*
X-114679818Y2127350D02*
X-114660770Y2117826D01*
X-114660770Y2117826D02*
X-114651246Y2108302D01*
X-114651246Y2108302D02*
X-114641723Y2089254D01*
X-114641723Y2089254D02*
X-114641723Y2032111D01*
X-114641723Y2032111D02*
X-114651246Y2013064D01*
X-114651246Y2013064D02*
X-114660770Y2003540D01*
X-114660770Y2003540D02*
X-114679818Y1994016D01*
X-114679818Y1994016D02*
X-114708389Y1994016D01*
X-114527437Y1994016D02*
X-114546485Y2003540D01*
X-114546485Y2003540D02*
X-114556008Y2022588D01*
X-114556008Y2022588D02*
X-114556008Y2194016D01*
X-114375056Y2003540D02*
X-114394104Y1994016D01*
X-114394104Y1994016D02*
X-114432199Y1994016D01*
X-114432199Y1994016D02*
X-114451246Y2003540D01*
X-114451246Y2003540D02*
X-114460770Y2022588D01*
X-114460770Y2022588D02*
X-114460770Y2098778D01*
X-114460770Y2098778D02*
X-114451246Y2117826D01*
X-114451246Y2117826D02*
X-114432199Y2127350D01*
X-114432199Y2127350D02*
X-114394104Y2127350D01*
X-114394104Y2127350D02*
X-114375056Y2117826D01*
X-114375056Y2117826D02*
X-114365532Y2098778D01*
X-114365532Y2098778D02*
X-114365532Y2079730D01*
X-114365532Y2079730D02*
X-114460770Y2060683D01*
X-114289342Y2003540D02*
X-114270294Y1994016D01*
X-114270294Y1994016D02*
X-114232199Y1994016D01*
X-114232199Y1994016D02*
X-114213151Y2003540D01*
X-114213151Y2003540D02*
X-114203627Y2022588D01*
X-114203627Y2022588D02*
X-114203627Y2032111D01*
X-114203627Y2032111D02*
X-114213151Y2051159D01*
X-114213151Y2051159D02*
X-114232199Y2060683D01*
X-114232199Y2060683D02*
X-114260770Y2060683D01*
X-114260770Y2060683D02*
X-114279818Y2070207D01*
X-114279818Y2070207D02*
X-114289342Y2089254D01*
X-114289342Y2089254D02*
X-114289342Y2098778D01*
X-114289342Y2098778D02*
X-114279818Y2117826D01*
X-114279818Y2117826D02*
X-114260770Y2127350D01*
X-114260770Y2127350D02*
X-114232199Y2127350D01*
X-114232199Y2127350D02*
X-114213151Y2117826D01*
X-114136961Y1917826D02*
X-114127437Y1927349D01*
X-114127437Y1927349D02*
X-114108389Y1955921D01*
X-114108389Y1955921D02*
X-114098865Y1974968D01*
X-114098865Y1974968D02*
X-114089342Y2003540D01*
X-114089342Y2003540D02*
X-114079818Y2051159D01*
X-114079818Y2051159D02*
X-114079818Y2089254D01*
X-114079818Y2089254D02*
X-114089342Y2136873D01*
X-114089342Y2136873D02*
X-114098865Y2165445D01*
X-114098865Y2165445D02*
X-114108389Y2184492D01*
X-114108389Y2184492D02*
X-114127437Y2213064D01*
X-114127437Y2213064D02*
X-114136961Y2222588D01*
D15*
X-119157500Y1766500D02*
X-119102500Y1821500D01*
X-119157500Y1876500D01*
X-119212500Y1821500D01*
X-119157500Y1766500D01*
D12*
X-118736961Y1730016D02*
X-118851247Y1730016D01*
X-118794104Y1730016D02*
X-118794104Y1930016D01*
X-118794104Y1930016D02*
X-118813152Y1901445D01*
X-118813152Y1901445D02*
X-118832199Y1882397D01*
X-118832199Y1882397D02*
X-118851247Y1872873D01*
X-118651247Y1749064D02*
X-118641723Y1739540D01*
X-118641723Y1739540D02*
X-118651247Y1730016D01*
X-118651247Y1730016D02*
X-118660771Y1739540D01*
X-118660771Y1739540D02*
X-118651247Y1749064D01*
X-118651247Y1749064D02*
X-118651247Y1730016D01*
X-118451247Y1730016D02*
X-118565533Y1730016D01*
X-118508390Y1730016D02*
X-118508390Y1930016D01*
X-118508390Y1930016D02*
X-118527437Y1901445D01*
X-118527437Y1901445D02*
X-118546485Y1882397D01*
X-118546485Y1882397D02*
X-118565533Y1872873D01*
X-118327437Y1930016D02*
X-118308390Y1930016D01*
X-118308390Y1930016D02*
X-118289342Y1920492D01*
X-118289342Y1920492D02*
X-118279818Y1910968D01*
X-118279818Y1910968D02*
X-118270294Y1891921D01*
X-118270294Y1891921D02*
X-118260771Y1853826D01*
X-118260771Y1853826D02*
X-118260771Y1806207D01*
X-118260771Y1806207D02*
X-118270294Y1768111D01*
X-118270294Y1768111D02*
X-118279818Y1749064D01*
X-118279818Y1749064D02*
X-118289342Y1739540D01*
X-118289342Y1739540D02*
X-118308390Y1730016D01*
X-118308390Y1730016D02*
X-118327437Y1730016D01*
X-118327437Y1730016D02*
X-118346485Y1739540D01*
X-118346485Y1739540D02*
X-118356009Y1749064D01*
X-118356009Y1749064D02*
X-118365533Y1768111D01*
X-118365533Y1768111D02*
X-118375056Y1806207D01*
X-118375056Y1806207D02*
X-118375056Y1853826D01*
X-118375056Y1853826D02*
X-118365533Y1891921D01*
X-118365533Y1891921D02*
X-118356009Y1910968D01*
X-118356009Y1910968D02*
X-118346485Y1920492D01*
X-118346485Y1920492D02*
X-118327437Y1930016D01*
X-118136961Y1930016D02*
X-118117913Y1930016D01*
X-118117913Y1930016D02*
X-118098866Y1920492D01*
X-118098866Y1920492D02*
X-118089342Y1910968D01*
X-118089342Y1910968D02*
X-118079818Y1891921D01*
X-118079818Y1891921D02*
X-118070294Y1853826D01*
X-118070294Y1853826D02*
X-118070294Y1806207D01*
X-118070294Y1806207D02*
X-118079818Y1768111D01*
X-118079818Y1768111D02*
X-118089342Y1749064D01*
X-118089342Y1749064D02*
X-118098866Y1739540D01*
X-118098866Y1739540D02*
X-118117913Y1730016D01*
X-118117913Y1730016D02*
X-118136961Y1730016D01*
X-118136961Y1730016D02*
X-118156009Y1739540D01*
X-118156009Y1739540D02*
X-118165533Y1749064D01*
X-118165533Y1749064D02*
X-118175056Y1768111D01*
X-118175056Y1768111D02*
X-118184580Y1806207D01*
X-118184580Y1806207D02*
X-118184580Y1853826D01*
X-118184580Y1853826D02*
X-118175056Y1891921D01*
X-118175056Y1891921D02*
X-118165533Y1910968D01*
X-118165533Y1910968D02*
X-118156009Y1920492D01*
X-118156009Y1920492D02*
X-118136961Y1930016D01*
X-117984580Y1730016D02*
X-117984580Y1863349D01*
X-117984580Y1844302D02*
X-117975056Y1853826D01*
X-117975056Y1853826D02*
X-117956009Y1863349D01*
X-117956009Y1863349D02*
X-117927437Y1863349D01*
X-117927437Y1863349D02*
X-117908390Y1853826D01*
X-117908390Y1853826D02*
X-117898866Y1834778D01*
X-117898866Y1834778D02*
X-117898866Y1730016D01*
X-117898866Y1834778D02*
X-117889342Y1853826D01*
X-117889342Y1853826D02*
X-117870294Y1863349D01*
X-117870294Y1863349D02*
X-117841723Y1863349D01*
X-117841723Y1863349D02*
X-117822675Y1853826D01*
X-117822675Y1853826D02*
X-117813152Y1834778D01*
X-117813152Y1834778D02*
X-117813152Y1730016D01*
X-117717913Y1730016D02*
X-117717913Y1863349D01*
X-117717913Y1844302D02*
X-117708390Y1853826D01*
X-117708390Y1853826D02*
X-117689342Y1863349D01*
X-117689342Y1863349D02*
X-117660771Y1863349D01*
X-117660771Y1863349D02*
X-117641723Y1853826D01*
X-117641723Y1853826D02*
X-117632199Y1834778D01*
X-117632199Y1834778D02*
X-117632199Y1730016D01*
X-117632199Y1834778D02*
X-117622675Y1853826D01*
X-117622675Y1853826D02*
X-117603628Y1863349D01*
X-117603628Y1863349D02*
X-117575056Y1863349D01*
X-117575056Y1863349D02*
X-117556009Y1853826D01*
X-117556009Y1853826D02*
X-117546485Y1834778D01*
X-117546485Y1834778D02*
X-117546485Y1730016D01*
X-117156009Y1939540D02*
X-117327437Y1682397D01*
X-116898866Y1930016D02*
X-116879818Y1930016D01*
X-116879818Y1930016D02*
X-116860770Y1920492D01*
X-116860770Y1920492D02*
X-116851247Y1910968D01*
X-116851247Y1910968D02*
X-116841723Y1891921D01*
X-116841723Y1891921D02*
X-116832199Y1853826D01*
X-116832199Y1853826D02*
X-116832199Y1806207D01*
X-116832199Y1806207D02*
X-116841723Y1768111D01*
X-116841723Y1768111D02*
X-116851247Y1749064D01*
X-116851247Y1749064D02*
X-116860770Y1739540D01*
X-116860770Y1739540D02*
X-116879818Y1730016D01*
X-116879818Y1730016D02*
X-116898866Y1730016D01*
X-116898866Y1730016D02*
X-116917913Y1739540D01*
X-116917913Y1739540D02*
X-116927437Y1749064D01*
X-116927437Y1749064D02*
X-116936961Y1768111D01*
X-116936961Y1768111D02*
X-116946485Y1806207D01*
X-116946485Y1806207D02*
X-116946485Y1853826D01*
X-116946485Y1853826D02*
X-116936961Y1891921D01*
X-116936961Y1891921D02*
X-116927437Y1910968D01*
X-116927437Y1910968D02*
X-116917913Y1920492D01*
X-116917913Y1920492D02*
X-116898866Y1930016D01*
X-116746485Y1749064D02*
X-116736961Y1739540D01*
X-116736961Y1739540D02*
X-116746485Y1730016D01*
X-116746485Y1730016D02*
X-116756009Y1739540D01*
X-116756009Y1739540D02*
X-116746485Y1749064D01*
X-116746485Y1749064D02*
X-116746485Y1730016D01*
X-116613151Y1930016D02*
X-116594104Y1930016D01*
X-116594104Y1930016D02*
X-116575056Y1920492D01*
X-116575056Y1920492D02*
X-116565532Y1910968D01*
X-116565532Y1910968D02*
X-116556009Y1891921D01*
X-116556009Y1891921D02*
X-116546485Y1853826D01*
X-116546485Y1853826D02*
X-116546485Y1806207D01*
X-116546485Y1806207D02*
X-116556009Y1768111D01*
X-116556009Y1768111D02*
X-116565532Y1749064D01*
X-116565532Y1749064D02*
X-116575056Y1739540D01*
X-116575056Y1739540D02*
X-116594104Y1730016D01*
X-116594104Y1730016D02*
X-116613151Y1730016D01*
X-116613151Y1730016D02*
X-116632199Y1739540D01*
X-116632199Y1739540D02*
X-116641723Y1749064D01*
X-116641723Y1749064D02*
X-116651247Y1768111D01*
X-116651247Y1768111D02*
X-116660770Y1806207D01*
X-116660770Y1806207D02*
X-116660770Y1853826D01*
X-116660770Y1853826D02*
X-116651247Y1891921D01*
X-116651247Y1891921D02*
X-116641723Y1910968D01*
X-116641723Y1910968D02*
X-116632199Y1920492D01*
X-116632199Y1920492D02*
X-116613151Y1930016D01*
X-116375056Y1863349D02*
X-116375056Y1730016D01*
X-116422675Y1939540D02*
X-116470294Y1796683D01*
X-116470294Y1796683D02*
X-116346485Y1796683D01*
X-116289342Y1930016D02*
X-116165532Y1930016D01*
X-116165532Y1930016D02*
X-116232199Y1853826D01*
X-116232199Y1853826D02*
X-116203628Y1853826D01*
X-116203628Y1853826D02*
X-116184580Y1844302D01*
X-116184580Y1844302D02*
X-116175056Y1834778D01*
X-116175056Y1834778D02*
X-116165532Y1815730D01*
X-116165532Y1815730D02*
X-116165532Y1768111D01*
X-116165532Y1768111D02*
X-116175056Y1749064D01*
X-116175056Y1749064D02*
X-116184580Y1739540D01*
X-116184580Y1739540D02*
X-116203628Y1730016D01*
X-116203628Y1730016D02*
X-116260770Y1730016D01*
X-116260770Y1730016D02*
X-116279818Y1739540D01*
X-116279818Y1739540D02*
X-116289342Y1749064D01*
X-116098866Y1930016D02*
X-115975056Y1930016D01*
X-115975056Y1930016D02*
X-116041723Y1853826D01*
X-116041723Y1853826D02*
X-116013151Y1853826D01*
X-116013151Y1853826D02*
X-115994104Y1844302D01*
X-115994104Y1844302D02*
X-115984580Y1834778D01*
X-115984580Y1834778D02*
X-115975056Y1815730D01*
X-115975056Y1815730D02*
X-115975056Y1768111D01*
X-115975056Y1768111D02*
X-115984580Y1749064D01*
X-115984580Y1749064D02*
X-115994104Y1739540D01*
X-115994104Y1739540D02*
X-116013151Y1730016D01*
X-116013151Y1730016D02*
X-116070294Y1730016D01*
X-116070294Y1730016D02*
X-116089342Y1739540D01*
X-116089342Y1739540D02*
X-116098866Y1749064D01*
X-115898866Y1930016D02*
X-115898866Y1891921D01*
X-115822675Y1930016D02*
X-115822675Y1891921D01*
X-115527437Y1653826D02*
X-115536961Y1663349D01*
X-115536961Y1663349D02*
X-115556008Y1691921D01*
X-115556008Y1691921D02*
X-115565532Y1710968D01*
X-115565532Y1710968D02*
X-115575056Y1739540D01*
X-115575056Y1739540D02*
X-115584580Y1787159D01*
X-115584580Y1787159D02*
X-115584580Y1825254D01*
X-115584580Y1825254D02*
X-115575056Y1872873D01*
X-115575056Y1872873D02*
X-115565532Y1901445D01*
X-115565532Y1901445D02*
X-115556008Y1920492D01*
X-115556008Y1920492D02*
X-115536961Y1949064D01*
X-115536961Y1949064D02*
X-115527437Y1958588D01*
X-115365532Y1863349D02*
X-115365532Y1730016D01*
X-115413151Y1939540D02*
X-115460770Y1796683D01*
X-115460770Y1796683D02*
X-115336961Y1796683D01*
X-115222675Y1930016D02*
X-115203627Y1930016D01*
X-115203627Y1930016D02*
X-115184580Y1920492D01*
X-115184580Y1920492D02*
X-115175056Y1910968D01*
X-115175056Y1910968D02*
X-115165532Y1891921D01*
X-115165532Y1891921D02*
X-115156008Y1853826D01*
X-115156008Y1853826D02*
X-115156008Y1806207D01*
X-115156008Y1806207D02*
X-115165532Y1768111D01*
X-115165532Y1768111D02*
X-115175056Y1749064D01*
X-115175056Y1749064D02*
X-115184580Y1739540D01*
X-115184580Y1739540D02*
X-115203627Y1730016D01*
X-115203627Y1730016D02*
X-115222675Y1730016D01*
X-115222675Y1730016D02*
X-115241723Y1739540D01*
X-115241723Y1739540D02*
X-115251247Y1749064D01*
X-115251247Y1749064D02*
X-115260770Y1768111D01*
X-115260770Y1768111D02*
X-115270294Y1806207D01*
X-115270294Y1806207D02*
X-115270294Y1853826D01*
X-115270294Y1853826D02*
X-115260770Y1891921D01*
X-115260770Y1891921D02*
X-115251247Y1910968D01*
X-115251247Y1910968D02*
X-115241723Y1920492D01*
X-115241723Y1920492D02*
X-115222675Y1930016D01*
X-114917913Y1730016D02*
X-114917913Y1930016D01*
X-114832199Y1730016D02*
X-114832199Y1834778D01*
X-114832199Y1834778D02*
X-114841723Y1853826D01*
X-114841723Y1853826D02*
X-114860770Y1863349D01*
X-114860770Y1863349D02*
X-114889342Y1863349D01*
X-114889342Y1863349D02*
X-114908389Y1853826D01*
X-114908389Y1853826D02*
X-114917913Y1844302D01*
X-114708389Y1730016D02*
X-114727437Y1739540D01*
X-114727437Y1739540D02*
X-114736961Y1749064D01*
X-114736961Y1749064D02*
X-114746485Y1768111D01*
X-114746485Y1768111D02*
X-114746485Y1825254D01*
X-114746485Y1825254D02*
X-114736961Y1844302D01*
X-114736961Y1844302D02*
X-114727437Y1853826D01*
X-114727437Y1853826D02*
X-114708389Y1863349D01*
X-114708389Y1863349D02*
X-114679818Y1863349D01*
X-114679818Y1863349D02*
X-114660770Y1853826D01*
X-114660770Y1853826D02*
X-114651246Y1844302D01*
X-114651246Y1844302D02*
X-114641723Y1825254D01*
X-114641723Y1825254D02*
X-114641723Y1768111D01*
X-114641723Y1768111D02*
X-114651246Y1749064D01*
X-114651246Y1749064D02*
X-114660770Y1739540D01*
X-114660770Y1739540D02*
X-114679818Y1730016D01*
X-114679818Y1730016D02*
X-114708389Y1730016D01*
X-114527437Y1730016D02*
X-114546485Y1739540D01*
X-114546485Y1739540D02*
X-114556008Y1758588D01*
X-114556008Y1758588D02*
X-114556008Y1930016D01*
X-114375056Y1739540D02*
X-114394104Y1730016D01*
X-114394104Y1730016D02*
X-114432199Y1730016D01*
X-114432199Y1730016D02*
X-114451246Y1739540D01*
X-114451246Y1739540D02*
X-114460770Y1758588D01*
X-114460770Y1758588D02*
X-114460770Y1834778D01*
X-114460770Y1834778D02*
X-114451246Y1853826D01*
X-114451246Y1853826D02*
X-114432199Y1863349D01*
X-114432199Y1863349D02*
X-114394104Y1863349D01*
X-114394104Y1863349D02*
X-114375056Y1853826D01*
X-114375056Y1853826D02*
X-114365532Y1834778D01*
X-114365532Y1834778D02*
X-114365532Y1815730D01*
X-114365532Y1815730D02*
X-114460770Y1796683D01*
X-114289342Y1739540D02*
X-114270294Y1730016D01*
X-114270294Y1730016D02*
X-114232199Y1730016D01*
X-114232199Y1730016D02*
X-114213151Y1739540D01*
X-114213151Y1739540D02*
X-114203627Y1758588D01*
X-114203627Y1758588D02*
X-114203627Y1768111D01*
X-114203627Y1768111D02*
X-114213151Y1787159D01*
X-114213151Y1787159D02*
X-114232199Y1796683D01*
X-114232199Y1796683D02*
X-114260770Y1796683D01*
X-114260770Y1796683D02*
X-114279818Y1806207D01*
X-114279818Y1806207D02*
X-114289342Y1825254D01*
X-114289342Y1825254D02*
X-114289342Y1834778D01*
X-114289342Y1834778D02*
X-114279818Y1853826D01*
X-114279818Y1853826D02*
X-114260770Y1863349D01*
X-114260770Y1863349D02*
X-114232199Y1863349D01*
X-114232199Y1863349D02*
X-114213151Y1853826D01*
X-114136961Y1653826D02*
X-114127437Y1663349D01*
X-114127437Y1663349D02*
X-114108389Y1691921D01*
X-114108389Y1691921D02*
X-114098865Y1710968D01*
X-114098865Y1710968D02*
X-114089342Y1739540D01*
X-114089342Y1739540D02*
X-114079818Y1787159D01*
X-114079818Y1787159D02*
X-114079818Y1825254D01*
X-114079818Y1825254D02*
X-114089342Y1872873D01*
X-114089342Y1872873D02*
X-114098865Y1901445D01*
X-114098865Y1901445D02*
X-114108389Y1920492D01*
X-114108389Y1920492D02*
X-114127437Y1949064D01*
X-114127437Y1949064D02*
X-114136961Y1958588D01*
D16*
X-119222500Y1617500D02*
X-119102500Y1497500D01*
X-119102500Y1617500D02*
X-119222500Y1497500D01*
X-119102500Y1557500D02*
G75*
G02*
X-119222500Y1557500I-60000J0D01*
G01*
X-119222500Y1557500D02*
G75*
G02*
X-119102500Y1557500I60000J0D01*
G01*
D12*
X-118736961Y1466016D02*
X-118851247Y1466016D01*
X-118794104Y1466016D02*
X-118794104Y1666016D01*
X-118794104Y1666016D02*
X-118813152Y1637445D01*
X-118813152Y1637445D02*
X-118832199Y1618397D01*
X-118832199Y1618397D02*
X-118851247Y1608873D01*
X-118651247Y1485064D02*
X-118641723Y1475540D01*
X-118641723Y1475540D02*
X-118651247Y1466016D01*
X-118651247Y1466016D02*
X-118660771Y1475540D01*
X-118660771Y1475540D02*
X-118651247Y1485064D01*
X-118651247Y1485064D02*
X-118651247Y1466016D01*
X-118565533Y1646968D02*
X-118556009Y1656492D01*
X-118556009Y1656492D02*
X-118536961Y1666016D01*
X-118536961Y1666016D02*
X-118489342Y1666016D01*
X-118489342Y1666016D02*
X-118470294Y1656492D01*
X-118470294Y1656492D02*
X-118460771Y1646968D01*
X-118460771Y1646968D02*
X-118451247Y1627921D01*
X-118451247Y1627921D02*
X-118451247Y1608873D01*
X-118451247Y1608873D02*
X-118460771Y1580302D01*
X-118460771Y1580302D02*
X-118575056Y1466016D01*
X-118575056Y1466016D02*
X-118451247Y1466016D01*
X-118327437Y1666016D02*
X-118308390Y1666016D01*
X-118308390Y1666016D02*
X-118289342Y1656492D01*
X-118289342Y1656492D02*
X-118279818Y1646968D01*
X-118279818Y1646968D02*
X-118270294Y1627921D01*
X-118270294Y1627921D02*
X-118260771Y1589826D01*
X-118260771Y1589826D02*
X-118260771Y1542207D01*
X-118260771Y1542207D02*
X-118270294Y1504111D01*
X-118270294Y1504111D02*
X-118279818Y1485064D01*
X-118279818Y1485064D02*
X-118289342Y1475540D01*
X-118289342Y1475540D02*
X-118308390Y1466016D01*
X-118308390Y1466016D02*
X-118327437Y1466016D01*
X-118327437Y1466016D02*
X-118346485Y1475540D01*
X-118346485Y1475540D02*
X-118356009Y1485064D01*
X-118356009Y1485064D02*
X-118365533Y1504111D01*
X-118365533Y1504111D02*
X-118375056Y1542207D01*
X-118375056Y1542207D02*
X-118375056Y1589826D01*
X-118375056Y1589826D02*
X-118365533Y1627921D01*
X-118365533Y1627921D02*
X-118356009Y1646968D01*
X-118356009Y1646968D02*
X-118346485Y1656492D01*
X-118346485Y1656492D02*
X-118327437Y1666016D01*
X-118136961Y1666016D02*
X-118117913Y1666016D01*
X-118117913Y1666016D02*
X-118098866Y1656492D01*
X-118098866Y1656492D02*
X-118089342Y1646968D01*
X-118089342Y1646968D02*
X-118079818Y1627921D01*
X-118079818Y1627921D02*
X-118070294Y1589826D01*
X-118070294Y1589826D02*
X-118070294Y1542207D01*
X-118070294Y1542207D02*
X-118079818Y1504111D01*
X-118079818Y1504111D02*
X-118089342Y1485064D01*
X-118089342Y1485064D02*
X-118098866Y1475540D01*
X-118098866Y1475540D02*
X-118117913Y1466016D01*
X-118117913Y1466016D02*
X-118136961Y1466016D01*
X-118136961Y1466016D02*
X-118156009Y1475540D01*
X-118156009Y1475540D02*
X-118165533Y1485064D01*
X-118165533Y1485064D02*
X-118175056Y1504111D01*
X-118175056Y1504111D02*
X-118184580Y1542207D01*
X-118184580Y1542207D02*
X-118184580Y1589826D01*
X-118184580Y1589826D02*
X-118175056Y1627921D01*
X-118175056Y1627921D02*
X-118165533Y1646968D01*
X-118165533Y1646968D02*
X-118156009Y1656492D01*
X-118156009Y1656492D02*
X-118136961Y1666016D01*
X-117984580Y1466016D02*
X-117984580Y1599349D01*
X-117984580Y1580302D02*
X-117975056Y1589826D01*
X-117975056Y1589826D02*
X-117956009Y1599349D01*
X-117956009Y1599349D02*
X-117927437Y1599349D01*
X-117927437Y1599349D02*
X-117908390Y1589826D01*
X-117908390Y1589826D02*
X-117898866Y1570778D01*
X-117898866Y1570778D02*
X-117898866Y1466016D01*
X-117898866Y1570778D02*
X-117889342Y1589826D01*
X-117889342Y1589826D02*
X-117870294Y1599349D01*
X-117870294Y1599349D02*
X-117841723Y1599349D01*
X-117841723Y1599349D02*
X-117822675Y1589826D01*
X-117822675Y1589826D02*
X-117813152Y1570778D01*
X-117813152Y1570778D02*
X-117813152Y1466016D01*
X-117717913Y1466016D02*
X-117717913Y1599349D01*
X-117717913Y1580302D02*
X-117708390Y1589826D01*
X-117708390Y1589826D02*
X-117689342Y1599349D01*
X-117689342Y1599349D02*
X-117660771Y1599349D01*
X-117660771Y1599349D02*
X-117641723Y1589826D01*
X-117641723Y1589826D02*
X-117632199Y1570778D01*
X-117632199Y1570778D02*
X-117632199Y1466016D01*
X-117632199Y1570778D02*
X-117622675Y1589826D01*
X-117622675Y1589826D02*
X-117603628Y1599349D01*
X-117603628Y1599349D02*
X-117575056Y1599349D01*
X-117575056Y1599349D02*
X-117556009Y1589826D01*
X-117556009Y1589826D02*
X-117546485Y1570778D01*
X-117546485Y1570778D02*
X-117546485Y1466016D01*
X-117156009Y1675540D02*
X-117327437Y1418397D01*
X-116898866Y1666016D02*
X-116879818Y1666016D01*
X-116879818Y1666016D02*
X-116860770Y1656492D01*
X-116860770Y1656492D02*
X-116851247Y1646968D01*
X-116851247Y1646968D02*
X-116841723Y1627921D01*
X-116841723Y1627921D02*
X-116832199Y1589826D01*
X-116832199Y1589826D02*
X-116832199Y1542207D01*
X-116832199Y1542207D02*
X-116841723Y1504111D01*
X-116841723Y1504111D02*
X-116851247Y1485064D01*
X-116851247Y1485064D02*
X-116860770Y1475540D01*
X-116860770Y1475540D02*
X-116879818Y1466016D01*
X-116879818Y1466016D02*
X-116898866Y1466016D01*
X-116898866Y1466016D02*
X-116917913Y1475540D01*
X-116917913Y1475540D02*
X-116927437Y1485064D01*
X-116927437Y1485064D02*
X-116936961Y1504111D01*
X-116936961Y1504111D02*
X-116946485Y1542207D01*
X-116946485Y1542207D02*
X-116946485Y1589826D01*
X-116946485Y1589826D02*
X-116936961Y1627921D01*
X-116936961Y1627921D02*
X-116927437Y1646968D01*
X-116927437Y1646968D02*
X-116917913Y1656492D01*
X-116917913Y1656492D02*
X-116898866Y1666016D01*
X-116746485Y1485064D02*
X-116736961Y1475540D01*
X-116736961Y1475540D02*
X-116746485Y1466016D01*
X-116746485Y1466016D02*
X-116756009Y1475540D01*
X-116756009Y1475540D02*
X-116746485Y1485064D01*
X-116746485Y1485064D02*
X-116746485Y1466016D01*
X-116613151Y1666016D02*
X-116594104Y1666016D01*
X-116594104Y1666016D02*
X-116575056Y1656492D01*
X-116575056Y1656492D02*
X-116565532Y1646968D01*
X-116565532Y1646968D02*
X-116556009Y1627921D01*
X-116556009Y1627921D02*
X-116546485Y1589826D01*
X-116546485Y1589826D02*
X-116546485Y1542207D01*
X-116546485Y1542207D02*
X-116556009Y1504111D01*
X-116556009Y1504111D02*
X-116565532Y1485064D01*
X-116565532Y1485064D02*
X-116575056Y1475540D01*
X-116575056Y1475540D02*
X-116594104Y1466016D01*
X-116594104Y1466016D02*
X-116613151Y1466016D01*
X-116613151Y1466016D02*
X-116632199Y1475540D01*
X-116632199Y1475540D02*
X-116641723Y1485064D01*
X-116641723Y1485064D02*
X-116651247Y1504111D01*
X-116651247Y1504111D02*
X-116660770Y1542207D01*
X-116660770Y1542207D02*
X-116660770Y1589826D01*
X-116660770Y1589826D02*
X-116651247Y1627921D01*
X-116651247Y1627921D02*
X-116641723Y1646968D01*
X-116641723Y1646968D02*
X-116632199Y1656492D01*
X-116632199Y1656492D02*
X-116613151Y1666016D01*
X-116375056Y1599349D02*
X-116375056Y1466016D01*
X-116422675Y1675540D02*
X-116470294Y1532683D01*
X-116470294Y1532683D02*
X-116346485Y1532683D01*
X-116289342Y1666016D02*
X-116156009Y1666016D01*
X-116156009Y1666016D02*
X-116241723Y1466016D01*
X-116089342Y1646968D02*
X-116079818Y1656492D01*
X-116079818Y1656492D02*
X-116060770Y1666016D01*
X-116060770Y1666016D02*
X-116013151Y1666016D01*
X-116013151Y1666016D02*
X-115994104Y1656492D01*
X-115994104Y1656492D02*
X-115984580Y1646968D01*
X-115984580Y1646968D02*
X-115975056Y1627921D01*
X-115975056Y1627921D02*
X-115975056Y1608873D01*
X-115975056Y1608873D02*
X-115984580Y1580302D01*
X-115984580Y1580302D02*
X-116098866Y1466016D01*
X-116098866Y1466016D02*
X-115975056Y1466016D01*
X-115898866Y1666016D02*
X-115898866Y1627921D01*
X-115822675Y1666016D02*
X-115822675Y1627921D01*
X-115527437Y1389826D02*
X-115536961Y1399349D01*
X-115536961Y1399349D02*
X-115556008Y1427921D01*
X-115556008Y1427921D02*
X-115565532Y1446968D01*
X-115565532Y1446968D02*
X-115575056Y1475540D01*
X-115575056Y1475540D02*
X-115584580Y1523159D01*
X-115584580Y1523159D02*
X-115584580Y1561254D01*
X-115584580Y1561254D02*
X-115575056Y1608873D01*
X-115575056Y1608873D02*
X-115565532Y1637445D01*
X-115565532Y1637445D02*
X-115556008Y1656492D01*
X-115556008Y1656492D02*
X-115536961Y1685064D01*
X-115536961Y1685064D02*
X-115527437Y1694588D01*
X-115356008Y1666016D02*
X-115451247Y1666016D01*
X-115451247Y1666016D02*
X-115460770Y1570778D01*
X-115460770Y1570778D02*
X-115451247Y1580302D01*
X-115451247Y1580302D02*
X-115432199Y1589826D01*
X-115432199Y1589826D02*
X-115384580Y1589826D01*
X-115384580Y1589826D02*
X-115365532Y1580302D01*
X-115365532Y1580302D02*
X-115356008Y1570778D01*
X-115356008Y1570778D02*
X-115346485Y1551730D01*
X-115346485Y1551730D02*
X-115346485Y1504111D01*
X-115346485Y1504111D02*
X-115356008Y1485064D01*
X-115356008Y1485064D02*
X-115365532Y1475540D01*
X-115365532Y1475540D02*
X-115384580Y1466016D01*
X-115384580Y1466016D02*
X-115432199Y1466016D01*
X-115432199Y1466016D02*
X-115451247Y1475540D01*
X-115451247Y1475540D02*
X-115460770Y1485064D01*
X-115232199Y1580302D02*
X-115251247Y1589826D01*
X-115251247Y1589826D02*
X-115260770Y1599349D01*
X-115260770Y1599349D02*
X-115270294Y1618397D01*
X-115270294Y1618397D02*
X-115270294Y1627921D01*
X-115270294Y1627921D02*
X-115260770Y1646968D01*
X-115260770Y1646968D02*
X-115251247Y1656492D01*
X-115251247Y1656492D02*
X-115232199Y1666016D01*
X-115232199Y1666016D02*
X-115194104Y1666016D01*
X-115194104Y1666016D02*
X-115175056Y1656492D01*
X-115175056Y1656492D02*
X-115165532Y1646968D01*
X-115165532Y1646968D02*
X-115156008Y1627921D01*
X-115156008Y1627921D02*
X-115156008Y1618397D01*
X-115156008Y1618397D02*
X-115165532Y1599349D01*
X-115165532Y1599349D02*
X-115175056Y1589826D01*
X-115175056Y1589826D02*
X-115194104Y1580302D01*
X-115194104Y1580302D02*
X-115232199Y1580302D01*
X-115232199Y1580302D02*
X-115251247Y1570778D01*
X-115251247Y1570778D02*
X-115260770Y1561254D01*
X-115260770Y1561254D02*
X-115270294Y1542207D01*
X-115270294Y1542207D02*
X-115270294Y1504111D01*
X-115270294Y1504111D02*
X-115260770Y1485064D01*
X-115260770Y1485064D02*
X-115251247Y1475540D01*
X-115251247Y1475540D02*
X-115232199Y1466016D01*
X-115232199Y1466016D02*
X-115194104Y1466016D01*
X-115194104Y1466016D02*
X-115175056Y1475540D01*
X-115175056Y1475540D02*
X-115165532Y1485064D01*
X-115165532Y1485064D02*
X-115156008Y1504111D01*
X-115156008Y1504111D02*
X-115156008Y1542207D01*
X-115156008Y1542207D02*
X-115165532Y1561254D01*
X-115165532Y1561254D02*
X-115175056Y1570778D01*
X-115175056Y1570778D02*
X-115194104Y1580302D01*
X-114917913Y1466016D02*
X-114917913Y1666016D01*
X-114832199Y1466016D02*
X-114832199Y1570778D01*
X-114832199Y1570778D02*
X-114841723Y1589826D01*
X-114841723Y1589826D02*
X-114860770Y1599349D01*
X-114860770Y1599349D02*
X-114889342Y1599349D01*
X-114889342Y1599349D02*
X-114908389Y1589826D01*
X-114908389Y1589826D02*
X-114917913Y1580302D01*
X-114708389Y1466016D02*
X-114727437Y1475540D01*
X-114727437Y1475540D02*
X-114736961Y1485064D01*
X-114736961Y1485064D02*
X-114746485Y1504111D01*
X-114746485Y1504111D02*
X-114746485Y1561254D01*
X-114746485Y1561254D02*
X-114736961Y1580302D01*
X-114736961Y1580302D02*
X-114727437Y1589826D01*
X-114727437Y1589826D02*
X-114708389Y1599349D01*
X-114708389Y1599349D02*
X-114679818Y1599349D01*
X-114679818Y1599349D02*
X-114660770Y1589826D01*
X-114660770Y1589826D02*
X-114651246Y1580302D01*
X-114651246Y1580302D02*
X-114641723Y1561254D01*
X-114641723Y1561254D02*
X-114641723Y1504111D01*
X-114641723Y1504111D02*
X-114651246Y1485064D01*
X-114651246Y1485064D02*
X-114660770Y1475540D01*
X-114660770Y1475540D02*
X-114679818Y1466016D01*
X-114679818Y1466016D02*
X-114708389Y1466016D01*
X-114527437Y1466016D02*
X-114546485Y1475540D01*
X-114546485Y1475540D02*
X-114556008Y1494588D01*
X-114556008Y1494588D02*
X-114556008Y1666016D01*
X-114375056Y1475540D02*
X-114394104Y1466016D01*
X-114394104Y1466016D02*
X-114432199Y1466016D01*
X-114432199Y1466016D02*
X-114451246Y1475540D01*
X-114451246Y1475540D02*
X-114460770Y1494588D01*
X-114460770Y1494588D02*
X-114460770Y1570778D01*
X-114460770Y1570778D02*
X-114451246Y1589826D01*
X-114451246Y1589826D02*
X-114432199Y1599349D01*
X-114432199Y1599349D02*
X-114394104Y1599349D01*
X-114394104Y1599349D02*
X-114375056Y1589826D01*
X-114375056Y1589826D02*
X-114365532Y1570778D01*
X-114365532Y1570778D02*
X-114365532Y1551730D01*
X-114365532Y1551730D02*
X-114460770Y1532683D01*
X-114289342Y1475540D02*
X-114270294Y1466016D01*
X-114270294Y1466016D02*
X-114232199Y1466016D01*
X-114232199Y1466016D02*
X-114213151Y1475540D01*
X-114213151Y1475540D02*
X-114203627Y1494588D01*
X-114203627Y1494588D02*
X-114203627Y1504111D01*
X-114203627Y1504111D02*
X-114213151Y1523159D01*
X-114213151Y1523159D02*
X-114232199Y1532683D01*
X-114232199Y1532683D02*
X-114260770Y1532683D01*
X-114260770Y1532683D02*
X-114279818Y1542207D01*
X-114279818Y1542207D02*
X-114289342Y1561254D01*
X-114289342Y1561254D02*
X-114289342Y1570778D01*
X-114289342Y1570778D02*
X-114279818Y1589826D01*
X-114279818Y1589826D02*
X-114260770Y1599349D01*
X-114260770Y1599349D02*
X-114232199Y1599349D01*
X-114232199Y1599349D02*
X-114213151Y1589826D01*
X-114136961Y1389826D02*
X-114127437Y1399349D01*
X-114127437Y1399349D02*
X-114108389Y1427921D01*
X-114108389Y1427921D02*
X-114098865Y1446968D01*
X-114098865Y1446968D02*
X-114089342Y1475540D01*
X-114089342Y1475540D02*
X-114079818Y1523159D01*
X-114079818Y1523159D02*
X-114079818Y1561254D01*
X-114079818Y1561254D02*
X-114089342Y1608873D01*
X-114089342Y1608873D02*
X-114098865Y1637445D01*
X-114098865Y1637445D02*
X-114108389Y1656492D01*
X-114108389Y1656492D02*
X-114127437Y1685064D01*
X-114127437Y1685064D02*
X-114136961Y1694588D01*
D17*
X-119254900Y1369700D02*
X-119102500Y1217300D01*
X-119102500Y1369700D02*
X-119254900Y1217300D01*
X-119178700Y1369700D02*
X-119178700Y1217300D01*
X-119254900Y1293500D02*
X-119102500Y1293500D01*
D12*
X-118736961Y1202016D02*
X-118851247Y1202016D01*
X-118794104Y1202016D02*
X-118794104Y1402016D01*
X-118794104Y1402016D02*
X-118813152Y1373445D01*
X-118813152Y1373445D02*
X-118832199Y1354397D01*
X-118832199Y1354397D02*
X-118851247Y1344873D01*
X-118651247Y1221064D02*
X-118641723Y1211540D01*
X-118641723Y1211540D02*
X-118651247Y1202016D01*
X-118651247Y1202016D02*
X-118660771Y1211540D01*
X-118660771Y1211540D02*
X-118651247Y1221064D01*
X-118651247Y1221064D02*
X-118651247Y1202016D01*
X-118460771Y1402016D02*
X-118556009Y1402016D01*
X-118556009Y1402016D02*
X-118565533Y1306778D01*
X-118565533Y1306778D02*
X-118556009Y1316302D01*
X-118556009Y1316302D02*
X-118536961Y1325826D01*
X-118536961Y1325826D02*
X-118489342Y1325826D01*
X-118489342Y1325826D02*
X-118470294Y1316302D01*
X-118470294Y1316302D02*
X-118460771Y1306778D01*
X-118460771Y1306778D02*
X-118451247Y1287730D01*
X-118451247Y1287730D02*
X-118451247Y1240111D01*
X-118451247Y1240111D02*
X-118460771Y1221064D01*
X-118460771Y1221064D02*
X-118470294Y1211540D01*
X-118470294Y1211540D02*
X-118489342Y1202016D01*
X-118489342Y1202016D02*
X-118536961Y1202016D01*
X-118536961Y1202016D02*
X-118556009Y1211540D01*
X-118556009Y1211540D02*
X-118565533Y1221064D01*
X-118375056Y1382969D02*
X-118365533Y1392492D01*
X-118365533Y1392492D02*
X-118346485Y1402016D01*
X-118346485Y1402016D02*
X-118298866Y1402016D01*
X-118298866Y1402016D02*
X-118279818Y1392492D01*
X-118279818Y1392492D02*
X-118270294Y1382969D01*
X-118270294Y1382969D02*
X-118260771Y1363921D01*
X-118260771Y1363921D02*
X-118260771Y1344873D01*
X-118260771Y1344873D02*
X-118270294Y1316302D01*
X-118270294Y1316302D02*
X-118384580Y1202016D01*
X-118384580Y1202016D02*
X-118260771Y1202016D01*
X-118089342Y1335350D02*
X-118089342Y1202016D01*
X-118136961Y1411540D02*
X-118184580Y1268683D01*
X-118184580Y1268683D02*
X-118060771Y1268683D01*
X-117984580Y1202016D02*
X-117984580Y1335350D01*
X-117984580Y1316302D02*
X-117975056Y1325826D01*
X-117975056Y1325826D02*
X-117956009Y1335350D01*
X-117956009Y1335350D02*
X-117927437Y1335350D01*
X-117927437Y1335350D02*
X-117908390Y1325826D01*
X-117908390Y1325826D02*
X-117898866Y1306778D01*
X-117898866Y1306778D02*
X-117898866Y1202016D01*
X-117898866Y1306778D02*
X-117889342Y1325826D01*
X-117889342Y1325826D02*
X-117870294Y1335350D01*
X-117870294Y1335350D02*
X-117841723Y1335350D01*
X-117841723Y1335350D02*
X-117822675Y1325826D01*
X-117822675Y1325826D02*
X-117813152Y1306778D01*
X-117813152Y1306778D02*
X-117813152Y1202016D01*
X-117717913Y1202016D02*
X-117717913Y1335350D01*
X-117717913Y1316302D02*
X-117708390Y1325826D01*
X-117708390Y1325826D02*
X-117689342Y1335350D01*
X-117689342Y1335350D02*
X-117660771Y1335350D01*
X-117660771Y1335350D02*
X-117641723Y1325826D01*
X-117641723Y1325826D02*
X-117632199Y1306778D01*
X-117632199Y1306778D02*
X-117632199Y1202016D01*
X-117632199Y1306778D02*
X-117622675Y1325826D01*
X-117622675Y1325826D02*
X-117603628Y1335350D01*
X-117603628Y1335350D02*
X-117575056Y1335350D01*
X-117575056Y1335350D02*
X-117556009Y1325826D01*
X-117556009Y1325826D02*
X-117546485Y1306778D01*
X-117546485Y1306778D02*
X-117546485Y1202016D01*
X-117156009Y1411540D02*
X-117327437Y1154397D01*
X-116898866Y1402016D02*
X-116879818Y1402016D01*
X-116879818Y1402016D02*
X-116860770Y1392492D01*
X-116860770Y1392492D02*
X-116851247Y1382969D01*
X-116851247Y1382969D02*
X-116841723Y1363921D01*
X-116841723Y1363921D02*
X-116832199Y1325826D01*
X-116832199Y1325826D02*
X-116832199Y1278207D01*
X-116832199Y1278207D02*
X-116841723Y1240111D01*
X-116841723Y1240111D02*
X-116851247Y1221064D01*
X-116851247Y1221064D02*
X-116860770Y1211540D01*
X-116860770Y1211540D02*
X-116879818Y1202016D01*
X-116879818Y1202016D02*
X-116898866Y1202016D01*
X-116898866Y1202016D02*
X-116917913Y1211540D01*
X-116917913Y1211540D02*
X-116927437Y1221064D01*
X-116927437Y1221064D02*
X-116936961Y1240111D01*
X-116936961Y1240111D02*
X-116946485Y1278207D01*
X-116946485Y1278207D02*
X-116946485Y1325826D01*
X-116946485Y1325826D02*
X-116936961Y1363921D01*
X-116936961Y1363921D02*
X-116927437Y1382969D01*
X-116927437Y1382969D02*
X-116917913Y1392492D01*
X-116917913Y1392492D02*
X-116898866Y1402016D01*
X-116746485Y1221064D02*
X-116736961Y1211540D01*
X-116736961Y1211540D02*
X-116746485Y1202016D01*
X-116746485Y1202016D02*
X-116756009Y1211540D01*
X-116756009Y1211540D02*
X-116746485Y1221064D01*
X-116746485Y1221064D02*
X-116746485Y1202016D01*
X-116613151Y1402016D02*
X-116594104Y1402016D01*
X-116594104Y1402016D02*
X-116575056Y1392492D01*
X-116575056Y1392492D02*
X-116565532Y1382969D01*
X-116565532Y1382969D02*
X-116556009Y1363921D01*
X-116556009Y1363921D02*
X-116546485Y1325826D01*
X-116546485Y1325826D02*
X-116546485Y1278207D01*
X-116546485Y1278207D02*
X-116556009Y1240111D01*
X-116556009Y1240111D02*
X-116565532Y1221064D01*
X-116565532Y1221064D02*
X-116575056Y1211540D01*
X-116575056Y1211540D02*
X-116594104Y1202016D01*
X-116594104Y1202016D02*
X-116613151Y1202016D01*
X-116613151Y1202016D02*
X-116632199Y1211540D01*
X-116632199Y1211540D02*
X-116641723Y1221064D01*
X-116641723Y1221064D02*
X-116651247Y1240111D01*
X-116651247Y1240111D02*
X-116660770Y1278207D01*
X-116660770Y1278207D02*
X-116660770Y1325826D01*
X-116660770Y1325826D02*
X-116651247Y1363921D01*
X-116651247Y1363921D02*
X-116641723Y1382969D01*
X-116641723Y1382969D02*
X-116632199Y1392492D01*
X-116632199Y1392492D02*
X-116613151Y1402016D01*
X-116375056Y1402016D02*
X-116413151Y1402016D01*
X-116413151Y1402016D02*
X-116432199Y1392492D01*
X-116432199Y1392492D02*
X-116441723Y1382969D01*
X-116441723Y1382969D02*
X-116460770Y1354397D01*
X-116460770Y1354397D02*
X-116470294Y1316302D01*
X-116470294Y1316302D02*
X-116470294Y1240111D01*
X-116470294Y1240111D02*
X-116460770Y1221064D01*
X-116460770Y1221064D02*
X-116451247Y1211540D01*
X-116451247Y1211540D02*
X-116432199Y1202016D01*
X-116432199Y1202016D02*
X-116394104Y1202016D01*
X-116394104Y1202016D02*
X-116375056Y1211540D01*
X-116375056Y1211540D02*
X-116365532Y1221064D01*
X-116365532Y1221064D02*
X-116356009Y1240111D01*
X-116356009Y1240111D02*
X-116356009Y1287730D01*
X-116356009Y1287730D02*
X-116365532Y1306778D01*
X-116365532Y1306778D02*
X-116375056Y1316302D01*
X-116375056Y1316302D02*
X-116394104Y1325826D01*
X-116394104Y1325826D02*
X-116432199Y1325826D01*
X-116432199Y1325826D02*
X-116451247Y1316302D01*
X-116451247Y1316302D02*
X-116460770Y1306778D01*
X-116460770Y1306778D02*
X-116470294Y1287730D01*
X-116232199Y1402016D02*
X-116213151Y1402016D01*
X-116213151Y1402016D02*
X-116194104Y1392492D01*
X-116194104Y1392492D02*
X-116184580Y1382969D01*
X-116184580Y1382969D02*
X-116175056Y1363921D01*
X-116175056Y1363921D02*
X-116165532Y1325826D01*
X-116165532Y1325826D02*
X-116165532Y1278207D01*
X-116165532Y1278207D02*
X-116175056Y1240111D01*
X-116175056Y1240111D02*
X-116184580Y1221064D01*
X-116184580Y1221064D02*
X-116194104Y1211540D01*
X-116194104Y1211540D02*
X-116213151Y1202016D01*
X-116213151Y1202016D02*
X-116232199Y1202016D01*
X-116232199Y1202016D02*
X-116251247Y1211540D01*
X-116251247Y1211540D02*
X-116260770Y1221064D01*
X-116260770Y1221064D02*
X-116270294Y1240111D01*
X-116270294Y1240111D02*
X-116279818Y1278207D01*
X-116279818Y1278207D02*
X-116279818Y1325826D01*
X-116279818Y1325826D02*
X-116270294Y1363921D01*
X-116270294Y1363921D02*
X-116260770Y1382969D01*
X-116260770Y1382969D02*
X-116251247Y1392492D01*
X-116251247Y1392492D02*
X-116232199Y1402016D01*
X-116041723Y1402016D02*
X-116022675Y1402016D01*
X-116022675Y1402016D02*
X-116003628Y1392492D01*
X-116003628Y1392492D02*
X-115994104Y1382969D01*
X-115994104Y1382969D02*
X-115984580Y1363921D01*
X-115984580Y1363921D02*
X-115975056Y1325826D01*
X-115975056Y1325826D02*
X-115975056Y1278207D01*
X-115975056Y1278207D02*
X-115984580Y1240111D01*
X-115984580Y1240111D02*
X-115994104Y1221064D01*
X-115994104Y1221064D02*
X-116003628Y1211540D01*
X-116003628Y1211540D02*
X-116022675Y1202016D01*
X-116022675Y1202016D02*
X-116041723Y1202016D01*
X-116041723Y1202016D02*
X-116060770Y1211540D01*
X-116060770Y1211540D02*
X-116070294Y1221064D01*
X-116070294Y1221064D02*
X-116079818Y1240111D01*
X-116079818Y1240111D02*
X-116089342Y1278207D01*
X-116089342Y1278207D02*
X-116089342Y1325826D01*
X-116089342Y1325826D02*
X-116079818Y1363921D01*
X-116079818Y1363921D02*
X-116070294Y1382969D01*
X-116070294Y1382969D02*
X-116060770Y1392492D01*
X-116060770Y1392492D02*
X-116041723Y1402016D01*
X-115898866Y1402016D02*
X-115898866Y1363921D01*
X-115822675Y1402016D02*
X-115822675Y1363921D01*
X-115527437Y1125826D02*
X-115536961Y1135350D01*
X-115536961Y1135350D02*
X-115556008Y1163921D01*
X-115556008Y1163921D02*
X-115565532Y1182969D01*
X-115565532Y1182969D02*
X-115575056Y1211540D01*
X-115575056Y1211540D02*
X-115584580Y1259159D01*
X-115584580Y1259159D02*
X-115584580Y1297254D01*
X-115584580Y1297254D02*
X-115575056Y1344873D01*
X-115575056Y1344873D02*
X-115565532Y1373445D01*
X-115565532Y1373445D02*
X-115556008Y1392492D01*
X-115556008Y1392492D02*
X-115536961Y1421064D01*
X-115536961Y1421064D02*
X-115527437Y1430588D01*
X-115356008Y1402016D02*
X-115451247Y1402016D01*
X-115451247Y1402016D02*
X-115460770Y1306778D01*
X-115460770Y1306778D02*
X-115451247Y1316302D01*
X-115451247Y1316302D02*
X-115432199Y1325826D01*
X-115432199Y1325826D02*
X-115384580Y1325826D01*
X-115384580Y1325826D02*
X-115365532Y1316302D01*
X-115365532Y1316302D02*
X-115356008Y1306778D01*
X-115356008Y1306778D02*
X-115346485Y1287730D01*
X-115346485Y1287730D02*
X-115346485Y1240111D01*
X-115346485Y1240111D02*
X-115356008Y1221064D01*
X-115356008Y1221064D02*
X-115365532Y1211540D01*
X-115365532Y1211540D02*
X-115384580Y1202016D01*
X-115384580Y1202016D02*
X-115432199Y1202016D01*
X-115432199Y1202016D02*
X-115451247Y1211540D01*
X-115451247Y1211540D02*
X-115460770Y1221064D01*
X-115108389Y1202016D02*
X-115108389Y1402016D01*
X-115022675Y1202016D02*
X-115022675Y1306778D01*
X-115022675Y1306778D02*
X-115032199Y1325826D01*
X-115032199Y1325826D02*
X-115051246Y1335350D01*
X-115051246Y1335350D02*
X-115079818Y1335350D01*
X-115079818Y1335350D02*
X-115098866Y1325826D01*
X-115098866Y1325826D02*
X-115108389Y1316302D01*
X-114898866Y1202016D02*
X-114917913Y1211540D01*
X-114917913Y1211540D02*
X-114927437Y1221064D01*
X-114927437Y1221064D02*
X-114936961Y1240111D01*
X-114936961Y1240111D02*
X-114936961Y1297254D01*
X-114936961Y1297254D02*
X-114927437Y1316302D01*
X-114927437Y1316302D02*
X-114917913Y1325826D01*
X-114917913Y1325826D02*
X-114898866Y1335350D01*
X-114898866Y1335350D02*
X-114870294Y1335350D01*
X-114870294Y1335350D02*
X-114851246Y1325826D01*
X-114851246Y1325826D02*
X-114841723Y1316302D01*
X-114841723Y1316302D02*
X-114832199Y1297254D01*
X-114832199Y1297254D02*
X-114832199Y1240111D01*
X-114832199Y1240111D02*
X-114841723Y1221064D01*
X-114841723Y1221064D02*
X-114851246Y1211540D01*
X-114851246Y1211540D02*
X-114870294Y1202016D01*
X-114870294Y1202016D02*
X-114898866Y1202016D01*
X-114717913Y1202016D02*
X-114736961Y1211540D01*
X-114736961Y1211540D02*
X-114746485Y1230588D01*
X-114746485Y1230588D02*
X-114746485Y1402016D01*
X-114565532Y1211540D02*
X-114584580Y1202016D01*
X-114584580Y1202016D02*
X-114622675Y1202016D01*
X-114622675Y1202016D02*
X-114641723Y1211540D01*
X-114641723Y1211540D02*
X-114651246Y1230588D01*
X-114651246Y1230588D02*
X-114651246Y1306778D01*
X-114651246Y1306778D02*
X-114641723Y1325826D01*
X-114641723Y1325826D02*
X-114622675Y1335350D01*
X-114622675Y1335350D02*
X-114584580Y1335350D01*
X-114584580Y1335350D02*
X-114565532Y1325826D01*
X-114565532Y1325826D02*
X-114556008Y1306778D01*
X-114556008Y1306778D02*
X-114556008Y1287730D01*
X-114556008Y1287730D02*
X-114651246Y1268683D01*
X-114479818Y1211540D02*
X-114460770Y1202016D01*
X-114460770Y1202016D02*
X-114422675Y1202016D01*
X-114422675Y1202016D02*
X-114403627Y1211540D01*
X-114403627Y1211540D02*
X-114394104Y1230588D01*
X-114394104Y1230588D02*
X-114394104Y1240111D01*
X-114394104Y1240111D02*
X-114403627Y1259159D01*
X-114403627Y1259159D02*
X-114422675Y1268683D01*
X-114422675Y1268683D02*
X-114451246Y1268683D01*
X-114451246Y1268683D02*
X-114470294Y1278207D01*
X-114470294Y1278207D02*
X-114479818Y1297254D01*
X-114479818Y1297254D02*
X-114479818Y1306778D01*
X-114479818Y1306778D02*
X-114470294Y1325826D01*
X-114470294Y1325826D02*
X-114451246Y1335350D01*
X-114451246Y1335350D02*
X-114422675Y1335350D01*
X-114422675Y1335350D02*
X-114403627Y1325826D01*
X-114327437Y1125826D02*
X-114317913Y1135350D01*
X-114317913Y1135350D02*
X-114298865Y1163921D01*
X-114298865Y1163921D02*
X-114289342Y1182969D01*
X-114289342Y1182969D02*
X-114279818Y1211540D01*
X-114279818Y1211540D02*
X-114270294Y1259159D01*
X-114270294Y1259159D02*
X-114270294Y1297254D01*
X-114270294Y1297254D02*
X-114279818Y1344873D01*
X-114279818Y1344873D02*
X-114289342Y1373445D01*
X-114289342Y1373445D02*
X-114298865Y1392492D01*
X-114298865Y1392492D02*
X-114317913Y1421064D01*
X-114317913Y1421064D02*
X-114327437Y1430588D01*
M02*
