G04 #@! TF.GenerationSoftware,KiCad,Pcbnew,8.0.5*
G04 #@! TF.CreationDate,2026-03-03T15:17:12-03:00*
G04 #@! TF.ProjectId,Hoja-Base,486f6a61-2d42-4617-9365-2e6b69636164,rev?*
G04 #@! TF.SameCoordinates,Original*
G04 #@! TF.FileFunction,Paste,Top*
G04 #@! TF.FilePolarity,Positive*
%FSLAX46Y46*%
G04 Gerber Fmt 4.6, Leading zero omitted, Abs format (unit mm)*
G04 Created by KiCad (PCBNEW 8.0.5) date 2026-03-03 15:17:12*
%MOMM*%
%LPD*%
G01*
G04 APERTURE LIST*
G04 Aperture macros list*
%AMRoundRect*
0 Rectangle with rounded corners*
0 $1 Rounding radius*
0 $2 $3 $4 $5 $6 $7 $8 $9 X,Y pos of 4 corners*
0 Add a 4 corners polygon primitive as box body*
4,1,4,$2,$3,$4,$5,$6,$7,$8,$9,$2,$3,0*
0 Add four circle primitives for the rounded corners*
1,1,$1+$1,$2,$3*
1,1,$1+$1,$4,$5*
1,1,$1+$1,$6,$7*
1,1,$1+$1,$8,$9*
0 Add four rect primitives between the rounded corners*
20,1,$1+$1,$2,$3,$4,$5,0*
20,1,$1+$1,$4,$5,$6,$7,0*
20,1,$1+$1,$6,$7,$8,$9,0*
20,1,$1+$1,$8,$9,$2,$3,0*%
G04 Aperture macros list end*
%ADD10C,0.000000*%
%ADD11RoundRect,0.250000X-0.625000X0.312500X-0.625000X-0.312500X0.625000X-0.312500X0.625000X0.312500X0*%
%ADD12RoundRect,0.250000X0.312500X0.625000X-0.312500X0.625000X-0.312500X-0.625000X0.312500X-0.625000X0*%
%ADD13R,0.900000X1.500000*%
%ADD14R,1.500000X0.900000*%
%ADD15R,0.900000X0.900000*%
%ADD16RoundRect,0.218750X-0.218750X-0.256250X0.218750X-0.256250X0.218750X0.256250X-0.218750X0.256250X0*%
%ADD17O,0.364000X2.015500*%
%ADD18R,0.802000X0.972000*%
%ADD19RoundRect,0.250000X-0.312500X-0.625000X0.312500X-0.625000X0.312500X0.625000X-0.312500X0.625000X0*%
%ADD20R,1.359000X1.500000*%
%ADD21R,1.050000X2.000000*%
%ADD22RoundRect,0.225000X-0.250000X0.225000X-0.250000X-0.225000X0.250000X-0.225000X0.250000X0.225000X0*%
%ADD23RoundRect,0.225000X-0.225000X-0.250000X0.225000X-0.250000X0.225000X0.250000X-0.225000X0.250000X0*%
%ADD24R,0.300000X0.700000*%
%ADD25R,0.700000X0.300000*%
%ADD26R,2.600000X2.600000*%
%ADD27R,1.240000X0.600000*%
%ADD28R,1.240000X0.300000*%
%ADD29R,1.210000X0.730000*%
%ADD30R,0.800000X0.450000*%
%ADD31R,0.800000X0.300000*%
%ADD32RoundRect,0.250000X-0.325000X-0.650000X0.325000X-0.650000X0.325000X0.650000X-0.325000X0.650000X0*%
%ADD33RoundRect,0.218750X0.256250X-0.218750X0.256250X0.218750X-0.256250X0.218750X-0.256250X-0.218750X0*%
%ADD34RoundRect,0.250000X0.625000X-0.312500X0.625000X0.312500X-0.625000X0.312500X-0.625000X-0.312500X0*%
%ADD35R,1.100000X2.500000*%
%ADD36R,3.600000X2.340000*%
%ADD37R,2.200000X1.200000*%
%ADD38R,6.400000X5.800000*%
%ADD39RoundRect,0.218750X0.218750X0.256250X-0.218750X0.256250X-0.218750X-0.256250X0.218750X-0.256250X0*%
G04 APERTURE END LIST*
D10*
G36*
X-1161648000Y115842000D02*
G01*
X-1162348000Y115842000D01*
X-1162348000Y116142000D01*
X-1161648000Y116142000D01*
X-1161648000Y115842000D01*
G37*
G36*
X-1161648000Y115342000D02*
G01*
X-1162348000Y115342000D01*
X-1162348000Y115642000D01*
X-1161648000Y115642000D01*
X-1161648000Y115342000D01*
G37*
G36*
X-1161648000Y114842000D02*
G01*
X-1162348000Y114842000D01*
X-1162348000Y115142000D01*
X-1161648000Y115142000D01*
X-1161648000Y114842000D01*
G37*
G36*
X-1161648000Y114342000D02*
G01*
X-1162348000Y114342000D01*
X-1162348000Y114642000D01*
X-1161648000Y114642000D01*
X-1161648000Y114342000D01*
G37*
G36*
X-1161648000Y113842000D02*
G01*
X-1162348000Y113842000D01*
X-1162348000Y114142000D01*
X-1161648000Y114142000D01*
X-1161648000Y113842000D01*
G37*
G36*
X-1161648000Y113342000D02*
G01*
X-1162348000Y113342000D01*
X-1162348000Y113642000D01*
X-1161648000Y113642000D01*
X-1161648000Y113342000D01*
G37*
G36*
X-1161150000Y116334000D02*
G01*
X-1161450000Y116334000D01*
X-1161450000Y117034000D01*
X-1161150000Y117034000D01*
X-1161150000Y116334000D01*
G37*
G36*
X-1161150000Y112450000D02*
G01*
X-1161450000Y112450000D01*
X-1161450000Y113150000D01*
X-1161150000Y113150000D01*
X-1161150000Y112450000D01*
G37*
G36*
X-1159009500Y113701000D02*
G01*
X-1161089500Y113701000D01*
X-1161089500Y115781000D01*
X-1159009500Y115781000D01*
X-1159009500Y113701000D01*
G37*
G36*
X-1160650000Y116334000D02*
G01*
X-1160950000Y116334000D01*
X-1160950000Y117034000D01*
X-1160650000Y117034000D01*
X-1160650000Y116334000D01*
G37*
G36*
X-1160650000Y112450000D02*
G01*
X-1160950000Y112450000D01*
X-1160950000Y113150000D01*
X-1160650000Y113150000D01*
X-1160650000Y112450000D01*
G37*
G36*
X-1160150000Y116334000D02*
G01*
X-1160450000Y116334000D01*
X-1160450000Y117034000D01*
X-1160150000Y117034000D01*
X-1160150000Y116334000D01*
G37*
G36*
X-1160150000Y112450000D02*
G01*
X-1160450000Y112450000D01*
X-1160450000Y113150000D01*
X-1160150000Y113150000D01*
X-1160150000Y112450000D01*
G37*
G36*
X-1159650000Y116334000D02*
G01*
X-1159950000Y116334000D01*
X-1159950000Y117034000D01*
X-1159650000Y117034000D01*
X-1159650000Y116334000D01*
G37*
G36*
X-1159650000Y112450000D02*
G01*
X-1159950000Y112450000D01*
X-1159950000Y113150000D01*
X-1159650000Y113150000D01*
X-1159650000Y112450000D01*
G37*
G36*
X-1159150000Y116334000D02*
G01*
X-1159450000Y116334000D01*
X-1159450000Y117034000D01*
X-1159150000Y117034000D01*
X-1159150000Y116334000D01*
G37*
G36*
X-1159150000Y112450000D02*
G01*
X-1159450000Y112450000D01*
X-1159450000Y113150000D01*
X-1159150000Y113150000D01*
X-1159150000Y112450000D01*
G37*
G36*
X-1158650000Y116334000D02*
G01*
X-1158950000Y116334000D01*
X-1158950000Y117034000D01*
X-1158650000Y117034000D01*
X-1158650000Y116334000D01*
G37*
G36*
X-1158650000Y112450000D02*
G01*
X-1158950000Y112450000D01*
X-1158950000Y113150000D01*
X-1158650000Y113150000D01*
X-1158650000Y112450000D01*
G37*
G36*
X-1157752000Y115842000D02*
G01*
X-1158452000Y115842000D01*
X-1158452000Y116142000D01*
X-1157752000Y116142000D01*
X-1157752000Y115842000D01*
G37*
G36*
X-1157752000Y115342000D02*
G01*
X-1158452000Y115342000D01*
X-1158452000Y115642000D01*
X-1157752000Y115642000D01*
X-1157752000Y115342000D01*
G37*
G36*
X-1157752000Y114842000D02*
G01*
X-1158452000Y114842000D01*
X-1158452000Y115142000D01*
X-1157752000Y115142000D01*
X-1157752000Y114842000D01*
G37*
G36*
X-1157752000Y114342000D02*
G01*
X-1158452000Y114342000D01*
X-1158452000Y114642000D01*
X-1157752000Y114642000D01*
X-1157752000Y114342000D01*
G37*
G36*
X-1157752000Y113842000D02*
G01*
X-1158452000Y113842000D01*
X-1158452000Y114142000D01*
X-1157752000Y114142000D01*
X-1157752000Y113842000D01*
G37*
G36*
X-1157752000Y113342000D02*
G01*
X-1158452000Y113342000D01*
X-1158452000Y113642000D01*
X-1157752000Y113642000D01*
X-1157752000Y113342000D01*
G37*
G36*
X-1098580000Y109800000D02*
G01*
X-1099820000Y109800000D01*
X-1099820000Y110400000D01*
X-1098580000Y110400000D01*
X-1098580000Y109800000D01*
G37*
G36*
X-1098580000Y109000000D02*
G01*
X-1099820000Y109000000D01*
X-1099820000Y109600000D01*
X-1098580000Y109600000D01*
X-1098580000Y109000000D01*
G37*
G36*
X-1098580000Y108500000D02*
G01*
X-1099820000Y108500000D01*
X-1099820000Y108800000D01*
X-1098580000Y108800000D01*
X-1098580000Y108500000D01*
G37*
G36*
X-1098580000Y108000000D02*
G01*
X-1099820000Y108000000D01*
X-1099820000Y108300000D01*
X-1098580000Y108300000D01*
X-1098580000Y108000000D01*
G37*
G36*
X-1098580000Y107500000D02*
G01*
X-1099820000Y107500000D01*
X-1099820000Y107800000D01*
X-1098580000Y107800000D01*
X-1098580000Y107500000D01*
G37*
G36*
X-1098580000Y107000000D02*
G01*
X-1099820000Y107000000D01*
X-1099820000Y107300000D01*
X-1098580000Y107300000D01*
X-1098580000Y107000000D01*
G37*
G36*
X-1098580000Y106500000D02*
G01*
X-1099820000Y106500000D01*
X-1099820000Y106800000D01*
X-1098580000Y106800000D01*
X-1098580000Y106500000D01*
G37*
G36*
X-1098580000Y106000000D02*
G01*
X-1099820000Y106000000D01*
X-1099820000Y106300000D01*
X-1098580000Y106300000D01*
X-1098580000Y106000000D01*
G37*
G36*
X-1098580000Y105500000D02*
G01*
X-1099820000Y105500000D01*
X-1099820000Y105800000D01*
X-1098580000Y105800000D01*
X-1098580000Y105500000D01*
G37*
G36*
X-1098580000Y105000000D02*
G01*
X-1099820000Y105000000D01*
X-1099820000Y105300000D01*
X-1098580000Y105300000D01*
X-1098580000Y105000000D01*
G37*
G36*
X-1098580000Y104200000D02*
G01*
X-1099820000Y104200000D01*
X-1099820000Y104800000D01*
X-1098580000Y104800000D01*
X-1098580000Y104200000D01*
G37*
G36*
X-1098580000Y103400000D02*
G01*
X-1099820000Y103400000D01*
X-1099820000Y104000000D01*
X-1098580000Y104000000D01*
X-1098580000Y103400000D01*
G37*
G36*
X-1098005000Y111719500D02*
G01*
X-1097980000Y111717500D01*
X-1097955500Y111714500D01*
X-1097931000Y111710000D01*
X-1097906500Y111704500D01*
X-1097882500Y111698000D01*
X-1097859000Y111690000D01*
X-1097836000Y111681000D01*
X-1097813000Y111670500D01*
X-1097791000Y111659000D01*
X-1097769500Y111646500D01*
X-1097748500Y111633000D01*
X-1097728000Y111618500D01*
X-1097708500Y111603000D01*
X-1097690000Y111586500D01*
X-1097672000Y111569000D01*
X-1097655000Y111551000D01*
X-1097639000Y111532000D01*
X-1097624000Y111512000D01*
X-1097610000Y111491500D01*
X-1097597000Y111470000D01*
X-1097585000Y111448000D01*
X-1097574000Y111425500D01*
X-1097564500Y111402500D01*
X-1097556000Y111379500D01*
X-1097548500Y111355500D01*
X-1097542500Y111331500D01*
X-1097537500Y111307000D01*
X-1097534000Y111282000D01*
X-1097531500Y111257500D01*
X-1097530000Y111232500D01*
X-1097530000Y111207500D01*
X-1097531500Y111182500D01*
X-1097534000Y111158000D01*
X-1097537500Y111133500D01*
X-1097542500Y111109000D01*
X-1097548500Y111084500D01*
X-1097556000Y111061000D01*
X-1097564500Y111037500D01*
X-1097574000Y111014500D01*
X-1097585000Y110992000D01*
X-1097597000Y110970000D01*
X-1097610000Y110949000D01*
X-1097624000Y110928000D01*
X-1097639000Y110908500D01*
X-1097655000Y110889000D01*
X-1097672000Y110871000D01*
X-1097690000Y110853500D01*
X-1097708500Y110837000D01*
X-1097728000Y110821500D01*
X-1097748500Y110807000D01*
X-1097769500Y110793500D01*
X-1097791000Y110781000D01*
X-1097813000Y110769500D01*
X-1097836000Y110759500D01*
X-1097859000Y110750000D01*
X-1097882500Y110742500D01*
X-1097906500Y110735500D01*
X-1097931000Y110730000D01*
X-1097955500Y110725500D01*
X-1097980000Y110722500D01*
X-1098005000Y110720500D01*
X-1098030000Y110720000D01*
X-1099130000Y110720000D01*
X-1099155000Y110720500D01*
X-1099180000Y110722500D01*
X-1099204500Y110725500D01*
X-1099229000Y110730000D01*
X-1099253500Y110735500D01*
X-1099277500Y110742500D01*
X-1099301000Y110750000D01*
X-1099324000Y110759500D01*
X-1099347000Y110769500D01*
X-1099369000Y110781000D01*
X-1099390500Y110793500D01*
X-1099411500Y110807000D01*
X-1099432000Y110821500D01*
X-1099451500Y110837000D01*
X-1099470000Y110853500D01*
X-1099488000Y110871000D01*
X-1099505000Y110889000D01*
X-1099521000Y110908500D01*
X-1099536000Y110928000D01*
X-1099550000Y110949000D01*
X-1099563000Y110970000D01*
X-1099575000Y110992000D01*
X-1099585500Y111014500D01*
X-1099595500Y111037500D01*
X-1099604000Y111061000D01*
X-1099611500Y111084500D01*
X-1099617500Y111109000D01*
X-1099622500Y111133500D01*
X-1099626000Y111158000D01*
X-1099628500Y111182500D01*
X-1099630000Y111207500D01*
X-1099630000Y111232500D01*
X-1099628500Y111257500D01*
X-1099626000Y111282000D01*
X-1099622500Y111307000D01*
X-1099617500Y111331500D01*
X-1099611500Y111355500D01*
X-1099604000Y111379500D01*
X-1099595500Y111402500D01*
X-1099585500Y111425500D01*
X-1099575000Y111448000D01*
X-1099563000Y111470000D01*
X-1099550000Y111491500D01*
X-1099536000Y111512000D01*
X-1099521000Y111532000D01*
X-1099505000Y111551000D01*
X-1099488000Y111569000D01*
X-1099470000Y111586500D01*
X-1099451500Y111603000D01*
X-1099432000Y111618500D01*
X-1099411500Y111633000D01*
X-1099390500Y111646500D01*
X-1099369000Y111659000D01*
X-1099347000Y111670500D01*
X-1099324000Y111681000D01*
X-1099301000Y111690000D01*
X-1099277500Y111698000D01*
X-1099253500Y111704500D01*
X-1099229000Y111710000D01*
X-1099204500Y111714500D01*
X-1099180000Y111717500D01*
X-1099155000Y111719500D01*
X-1099130000Y111720000D01*
X-1098030000Y111720000D01*
X-1098005000Y111719500D01*
G37*
G36*
X-1098005000Y103079500D02*
G01*
X-1097980000Y103077500D01*
X-1097955500Y103074500D01*
X-1097931000Y103070000D01*
X-1097906500Y103064500D01*
X-1097882500Y103058000D01*
X-1097859000Y103050000D01*
X-1097836000Y103040500D01*
X-1097813000Y103030500D01*
X-1097791000Y103019000D01*
X-1097769500Y103006500D01*
X-1097748500Y102993000D01*
X-1097728000Y102978500D01*
X-1097708500Y102963000D01*
X-1097690000Y102946500D01*
X-1097672000Y102929000D01*
X-1097655000Y102911000D01*
X-1097639000Y102891500D01*
X-1097624000Y102872000D01*
X-1097610000Y102851000D01*
X-1097597000Y102830000D01*
X-1097585000Y102808000D01*
X-1097574000Y102785500D01*
X-1097564500Y102762500D01*
X-1097556000Y102739000D01*
X-1097548500Y102715500D01*
X-1097542500Y102691000D01*
X-1097537500Y102667000D01*
X-1097534000Y102642000D01*
X-1097531500Y102617500D01*
X-1097530000Y102592500D01*
X-1097530000Y102567500D01*
X-1097531500Y102542500D01*
X-1097534000Y102518000D01*
X-1097537500Y102493000D01*
X-1097542500Y102468500D01*
X-1097548500Y102444500D01*
X-1097556000Y102420500D01*
X-1097564500Y102397500D01*
X-1097574000Y102374500D01*
X-1097585000Y102352000D01*
X-1097597000Y102330000D01*
X-1097610000Y102308500D01*
X-1097624000Y102288000D01*
X-1097639000Y102268500D01*
X-1097655000Y102249000D01*
X-1097672000Y102231000D01*
X-1097690000Y102213500D01*
X-1097708500Y102197000D01*
X-1097728000Y102181500D01*
X-1097748500Y102167000D01*
X-1097769500Y102153500D01*
X-1097791000Y102141000D01*
X-1097813000Y102129500D01*
X-1097836000Y102119500D01*
X-1097859000Y102110000D01*
X-1097882500Y102102000D01*
X-1097906500Y102095500D01*
X-1097931000Y102090000D01*
X-1097955500Y102085500D01*
X-1097980000Y102082500D01*
X-1098005000Y102080500D01*
X-1098030000Y102080000D01*
X-1099130000Y102080000D01*
X-1099155000Y102080500D01*
X-1099180000Y102082500D01*
X-1099204500Y102085500D01*
X-1099229000Y102090000D01*
X-1099253500Y102095500D01*
X-1099277500Y102102000D01*
X-1099301000Y102110000D01*
X-1099324000Y102119500D01*
X-1099347000Y102129500D01*
X-1099369000Y102141000D01*
X-1099390500Y102153500D01*
X-1099411500Y102167000D01*
X-1099432000Y102181500D01*
X-1099451500Y102197000D01*
X-1099470000Y102213500D01*
X-1099488000Y102231000D01*
X-1099505000Y102249000D01*
X-1099521000Y102268500D01*
X-1099536000Y102288000D01*
X-1099550000Y102308500D01*
X-1099563000Y102330000D01*
X-1099575000Y102352000D01*
X-1099585500Y102374500D01*
X-1099595500Y102397500D01*
X-1099604000Y102420500D01*
X-1099611500Y102444500D01*
X-1099617500Y102468500D01*
X-1099622500Y102493000D01*
X-1099626000Y102518000D01*
X-1099628500Y102542500D01*
X-1099630000Y102567500D01*
X-1099630000Y102592500D01*
X-1099628500Y102617500D01*
X-1099626000Y102642000D01*
X-1099622500Y102667000D01*
X-1099617500Y102691000D01*
X-1099611500Y102715500D01*
X-1099604000Y102739000D01*
X-1099595500Y102762500D01*
X-1099585500Y102785500D01*
X-1099575000Y102808000D01*
X-1099563000Y102830000D01*
X-1099550000Y102851000D01*
X-1099536000Y102872000D01*
X-1099521000Y102891500D01*
X-1099505000Y102911000D01*
X-1099488000Y102929000D01*
X-1099470000Y102946500D01*
X-1099451500Y102963000D01*
X-1099432000Y102978500D01*
X-1099411500Y102993000D01*
X-1099390500Y103006500D01*
X-1099369000Y103019000D01*
X-1099347000Y103030500D01*
X-1099324000Y103040500D01*
X-1099301000Y103050000D01*
X-1099277500Y103058000D01*
X-1099253500Y103064500D01*
X-1099229000Y103070000D01*
X-1099204500Y103074500D01*
X-1099180000Y103077500D01*
X-1099155000Y103079500D01*
X-1099130000Y103080000D01*
X-1098030000Y103080000D01*
X-1098005000Y103079500D01*
G37*
G36*
X-1093975000Y111719500D02*
G01*
X-1093950000Y111717500D01*
X-1093925500Y111714500D01*
X-1093901000Y111710000D01*
X-1093876500Y111704500D01*
X-1093852500Y111698000D01*
X-1093829000Y111690000D01*
X-1093805500Y111681000D01*
X-1093783000Y111670500D01*
X-1093761000Y111659000D01*
X-1093739000Y111646500D01*
X-1093718000Y111633000D01*
X-1093698000Y111618500D01*
X-1093678500Y111603000D01*
X-1093660000Y111586500D01*
X-1093642000Y111569000D01*
X-1093625000Y111551000D01*
X-1093609000Y111532000D01*
X-1093594000Y111512000D01*
X-1093580000Y111491500D01*
X-1093567000Y111470000D01*
X-1093555000Y111448000D01*
X-1093544000Y111425500D01*
X-1093534500Y111402500D01*
X-1093526000Y111379500D01*
X-1093518500Y111355500D01*
X-1093512500Y111331500D01*
X-1093507500Y111307000D01*
X-1093504000Y111282000D01*
X-1093501500Y111257500D01*
X-1093500000Y111232500D01*
X-1093500000Y111207500D01*
X-1093501500Y111182500D01*
X-1093504000Y111158000D01*
X-1093507500Y111133500D01*
X-1093512500Y111109000D01*
X-1093518500Y111084500D01*
X-1093526000Y111061000D01*
X-1093534500Y111037500D01*
X-1093544000Y111014500D01*
X-1093555000Y110992000D01*
X-1093567000Y110970000D01*
X-1093580000Y110949000D01*
X-1093594000Y110928000D01*
X-1093609000Y110908500D01*
X-1093625000Y110889000D01*
X-1093642000Y110871000D01*
X-1093660000Y110853500D01*
X-1093678500Y110837000D01*
X-1093698000Y110821500D01*
X-1093718000Y110807000D01*
X-1093739000Y110793500D01*
X-1093761000Y110781000D01*
X-1093783000Y110769500D01*
X-1093805500Y110759500D01*
X-1093829000Y110750000D01*
X-1093852500Y110742500D01*
X-1093876500Y110735500D01*
X-1093901000Y110730000D01*
X-1093925500Y110725500D01*
X-1093950000Y110722500D01*
X-1093975000Y110720500D01*
X-1094000000Y110720000D01*
X-1094800000Y110720000D01*
X-1094825000Y110720500D01*
X-1094849500Y110722500D01*
X-1094874500Y110725500D01*
X-1094899000Y110730000D01*
X-1094923500Y110735500D01*
X-1094947500Y110742500D01*
X-1094971000Y110750000D01*
X-1094994000Y110759500D01*
X-1095017000Y110769500D01*
X-1095039000Y110781000D01*
X-1095060500Y110793500D01*
X-1095081500Y110807000D01*
X-1095102000Y110821500D01*
X-1095121500Y110837000D01*
X-1095140000Y110853500D01*
X-1095158000Y110871000D01*
X-1095175000Y110889000D01*
X-1095191000Y110908500D01*
X-1095206000Y110928000D01*
X-1095220000Y110949000D01*
X-1095233000Y110970000D01*
X-1095245000Y110992000D01*
X-1095255500Y111014500D01*
X-1095265500Y111037500D01*
X-1095274000Y111061000D01*
X-1095281500Y111084500D01*
X-1095287500Y111109000D01*
X-1095292500Y111133500D01*
X-1095296000Y111158000D01*
X-1095298500Y111182500D01*
X-1095300000Y111207500D01*
X-1095300000Y111232500D01*
X-1095298500Y111257500D01*
X-1095296000Y111282000D01*
X-1095292500Y111307000D01*
X-1095287500Y111331500D01*
X-1095281500Y111355500D01*
X-1095274000Y111379500D01*
X-1095265500Y111402500D01*
X-1095255500Y111425500D01*
X-1095245000Y111448000D01*
X-1095233000Y111470000D01*
X-1095220000Y111491500D01*
X-1095206000Y111512000D01*
X-1095191000Y111532000D01*
X-1095175000Y111551000D01*
X-1095158000Y111569000D01*
X-1095140000Y111586500D01*
X-1095121500Y111603000D01*
X-1095102000Y111618500D01*
X-1095081500Y111633000D01*
X-1095060500Y111646500D01*
X-1095039000Y111659000D01*
X-1095017000Y111670500D01*
X-1094994000Y111681000D01*
X-1094971000Y111690000D01*
X-1094947500Y111698000D01*
X-1094923500Y111704500D01*
X-1094899000Y111710000D01*
X-1094874500Y111714500D01*
X-1094849500Y111717500D01*
X-1094825000Y111719500D01*
X-1094800000Y111720000D01*
X-1094000000Y111720000D01*
X-1093975000Y111719500D01*
G37*
G36*
X-1093975000Y103079500D02*
G01*
X-1093950000Y103077500D01*
X-1093925500Y103074500D01*
X-1093901000Y103070000D01*
X-1093876500Y103064500D01*
X-1093852500Y103058000D01*
X-1093829000Y103050000D01*
X-1093805500Y103040500D01*
X-1093783000Y103030500D01*
X-1093761000Y103019000D01*
X-1093739000Y103006500D01*
X-1093718000Y102993000D01*
X-1093698000Y102978500D01*
X-1093678500Y102963000D01*
X-1093660000Y102946500D01*
X-1093642000Y102929000D01*
X-1093625000Y102911000D01*
X-1093609000Y102891500D01*
X-1093594000Y102872000D01*
X-1093580000Y102851000D01*
X-1093567000Y102830000D01*
X-1093555000Y102808000D01*
X-1093544000Y102785500D01*
X-1093534500Y102762500D01*
X-1093526000Y102739000D01*
X-1093518500Y102715500D01*
X-1093512500Y102691000D01*
X-1093507500Y102667000D01*
X-1093504000Y102642000D01*
X-1093501500Y102617500D01*
X-1093500000Y102592500D01*
X-1093500000Y102567500D01*
X-1093501500Y102542500D01*
X-1093504000Y102518000D01*
X-1093507500Y102493000D01*
X-1093512500Y102468500D01*
X-1093518500Y102444500D01*
X-1093526000Y102420500D01*
X-1093534500Y102397500D01*
X-1093544000Y102374500D01*
X-1093555000Y102352000D01*
X-1093567000Y102330000D01*
X-1093580000Y102308500D01*
X-1093594000Y102288000D01*
X-1093609000Y102268500D01*
X-1093625000Y102249000D01*
X-1093642000Y102231000D01*
X-1093660000Y102213500D01*
X-1093678500Y102197000D01*
X-1093698000Y102181500D01*
X-1093718000Y102167000D01*
X-1093739000Y102153500D01*
X-1093761000Y102141000D01*
X-1093783000Y102129500D01*
X-1093805500Y102119500D01*
X-1093829000Y102110000D01*
X-1093852500Y102102000D01*
X-1093876500Y102095500D01*
X-1093901000Y102090000D01*
X-1093925500Y102085500D01*
X-1093950000Y102082500D01*
X-1093975000Y102080500D01*
X-1094000000Y102080000D01*
X-1094800000Y102080000D01*
X-1094825000Y102080500D01*
X-1094849500Y102082500D01*
X-1094874500Y102085500D01*
X-1094899000Y102090000D01*
X-1094923500Y102095500D01*
X-1094947500Y102102000D01*
X-1094971000Y102110000D01*
X-1094994000Y102119500D01*
X-1095017000Y102129500D01*
X-1095039000Y102141000D01*
X-1095060500Y102153500D01*
X-1095081500Y102167000D01*
X-1095102000Y102181500D01*
X-1095121500Y102197000D01*
X-1095140000Y102213500D01*
X-1095158000Y102231000D01*
X-1095175000Y102249000D01*
X-1095191000Y102268500D01*
X-1095206000Y102288000D01*
X-1095220000Y102308500D01*
X-1095233000Y102330000D01*
X-1095245000Y102352000D01*
X-1095255500Y102374500D01*
X-1095265500Y102397500D01*
X-1095274000Y102420500D01*
X-1095281500Y102444500D01*
X-1095287500Y102468500D01*
X-1095292500Y102493000D01*
X-1095296000Y102518000D01*
X-1095298500Y102542500D01*
X-1095300000Y102567500D01*
X-1095300000Y102592500D01*
X-1095298500Y102617500D01*
X-1095296000Y102642000D01*
X-1095292500Y102667000D01*
X-1095287500Y102691000D01*
X-1095281500Y102715500D01*
X-1095274000Y102739000D01*
X-1095265500Y102762500D01*
X-1095255500Y102785500D01*
X-1095245000Y102808000D01*
X-1095233000Y102830000D01*
X-1095220000Y102851000D01*
X-1095206000Y102872000D01*
X-1095191000Y102891500D01*
X-1095175000Y102911000D01*
X-1095158000Y102929000D01*
X-1095140000Y102946500D01*
X-1095121500Y102963000D01*
X-1095102000Y102978500D01*
X-1095081500Y102993000D01*
X-1095060500Y103006500D01*
X-1095039000Y103019000D01*
X-1095017000Y103030500D01*
X-1094994000Y103040500D01*
X-1094971000Y103050000D01*
X-1094947500Y103058000D01*
X-1094923500Y103064500D01*
X-1094899000Y103070000D01*
X-1094874500Y103074500D01*
X-1094849500Y103077500D01*
X-1094825000Y103079500D01*
X-1094800000Y103080000D01*
X-1094000000Y103080000D01*
X-1093975000Y103079500D01*
G37*
D11*
X-1101700000Y57462500D03*
X-1101700000Y54537500D03*
D12*
X-1109337500Y95000000D03*
X-1112262500Y95000000D03*
X-1168837500Y120900000D03*
X-1171762500Y120900000D03*
D13*
X-1100343500Y85850000D03*
X-1101613500Y85850000D03*
X-1102883500Y85850000D03*
X-1104153500Y85850000D03*
X-1105423500Y85850000D03*
X-1106693500Y85850000D03*
X-1107963500Y85850000D03*
X-1109233500Y85850000D03*
X-1110503500Y85850000D03*
X-1111773500Y85850000D03*
X-1113043500Y85850000D03*
X-1114313500Y85850000D03*
X-1115583500Y85850000D03*
X-1116853500Y85850000D03*
D14*
X-1118133500Y84085000D03*
X-1118133500Y82815000D03*
X-1118133500Y81545000D03*
X-1118133500Y80275000D03*
X-1118133500Y79005000D03*
X-1118133500Y77735000D03*
X-1118133500Y76465000D03*
X-1118133500Y75195000D03*
X-1118133500Y73925000D03*
X-1118133500Y72655000D03*
X-1118133500Y71385000D03*
X-1118103500Y70115000D03*
D13*
X-1116853500Y68350000D03*
X-1115583500Y68350000D03*
X-1114313500Y68350000D03*
X-1113043500Y68350000D03*
X-1111773500Y68350000D03*
X-1110503500Y68350000D03*
X-1109233500Y68350000D03*
X-1107963500Y68350000D03*
X-1106693500Y68350000D03*
X-1105423500Y68350000D03*
X-1104153500Y68350000D03*
X-1102883500Y68350000D03*
X-1101613500Y68350000D03*
X-1100343500Y68350000D03*
D15*
X-1106663500Y80000000D03*
X-1108063500Y80000000D03*
X-1109463500Y80000000D03*
X-1106663500Y78600000D03*
X-1108063500Y78600000D03*
X-1109463500Y78600000D03*
X-1106663500Y77200000D03*
X-1108063500Y77200000D03*
X-1109463500Y77200000D03*
D11*
X-1174631250Y53302500D03*
X-1174631250Y50377500D03*
D16*
X-1165587500Y69800000D03*
X-1164012500Y69800000D03*
D17*
X-1137725000Y115445000D03*
X-1137075000Y115445000D03*
X-1136425000Y115445000D03*
X-1135775000Y115445000D03*
X-1135125000Y115445000D03*
X-1134475000Y115445000D03*
X-1133825000Y115445000D03*
X-1133175000Y115445000D03*
X-1132525000Y115445000D03*
X-1131875000Y115445000D03*
X-1131225000Y115445000D03*
X-1130575000Y115445000D03*
X-1129925000Y115445000D03*
X-1129275000Y115445000D03*
X-1129275000Y122355000D03*
X-1129925000Y122355000D03*
X-1130575000Y122355000D03*
X-1131225000Y122355000D03*
X-1131875000Y122355000D03*
X-1132525000Y122355000D03*
X-1133175000Y122355000D03*
X-1133825000Y122355000D03*
X-1134475000Y122355000D03*
X-1135125000Y122355000D03*
X-1135775000Y122355000D03*
X-1136425000Y122355000D03*
X-1137075000Y122355000D03*
X-1137725000Y122355000D03*
D18*
X-1119250000Y97370000D03*
X-1121150000Y97370000D03*
X-1120200000Y95600000D03*
D12*
X-1169368750Y47440000D03*
X-1172293750Y47440000D03*
D19*
X-1127362500Y116600000D03*
X-1124437500Y116600000D03*
D11*
X-1133400000Y98325000D03*
X-1133400000Y95400000D03*
D20*
X-1132100000Y73800000D03*
X-1132100000Y71400000D03*
D19*
X-1186462500Y63800000D03*
X-1183537500Y63800000D03*
D21*
X-1105150000Y60800000D03*
X-1100700000Y60800000D03*
D22*
X-1129000000Y73775000D03*
X-1129000000Y72225000D03*
D23*
X-1106175000Y97500000D03*
X-1104625000Y97500000D03*
D12*
X-1108837500Y61200000D03*
X-1111762500Y61200000D03*
X-1147737500Y47800000D03*
X-1150662500Y47800000D03*
D18*
X-1121150000Y60685000D03*
X-1123050000Y60685000D03*
X-1122100000Y58915000D03*
X-1126550000Y60685000D03*
X-1128450000Y60685000D03*
X-1127500000Y58915000D03*
D24*
X-1161300000Y112800000D03*
X-1160800000Y112800000D03*
X-1160300000Y112800000D03*
X-1159800000Y112800000D03*
X-1159300000Y112800000D03*
X-1158800000Y112800000D03*
D25*
X-1158102000Y113492000D03*
X-1158102000Y113992000D03*
X-1158102000Y114492000D03*
X-1158102000Y114992000D03*
X-1158102000Y115492000D03*
X-1158102000Y115992000D03*
D24*
X-1158800000Y116684000D03*
X-1159300000Y116684000D03*
X-1159800000Y116684000D03*
X-1160300000Y116684000D03*
X-1160800000Y116684000D03*
X-1161300000Y116684000D03*
D25*
X-1161998000Y115992000D03*
X-1161998000Y115492000D03*
X-1161998000Y114992000D03*
X-1161998000Y114492000D03*
X-1161998000Y113992000D03*
X-1161998000Y113492000D03*
D26*
X-1160049500Y114741000D03*
D22*
X-1130500000Y73775000D03*
X-1130500000Y72225000D03*
D19*
X-1163462500Y63200000D03*
X-1160537500Y63200000D03*
D27*
X-1099200000Y103700000D03*
X-1099200000Y104500000D03*
D28*
X-1099200000Y105650000D03*
X-1099200000Y106650000D03*
X-1099200000Y107150000D03*
X-1099200000Y108150000D03*
D27*
X-1099200000Y110100000D03*
X-1099200000Y109300000D03*
D28*
X-1099200000Y108650000D03*
X-1099200000Y107650000D03*
X-1099200000Y106150000D03*
X-1099200000Y105150000D03*
D11*
X-1122200000Y65362500D03*
X-1122200000Y62437500D03*
D29*
X-1176696250Y47440000D03*
X-1180056250Y47440000D03*
D30*
X-1171000000Y111275000D03*
D31*
X-1171000000Y110700000D03*
X-1171000000Y110200000D03*
X-1171000000Y109700000D03*
X-1171000000Y109200000D03*
X-1171000000Y108700000D03*
X-1171000000Y108200000D03*
D30*
X-1171000000Y107625000D03*
X-1169400000Y107625000D03*
D31*
X-1169400000Y108200000D03*
X-1169400000Y108700000D03*
X-1169400000Y109200000D03*
X-1169400000Y109700000D03*
X-1169400000Y110200000D03*
X-1169400000Y110700000D03*
D30*
X-1169400000Y111275000D03*
D11*
X-1127700000Y65362500D03*
X-1127700000Y62437500D03*
D23*
X-1131775000Y113300000D03*
X-1130225000Y113300000D03*
D32*
X-1103275000Y89300000D03*
X-1100325000Y89300000D03*
D33*
X-1101700000Y50912500D03*
X-1101700000Y52487500D03*
D34*
X-1152800000Y49937500D03*
X-1152800000Y52862500D03*
D11*
X-1130600000Y98262500D03*
X-1130600000Y95337500D03*
D12*
X-1102737500Y105000000D03*
X-1105662500Y105000000D03*
D35*
X-1133300000Y76830000D03*
X-1131000000Y76830000D03*
X-1128700000Y76830000D03*
D36*
X-1131000000Y82770000D03*
D22*
X-1164200000Y115750000D03*
X-1164200000Y114200000D03*
D37*
X-1170499250Y56520000D03*
D38*
X-1176799250Y58800000D03*
D37*
X-1170499250Y61080000D03*
D20*
X-1127300000Y73700000D03*
X-1127300000Y71300000D03*
D29*
X-1156120000Y47800000D03*
X-1159480000Y47800000D03*
D12*
X-1159137500Y69800000D03*
X-1162062500Y69800000D03*
D37*
X-1147368000Y66920000D03*
D38*
X-1153668000Y69200000D03*
D37*
X-1147368000Y71480000D03*
X-1171099250Y66720000D03*
D38*
X-1177399250Y69000000D03*
D37*
X-1171099250Y71280000D03*
D23*
X-1101775000Y87400000D03*
X-1100225000Y87400000D03*
D19*
X-1129662500Y68200000D03*
X-1126737500Y68200000D03*
D11*
X-1131800000Y65362500D03*
X-1131800000Y62437500D03*
X-1118600000Y65262500D03*
X-1118600000Y62337500D03*
D18*
X-1117550000Y60685000D03*
X-1119450000Y60685000D03*
X-1118500000Y58915000D03*
D12*
X-1102837500Y109300000D03*
X-1105762500Y109300000D03*
D21*
X-1106425000Y95100000D03*
X-1101975000Y95100000D03*
D18*
X-1131650000Y60785000D03*
X-1133550000Y60785000D03*
X-1132600000Y59015000D03*
D37*
X-1148168000Y55920000D03*
D38*
X-1154468000Y58200000D03*
D37*
X-1148168000Y60480000D03*
D39*
X-1122212500Y68200000D03*
X-1123787500Y68200000D03*
D30*
X-1171000000Y117575000D03*
D31*
X-1171000000Y117000000D03*
X-1171000000Y116500000D03*
X-1171000000Y116000000D03*
X-1171000000Y115500000D03*
X-1171000000Y115000000D03*
X-1171000000Y114500000D03*
D30*
X-1171000000Y113925000D03*
X-1169400000Y113925000D03*
D31*
X-1169400000Y114500000D03*
X-1169400000Y115000000D03*
X-1169400000Y115500000D03*
X-1169400000Y116000000D03*
X-1169400000Y116500000D03*
X-1169400000Y117000000D03*
D30*
X-1169400000Y117575000D03*
D19*
X-1124462500Y99600000D03*
X-1121537500Y99600000D03*
M02*
