G04 #@! TF.GenerationSoftware,KiCad,Pcbnew,8.0.5*
G04 #@! TF.CreationDate,2026-03-05T12:39:56-03:00*
G04 #@! TF.ProjectId,Hoja-Base,486f6a61-2d42-4617-9365-2e6b69636164,rev?*
G04 #@! TF.SameCoordinates,Original*
G04 #@! TF.FileFunction,Profile,NP*
%FSLAX46Y46*%
G04 Gerber Fmt 4.6, Leading zero omitted, Abs format (unit mm)*
G04 Created by KiCad (PCBNEW 8.0.5) date 2026-03-05 12:39:56*
%MOMM*%
%LPD*%
G01*
G04 APERTURE LIST*
G04 #@! TA.AperFunction,Profile*
%ADD10C,0.050000*%
G04 #@! TD*
G04 #@! TA.AperFunction,Profile*
%ADD11C,0.000000*%
G04 #@! TD*
G04 APERTURE END LIST*
D10*
X-1191000000Y135200000D02*
X-1191000000Y35200000D01*
X-1091000000Y135200000D02*
X-1191000000Y135200000D01*
X-1091000000Y101600000D02*
X-1091000000Y101200000D01*
X-1091000000Y101200000D02*
X-1098900000Y101200000D01*
X-1091000000Y52500000D02*
X-1091000000Y35200000D01*
X-1091000000Y135200000D02*
X-1091000000Y101600000D01*
X-1091000000Y52500000D02*
X-1098900000Y52496304D01*
X-1091000000Y35200000D02*
X-1191000000Y35200000D01*
X-1098900000Y101200000D02*
X-1098900000Y52496304D01*
D11*
G04 #@! TA.AperFunction,Profile*
G36*
X-1098237343Y111195400D02*
G01*
X-1098139594Y111138964D01*
X-1098067042Y111052500D01*
X-1098028437Y110946436D01*
X-1098028437Y110833564D01*
X-1098067042Y110727500D01*
X-1098139594Y110641036D01*
X-1098237343Y110584600D01*
X-1098348500Y110565000D01*
X-1098459657Y110584600D01*
X-1098557406Y110641036D01*
X-1098629958Y110727500D01*
X-1098668563Y110833564D01*
X-1098668563Y110946436D01*
X-1098629958Y111052500D01*
X-1098557406Y111138964D01*
X-1098459657Y111195400D01*
X-1098348500Y111215000D01*
X-1098237343Y111195400D01*
G37*
G04 #@! TD.AperFunction*
G04 #@! TA.AperFunction,Profile*
G36*
X-1098237343Y105405400D02*
G01*
X-1098139594Y105348964D01*
X-1098067042Y105262500D01*
X-1098028437Y105156436D01*
X-1098028437Y105043564D01*
X-1098067042Y104937500D01*
X-1098139594Y104851036D01*
X-1098237343Y104794600D01*
X-1098348500Y104775000D01*
X-1098459657Y104794600D01*
X-1098557406Y104851036D01*
X-1098629958Y104937500D01*
X-1098668563Y105043564D01*
X-1098668563Y105156436D01*
X-1098629958Y105262500D01*
X-1098557406Y105348964D01*
X-1098459657Y105405400D01*
X-1098348500Y105425000D01*
X-1098237343Y105405400D01*
G37*
G04 #@! TD.AperFunction*
M02*
