G04 #@! TF.GenerationSoftware,KiCad,Pcbnew,8.0.5*
G04 #@! TF.CreationDate,2026-03-05T12:39:56-03:00*
G04 #@! TF.ProjectId,Hoja-Base,486f6a61-2d42-4617-9365-2e6b69636164,rev?*
G04 #@! TF.SameCoordinates,Original*
G04 #@! TF.FileFunction,Legend,Top*
G04 #@! TF.FilePolarity,Positive*
%FSLAX46Y46*%
G04 Gerber Fmt 4.6, Leading zero omitted, Abs format (unit mm)*
G04 Created by KiCad (PCBNEW 8.0.5) date 2026-03-05 12:39:56*
%MOMM*%
%LPD*%
G01*
G04 APERTURE LIST*
G04 Aperture macros list*
%AMRoundRect*
0 Rectangle with rounded corners*
0 $1 Rounding radius*
0 $2 $3 $4 $5 $6 $7 $8 $9 X,Y pos of 4 corners*
0 Add a 4 corners polygon primitive as box body*
4,1,4,$2,$3,$4,$5,$6,$7,$8,$9,$2,$3,0*
0 Add four circle primitives for the rounded corners*
1,1,$1+$1,$2,$3*
1,1,$1+$1,$4,$5*
1,1,$1+$1,$6,$7*
1,1,$1+$1,$8,$9*
0 Add four rect primitives between the rounded corners*
20,1,$1+$1,$2,$3,$4,$5,0*
20,1,$1+$1,$4,$5,$6,$7,0*
20,1,$1+$1,$6,$7,$8,$9,0*
20,1,$1+$1,$8,$9,$2,$3,0*%
G04 Aperture macros list end*
%ADD10C,2.550000*%
%ADD11C,0.150000*%
%ADD12C,0.254000*%
%ADD13C,0.120000*%
%ADD14C,0.203000*%
%ADD15C,0.152500*%
%ADD16C,0.000000*%
%ADD17C,0.080000*%
%ADD18C,0.300000*%
%ADD19C,0.152000*%
%ADD20C,0.127000*%
%ADD21C,0.200000*%
%ADD22C,0.100000*%
%ADD23C,0.178000*%
%ADD24R,1.000000X1.500000*%
%ADD25RoundRect,0.200000X0.200000X0.275000X-0.200000X0.275000X-0.200000X-0.275000X0.200000X-0.275000X0*%
%ADD26R,1.800000X1.800000*%
%ADD27C,1.800000*%
%ADD28C,1.524000*%
%ADD29R,1.250000X0.700000*%
%ADD30RoundRect,0.225000X-0.225000X-0.250000X0.225000X-0.250000X0.225000X0.250000X-0.225000X0.250000X0*%
%ADD31RoundRect,0.218750X-0.218750X-0.256250X0.218750X-0.256250X0.218750X0.256250X-0.218750X0.256250X0*%
%ADD32O,0.364000X2.015500*%
%ADD33R,1.600000X1.600000*%
%ADD34C,1.600000*%
%ADD35RoundRect,0.200000X-0.200000X-0.275000X0.200000X-0.275000X0.200000X0.275000X-0.200000X0.275000X0*%
%ADD36R,1.359000X1.500000*%
%ADD37C,3.200000*%
%ADD38RoundRect,0.200000X-0.275000X0.200000X-0.275000X-0.200000X0.275000X-0.200000X0.275000X0.200000X0*%
%ADD39C,2.794000*%
%ADD40R,1.700000X1.700000*%
%ADD41O,1.700000X1.700000*%
%ADD42R,1.050000X2.000000*%
%ADD43RoundRect,0.225000X-0.250000X0.225000X-0.250000X-0.225000X0.250000X-0.225000X0.250000X0.225000X0*%
%ADD44RoundRect,0.200000X0.275000X-0.200000X0.275000X0.200000X-0.275000X0.200000X-0.275000X-0.200000X0*%
%ADD45RoundRect,0.250000X-0.625000X0.312500X-0.625000X-0.312500X0.625000X-0.312500X0.625000X0.312500X0*%
%ADD46RoundRect,0.102000X-0.401000X0.486000X-0.401000X-0.486000X0.401000X-0.486000X0.401000X0.486000X0*%
%ADD47R,0.300000X0.700000*%
%ADD48R,0.700000X0.300000*%
%ADD49R,2.600000X2.600000*%
%ADD50C,2.000000*%
%ADD51R,1.000000X0.700000*%
%ADD52O,2.100000X1.000000*%
%ADD53O,1.800000X1.000000*%
%ADD54R,1.240000X0.600000*%
%ADD55R,1.240000X0.300000*%
%ADD56RoundRect,0.102000X0.605000X0.365000X-0.605000X0.365000X-0.605000X-0.365000X0.605000X-0.365000X0*%
%ADD57R,0.800000X0.450000*%
%ADD58R,0.800000X0.300000*%
%ADD59R,0.700000X1.000000*%
%ADD60RoundRect,0.218750X0.256250X-0.218750X0.256250X0.218750X-0.256250X0.218750X-0.256250X-0.218750X0*%
%ADD61R,1.100000X2.500000*%
%ADD62R,3.600000X2.340000*%
%ADD63RoundRect,0.250000X-0.325000X-0.650000X0.325000X-0.650000X0.325000X0.650000X-0.325000X0.650000X0*%
%ADD64R,2.200000X1.200000*%
%ADD65R,6.400000X5.800000*%
%ADD66R,0.900000X1.500000*%
%ADD67R,1.500000X0.900000*%
%ADD68R,0.900000X0.900000*%
%ADD69RoundRect,0.102000X-0.900000X-0.900000X0.900000X-0.900000X0.900000X0.900000X-0.900000X0.900000X0*%
%ADD70C,2.004000*%
%ADD71O,4.604000X2.404000*%
%ADD72O,4.204000X2.204000*%
%ADD73O,2.204000X4.204000*%
%ADD74RoundRect,0.218750X0.218750X0.256250X-0.218750X0.256250X-0.218750X-0.256250X0.218750X-0.256250X0*%
G04 APERTURE END LIST*
D10*
X-1093625000Y130800000D02*
G75*
G02*
X-1096175000Y130800000I-1275000J0D01*
G01*
X-1096175000Y130800000D02*
G75*
G02*
X-1093625000Y130800000I1275000J0D01*
G01*
X-1184925000Y39500000D02*
G75*
G02*
X-1187475000Y39500000I-1275000J0D01*
G01*
X-1187475000Y39500000D02*
G75*
G02*
X-1184925000Y39500000I1275000J0D01*
G01*
X-1184925000Y131100000D02*
G75*
G02*
X-1187475000Y131100000I-1275000J0D01*
G01*
X-1187475000Y131100000D02*
G75*
G02*
X-1184925000Y131100000I1275000J0D01*
G01*
D11*
X-1185045180Y102366666D02*
X-1184330895Y102366666D01*
X-1184330895Y102366666D02*
X-1184188038Y102319047D01*
X-1184188038Y102319047D02*
X-1184092800Y102223809D01*
X-1184092800Y102223809D02*
X-1184045180Y102080952D01*
X-1184045180Y102080952D02*
X-1184045180Y101985714D01*
X-1184045180Y102842857D02*
X-1185045180Y102842857D01*
X-1185045180Y102842857D02*
X-1185045180Y103223809D01*
X-1185045180Y103223809D02*
X-1184997561Y103319047D01*
X-1184997561Y103319047D02*
X-1184949942Y103366666D01*
X-1184949942Y103366666D02*
X-1184854704Y103414285D01*
X-1184854704Y103414285D02*
X-1184711847Y103414285D01*
X-1184711847Y103414285D02*
X-1184616609Y103366666D01*
X-1184616609Y103366666D02*
X-1184568990Y103319047D01*
X-1184568990Y103319047D02*
X-1184521371Y103223809D01*
X-1184521371Y103223809D02*
X-1184521371Y102842857D01*
X-1184616609Y103985714D02*
X-1184664228Y103890476D01*
X-1184664228Y103890476D02*
X-1184711847Y103842857D01*
X-1184711847Y103842857D02*
X-1184807085Y103795238D01*
X-1184807085Y103795238D02*
X-1184854704Y103795238D01*
X-1184854704Y103795238D02*
X-1184949942Y103842857D01*
X-1184949942Y103842857D02*
X-1184997561Y103890476D01*
X-1184997561Y103890476D02*
X-1185045180Y103985714D01*
X-1185045180Y103985714D02*
X-1185045180Y104176190D01*
X-1185045180Y104176190D02*
X-1184997561Y104271428D01*
X-1184997561Y104271428D02*
X-1184949942Y104319047D01*
X-1184949942Y104319047D02*
X-1184854704Y104366666D01*
X-1184854704Y104366666D02*
X-1184807085Y104366666D01*
X-1184807085Y104366666D02*
X-1184711847Y104319047D01*
X-1184711847Y104319047D02*
X-1184664228Y104271428D01*
X-1184664228Y104271428D02*
X-1184616609Y104176190D01*
X-1184616609Y104176190D02*
X-1184616609Y103985714D01*
X-1184616609Y103985714D02*
X-1184568990Y103890476D01*
X-1184568990Y103890476D02*
X-1184521371Y103842857D01*
X-1184521371Y103842857D02*
X-1184426133Y103795238D01*
X-1184426133Y103795238D02*
X-1184235657Y103795238D01*
X-1184235657Y103795238D02*
X-1184140419Y103842857D01*
X-1184140419Y103842857D02*
X-1184092800Y103890476D01*
X-1184092800Y103890476D02*
X-1184045180Y103985714D01*
X-1184045180Y103985714D02*
X-1184045180Y104176190D01*
X-1184045180Y104176190D02*
X-1184092800Y104271428D01*
X-1184092800Y104271428D02*
X-1184140419Y104319047D01*
X-1184140419Y104319047D02*
X-1184235657Y104366666D01*
X-1184235657Y104366666D02*
X-1184426133Y104366666D01*
X-1184426133Y104366666D02*
X-1184521371Y104319047D01*
X-1184521371Y104319047D02*
X-1184568990Y104271428D01*
X-1184568990Y104271428D02*
X-1184616609Y104176190D01*
X-1182845180Y120966666D02*
X-1182130895Y120966666D01*
X-1182130895Y120966666D02*
X-1181988038Y120919047D01*
X-1181988038Y120919047D02*
X-1181892800Y120823809D01*
X-1181892800Y120823809D02*
X-1181845180Y120680952D01*
X-1181845180Y120680952D02*
X-1181845180Y120585714D01*
X-1181845180Y121442857D02*
X-1182845180Y121442857D01*
X-1182845180Y121442857D02*
X-1182845180Y121823809D01*
X-1182845180Y121823809D02*
X-1182797561Y121919047D01*
X-1182797561Y121919047D02*
X-1182749942Y121966666D01*
X-1182749942Y121966666D02*
X-1182654704Y122014285D01*
X-1182654704Y122014285D02*
X-1182511847Y122014285D01*
X-1182511847Y122014285D02*
X-1182416609Y121966666D01*
X-1182416609Y121966666D02*
X-1182368990Y121919047D01*
X-1182368990Y121919047D02*
X-1182321371Y121823809D01*
X-1182321371Y121823809D02*
X-1182321371Y121442857D01*
X-1181845180Y122490476D02*
X-1181845180Y122680952D01*
X-1181845180Y122680952D02*
X-1181892800Y122776190D01*
X-1181892800Y122776190D02*
X-1181940419Y122823809D01*
X-1181940419Y122823809D02*
X-1182083276Y122919047D01*
X-1182083276Y122919047D02*
X-1182273752Y122966666D01*
X-1182273752Y122966666D02*
X-1182654704Y122966666D01*
X-1182654704Y122966666D02*
X-1182749942Y122919047D01*
X-1182749942Y122919047D02*
X-1182797561Y122871428D01*
X-1182797561Y122871428D02*
X-1182845180Y122776190D01*
X-1182845180Y122776190D02*
X-1182845180Y122585714D01*
X-1182845180Y122585714D02*
X-1182797561Y122490476D01*
X-1182797561Y122490476D02*
X-1182749942Y122442857D01*
X-1182749942Y122442857D02*
X-1182654704Y122395238D01*
X-1182654704Y122395238D02*
X-1182416609Y122395238D01*
X-1182416609Y122395238D02*
X-1182321371Y122442857D01*
X-1182321371Y122442857D02*
X-1182273752Y122490476D01*
X-1182273752Y122490476D02*
X-1182226133Y122585714D01*
X-1182226133Y122585714D02*
X-1182226133Y122776190D01*
X-1182226133Y122776190D02*
X-1182273752Y122871428D01*
X-1182273752Y122871428D02*
X-1182321371Y122919047D01*
X-1182321371Y122919047D02*
X-1182416609Y122966666D01*
X-1170942857Y119015180D02*
X-1171276190Y119491371D01*
X-1171514285Y119015180D02*
X-1171514285Y120015180D01*
X-1171514285Y120015180D02*
X-1171133333Y120015180D01*
X-1171133333Y120015180D02*
X-1171038095Y119967561D01*
X-1171038095Y119967561D02*
X-1170990476Y119919942D01*
X-1170990476Y119919942D02*
X-1170942857Y119824704D01*
X-1170942857Y119824704D02*
X-1170942857Y119681847D01*
X-1170942857Y119681847D02*
X-1170990476Y119586609D01*
X-1170990476Y119586609D02*
X-1171038095Y119538990D01*
X-1171038095Y119538990D02*
X-1171133333Y119491371D01*
X-1171133333Y119491371D02*
X-1171514285Y119491371D01*
X-1169990476Y119015180D02*
X-1170561904Y119015180D01*
X-1170276190Y119015180D02*
X-1170276190Y120015180D01*
X-1170276190Y120015180D02*
X-1170371428Y119872323D01*
X-1170371428Y119872323D02*
X-1170466666Y119777085D01*
X-1170466666Y119777085D02*
X-1170561904Y119729466D01*
X-1169514285Y119015180D02*
X-1169323809Y119015180D01*
X-1169323809Y119015180D02*
X-1169228571Y119062800D01*
X-1169228571Y119062800D02*
X-1169180952Y119110419D01*
X-1169180952Y119110419D02*
X-1169085714Y119253276D01*
X-1169085714Y119253276D02*
X-1169038095Y119443752D01*
X-1169038095Y119443752D02*
X-1169038095Y119824704D01*
X-1169038095Y119824704D02*
X-1169085714Y119919942D01*
X-1169085714Y119919942D02*
X-1169133333Y119967561D01*
X-1169133333Y119967561D02*
X-1169228571Y120015180D01*
X-1169228571Y120015180D02*
X-1169419047Y120015180D01*
X-1169419047Y120015180D02*
X-1169514285Y119967561D01*
X-1169514285Y119967561D02*
X-1169561904Y119919942D01*
X-1169561904Y119919942D02*
X-1169609523Y119824704D01*
X-1169609523Y119824704D02*
X-1169609523Y119586609D01*
X-1169609523Y119586609D02*
X-1169561904Y119491371D01*
X-1169561904Y119491371D02*
X-1169514285Y119443752D01*
X-1169514285Y119443752D02*
X-1169419047Y119396133D01*
X-1169419047Y119396133D02*
X-1169228571Y119396133D01*
X-1169228571Y119396133D02*
X-1169133333Y119443752D01*
X-1169133333Y119443752D02*
X-1169085714Y119491371D01*
X-1169085714Y119491371D02*
X-1169038095Y119586609D01*
X-1185633333Y52086680D02*
X-1185633333Y51372395D01*
X-1185633333Y51372395D02*
X-1185680952Y51229538D01*
X-1185680952Y51229538D02*
X-1185776190Y51134300D01*
X-1185776190Y51134300D02*
X-1185919047Y51086680D01*
X-1185919047Y51086680D02*
X-1186014285Y51086680D01*
X-1185014285Y51658109D02*
X-1185109523Y51705728D01*
X-1185109523Y51705728D02*
X-1185157142Y51753347D01*
X-1185157142Y51753347D02*
X-1185204761Y51848585D01*
X-1185204761Y51848585D02*
X-1185204761Y51896204D01*
X-1185204761Y51896204D02*
X-1185157142Y51991442D01*
X-1185157142Y51991442D02*
X-1185109523Y52039061D01*
X-1185109523Y52039061D02*
X-1185014285Y52086680D01*
X-1185014285Y52086680D02*
X-1184823809Y52086680D01*
X-1184823809Y52086680D02*
X-1184728571Y52039061D01*
X-1184728571Y52039061D02*
X-1184680952Y51991442D01*
X-1184680952Y51991442D02*
X-1184633333Y51896204D01*
X-1184633333Y51896204D02*
X-1184633333Y51848585D01*
X-1184633333Y51848585D02*
X-1184680952Y51753347D01*
X-1184680952Y51753347D02*
X-1184728571Y51705728D01*
X-1184728571Y51705728D02*
X-1184823809Y51658109D01*
X-1184823809Y51658109D02*
X-1185014285Y51658109D01*
X-1185014285Y51658109D02*
X-1185109523Y51610490D01*
X-1185109523Y51610490D02*
X-1185157142Y51562871D01*
X-1185157142Y51562871D02*
X-1185204761Y51467633D01*
X-1185204761Y51467633D02*
X-1185204761Y51277157D01*
X-1185204761Y51277157D02*
X-1185157142Y51181919D01*
X-1185157142Y51181919D02*
X-1185109523Y51134300D01*
X-1185109523Y51134300D02*
X-1185014285Y51086680D01*
X-1185014285Y51086680D02*
X-1184823809Y51086680D01*
X-1184823809Y51086680D02*
X-1184728571Y51134300D01*
X-1184728571Y51134300D02*
X-1184680952Y51181919D01*
X-1184680952Y51181919D02*
X-1184633333Y51277157D01*
X-1184633333Y51277157D02*
X-1184633333Y51467633D01*
X-1184633333Y51467633D02*
X-1184680952Y51562871D01*
X-1184680952Y51562871D02*
X-1184728571Y51610490D01*
X-1184728571Y51610490D02*
X-1184823809Y51658109D01*
X-1167909523Y79645180D02*
X-1167909523Y78930895D01*
X-1167909523Y78930895D02*
X-1167957142Y78788038D01*
X-1167957142Y78788038D02*
X-1168052380Y78692800D01*
X-1168052380Y78692800D02*
X-1168195237Y78645180D01*
X-1168195237Y78645180D02*
X-1168290475Y78645180D01*
X-1166909523Y78645180D02*
X-1167480951Y78645180D01*
X-1167195237Y78645180D02*
X-1167195237Y79645180D01*
X-1167195237Y79645180D02*
X-1167290475Y79502323D01*
X-1167290475Y79502323D02*
X-1167385713Y79407085D01*
X-1167385713Y79407085D02*
X-1167480951Y79359466D01*
X-1166576189Y79645180D02*
X-1165957142Y79645180D01*
X-1165957142Y79645180D02*
X-1166290475Y79264228D01*
X-1166290475Y79264228D02*
X-1166147618Y79264228D01*
X-1166147618Y79264228D02*
X-1166052380Y79216609D01*
X-1166052380Y79216609D02*
X-1166004761Y79168990D01*
X-1166004761Y79168990D02*
X-1165957142Y79073752D01*
X-1165957142Y79073752D02*
X-1165957142Y78835657D01*
X-1165957142Y78835657D02*
X-1166004761Y78740419D01*
X-1166004761Y78740419D02*
X-1166052380Y78692800D01*
X-1166052380Y78692800D02*
X-1166147618Y78645180D01*
X-1166147618Y78645180D02*
X-1166433332Y78645180D01*
X-1166433332Y78645180D02*
X-1166528570Y78692800D01*
X-1166528570Y78692800D02*
X-1166576189Y78740419D01*
X-1185145180Y118066666D02*
X-1184430895Y118066666D01*
X-1184430895Y118066666D02*
X-1184288038Y118019047D01*
X-1184288038Y118019047D02*
X-1184192800Y117923809D01*
X-1184192800Y117923809D02*
X-1184145180Y117780952D01*
X-1184145180Y117780952D02*
X-1184145180Y117685714D01*
X-1184145180Y118542857D02*
X-1185145180Y118542857D01*
X-1185145180Y118542857D02*
X-1185145180Y118923809D01*
X-1185145180Y118923809D02*
X-1185097561Y119019047D01*
X-1185097561Y119019047D02*
X-1185049942Y119066666D01*
X-1185049942Y119066666D02*
X-1184954704Y119114285D01*
X-1184954704Y119114285D02*
X-1184811847Y119114285D01*
X-1184811847Y119114285D02*
X-1184716609Y119066666D01*
X-1184716609Y119066666D02*
X-1184668990Y119019047D01*
X-1184668990Y119019047D02*
X-1184621371Y118923809D01*
X-1184621371Y118923809D02*
X-1184621371Y118542857D01*
X-1185049942Y119495238D02*
X-1185097561Y119542857D01*
X-1185097561Y119542857D02*
X-1185145180Y119638095D01*
X-1185145180Y119638095D02*
X-1185145180Y119876190D01*
X-1185145180Y119876190D02*
X-1185097561Y119971428D01*
X-1185097561Y119971428D02*
X-1185049942Y120019047D01*
X-1185049942Y120019047D02*
X-1184954704Y120066666D01*
X-1184954704Y120066666D02*
X-1184859466Y120066666D01*
X-1184859466Y120066666D02*
X-1184716609Y120019047D01*
X-1184716609Y120019047D02*
X-1184145180Y119447619D01*
X-1184145180Y119447619D02*
X-1184145180Y120066666D01*
X-1104633333Y125245180D02*
X-1104633333Y124530895D01*
X-1104633333Y124530895D02*
X-1104680952Y124388038D01*
X-1104680952Y124388038D02*
X-1104776190Y124292800D01*
X-1104776190Y124292800D02*
X-1104919047Y124245180D01*
X-1104919047Y124245180D02*
X-1105014285Y124245180D01*
X-1103728571Y124911847D02*
X-1103728571Y124245180D01*
X-1103966666Y125292800D02*
X-1104204761Y124578514D01*
X-1104204761Y124578514D02*
X-1103585714Y124578514D01*
X-1152195238Y99449942D02*
X-1152290476Y99497561D01*
X-1152290476Y99497561D02*
X-1152385714Y99592800D01*
X-1152385714Y99592800D02*
X-1152528571Y99735657D01*
X-1152528571Y99735657D02*
X-1152623809Y99783276D01*
X-1152623809Y99783276D02*
X-1152719047Y99783276D01*
X-1152671428Y99545180D02*
X-1152766666Y99592800D01*
X-1152766666Y99592800D02*
X-1152861904Y99688038D01*
X-1152861904Y99688038D02*
X-1152909523Y99878514D01*
X-1152909523Y99878514D02*
X-1152909523Y100211847D01*
X-1152909523Y100211847D02*
X-1152861904Y100402323D01*
X-1152861904Y100402323D02*
X-1152766666Y100497561D01*
X-1152766666Y100497561D02*
X-1152671428Y100545180D01*
X-1152671428Y100545180D02*
X-1152480952Y100545180D01*
X-1152480952Y100545180D02*
X-1152385714Y100497561D01*
X-1152385714Y100497561D02*
X-1152290476Y100402323D01*
X-1152290476Y100402323D02*
X-1152242857Y100211847D01*
X-1152242857Y100211847D02*
X-1152242857Y99878514D01*
X-1152242857Y99878514D02*
X-1152290476Y99688038D01*
X-1152290476Y99688038D02*
X-1152385714Y99592800D01*
X-1152385714Y99592800D02*
X-1152480952Y99545180D01*
X-1152480952Y99545180D02*
X-1152671428Y99545180D01*
X-1151766666Y99545180D02*
X-1151576190Y99545180D01*
X-1151576190Y99545180D02*
X-1151480952Y99592800D01*
X-1151480952Y99592800D02*
X-1151433333Y99640419D01*
X-1151433333Y99640419D02*
X-1151338095Y99783276D01*
X-1151338095Y99783276D02*
X-1151290476Y99973752D01*
X-1151290476Y99973752D02*
X-1151290476Y100354704D01*
X-1151290476Y100354704D02*
X-1151338095Y100449942D01*
X-1151338095Y100449942D02*
X-1151385714Y100497561D01*
X-1151385714Y100497561D02*
X-1151480952Y100545180D01*
X-1151480952Y100545180D02*
X-1151671428Y100545180D01*
X-1151671428Y100545180D02*
X-1151766666Y100497561D01*
X-1151766666Y100497561D02*
X-1151814285Y100449942D01*
X-1151814285Y100449942D02*
X-1151861904Y100354704D01*
X-1151861904Y100354704D02*
X-1151861904Y100116609D01*
X-1151861904Y100116609D02*
X-1151814285Y100021371D01*
X-1151814285Y100021371D02*
X-1151766666Y99973752D01*
X-1151766666Y99973752D02*
X-1151671428Y99926133D01*
X-1151671428Y99926133D02*
X-1151480952Y99926133D01*
X-1151480952Y99926133D02*
X-1151385714Y99973752D01*
X-1151385714Y99973752D02*
X-1151338095Y100021371D01*
X-1151338095Y100021371D02*
X-1151290476Y100116609D01*
X-1103866666Y87140419D02*
X-1103914285Y87092800D01*
X-1103914285Y87092800D02*
X-1104057142Y87045180D01*
X-1104057142Y87045180D02*
X-1104152380Y87045180D01*
X-1104152380Y87045180D02*
X-1104295237Y87092800D01*
X-1104295237Y87092800D02*
X-1104390475Y87188038D01*
X-1104390475Y87188038D02*
X-1104438094Y87283276D01*
X-1104438094Y87283276D02*
X-1104485713Y87473752D01*
X-1104485713Y87473752D02*
X-1104485713Y87616609D01*
X-1104485713Y87616609D02*
X-1104438094Y87807085D01*
X-1104438094Y87807085D02*
X-1104390475Y87902323D01*
X-1104390475Y87902323D02*
X-1104295237Y87997561D01*
X-1104295237Y87997561D02*
X-1104152380Y88045180D01*
X-1104152380Y88045180D02*
X-1104057142Y88045180D01*
X-1104057142Y88045180D02*
X-1103914285Y87997561D01*
X-1103914285Y87997561D02*
X-1103866666Y87949942D01*
X-1103009523Y88045180D02*
X-1103199999Y88045180D01*
X-1103199999Y88045180D02*
X-1103295237Y87997561D01*
X-1103295237Y87997561D02*
X-1103342856Y87949942D01*
X-1103342856Y87949942D02*
X-1103438094Y87807085D01*
X-1103438094Y87807085D02*
X-1103485713Y87616609D01*
X-1103485713Y87616609D02*
X-1103485713Y87235657D01*
X-1103485713Y87235657D02*
X-1103438094Y87140419D01*
X-1103438094Y87140419D02*
X-1103390475Y87092800D01*
X-1103390475Y87092800D02*
X-1103295237Y87045180D01*
X-1103295237Y87045180D02*
X-1103104761Y87045180D01*
X-1103104761Y87045180D02*
X-1103009523Y87092800D01*
X-1103009523Y87092800D02*
X-1102961904Y87140419D01*
X-1102961904Y87140419D02*
X-1102914285Y87235657D01*
X-1102914285Y87235657D02*
X-1102914285Y87473752D01*
X-1102914285Y87473752D02*
X-1102961904Y87568990D01*
X-1102961904Y87568990D02*
X-1103009523Y87616609D01*
X-1103009523Y87616609D02*
X-1103104761Y87664228D01*
X-1103104761Y87664228D02*
X-1103295237Y87664228D01*
X-1103295237Y87664228D02*
X-1103390475Y87616609D01*
X-1103390475Y87616609D02*
X-1103438094Y87568990D01*
X-1103438094Y87568990D02*
X-1103485713Y87473752D01*
X-1165538094Y70775180D02*
X-1165538094Y71775180D01*
X-1165538094Y71775180D02*
X-1165299999Y71775180D01*
X-1165299999Y71775180D02*
X-1165157142Y71727561D01*
X-1165157142Y71727561D02*
X-1165061904Y71632323D01*
X-1165061904Y71632323D02*
X-1165014285Y71537085D01*
X-1165014285Y71537085D02*
X-1164966666Y71346609D01*
X-1164966666Y71346609D02*
X-1164966666Y71203752D01*
X-1164966666Y71203752D02*
X-1165014285Y71013276D01*
X-1165014285Y71013276D02*
X-1165061904Y70918038D01*
X-1165061904Y70918038D02*
X-1165157142Y70822800D01*
X-1165157142Y70822800D02*
X-1165299999Y70775180D01*
X-1165299999Y70775180D02*
X-1165538094Y70775180D01*
X-1164109523Y71441847D02*
X-1164109523Y70775180D01*
X-1164347618Y71822800D02*
X-1164585713Y71108514D01*
X-1164585713Y71108514D02*
X-1163966666Y71108514D01*
X-1140645180Y118238095D02*
X-1139835657Y118238095D01*
X-1139835657Y118238095D02*
X-1139740419Y118285714D01*
X-1139740419Y118285714D02*
X-1139692800Y118333333D01*
X-1139692800Y118333333D02*
X-1139645180Y118428571D01*
X-1139645180Y118428571D02*
X-1139645180Y118619047D01*
X-1139645180Y118619047D02*
X-1139692800Y118714285D01*
X-1139692800Y118714285D02*
X-1139740419Y118761904D01*
X-1139740419Y118761904D02*
X-1139835657Y118809523D01*
X-1139835657Y118809523D02*
X-1140645180Y118809523D01*
X-1140645180Y119190476D02*
X-1140645180Y119809523D01*
X-1140645180Y119809523D02*
X-1140264228Y119476190D01*
X-1140264228Y119476190D02*
X-1140264228Y119619047D01*
X-1140264228Y119619047D02*
X-1140216609Y119714285D01*
X-1140216609Y119714285D02*
X-1140168990Y119761904D01*
X-1140168990Y119761904D02*
X-1140073752Y119809523D01*
X-1140073752Y119809523D02*
X-1139835657Y119809523D01*
X-1139835657Y119809523D02*
X-1139740419Y119761904D01*
X-1139740419Y119761904D02*
X-1139692800Y119714285D01*
X-1139692800Y119714285D02*
X-1139645180Y119619047D01*
X-1139645180Y119619047D02*
X-1139645180Y119333333D01*
X-1139645180Y119333333D02*
X-1139692800Y119238095D01*
X-1139692800Y119238095D02*
X-1139740419Y119190476D01*
X-1164433333Y123845180D02*
X-1164433333Y123130895D01*
X-1164433333Y123130895D02*
X-1164480952Y122988038D01*
X-1164480952Y122988038D02*
X-1164576190Y122892800D01*
X-1164576190Y122892800D02*
X-1164719047Y122845180D01*
X-1164719047Y122845180D02*
X-1164814285Y122845180D01*
X-1163480952Y123845180D02*
X-1163957142Y123845180D01*
X-1163957142Y123845180D02*
X-1164004761Y123368990D01*
X-1164004761Y123368990D02*
X-1163957142Y123416609D01*
X-1163957142Y123416609D02*
X-1163861904Y123464228D01*
X-1163861904Y123464228D02*
X-1163623809Y123464228D01*
X-1163623809Y123464228D02*
X-1163528571Y123416609D01*
X-1163528571Y123416609D02*
X-1163480952Y123368990D01*
X-1163480952Y123368990D02*
X-1163433333Y123273752D01*
X-1163433333Y123273752D02*
X-1163433333Y123035657D01*
X-1163433333Y123035657D02*
X-1163480952Y122940419D01*
X-1163480952Y122940419D02*
X-1163528571Y122892800D01*
X-1163528571Y122892800D02*
X-1163623809Y122845180D01*
X-1163623809Y122845180D02*
X-1163861904Y122845180D01*
X-1163861904Y122845180D02*
X-1163957142Y122892800D01*
X-1163957142Y122892800D02*
X-1164004761Y122940419D01*
X-1126542857Y117575180D02*
X-1126876190Y118051371D01*
X-1127114285Y117575180D02*
X-1127114285Y118575180D01*
X-1127114285Y118575180D02*
X-1126733333Y118575180D01*
X-1126733333Y118575180D02*
X-1126638095Y118527561D01*
X-1126638095Y118527561D02*
X-1126590476Y118479942D01*
X-1126590476Y118479942D02*
X-1126542857Y118384704D01*
X-1126542857Y118384704D02*
X-1126542857Y118241847D01*
X-1126542857Y118241847D02*
X-1126590476Y118146609D01*
X-1126590476Y118146609D02*
X-1126638095Y118098990D01*
X-1126638095Y118098990D02*
X-1126733333Y118051371D01*
X-1126733333Y118051371D02*
X-1127114285Y118051371D01*
X-1125590476Y117575180D02*
X-1126161904Y117575180D01*
X-1125876190Y117575180D02*
X-1125876190Y118575180D01*
X-1125876190Y118575180D02*
X-1125971428Y118432323D01*
X-1125971428Y118432323D02*
X-1126066666Y118337085D01*
X-1126066666Y118337085D02*
X-1126161904Y118289466D01*
X-1124733333Y118241847D02*
X-1124733333Y117575180D01*
X-1124971428Y118622800D02*
X-1125209523Y117908514D01*
X-1125209523Y117908514D02*
X-1124590476Y117908514D01*
X-1178245180Y117790476D02*
X-1177530895Y117790476D01*
X-1177530895Y117790476D02*
X-1177388038Y117742857D01*
X-1177388038Y117742857D02*
X-1177292800Y117647619D01*
X-1177292800Y117647619D02*
X-1177245180Y117504762D01*
X-1177245180Y117504762D02*
X-1177245180Y117409524D01*
X-1177245180Y118266667D02*
X-1178245180Y118266667D01*
X-1178245180Y118266667D02*
X-1178245180Y118647619D01*
X-1178245180Y118647619D02*
X-1178197561Y118742857D01*
X-1178197561Y118742857D02*
X-1178149942Y118790476D01*
X-1178149942Y118790476D02*
X-1178054704Y118838095D01*
X-1178054704Y118838095D02*
X-1177911847Y118838095D01*
X-1177911847Y118838095D02*
X-1177816609Y118790476D01*
X-1177816609Y118790476D02*
X-1177768990Y118742857D01*
X-1177768990Y118742857D02*
X-1177721371Y118647619D01*
X-1177721371Y118647619D02*
X-1177721371Y118266667D01*
X-1177245180Y119790476D02*
X-1177245180Y119219048D01*
X-1177245180Y119504762D02*
X-1178245180Y119504762D01*
X-1178245180Y119504762D02*
X-1178102323Y119409524D01*
X-1178102323Y119409524D02*
X-1178007085Y119314286D01*
X-1178007085Y119314286D02*
X-1177959466Y119219048D01*
X-1178245180Y120409524D02*
X-1178245180Y120504762D01*
X-1178245180Y120504762D02*
X-1178197561Y120600000D01*
X-1178197561Y120600000D02*
X-1178149942Y120647619D01*
X-1178149942Y120647619D02*
X-1178054704Y120695238D01*
X-1178054704Y120695238D02*
X-1177864228Y120742857D01*
X-1177864228Y120742857D02*
X-1177626133Y120742857D01*
X-1177626133Y120742857D02*
X-1177435657Y120695238D01*
X-1177435657Y120695238D02*
X-1177340419Y120647619D01*
X-1177340419Y120647619D02*
X-1177292800Y120600000D01*
X-1177292800Y120600000D02*
X-1177245180Y120504762D01*
X-1177245180Y120504762D02*
X-1177245180Y120409524D01*
X-1177245180Y120409524D02*
X-1177292800Y120314286D01*
X-1177292800Y120314286D02*
X-1177340419Y120266667D01*
X-1177340419Y120266667D02*
X-1177435657Y120219048D01*
X-1177435657Y120219048D02*
X-1177626133Y120171429D01*
X-1177626133Y120171429D02*
X-1177864228Y120171429D01*
X-1177864228Y120171429D02*
X-1178054704Y120219048D01*
X-1178054704Y120219048D02*
X-1178149942Y120266667D01*
X-1178149942Y120266667D02*
X-1178197561Y120314286D01*
X-1178197561Y120314286D02*
X-1178245180Y120409524D01*
X-1133640419Y72533333D02*
X-1133592800Y72485714D01*
X-1133592800Y72485714D02*
X-1133545180Y72342857D01*
X-1133545180Y72342857D02*
X-1133545180Y72247619D01*
X-1133545180Y72247619D02*
X-1133592800Y72104762D01*
X-1133592800Y72104762D02*
X-1133688038Y72009524D01*
X-1133688038Y72009524D02*
X-1133783276Y71961905D01*
X-1133783276Y71961905D02*
X-1133973752Y71914286D01*
X-1133973752Y71914286D02*
X-1134116609Y71914286D01*
X-1134116609Y71914286D02*
X-1134307085Y71961905D01*
X-1134307085Y71961905D02*
X-1134402323Y72009524D01*
X-1134402323Y72009524D02*
X-1134497561Y72104762D01*
X-1134497561Y72104762D02*
X-1134545180Y72247619D01*
X-1134545180Y72247619D02*
X-1134545180Y72342857D01*
X-1134545180Y72342857D02*
X-1134497561Y72485714D01*
X-1134497561Y72485714D02*
X-1134449942Y72533333D01*
X-1134545180Y73438095D02*
X-1134545180Y72961905D01*
X-1134545180Y72961905D02*
X-1134068990Y72914286D01*
X-1134068990Y72914286D02*
X-1134116609Y72961905D01*
X-1134116609Y72961905D02*
X-1134164228Y73057143D01*
X-1134164228Y73057143D02*
X-1134164228Y73295238D01*
X-1134164228Y73295238D02*
X-1134116609Y73390476D01*
X-1134116609Y73390476D02*
X-1134068990Y73438095D01*
X-1134068990Y73438095D02*
X-1133973752Y73485714D01*
X-1133973752Y73485714D02*
X-1133735657Y73485714D01*
X-1133735657Y73485714D02*
X-1133640419Y73438095D01*
X-1133640419Y73438095D02*
X-1133592800Y73390476D01*
X-1133592800Y73390476D02*
X-1133545180Y73295238D01*
X-1133545180Y73295238D02*
X-1133545180Y73057143D01*
X-1133545180Y73057143D02*
X-1133592800Y72961905D01*
X-1133592800Y72961905D02*
X-1133640419Y72914286D01*
X-1189645180Y110466666D02*
X-1188930895Y110466666D01*
X-1188930895Y110466666D02*
X-1188788038Y110419047D01*
X-1188788038Y110419047D02*
X-1188692800Y110323809D01*
X-1188692800Y110323809D02*
X-1188645180Y110180952D01*
X-1188645180Y110180952D02*
X-1188645180Y110085714D01*
X-1188645180Y110942857D02*
X-1189645180Y110942857D01*
X-1189645180Y110942857D02*
X-1189645180Y111323809D01*
X-1189645180Y111323809D02*
X-1189597561Y111419047D01*
X-1189597561Y111419047D02*
X-1189549942Y111466666D01*
X-1189549942Y111466666D02*
X-1189454704Y111514285D01*
X-1189454704Y111514285D02*
X-1189311847Y111514285D01*
X-1189311847Y111514285D02*
X-1189216609Y111466666D01*
X-1189216609Y111466666D02*
X-1189168990Y111419047D01*
X-1189168990Y111419047D02*
X-1189121371Y111323809D01*
X-1189121371Y111323809D02*
X-1189121371Y110942857D01*
X-1189645180Y112419047D02*
X-1189645180Y111942857D01*
X-1189645180Y111942857D02*
X-1189168990Y111895238D01*
X-1189168990Y111895238D02*
X-1189216609Y111942857D01*
X-1189216609Y111942857D02*
X-1189264228Y112038095D01*
X-1189264228Y112038095D02*
X-1189264228Y112276190D01*
X-1189264228Y112276190D02*
X-1189216609Y112371428D01*
X-1189216609Y112371428D02*
X-1189168990Y112419047D01*
X-1189168990Y112419047D02*
X-1189073752Y112466666D01*
X-1189073752Y112466666D02*
X-1188835657Y112466666D01*
X-1188835657Y112466666D02*
X-1188740419Y112419047D01*
X-1188740419Y112419047D02*
X-1188692800Y112371428D01*
X-1188692800Y112371428D02*
X-1188645180Y112276190D01*
X-1188645180Y112276190D02*
X-1188645180Y112038095D01*
X-1188645180Y112038095D02*
X-1188692800Y111942857D01*
X-1188692800Y111942857D02*
X-1188740419Y111895238D01*
X-1186961904Y127045180D02*
X-1186961904Y128045180D01*
X-1186961904Y127568990D02*
X-1186390476Y127568990D01*
X-1186390476Y127045180D02*
X-1186390476Y128045180D01*
X-1185961904Y127949942D02*
X-1185914285Y127997561D01*
X-1185914285Y127997561D02*
X-1185819047Y128045180D01*
X-1185819047Y128045180D02*
X-1185580952Y128045180D01*
X-1185580952Y128045180D02*
X-1185485714Y127997561D01*
X-1185485714Y127997561D02*
X-1185438095Y127949942D01*
X-1185438095Y127949942D02*
X-1185390476Y127854704D01*
X-1185390476Y127854704D02*
X-1185390476Y127759466D01*
X-1185390476Y127759466D02*
X-1185438095Y127616609D01*
X-1185438095Y127616609D02*
X-1186009523Y127045180D01*
X-1186009523Y127045180D02*
X-1185390476Y127045180D01*
X-1151345180Y96457142D02*
X-1151821371Y96123809D01*
X-1151345180Y95885714D02*
X-1152345180Y95885714D01*
X-1152345180Y95885714D02*
X-1152345180Y96266666D01*
X-1152345180Y96266666D02*
X-1152297561Y96361904D01*
X-1152297561Y96361904D02*
X-1152249942Y96409523D01*
X-1152249942Y96409523D02*
X-1152154704Y96457142D01*
X-1152154704Y96457142D02*
X-1152011847Y96457142D01*
X-1152011847Y96457142D02*
X-1151916609Y96409523D01*
X-1151916609Y96409523D02*
X-1151868990Y96361904D01*
X-1151868990Y96361904D02*
X-1151821371Y96266666D01*
X-1151821371Y96266666D02*
X-1151821371Y95885714D01*
X-1152249942Y96838095D02*
X-1152297561Y96885714D01*
X-1152297561Y96885714D02*
X-1152345180Y96980952D01*
X-1152345180Y96980952D02*
X-1152345180Y97219047D01*
X-1152345180Y97219047D02*
X-1152297561Y97314285D01*
X-1152297561Y97314285D02*
X-1152249942Y97361904D01*
X-1152249942Y97361904D02*
X-1152154704Y97409523D01*
X-1152154704Y97409523D02*
X-1152059466Y97409523D01*
X-1152059466Y97409523D02*
X-1151916609Y97361904D01*
X-1151916609Y97361904D02*
X-1151345180Y96790476D01*
X-1151345180Y96790476D02*
X-1151345180Y97409523D01*
X-1151345180Y98361904D02*
X-1151345180Y97790476D01*
X-1151345180Y98076190D02*
X-1152345180Y98076190D01*
X-1152345180Y98076190D02*
X-1152202323Y97980952D01*
X-1152202323Y97980952D02*
X-1152107085Y97885714D01*
X-1152107085Y97885714D02*
X-1152059466Y97790476D01*
X-1141538094Y52045180D02*
X-1141538094Y53045180D01*
X-1140966666Y52045180D02*
X-1141395237Y52616609D01*
X-1140966666Y53045180D02*
X-1141538094Y52473752D01*
X-1140014285Y52045180D02*
X-1140585713Y52045180D01*
X-1140299999Y52045180D02*
X-1140299999Y53045180D01*
X-1140299999Y53045180D02*
X-1140395237Y52902323D01*
X-1140395237Y52902323D02*
X-1140490475Y52807085D01*
X-1140490475Y52807085D02*
X-1140585713Y52759466D01*
X-1124609523Y89545180D02*
X-1124609523Y88830895D01*
X-1124609523Y88830895D02*
X-1124657142Y88688038D01*
X-1124657142Y88688038D02*
X-1124752380Y88592800D01*
X-1124752380Y88592800D02*
X-1124895237Y88545180D01*
X-1124895237Y88545180D02*
X-1124990475Y88545180D01*
X-1123609523Y88545180D02*
X-1124180951Y88545180D01*
X-1123895237Y88545180D02*
X-1123895237Y89545180D01*
X-1123895237Y89545180D02*
X-1123990475Y89402323D01*
X-1123990475Y89402323D02*
X-1124085713Y89307085D01*
X-1124085713Y89307085D02*
X-1124180951Y89259466D01*
X-1122657142Y88545180D02*
X-1123228570Y88545180D01*
X-1122942856Y88545180D02*
X-1122942856Y89545180D01*
X-1122942856Y89545180D02*
X-1123038094Y89402323D01*
X-1123038094Y89402323D02*
X-1123133332Y89307085D01*
X-1123133332Y89307085D02*
X-1123228570Y89259466D01*
X-1111367857Y93115180D02*
X-1111701190Y93591371D01*
X-1111939285Y93115180D02*
X-1111939285Y94115180D01*
X-1111939285Y94115180D02*
X-1111558333Y94115180D01*
X-1111558333Y94115180D02*
X-1111463095Y94067561D01*
X-1111463095Y94067561D02*
X-1111415476Y94019942D01*
X-1111415476Y94019942D02*
X-1111367857Y93924704D01*
X-1111367857Y93924704D02*
X-1111367857Y93781847D01*
X-1111367857Y93781847D02*
X-1111415476Y93686609D01*
X-1111415476Y93686609D02*
X-1111463095Y93638990D01*
X-1111463095Y93638990D02*
X-1111558333Y93591371D01*
X-1111558333Y93591371D02*
X-1111939285Y93591371D01*
X-1110986904Y94019942D02*
X-1110939285Y94067561D01*
X-1110939285Y94067561D02*
X-1110844047Y94115180D01*
X-1110844047Y94115180D02*
X-1110605952Y94115180D01*
X-1110605952Y94115180D02*
X-1110510714Y94067561D01*
X-1110510714Y94067561D02*
X-1110463095Y94019942D01*
X-1110463095Y94019942D02*
X-1110415476Y93924704D01*
X-1110415476Y93924704D02*
X-1110415476Y93829466D01*
X-1110415476Y93829466D02*
X-1110463095Y93686609D01*
X-1110463095Y93686609D02*
X-1111034523Y93115180D01*
X-1111034523Y93115180D02*
X-1110415476Y93115180D01*
X-1110034523Y94019942D02*
X-1109986904Y94067561D01*
X-1109986904Y94067561D02*
X-1109891666Y94115180D01*
X-1109891666Y94115180D02*
X-1109653571Y94115180D01*
X-1109653571Y94115180D02*
X-1109558333Y94067561D01*
X-1109558333Y94067561D02*
X-1109510714Y94019942D01*
X-1109510714Y94019942D02*
X-1109463095Y93924704D01*
X-1109463095Y93924704D02*
X-1109463095Y93829466D01*
X-1109463095Y93829466D02*
X-1109510714Y93686609D01*
X-1109510714Y93686609D02*
X-1110082142Y93115180D01*
X-1110082142Y93115180D02*
X-1109463095Y93115180D01*
X-1104258332Y62719800D02*
X-1104115475Y62672180D01*
X-1104115475Y62672180D02*
X-1103877380Y62672180D01*
X-1103877380Y62672180D02*
X-1103782142Y62719800D01*
X-1103782142Y62719800D02*
X-1103734523Y62767419D01*
X-1103734523Y62767419D02*
X-1103686904Y62862657D01*
X-1103686904Y62862657D02*
X-1103686904Y62957895D01*
X-1103686904Y62957895D02*
X-1103734523Y63053133D01*
X-1103734523Y63053133D02*
X-1103782142Y63100752D01*
X-1103782142Y63100752D02*
X-1103877380Y63148371D01*
X-1103877380Y63148371D02*
X-1104067856Y63195990D01*
X-1104067856Y63195990D02*
X-1104163094Y63243609D01*
X-1104163094Y63243609D02*
X-1104210713Y63291228D01*
X-1104210713Y63291228D02*
X-1104258332Y63386466D01*
X-1104258332Y63386466D02*
X-1104258332Y63481704D01*
X-1104258332Y63481704D02*
X-1104210713Y63576942D01*
X-1104210713Y63576942D02*
X-1104163094Y63624561D01*
X-1104163094Y63624561D02*
X-1104067856Y63672180D01*
X-1104067856Y63672180D02*
X-1103829761Y63672180D01*
X-1103829761Y63672180D02*
X-1103686904Y63624561D01*
X-1103353570Y63672180D02*
X-1103115475Y62672180D01*
X-1103115475Y62672180D02*
X-1102924999Y63386466D01*
X-1102924999Y63386466D02*
X-1102734523Y62672180D01*
X-1102734523Y62672180D02*
X-1102496428Y63672180D01*
X-1101591666Y62672180D02*
X-1102163094Y62672180D01*
X-1101877380Y62672180D02*
X-1101877380Y63672180D01*
X-1101877380Y63672180D02*
X-1101972618Y63529323D01*
X-1101972618Y63529323D02*
X-1102067856Y63434085D01*
X-1102067856Y63434085D02*
X-1102163094Y63386466D01*
X-1128640419Y70533333D02*
X-1128592800Y70485714D01*
X-1128592800Y70485714D02*
X-1128545180Y70342857D01*
X-1128545180Y70342857D02*
X-1128545180Y70247619D01*
X-1128545180Y70247619D02*
X-1128592800Y70104762D01*
X-1128592800Y70104762D02*
X-1128688038Y70009524D01*
X-1128688038Y70009524D02*
X-1128783276Y69961905D01*
X-1128783276Y69961905D02*
X-1128973752Y69914286D01*
X-1128973752Y69914286D02*
X-1129116609Y69914286D01*
X-1129116609Y69914286D02*
X-1129307085Y69961905D01*
X-1129307085Y69961905D02*
X-1129402323Y70009524D01*
X-1129402323Y70009524D02*
X-1129497561Y70104762D01*
X-1129497561Y70104762D02*
X-1129545180Y70247619D01*
X-1129545180Y70247619D02*
X-1129545180Y70342857D01*
X-1129545180Y70342857D02*
X-1129497561Y70485714D01*
X-1129497561Y70485714D02*
X-1129449942Y70533333D01*
X-1129545180Y70866667D02*
X-1129545180Y71485714D01*
X-1129545180Y71485714D02*
X-1129164228Y71152381D01*
X-1129164228Y71152381D02*
X-1129164228Y71295238D01*
X-1129164228Y71295238D02*
X-1129116609Y71390476D01*
X-1129116609Y71390476D02*
X-1129068990Y71438095D01*
X-1129068990Y71438095D02*
X-1128973752Y71485714D01*
X-1128973752Y71485714D02*
X-1128735657Y71485714D01*
X-1128735657Y71485714D02*
X-1128640419Y71438095D01*
X-1128640419Y71438095D02*
X-1128592800Y71390476D01*
X-1128592800Y71390476D02*
X-1128545180Y71295238D01*
X-1128545180Y71295238D02*
X-1128545180Y71009524D01*
X-1128545180Y71009524D02*
X-1128592800Y70914286D01*
X-1128592800Y70914286D02*
X-1128640419Y70866667D01*
X-1134375180Y96882142D02*
X-1134851371Y96548809D01*
X-1134375180Y96310714D02*
X-1135375180Y96310714D01*
X-1135375180Y96310714D02*
X-1135375180Y96691666D01*
X-1135375180Y96691666D02*
X-1135327561Y96786904D01*
X-1135327561Y96786904D02*
X-1135279942Y96834523D01*
X-1135279942Y96834523D02*
X-1135184704Y96882142D01*
X-1135184704Y96882142D02*
X-1135041847Y96882142D01*
X-1135041847Y96882142D02*
X-1134946609Y96834523D01*
X-1134946609Y96834523D02*
X-1134898990Y96786904D01*
X-1134898990Y96786904D02*
X-1134851371Y96691666D01*
X-1134851371Y96691666D02*
X-1134851371Y96310714D01*
X-1134375180Y97834523D02*
X-1134375180Y97263095D01*
X-1134375180Y97548809D02*
X-1135375180Y97548809D01*
X-1135375180Y97548809D02*
X-1135232323Y97453571D01*
X-1135232323Y97453571D02*
X-1135137085Y97358333D01*
X-1135137085Y97358333D02*
X-1135089466Y97263095D01*
X-1135375180Y98167857D02*
X-1135375180Y98834523D01*
X-1135375180Y98834523D02*
X-1134375180Y98405952D01*
X-1182845180Y115290476D02*
X-1182130895Y115290476D01*
X-1182130895Y115290476D02*
X-1181988038Y115242857D01*
X-1181988038Y115242857D02*
X-1181892800Y115147619D01*
X-1181892800Y115147619D02*
X-1181845180Y115004762D01*
X-1181845180Y115004762D02*
X-1181845180Y114909524D01*
X-1181845180Y115766667D02*
X-1182845180Y115766667D01*
X-1182845180Y115766667D02*
X-1182845180Y116147619D01*
X-1182845180Y116147619D02*
X-1182797561Y116242857D01*
X-1182797561Y116242857D02*
X-1182749942Y116290476D01*
X-1182749942Y116290476D02*
X-1182654704Y116338095D01*
X-1182654704Y116338095D02*
X-1182511847Y116338095D01*
X-1182511847Y116338095D02*
X-1182416609Y116290476D01*
X-1182416609Y116290476D02*
X-1182368990Y116242857D01*
X-1182368990Y116242857D02*
X-1182321371Y116147619D01*
X-1182321371Y116147619D02*
X-1182321371Y115766667D01*
X-1181845180Y117290476D02*
X-1181845180Y116719048D01*
X-1181845180Y117004762D02*
X-1182845180Y117004762D01*
X-1182845180Y117004762D02*
X-1182702323Y116909524D01*
X-1182702323Y116909524D02*
X-1182607085Y116814286D01*
X-1182607085Y116814286D02*
X-1182559466Y116719048D01*
X-1181845180Y118242857D02*
X-1181845180Y117671429D01*
X-1181845180Y117957143D02*
X-1182845180Y117957143D01*
X-1182845180Y117957143D02*
X-1182702323Y117861905D01*
X-1182702323Y117861905D02*
X-1182607085Y117766667D01*
X-1182607085Y117766667D02*
X-1182559466Y117671429D01*
X-1139825180Y108157142D02*
X-1140301371Y107823809D01*
X-1139825180Y107585714D02*
X-1140825180Y107585714D01*
X-1140825180Y107585714D02*
X-1140825180Y107966666D01*
X-1140825180Y107966666D02*
X-1140777561Y108061904D01*
X-1140777561Y108061904D02*
X-1140729942Y108109523D01*
X-1140729942Y108109523D02*
X-1140634704Y108157142D01*
X-1140634704Y108157142D02*
X-1140491847Y108157142D01*
X-1140491847Y108157142D02*
X-1140396609Y108109523D01*
X-1140396609Y108109523D02*
X-1140348990Y108061904D01*
X-1140348990Y108061904D02*
X-1140301371Y107966666D01*
X-1140301371Y107966666D02*
X-1140301371Y107585714D01*
X-1139825180Y109109523D02*
X-1139825180Y108538095D01*
X-1139825180Y108823809D02*
X-1140825180Y108823809D01*
X-1140825180Y108823809D02*
X-1140682323Y108728571D01*
X-1140682323Y108728571D02*
X-1140587085Y108633333D01*
X-1140587085Y108633333D02*
X-1140539466Y108538095D01*
X-1140729942Y109490476D02*
X-1140777561Y109538095D01*
X-1140777561Y109538095D02*
X-1140825180Y109633333D01*
X-1140825180Y109633333D02*
X-1140825180Y109871428D01*
X-1140825180Y109871428D02*
X-1140777561Y109966666D01*
X-1140777561Y109966666D02*
X-1140729942Y110014285D01*
X-1140729942Y110014285D02*
X-1140634704Y110061904D01*
X-1140634704Y110061904D02*
X-1140539466Y110061904D01*
X-1140539466Y110061904D02*
X-1140396609Y110014285D01*
X-1140396609Y110014285D02*
X-1139825180Y109442857D01*
X-1139825180Y109442857D02*
X-1139825180Y110061904D01*
X-1103742857Y108415180D02*
X-1104076190Y108891371D01*
X-1104314285Y108415180D02*
X-1104314285Y109415180D01*
X-1104314285Y109415180D02*
X-1103933333Y109415180D01*
X-1103933333Y109415180D02*
X-1103838095Y109367561D01*
X-1103838095Y109367561D02*
X-1103790476Y109319942D01*
X-1103790476Y109319942D02*
X-1103742857Y109224704D01*
X-1103742857Y109224704D02*
X-1103742857Y109081847D01*
X-1103742857Y109081847D02*
X-1103790476Y108986609D01*
X-1103790476Y108986609D02*
X-1103838095Y108938990D01*
X-1103838095Y108938990D02*
X-1103933333Y108891371D01*
X-1103933333Y108891371D02*
X-1104314285Y108891371D01*
X-1103361904Y109319942D02*
X-1103314285Y109367561D01*
X-1103314285Y109367561D02*
X-1103219047Y109415180D01*
X-1103219047Y109415180D02*
X-1102980952Y109415180D01*
X-1102980952Y109415180D02*
X-1102885714Y109367561D01*
X-1102885714Y109367561D02*
X-1102838095Y109319942D01*
X-1102838095Y109319942D02*
X-1102790476Y109224704D01*
X-1102790476Y109224704D02*
X-1102790476Y109129466D01*
X-1102790476Y109129466D02*
X-1102838095Y108986609D01*
X-1102838095Y108986609D02*
X-1103409523Y108415180D01*
X-1103409523Y108415180D02*
X-1102790476Y108415180D01*
X-1101885714Y109415180D02*
X-1102361904Y109415180D01*
X-1102361904Y109415180D02*
X-1102409523Y108938990D01*
X-1102409523Y108938990D02*
X-1102361904Y108986609D01*
X-1102361904Y108986609D02*
X-1102266666Y109034228D01*
X-1102266666Y109034228D02*
X-1102028571Y109034228D01*
X-1102028571Y109034228D02*
X-1101933333Y108986609D01*
X-1101933333Y108986609D02*
X-1101885714Y108938990D01*
X-1101885714Y108938990D02*
X-1101838095Y108843752D01*
X-1101838095Y108843752D02*
X-1101838095Y108605657D01*
X-1101838095Y108605657D02*
X-1101885714Y108510419D01*
X-1101885714Y108510419D02*
X-1101933333Y108462800D01*
X-1101933333Y108462800D02*
X-1102028571Y108415180D01*
X-1102028571Y108415180D02*
X-1102266666Y108415180D01*
X-1102266666Y108415180D02*
X-1102361904Y108462800D01*
X-1102361904Y108462800D02*
X-1102409523Y108510419D01*
X-1105566666Y98570419D02*
X-1105614285Y98522800D01*
X-1105614285Y98522800D02*
X-1105757142Y98475180D01*
X-1105757142Y98475180D02*
X-1105852380Y98475180D01*
X-1105852380Y98475180D02*
X-1105995237Y98522800D01*
X-1105995237Y98522800D02*
X-1106090475Y98618038D01*
X-1106090475Y98618038D02*
X-1106138094Y98713276D01*
X-1106138094Y98713276D02*
X-1106185713Y98903752D01*
X-1106185713Y98903752D02*
X-1106185713Y99046609D01*
X-1106185713Y99046609D02*
X-1106138094Y99237085D01*
X-1106138094Y99237085D02*
X-1106090475Y99332323D01*
X-1106090475Y99332323D02*
X-1105995237Y99427561D01*
X-1105995237Y99427561D02*
X-1105852380Y99475180D01*
X-1105852380Y99475180D02*
X-1105757142Y99475180D01*
X-1105757142Y99475180D02*
X-1105614285Y99427561D01*
X-1105614285Y99427561D02*
X-1105566666Y99379942D01*
X-1104995237Y99046609D02*
X-1105090475Y99094228D01*
X-1105090475Y99094228D02*
X-1105138094Y99141847D01*
X-1105138094Y99141847D02*
X-1105185713Y99237085D01*
X-1105185713Y99237085D02*
X-1105185713Y99284704D01*
X-1105185713Y99284704D02*
X-1105138094Y99379942D01*
X-1105138094Y99379942D02*
X-1105090475Y99427561D01*
X-1105090475Y99427561D02*
X-1104995237Y99475180D01*
X-1104995237Y99475180D02*
X-1104804761Y99475180D01*
X-1104804761Y99475180D02*
X-1104709523Y99427561D01*
X-1104709523Y99427561D02*
X-1104661904Y99379942D01*
X-1104661904Y99379942D02*
X-1104614285Y99284704D01*
X-1104614285Y99284704D02*
X-1104614285Y99237085D01*
X-1104614285Y99237085D02*
X-1104661904Y99141847D01*
X-1104661904Y99141847D02*
X-1104709523Y99094228D01*
X-1104709523Y99094228D02*
X-1104804761Y99046609D01*
X-1104804761Y99046609D02*
X-1104995237Y99046609D01*
X-1104995237Y99046609D02*
X-1105090475Y98998990D01*
X-1105090475Y98998990D02*
X-1105138094Y98951371D01*
X-1105138094Y98951371D02*
X-1105185713Y98856133D01*
X-1105185713Y98856133D02*
X-1105185713Y98665657D01*
X-1105185713Y98665657D02*
X-1105138094Y98570419D01*
X-1105138094Y98570419D02*
X-1105090475Y98522800D01*
X-1105090475Y98522800D02*
X-1104995237Y98475180D01*
X-1104995237Y98475180D02*
X-1104804761Y98475180D01*
X-1104804761Y98475180D02*
X-1104709523Y98522800D01*
X-1104709523Y98522800D02*
X-1104661904Y98570419D01*
X-1104661904Y98570419D02*
X-1104614285Y98665657D01*
X-1104614285Y98665657D02*
X-1104614285Y98856133D01*
X-1104614285Y98856133D02*
X-1104661904Y98951371D01*
X-1104661904Y98951371D02*
X-1104709523Y98998990D01*
X-1104709523Y98998990D02*
X-1104804761Y99046609D01*
X-1131575180Y96857142D02*
X-1132051371Y96523809D01*
X-1131575180Y96285714D02*
X-1132575180Y96285714D01*
X-1132575180Y96285714D02*
X-1132575180Y96666666D01*
X-1132575180Y96666666D02*
X-1132527561Y96761904D01*
X-1132527561Y96761904D02*
X-1132479942Y96809523D01*
X-1132479942Y96809523D02*
X-1132384704Y96857142D01*
X-1132384704Y96857142D02*
X-1132241847Y96857142D01*
X-1132241847Y96857142D02*
X-1132146609Y96809523D01*
X-1132146609Y96809523D02*
X-1132098990Y96761904D01*
X-1132098990Y96761904D02*
X-1132051371Y96666666D01*
X-1132051371Y96666666D02*
X-1132051371Y96285714D01*
X-1131575180Y97809523D02*
X-1131575180Y97238095D01*
X-1131575180Y97523809D02*
X-1132575180Y97523809D01*
X-1132575180Y97523809D02*
X-1132432323Y97428571D01*
X-1132432323Y97428571D02*
X-1132337085Y97333333D01*
X-1132337085Y97333333D02*
X-1132289466Y97238095D01*
X-1132575180Y98666666D02*
X-1132575180Y98476190D01*
X-1132575180Y98476190D02*
X-1132527561Y98380952D01*
X-1132527561Y98380952D02*
X-1132479942Y98333333D01*
X-1132479942Y98333333D02*
X-1132337085Y98238095D01*
X-1132337085Y98238095D02*
X-1132146609Y98190476D01*
X-1132146609Y98190476D02*
X-1131765657Y98190476D01*
X-1131765657Y98190476D02*
X-1131670419Y98238095D01*
X-1131670419Y98238095D02*
X-1131622800Y98285714D01*
X-1131622800Y98285714D02*
X-1131575180Y98380952D01*
X-1131575180Y98380952D02*
X-1131575180Y98571428D01*
X-1131575180Y98571428D02*
X-1131622800Y98666666D01*
X-1131622800Y98666666D02*
X-1131670419Y98714285D01*
X-1131670419Y98714285D02*
X-1131765657Y98761904D01*
X-1131765657Y98761904D02*
X-1132003752Y98761904D01*
X-1132003752Y98761904D02*
X-1132098990Y98714285D01*
X-1132098990Y98714285D02*
X-1132146609Y98666666D01*
X-1132146609Y98666666D02*
X-1132194228Y98571428D01*
X-1132194228Y98571428D02*
X-1132194228Y98380952D01*
X-1132194228Y98380952D02*
X-1132146609Y98285714D01*
X-1132146609Y98285714D02*
X-1132098990Y98238095D01*
X-1132098990Y98238095D02*
X-1132003752Y98190476D01*
X-1116175180Y51490476D02*
X-1115460895Y51490476D01*
X-1115460895Y51490476D02*
X-1115318038Y51442857D01*
X-1115318038Y51442857D02*
X-1115222800Y51347619D01*
X-1115222800Y51347619D02*
X-1115175180Y51204762D01*
X-1115175180Y51204762D02*
X-1115175180Y51109524D01*
X-1115175180Y52490476D02*
X-1115175180Y51919048D01*
X-1115175180Y52204762D02*
X-1116175180Y52204762D01*
X-1116175180Y52204762D02*
X-1116032323Y52109524D01*
X-1116032323Y52109524D02*
X-1115937085Y52014286D01*
X-1115937085Y52014286D02*
X-1115889466Y51919048D01*
X-1115746609Y53061905D02*
X-1115794228Y52966667D01*
X-1115794228Y52966667D02*
X-1115841847Y52919048D01*
X-1115841847Y52919048D02*
X-1115937085Y52871429D01*
X-1115937085Y52871429D02*
X-1115984704Y52871429D01*
X-1115984704Y52871429D02*
X-1116079942Y52919048D01*
X-1116079942Y52919048D02*
X-1116127561Y52966667D01*
X-1116127561Y52966667D02*
X-1116175180Y53061905D01*
X-1116175180Y53061905D02*
X-1116175180Y53252381D01*
X-1116175180Y53252381D02*
X-1116127561Y53347619D01*
X-1116127561Y53347619D02*
X-1116079942Y53395238D01*
X-1116079942Y53395238D02*
X-1115984704Y53442857D01*
X-1115984704Y53442857D02*
X-1115937085Y53442857D01*
X-1115937085Y53442857D02*
X-1115841847Y53395238D01*
X-1115841847Y53395238D02*
X-1115794228Y53347619D01*
X-1115794228Y53347619D02*
X-1115746609Y53252381D01*
X-1115746609Y53252381D02*
X-1115746609Y53061905D01*
X-1115746609Y53061905D02*
X-1115698990Y52966667D01*
X-1115698990Y52966667D02*
X-1115651371Y52919048D01*
X-1115651371Y52919048D02*
X-1115556133Y52871429D01*
X-1115556133Y52871429D02*
X-1115365657Y52871429D01*
X-1115365657Y52871429D02*
X-1115270419Y52919048D01*
X-1115270419Y52919048D02*
X-1115222800Y52966667D01*
X-1115222800Y52966667D02*
X-1115175180Y53061905D01*
X-1115175180Y53061905D02*
X-1115175180Y53252381D01*
X-1115175180Y53252381D02*
X-1115222800Y53347619D01*
X-1115222800Y53347619D02*
X-1115270419Y53395238D01*
X-1115270419Y53395238D02*
X-1115365657Y53442857D01*
X-1115365657Y53442857D02*
X-1115556133Y53442857D01*
X-1115556133Y53442857D02*
X-1115651371Y53395238D01*
X-1115651371Y53395238D02*
X-1115698990Y53347619D01*
X-1115698990Y53347619D02*
X-1115746609Y53252381D01*
X-1183145180Y109890476D02*
X-1182430895Y109890476D01*
X-1182430895Y109890476D02*
X-1182288038Y109842857D01*
X-1182288038Y109842857D02*
X-1182192800Y109747619D01*
X-1182192800Y109747619D02*
X-1182145180Y109604762D01*
X-1182145180Y109604762D02*
X-1182145180Y109509524D01*
X-1182145180Y110366667D02*
X-1183145180Y110366667D01*
X-1183145180Y110366667D02*
X-1183145180Y110747619D01*
X-1183145180Y110747619D02*
X-1183097561Y110842857D01*
X-1183097561Y110842857D02*
X-1183049942Y110890476D01*
X-1183049942Y110890476D02*
X-1182954704Y110938095D01*
X-1182954704Y110938095D02*
X-1182811847Y110938095D01*
X-1182811847Y110938095D02*
X-1182716609Y110890476D01*
X-1182716609Y110890476D02*
X-1182668990Y110842857D01*
X-1182668990Y110842857D02*
X-1182621371Y110747619D01*
X-1182621371Y110747619D02*
X-1182621371Y110366667D01*
X-1182145180Y111890476D02*
X-1182145180Y111319048D01*
X-1182145180Y111604762D02*
X-1183145180Y111604762D01*
X-1183145180Y111604762D02*
X-1183002323Y111509524D01*
X-1183002323Y111509524D02*
X-1182907085Y111414286D01*
X-1182907085Y111414286D02*
X-1182859466Y111319048D01*
X-1183145180Y112223810D02*
X-1183145180Y112842857D01*
X-1183145180Y112842857D02*
X-1182764228Y112509524D01*
X-1182764228Y112509524D02*
X-1182764228Y112652381D01*
X-1182764228Y112652381D02*
X-1182716609Y112747619D01*
X-1182716609Y112747619D02*
X-1182668990Y112795238D01*
X-1182668990Y112795238D02*
X-1182573752Y112842857D01*
X-1182573752Y112842857D02*
X-1182335657Y112842857D01*
X-1182335657Y112842857D02*
X-1182240419Y112795238D01*
X-1182240419Y112795238D02*
X-1182192800Y112747619D01*
X-1182192800Y112747619D02*
X-1182145180Y112652381D01*
X-1182145180Y112652381D02*
X-1182145180Y112366667D01*
X-1182145180Y112366667D02*
X-1182192800Y112271429D01*
X-1182192800Y112271429D02*
X-1182240419Y112223810D01*
X-1178045180Y107290476D02*
X-1177330895Y107290476D01*
X-1177330895Y107290476D02*
X-1177188038Y107242857D01*
X-1177188038Y107242857D02*
X-1177092800Y107147619D01*
X-1177092800Y107147619D02*
X-1177045180Y107004762D01*
X-1177045180Y107004762D02*
X-1177045180Y106909524D01*
X-1177045180Y107766667D02*
X-1178045180Y107766667D01*
X-1178045180Y107766667D02*
X-1178045180Y108147619D01*
X-1178045180Y108147619D02*
X-1177997561Y108242857D01*
X-1177997561Y108242857D02*
X-1177949942Y108290476D01*
X-1177949942Y108290476D02*
X-1177854704Y108338095D01*
X-1177854704Y108338095D02*
X-1177711847Y108338095D01*
X-1177711847Y108338095D02*
X-1177616609Y108290476D01*
X-1177616609Y108290476D02*
X-1177568990Y108242857D01*
X-1177568990Y108242857D02*
X-1177521371Y108147619D01*
X-1177521371Y108147619D02*
X-1177521371Y107766667D01*
X-1177045180Y109290476D02*
X-1177045180Y108719048D01*
X-1177045180Y109004762D02*
X-1178045180Y109004762D01*
X-1178045180Y109004762D02*
X-1177902323Y108909524D01*
X-1177902323Y108909524D02*
X-1177807085Y108814286D01*
X-1177807085Y108814286D02*
X-1177759466Y108719048D01*
X-1177711847Y110147619D02*
X-1177045180Y110147619D01*
X-1178092800Y109909524D02*
X-1177378514Y109671429D01*
X-1177378514Y109671429D02*
X-1177378514Y110290476D01*
X-1149366666Y45915180D02*
X-1149699999Y46391371D01*
X-1149938094Y45915180D02*
X-1149938094Y46915180D01*
X-1149938094Y46915180D02*
X-1149557142Y46915180D01*
X-1149557142Y46915180D02*
X-1149461904Y46867561D01*
X-1149461904Y46867561D02*
X-1149414285Y46819942D01*
X-1149414285Y46819942D02*
X-1149366666Y46724704D01*
X-1149366666Y46724704D02*
X-1149366666Y46581847D01*
X-1149366666Y46581847D02*
X-1149414285Y46486609D01*
X-1149414285Y46486609D02*
X-1149461904Y46438990D01*
X-1149461904Y46438990D02*
X-1149557142Y46391371D01*
X-1149557142Y46391371D02*
X-1149938094Y46391371D01*
X-1148414285Y45915180D02*
X-1148985713Y45915180D01*
X-1148699999Y45915180D02*
X-1148699999Y46915180D01*
X-1148699999Y46915180D02*
X-1148795237Y46772323D01*
X-1148795237Y46772323D02*
X-1148890475Y46677085D01*
X-1148890475Y46677085D02*
X-1148985713Y46629466D01*
X-1124795238Y59749942D02*
X-1124890476Y59797561D01*
X-1124890476Y59797561D02*
X-1124985714Y59892800D01*
X-1124985714Y59892800D02*
X-1125128571Y60035657D01*
X-1125128571Y60035657D02*
X-1125223809Y60083276D01*
X-1125223809Y60083276D02*
X-1125319047Y60083276D01*
X-1125271428Y59845180D02*
X-1125366666Y59892800D01*
X-1125366666Y59892800D02*
X-1125461904Y59988038D01*
X-1125461904Y59988038D02*
X-1125509523Y60178514D01*
X-1125509523Y60178514D02*
X-1125509523Y60511847D01*
X-1125509523Y60511847D02*
X-1125461904Y60702323D01*
X-1125461904Y60702323D02*
X-1125366666Y60797561D01*
X-1125366666Y60797561D02*
X-1125271428Y60845180D01*
X-1125271428Y60845180D02*
X-1125080952Y60845180D01*
X-1125080952Y60845180D02*
X-1124985714Y60797561D01*
X-1124985714Y60797561D02*
X-1124890476Y60702323D01*
X-1124890476Y60702323D02*
X-1124842857Y60511847D01*
X-1124842857Y60511847D02*
X-1124842857Y60178514D01*
X-1124842857Y60178514D02*
X-1124890476Y59988038D01*
X-1124890476Y59988038D02*
X-1124985714Y59892800D01*
X-1124985714Y59892800D02*
X-1125080952Y59845180D01*
X-1125080952Y59845180D02*
X-1125271428Y59845180D01*
X-1123985714Y60845180D02*
X-1124176190Y60845180D01*
X-1124176190Y60845180D02*
X-1124271428Y60797561D01*
X-1124271428Y60797561D02*
X-1124319047Y60749942D01*
X-1124319047Y60749942D02*
X-1124414285Y60607085D01*
X-1124414285Y60607085D02*
X-1124461904Y60416609D01*
X-1124461904Y60416609D02*
X-1124461904Y60035657D01*
X-1124461904Y60035657D02*
X-1124414285Y59940419D01*
X-1124414285Y59940419D02*
X-1124366666Y59892800D01*
X-1124366666Y59892800D02*
X-1124271428Y59845180D01*
X-1124271428Y59845180D02*
X-1124080952Y59845180D01*
X-1124080952Y59845180D02*
X-1123985714Y59892800D01*
X-1123985714Y59892800D02*
X-1123938095Y59940419D01*
X-1123938095Y59940419D02*
X-1123890476Y60035657D01*
X-1123890476Y60035657D02*
X-1123890476Y60273752D01*
X-1123890476Y60273752D02*
X-1123938095Y60368990D01*
X-1123938095Y60368990D02*
X-1123985714Y60416609D01*
X-1123985714Y60416609D02*
X-1124080952Y60464228D01*
X-1124080952Y60464228D02*
X-1124271428Y60464228D01*
X-1124271428Y60464228D02*
X-1124366666Y60416609D01*
X-1124366666Y60416609D02*
X-1124414285Y60368990D01*
X-1124414285Y60368990D02*
X-1124461904Y60273752D01*
X-1171066666Y45515180D02*
X-1171399999Y45991371D01*
X-1171638094Y45515180D02*
X-1171638094Y46515180D01*
X-1171638094Y46515180D02*
X-1171257142Y46515180D01*
X-1171257142Y46515180D02*
X-1171161904Y46467561D01*
X-1171161904Y46467561D02*
X-1171114285Y46419942D01*
X-1171114285Y46419942D02*
X-1171066666Y46324704D01*
X-1171066666Y46324704D02*
X-1171066666Y46181847D01*
X-1171066666Y46181847D02*
X-1171114285Y46086609D01*
X-1171114285Y46086609D02*
X-1171161904Y46038990D01*
X-1171161904Y46038990D02*
X-1171257142Y45991371D01*
X-1171257142Y45991371D02*
X-1171638094Y45991371D01*
X-1170209523Y46515180D02*
X-1170399999Y46515180D01*
X-1170399999Y46515180D02*
X-1170495237Y46467561D01*
X-1170495237Y46467561D02*
X-1170542856Y46419942D01*
X-1170542856Y46419942D02*
X-1170638094Y46277085D01*
X-1170638094Y46277085D02*
X-1170685713Y46086609D01*
X-1170685713Y46086609D02*
X-1170685713Y45705657D01*
X-1170685713Y45705657D02*
X-1170638094Y45610419D01*
X-1170638094Y45610419D02*
X-1170590475Y45562800D01*
X-1170590475Y45562800D02*
X-1170495237Y45515180D01*
X-1170495237Y45515180D02*
X-1170304761Y45515180D01*
X-1170304761Y45515180D02*
X-1170209523Y45562800D01*
X-1170209523Y45562800D02*
X-1170161904Y45610419D01*
X-1170161904Y45610419D02*
X-1170114285Y45705657D01*
X-1170114285Y45705657D02*
X-1170114285Y45943752D01*
X-1170114285Y45943752D02*
X-1170161904Y46038990D01*
X-1170161904Y46038990D02*
X-1170209523Y46086609D01*
X-1170209523Y46086609D02*
X-1170304761Y46134228D01*
X-1170304761Y46134228D02*
X-1170495237Y46134228D01*
X-1170495237Y46134228D02*
X-1170590475Y46086609D01*
X-1170590475Y46086609D02*
X-1170638094Y46038990D01*
X-1170638094Y46038990D02*
X-1170685713Y45943752D01*
X-1189545180Y115566666D02*
X-1188830895Y115566666D01*
X-1188830895Y115566666D02*
X-1188688038Y115519047D01*
X-1188688038Y115519047D02*
X-1188592800Y115423809D01*
X-1188592800Y115423809D02*
X-1188545180Y115280952D01*
X-1188545180Y115280952D02*
X-1188545180Y115185714D01*
X-1188545180Y116042857D02*
X-1189545180Y116042857D01*
X-1189545180Y116042857D02*
X-1189545180Y116423809D01*
X-1189545180Y116423809D02*
X-1189497561Y116519047D01*
X-1189497561Y116519047D02*
X-1189449942Y116566666D01*
X-1189449942Y116566666D02*
X-1189354704Y116614285D01*
X-1189354704Y116614285D02*
X-1189211847Y116614285D01*
X-1189211847Y116614285D02*
X-1189116609Y116566666D01*
X-1189116609Y116566666D02*
X-1189068990Y116519047D01*
X-1189068990Y116519047D02*
X-1189021371Y116423809D01*
X-1189021371Y116423809D02*
X-1189021371Y116042857D01*
X-1189545180Y116947619D02*
X-1189545180Y117566666D01*
X-1189545180Y117566666D02*
X-1189164228Y117233333D01*
X-1189164228Y117233333D02*
X-1189164228Y117376190D01*
X-1189164228Y117376190D02*
X-1189116609Y117471428D01*
X-1189116609Y117471428D02*
X-1189068990Y117519047D01*
X-1189068990Y117519047D02*
X-1188973752Y117566666D01*
X-1188973752Y117566666D02*
X-1188735657Y117566666D01*
X-1188735657Y117566666D02*
X-1188640419Y117519047D01*
X-1188640419Y117519047D02*
X-1188592800Y117471428D01*
X-1188592800Y117471428D02*
X-1188545180Y117376190D01*
X-1188545180Y117376190D02*
X-1188545180Y117090476D01*
X-1188545180Y117090476D02*
X-1188592800Y116995238D01*
X-1188592800Y116995238D02*
X-1188640419Y116947619D01*
X-1130095238Y59549942D02*
X-1130190476Y59597561D01*
X-1130190476Y59597561D02*
X-1130285714Y59692800D01*
X-1130285714Y59692800D02*
X-1130428571Y59835657D01*
X-1130428571Y59835657D02*
X-1130523809Y59883276D01*
X-1130523809Y59883276D02*
X-1130619047Y59883276D01*
X-1130571428Y59645180D02*
X-1130666666Y59692800D01*
X-1130666666Y59692800D02*
X-1130761904Y59788038D01*
X-1130761904Y59788038D02*
X-1130809523Y59978514D01*
X-1130809523Y59978514D02*
X-1130809523Y60311847D01*
X-1130809523Y60311847D02*
X-1130761904Y60502323D01*
X-1130761904Y60502323D02*
X-1130666666Y60597561D01*
X-1130666666Y60597561D02*
X-1130571428Y60645180D01*
X-1130571428Y60645180D02*
X-1130380952Y60645180D01*
X-1130380952Y60645180D02*
X-1130285714Y60597561D01*
X-1130285714Y60597561D02*
X-1130190476Y60502323D01*
X-1130190476Y60502323D02*
X-1130142857Y60311847D01*
X-1130142857Y60311847D02*
X-1130142857Y59978514D01*
X-1130142857Y59978514D02*
X-1130190476Y59788038D01*
X-1130190476Y59788038D02*
X-1130285714Y59692800D01*
X-1130285714Y59692800D02*
X-1130380952Y59645180D01*
X-1130380952Y59645180D02*
X-1130571428Y59645180D01*
X-1129809523Y60645180D02*
X-1129142857Y60645180D01*
X-1129142857Y60645180D02*
X-1129571428Y59645180D01*
X-1160811904Y118279180D02*
X-1160811904Y117469657D01*
X-1160811904Y117469657D02*
X-1160764285Y117374419D01*
X-1160764285Y117374419D02*
X-1160716666Y117326800D01*
X-1160716666Y117326800D02*
X-1160621428Y117279180D01*
X-1160621428Y117279180D02*
X-1160430952Y117279180D01*
X-1160430952Y117279180D02*
X-1160335714Y117326800D01*
X-1160335714Y117326800D02*
X-1160288095Y117374419D01*
X-1160288095Y117374419D02*
X-1160240476Y117469657D01*
X-1160240476Y117469657D02*
X-1160240476Y118279180D01*
X-1159811904Y118183942D02*
X-1159764285Y118231561D01*
X-1159764285Y118231561D02*
X-1159669047Y118279180D01*
X-1159669047Y118279180D02*
X-1159430952Y118279180D01*
X-1159430952Y118279180D02*
X-1159335714Y118231561D01*
X-1159335714Y118231561D02*
X-1159288095Y118183942D01*
X-1159288095Y118183942D02*
X-1159240476Y118088704D01*
X-1159240476Y118088704D02*
X-1159240476Y117993466D01*
X-1159240476Y117993466D02*
X-1159288095Y117850609D01*
X-1159288095Y117850609D02*
X-1159859523Y117279180D01*
X-1159859523Y117279180D02*
X-1159240476Y117279180D01*
X-1118509523Y119518180D02*
X-1118509523Y118803895D01*
X-1118509523Y118803895D02*
X-1118557142Y118661038D01*
X-1118557142Y118661038D02*
X-1118652380Y118565800D01*
X-1118652380Y118565800D02*
X-1118795237Y118518180D01*
X-1118795237Y118518180D02*
X-1118890475Y118518180D01*
X-1117509523Y118518180D02*
X-1118080951Y118518180D01*
X-1117795237Y118518180D02*
X-1117795237Y119518180D01*
X-1117795237Y119518180D02*
X-1117890475Y119375323D01*
X-1117890475Y119375323D02*
X-1117985713Y119280085D01*
X-1117985713Y119280085D02*
X-1118080951Y119232466D01*
X-1116604761Y119518180D02*
X-1117080951Y119518180D01*
X-1117080951Y119518180D02*
X-1117128570Y119041990D01*
X-1117128570Y119041990D02*
X-1117080951Y119089609D01*
X-1117080951Y119089609D02*
X-1116985713Y119137228D01*
X-1116985713Y119137228D02*
X-1116747618Y119137228D01*
X-1116747618Y119137228D02*
X-1116652380Y119089609D01*
X-1116652380Y119089609D02*
X-1116604761Y119041990D01*
X-1116604761Y119041990D02*
X-1116557142Y118946752D01*
X-1116557142Y118946752D02*
X-1116557142Y118708657D01*
X-1116557142Y118708657D02*
X-1116604761Y118613419D01*
X-1116604761Y118613419D02*
X-1116652380Y118565800D01*
X-1116652380Y118565800D02*
X-1116747618Y118518180D01*
X-1116747618Y118518180D02*
X-1116985713Y118518180D01*
X-1116985713Y118518180D02*
X-1117080951Y118565800D01*
X-1117080951Y118565800D02*
X-1117128570Y118613419D01*
X-1177859523Y126118180D02*
X-1177859523Y125403895D01*
X-1177859523Y125403895D02*
X-1177907142Y125261038D01*
X-1177907142Y125261038D02*
X-1178002380Y125165800D01*
X-1178002380Y125165800D02*
X-1178145237Y125118180D01*
X-1178145237Y125118180D02*
X-1178240475Y125118180D01*
X-1176859523Y125118180D02*
X-1177430951Y125118180D01*
X-1177145237Y125118180D02*
X-1177145237Y126118180D01*
X-1177145237Y126118180D02*
X-1177240475Y125975323D01*
X-1177240475Y125975323D02*
X-1177335713Y125880085D01*
X-1177335713Y125880085D02*
X-1177430951Y125832466D01*
X-1176240475Y126118180D02*
X-1176145237Y126118180D01*
X-1176145237Y126118180D02*
X-1176049999Y126070561D01*
X-1176049999Y126070561D02*
X-1176002380Y126022942D01*
X-1176002380Y126022942D02*
X-1175954761Y125927704D01*
X-1175954761Y125927704D02*
X-1175907142Y125737228D01*
X-1175907142Y125737228D02*
X-1175907142Y125499133D01*
X-1175907142Y125499133D02*
X-1175954761Y125308657D01*
X-1175954761Y125308657D02*
X-1176002380Y125213419D01*
X-1176002380Y125213419D02*
X-1176049999Y125165800D01*
X-1176049999Y125165800D02*
X-1176145237Y125118180D01*
X-1176145237Y125118180D02*
X-1176240475Y125118180D01*
X-1176240475Y125118180D02*
X-1176335713Y125165800D01*
X-1176335713Y125165800D02*
X-1176383332Y125213419D01*
X-1176383332Y125213419D02*
X-1176430951Y125308657D01*
X-1176430951Y125308657D02*
X-1176478570Y125499133D01*
X-1176478570Y125499133D02*
X-1176478570Y125737228D01*
X-1176478570Y125737228D02*
X-1176430951Y125927704D01*
X-1176430951Y125927704D02*
X-1176383332Y126022942D01*
X-1176383332Y126022942D02*
X-1176335713Y126070561D01*
X-1176335713Y126070561D02*
X-1176240475Y126118180D01*
X-1178145180Y112390476D02*
X-1177430895Y112390476D01*
X-1177430895Y112390476D02*
X-1177288038Y112342857D01*
X-1177288038Y112342857D02*
X-1177192800Y112247619D01*
X-1177192800Y112247619D02*
X-1177145180Y112104762D01*
X-1177145180Y112104762D02*
X-1177145180Y112009524D01*
X-1177145180Y112866667D02*
X-1178145180Y112866667D01*
X-1178145180Y112866667D02*
X-1178145180Y113247619D01*
X-1178145180Y113247619D02*
X-1178097561Y113342857D01*
X-1178097561Y113342857D02*
X-1178049942Y113390476D01*
X-1178049942Y113390476D02*
X-1177954704Y113438095D01*
X-1177954704Y113438095D02*
X-1177811847Y113438095D01*
X-1177811847Y113438095D02*
X-1177716609Y113390476D01*
X-1177716609Y113390476D02*
X-1177668990Y113342857D01*
X-1177668990Y113342857D02*
X-1177621371Y113247619D01*
X-1177621371Y113247619D02*
X-1177621371Y112866667D01*
X-1177145180Y114390476D02*
X-1177145180Y113819048D01*
X-1177145180Y114104762D02*
X-1178145180Y114104762D01*
X-1178145180Y114104762D02*
X-1178002323Y114009524D01*
X-1178002323Y114009524D02*
X-1177907085Y113914286D01*
X-1177907085Y113914286D02*
X-1177859466Y113819048D01*
X-1178049942Y114771429D02*
X-1178097561Y114819048D01*
X-1178097561Y114819048D02*
X-1178145180Y114914286D01*
X-1178145180Y114914286D02*
X-1178145180Y115152381D01*
X-1178145180Y115152381D02*
X-1178097561Y115247619D01*
X-1178097561Y115247619D02*
X-1178049942Y115295238D01*
X-1178049942Y115295238D02*
X-1177954704Y115342857D01*
X-1177954704Y115342857D02*
X-1177859466Y115342857D01*
X-1177859466Y115342857D02*
X-1177716609Y115295238D01*
X-1177716609Y115295238D02*
X-1177145180Y114723810D01*
X-1177145180Y114723810D02*
X-1177145180Y115342857D01*
X-1189545180Y120966666D02*
X-1188830895Y120966666D01*
X-1188830895Y120966666D02*
X-1188688038Y120919047D01*
X-1188688038Y120919047D02*
X-1188592800Y120823809D01*
X-1188592800Y120823809D02*
X-1188545180Y120680952D01*
X-1188545180Y120680952D02*
X-1188545180Y120585714D01*
X-1188545180Y121442857D02*
X-1189545180Y121442857D01*
X-1189545180Y121442857D02*
X-1189545180Y121823809D01*
X-1189545180Y121823809D02*
X-1189497561Y121919047D01*
X-1189497561Y121919047D02*
X-1189449942Y121966666D01*
X-1189449942Y121966666D02*
X-1189354704Y122014285D01*
X-1189354704Y122014285D02*
X-1189211847Y122014285D01*
X-1189211847Y122014285D02*
X-1189116609Y121966666D01*
X-1189116609Y121966666D02*
X-1189068990Y121919047D01*
X-1189068990Y121919047D02*
X-1189021371Y121823809D01*
X-1189021371Y121823809D02*
X-1189021371Y121442857D01*
X-1188545180Y122966666D02*
X-1188545180Y122395238D01*
X-1188545180Y122680952D02*
X-1189545180Y122680952D01*
X-1189545180Y122680952D02*
X-1189402323Y122585714D01*
X-1189402323Y122585714D02*
X-1189307085Y122490476D01*
X-1189307085Y122490476D02*
X-1189259466Y122395238D01*
X-1139471428Y103249942D02*
X-1139566666Y103297561D01*
X-1139566666Y103297561D02*
X-1139661904Y103392800D01*
X-1139661904Y103392800D02*
X-1139804761Y103535657D01*
X-1139804761Y103535657D02*
X-1139899999Y103583276D01*
X-1139899999Y103583276D02*
X-1139995237Y103583276D01*
X-1139947618Y103345180D02*
X-1140042856Y103392800D01*
X-1140042856Y103392800D02*
X-1140138094Y103488038D01*
X-1140138094Y103488038D02*
X-1140185713Y103678514D01*
X-1140185713Y103678514D02*
X-1140185713Y104011847D01*
X-1140185713Y104011847D02*
X-1140138094Y104202323D01*
X-1140138094Y104202323D02*
X-1140042856Y104297561D01*
X-1140042856Y104297561D02*
X-1139947618Y104345180D01*
X-1139947618Y104345180D02*
X-1139757142Y104345180D01*
X-1139757142Y104345180D02*
X-1139661904Y104297561D01*
X-1139661904Y104297561D02*
X-1139566666Y104202323D01*
X-1139566666Y104202323D02*
X-1139519047Y104011847D01*
X-1139519047Y104011847D02*
X-1139519047Y103678514D01*
X-1139519047Y103678514D02*
X-1139566666Y103488038D01*
X-1139566666Y103488038D02*
X-1139661904Y103392800D01*
X-1139661904Y103392800D02*
X-1139757142Y103345180D01*
X-1139757142Y103345180D02*
X-1139947618Y103345180D01*
X-1138566666Y103345180D02*
X-1139138094Y103345180D01*
X-1138852380Y103345180D02*
X-1138852380Y104345180D01*
X-1138852380Y104345180D02*
X-1138947618Y104202323D01*
X-1138947618Y104202323D02*
X-1139042856Y104107085D01*
X-1139042856Y104107085D02*
X-1139138094Y104059466D01*
X-1137947618Y104345180D02*
X-1137852380Y104345180D01*
X-1137852380Y104345180D02*
X-1137757142Y104297561D01*
X-1137757142Y104297561D02*
X-1137709523Y104249942D01*
X-1137709523Y104249942D02*
X-1137661904Y104154704D01*
X-1137661904Y104154704D02*
X-1137614285Y103964228D01*
X-1137614285Y103964228D02*
X-1137614285Y103726133D01*
X-1137614285Y103726133D02*
X-1137661904Y103535657D01*
X-1137661904Y103535657D02*
X-1137709523Y103440419D01*
X-1137709523Y103440419D02*
X-1137757142Y103392800D01*
X-1137757142Y103392800D02*
X-1137852380Y103345180D01*
X-1137852380Y103345180D02*
X-1137947618Y103345180D01*
X-1137947618Y103345180D02*
X-1138042856Y103392800D01*
X-1138042856Y103392800D02*
X-1138090475Y103440419D01*
X-1138090475Y103440419D02*
X-1138138094Y103535657D01*
X-1138138094Y103535657D02*
X-1138185713Y103726133D01*
X-1138185713Y103726133D02*
X-1138185713Y103964228D01*
X-1138185713Y103964228D02*
X-1138138094Y104154704D01*
X-1138138094Y104154704D02*
X-1138090475Y104249942D01*
X-1138090475Y104249942D02*
X-1138042856Y104297561D01*
X-1138042856Y104297561D02*
X-1137947618Y104345180D01*
X-1185666666Y65275180D02*
X-1185999999Y65751371D01*
X-1186238094Y65275180D02*
X-1186238094Y66275180D01*
X-1186238094Y66275180D02*
X-1185857142Y66275180D01*
X-1185857142Y66275180D02*
X-1185761904Y66227561D01*
X-1185761904Y66227561D02*
X-1185714285Y66179942D01*
X-1185714285Y66179942D02*
X-1185666666Y66084704D01*
X-1185666666Y66084704D02*
X-1185666666Y65941847D01*
X-1185666666Y65941847D02*
X-1185714285Y65846609D01*
X-1185714285Y65846609D02*
X-1185761904Y65798990D01*
X-1185761904Y65798990D02*
X-1185857142Y65751371D01*
X-1185857142Y65751371D02*
X-1186238094Y65751371D01*
X-1184809523Y65941847D02*
X-1184809523Y65275180D01*
X-1185047618Y66322800D02*
X-1185285713Y65608514D01*
X-1185285713Y65608514D02*
X-1184666666Y65608514D01*
X-1130140419Y70533333D02*
X-1130092800Y70485714D01*
X-1130092800Y70485714D02*
X-1130045180Y70342857D01*
X-1130045180Y70342857D02*
X-1130045180Y70247619D01*
X-1130045180Y70247619D02*
X-1130092800Y70104762D01*
X-1130092800Y70104762D02*
X-1130188038Y70009524D01*
X-1130188038Y70009524D02*
X-1130283276Y69961905D01*
X-1130283276Y69961905D02*
X-1130473752Y69914286D01*
X-1130473752Y69914286D02*
X-1130616609Y69914286D01*
X-1130616609Y69914286D02*
X-1130807085Y69961905D01*
X-1130807085Y69961905D02*
X-1130902323Y70009524D01*
X-1130902323Y70009524D02*
X-1130997561Y70104762D01*
X-1130997561Y70104762D02*
X-1131045180Y70247619D01*
X-1131045180Y70247619D02*
X-1131045180Y70342857D01*
X-1131045180Y70342857D02*
X-1130997561Y70485714D01*
X-1130997561Y70485714D02*
X-1130949942Y70533333D01*
X-1130949942Y70914286D02*
X-1130997561Y70961905D01*
X-1130997561Y70961905D02*
X-1131045180Y71057143D01*
X-1131045180Y71057143D02*
X-1131045180Y71295238D01*
X-1131045180Y71295238D02*
X-1130997561Y71390476D01*
X-1130997561Y71390476D02*
X-1130949942Y71438095D01*
X-1130949942Y71438095D02*
X-1130854704Y71485714D01*
X-1130854704Y71485714D02*
X-1130759466Y71485714D01*
X-1130759466Y71485714D02*
X-1130616609Y71438095D01*
X-1130616609Y71438095D02*
X-1130045180Y70866667D01*
X-1130045180Y70866667D02*
X-1130045180Y71485714D01*
X-1162166666Y64175180D02*
X-1162499999Y64651371D01*
X-1162738094Y64175180D02*
X-1162738094Y65175180D01*
X-1162738094Y65175180D02*
X-1162357142Y65175180D01*
X-1162357142Y65175180D02*
X-1162261904Y65127561D01*
X-1162261904Y65127561D02*
X-1162214285Y65079942D01*
X-1162214285Y65079942D02*
X-1162166666Y64984704D01*
X-1162166666Y64984704D02*
X-1162166666Y64841847D01*
X-1162166666Y64841847D02*
X-1162214285Y64746609D01*
X-1162214285Y64746609D02*
X-1162261904Y64698990D01*
X-1162261904Y64698990D02*
X-1162357142Y64651371D01*
X-1162357142Y64651371D02*
X-1162738094Y64651371D01*
X-1161833332Y65175180D02*
X-1161214285Y65175180D01*
X-1161214285Y65175180D02*
X-1161547618Y64794228D01*
X-1161547618Y64794228D02*
X-1161404761Y64794228D01*
X-1161404761Y64794228D02*
X-1161309523Y64746609D01*
X-1161309523Y64746609D02*
X-1161261904Y64698990D01*
X-1161261904Y64698990D02*
X-1161214285Y64603752D01*
X-1161214285Y64603752D02*
X-1161214285Y64365657D01*
X-1161214285Y64365657D02*
X-1161261904Y64270419D01*
X-1161261904Y64270419D02*
X-1161309523Y64222800D01*
X-1161309523Y64222800D02*
X-1161404761Y64175180D01*
X-1161404761Y64175180D02*
X-1161690475Y64175180D01*
X-1161690475Y64175180D02*
X-1161785713Y64222800D01*
X-1161785713Y64222800D02*
X-1161833332Y64270419D01*
X-1101813680Y107190476D02*
X-1101099395Y107190476D01*
X-1101099395Y107190476D02*
X-1100956538Y107142857D01*
X-1100956538Y107142857D02*
X-1100861300Y107047619D01*
X-1100861300Y107047619D02*
X-1100813680Y106904762D01*
X-1100813680Y106904762D02*
X-1100813680Y106809524D01*
X-1100813680Y108190476D02*
X-1100813680Y107619048D01*
X-1100813680Y107904762D02*
X-1101813680Y107904762D01*
X-1101813680Y107904762D02*
X-1101670823Y107809524D01*
X-1101670823Y107809524D02*
X-1101575585Y107714286D01*
X-1101575585Y107714286D02*
X-1101527966Y107619048D01*
X-1101813680Y109047619D02*
X-1101813680Y108857143D01*
X-1101813680Y108857143D02*
X-1101766061Y108761905D01*
X-1101766061Y108761905D02*
X-1101718442Y108714286D01*
X-1101718442Y108714286D02*
X-1101575585Y108619048D01*
X-1101575585Y108619048D02*
X-1101385109Y108571429D01*
X-1101385109Y108571429D02*
X-1101004157Y108571429D01*
X-1101004157Y108571429D02*
X-1100908919Y108619048D01*
X-1100908919Y108619048D02*
X-1100861300Y108666667D01*
X-1100861300Y108666667D02*
X-1100813680Y108761905D01*
X-1100813680Y108761905D02*
X-1100813680Y108952381D01*
X-1100813680Y108952381D02*
X-1100861300Y109047619D01*
X-1100861300Y109047619D02*
X-1100908919Y109095238D01*
X-1100908919Y109095238D02*
X-1101004157Y109142857D01*
X-1101004157Y109142857D02*
X-1101242252Y109142857D01*
X-1101242252Y109142857D02*
X-1101337490Y109095238D01*
X-1101337490Y109095238D02*
X-1101385109Y109047619D01*
X-1101385109Y109047619D02*
X-1101432728Y108952381D01*
X-1101432728Y108952381D02*
X-1101432728Y108761905D01*
X-1101432728Y108761905D02*
X-1101385109Y108666667D01*
X-1101385109Y108666667D02*
X-1101337490Y108619048D01*
X-1101337490Y108619048D02*
X-1101242252Y108571429D01*
X-1185033333Y72645180D02*
X-1185033333Y71930895D01*
X-1185033333Y71930895D02*
X-1185080952Y71788038D01*
X-1185080952Y71788038D02*
X-1185176190Y71692800D01*
X-1185176190Y71692800D02*
X-1185319047Y71645180D01*
X-1185319047Y71645180D02*
X-1185414285Y71645180D01*
X-1184652380Y72645180D02*
X-1183985714Y72645180D01*
X-1183985714Y72645180D02*
X-1184414285Y71645180D01*
X-1178045180Y102190476D02*
X-1177330895Y102190476D01*
X-1177330895Y102190476D02*
X-1177188038Y102142857D01*
X-1177188038Y102142857D02*
X-1177092800Y102047619D01*
X-1177092800Y102047619D02*
X-1177045180Y101904762D01*
X-1177045180Y101904762D02*
X-1177045180Y101809524D01*
X-1177045180Y102666667D02*
X-1178045180Y102666667D01*
X-1178045180Y102666667D02*
X-1178045180Y103047619D01*
X-1178045180Y103047619D02*
X-1177997561Y103142857D01*
X-1177997561Y103142857D02*
X-1177949942Y103190476D01*
X-1177949942Y103190476D02*
X-1177854704Y103238095D01*
X-1177854704Y103238095D02*
X-1177711847Y103238095D01*
X-1177711847Y103238095D02*
X-1177616609Y103190476D01*
X-1177616609Y103190476D02*
X-1177568990Y103142857D01*
X-1177568990Y103142857D02*
X-1177521371Y103047619D01*
X-1177521371Y103047619D02*
X-1177521371Y102666667D01*
X-1177045180Y104190476D02*
X-1177045180Y103619048D01*
X-1177045180Y103904762D02*
X-1178045180Y103904762D01*
X-1178045180Y103904762D02*
X-1177902323Y103809524D01*
X-1177902323Y103809524D02*
X-1177807085Y103714286D01*
X-1177807085Y103714286D02*
X-1177759466Y103619048D01*
X-1178045180Y105047619D02*
X-1178045180Y104857143D01*
X-1178045180Y104857143D02*
X-1177997561Y104761905D01*
X-1177997561Y104761905D02*
X-1177949942Y104714286D01*
X-1177949942Y104714286D02*
X-1177807085Y104619048D01*
X-1177807085Y104619048D02*
X-1177616609Y104571429D01*
X-1177616609Y104571429D02*
X-1177235657Y104571429D01*
X-1177235657Y104571429D02*
X-1177140419Y104619048D01*
X-1177140419Y104619048D02*
X-1177092800Y104666667D01*
X-1177092800Y104666667D02*
X-1177045180Y104761905D01*
X-1177045180Y104761905D02*
X-1177045180Y104952381D01*
X-1177045180Y104952381D02*
X-1177092800Y105047619D01*
X-1177092800Y105047619D02*
X-1177140419Y105095238D01*
X-1177140419Y105095238D02*
X-1177235657Y105142857D01*
X-1177235657Y105142857D02*
X-1177473752Y105142857D01*
X-1177473752Y105142857D02*
X-1177568990Y105095238D01*
X-1177568990Y105095238D02*
X-1177616609Y105047619D01*
X-1177616609Y105047619D02*
X-1177664228Y104952381D01*
X-1177664228Y104952381D02*
X-1177664228Y104761905D01*
X-1177664228Y104761905D02*
X-1177616609Y104666667D01*
X-1177616609Y104666667D02*
X-1177568990Y104619048D01*
X-1177568990Y104619048D02*
X-1177473752Y104571429D01*
X-1179038094Y48545180D02*
X-1179038094Y49545180D01*
X-1179038094Y49545180D02*
X-1178799999Y49545180D01*
X-1178799999Y49545180D02*
X-1178657142Y49497561D01*
X-1178657142Y49497561D02*
X-1178561904Y49402323D01*
X-1178561904Y49402323D02*
X-1178514285Y49307085D01*
X-1178514285Y49307085D02*
X-1178466666Y49116609D01*
X-1178466666Y49116609D02*
X-1178466666Y48973752D01*
X-1178466666Y48973752D02*
X-1178514285Y48783276D01*
X-1178514285Y48783276D02*
X-1178561904Y48688038D01*
X-1178561904Y48688038D02*
X-1178657142Y48592800D01*
X-1178657142Y48592800D02*
X-1178799999Y48545180D01*
X-1178799999Y48545180D02*
X-1179038094Y48545180D01*
X-1178085713Y49449942D02*
X-1178038094Y49497561D01*
X-1178038094Y49497561D02*
X-1177942856Y49545180D01*
X-1177942856Y49545180D02*
X-1177704761Y49545180D01*
X-1177704761Y49545180D02*
X-1177609523Y49497561D01*
X-1177609523Y49497561D02*
X-1177561904Y49449942D01*
X-1177561904Y49449942D02*
X-1177514285Y49354704D01*
X-1177514285Y49354704D02*
X-1177514285Y49259466D01*
X-1177514285Y49259466D02*
X-1177561904Y49116609D01*
X-1177561904Y49116609D02*
X-1178133332Y48545180D01*
X-1178133332Y48545180D02*
X-1177514285Y48545180D01*
X-1150245180Y104957142D02*
X-1150721371Y104623809D01*
X-1150245180Y104385714D02*
X-1151245180Y104385714D01*
X-1151245180Y104385714D02*
X-1151245180Y104766666D01*
X-1151245180Y104766666D02*
X-1151197561Y104861904D01*
X-1151197561Y104861904D02*
X-1151149942Y104909523D01*
X-1151149942Y104909523D02*
X-1151054704Y104957142D01*
X-1151054704Y104957142D02*
X-1150911847Y104957142D01*
X-1150911847Y104957142D02*
X-1150816609Y104909523D01*
X-1150816609Y104909523D02*
X-1150768990Y104861904D01*
X-1150768990Y104861904D02*
X-1150721371Y104766666D01*
X-1150721371Y104766666D02*
X-1150721371Y104385714D01*
X-1150245180Y105909523D02*
X-1150245180Y105338095D01*
X-1150245180Y105623809D02*
X-1151245180Y105623809D01*
X-1151245180Y105623809D02*
X-1151102323Y105528571D01*
X-1151102323Y105528571D02*
X-1151007085Y105433333D01*
X-1151007085Y105433333D02*
X-1150959466Y105338095D01*
X-1151245180Y106242857D02*
X-1151245180Y106861904D01*
X-1151245180Y106861904D02*
X-1150864228Y106528571D01*
X-1150864228Y106528571D02*
X-1150864228Y106671428D01*
X-1150864228Y106671428D02*
X-1150816609Y106766666D01*
X-1150816609Y106766666D02*
X-1150768990Y106814285D01*
X-1150768990Y106814285D02*
X-1150673752Y106861904D01*
X-1150673752Y106861904D02*
X-1150435657Y106861904D01*
X-1150435657Y106861904D02*
X-1150340419Y106814285D01*
X-1150340419Y106814285D02*
X-1150292800Y106766666D01*
X-1150292800Y106766666D02*
X-1150245180Y106671428D01*
X-1150245180Y106671428D02*
X-1150245180Y106385714D01*
X-1150245180Y106385714D02*
X-1150292800Y106290476D01*
X-1150292800Y106290476D02*
X-1150340419Y106242857D01*
X-1167345180Y108857142D02*
X-1167821371Y108523809D01*
X-1167345180Y108285714D02*
X-1168345180Y108285714D01*
X-1168345180Y108285714D02*
X-1168345180Y108666666D01*
X-1168345180Y108666666D02*
X-1168297561Y108761904D01*
X-1168297561Y108761904D02*
X-1168249942Y108809523D01*
X-1168249942Y108809523D02*
X-1168154704Y108857142D01*
X-1168154704Y108857142D02*
X-1168011847Y108857142D01*
X-1168011847Y108857142D02*
X-1167916609Y108809523D01*
X-1167916609Y108809523D02*
X-1167868990Y108761904D01*
X-1167868990Y108761904D02*
X-1167821371Y108666666D01*
X-1167821371Y108666666D02*
X-1167821371Y108285714D01*
X-1167345180Y109809523D02*
X-1167345180Y109238095D01*
X-1167345180Y109523809D02*
X-1168345180Y109523809D01*
X-1168345180Y109523809D02*
X-1168202323Y109428571D01*
X-1168202323Y109428571D02*
X-1168107085Y109333333D01*
X-1168107085Y109333333D02*
X-1168059466Y109238095D01*
X-1168345180Y110428571D02*
X-1168345180Y110523809D01*
X-1168345180Y110523809D02*
X-1168297561Y110619047D01*
X-1168297561Y110619047D02*
X-1168249942Y110666666D01*
X-1168249942Y110666666D02*
X-1168154704Y110714285D01*
X-1168154704Y110714285D02*
X-1167964228Y110761904D01*
X-1167964228Y110761904D02*
X-1167726133Y110761904D01*
X-1167726133Y110761904D02*
X-1167535657Y110714285D01*
X-1167535657Y110714285D02*
X-1167440419Y110666666D01*
X-1167440419Y110666666D02*
X-1167392800Y110619047D01*
X-1167392800Y110619047D02*
X-1167345180Y110523809D01*
X-1167345180Y110523809D02*
X-1167345180Y110428571D01*
X-1167345180Y110428571D02*
X-1167392800Y110333333D01*
X-1167392800Y110333333D02*
X-1167440419Y110285714D01*
X-1167440419Y110285714D02*
X-1167535657Y110238095D01*
X-1167535657Y110238095D02*
X-1167726133Y110190476D01*
X-1167726133Y110190476D02*
X-1167964228Y110190476D01*
X-1167964228Y110190476D02*
X-1168154704Y110238095D01*
X-1168154704Y110238095D02*
X-1168249942Y110285714D01*
X-1168249942Y110285714D02*
X-1168297561Y110333333D01*
X-1168297561Y110333333D02*
X-1168345180Y110428571D01*
X-1131166666Y111540419D02*
X-1131214285Y111492800D01*
X-1131214285Y111492800D02*
X-1131357142Y111445180D01*
X-1131357142Y111445180D02*
X-1131452380Y111445180D01*
X-1131452380Y111445180D02*
X-1131595237Y111492800D01*
X-1131595237Y111492800D02*
X-1131690475Y111588038D01*
X-1131690475Y111588038D02*
X-1131738094Y111683276D01*
X-1131738094Y111683276D02*
X-1131785713Y111873752D01*
X-1131785713Y111873752D02*
X-1131785713Y112016609D01*
X-1131785713Y112016609D02*
X-1131738094Y112207085D01*
X-1131738094Y112207085D02*
X-1131690475Y112302323D01*
X-1131690475Y112302323D02*
X-1131595237Y112397561D01*
X-1131595237Y112397561D02*
X-1131452380Y112445180D01*
X-1131452380Y112445180D02*
X-1131357142Y112445180D01*
X-1131357142Y112445180D02*
X-1131214285Y112397561D01*
X-1131214285Y112397561D02*
X-1131166666Y112349942D01*
X-1130214285Y111445180D02*
X-1130785713Y111445180D01*
X-1130499999Y111445180D02*
X-1130499999Y112445180D01*
X-1130499999Y112445180D02*
X-1130595237Y112302323D01*
X-1130595237Y112302323D02*
X-1130690475Y112207085D01*
X-1130690475Y112207085D02*
X-1130785713Y112159466D01*
X-1143515180Y99057142D02*
X-1143991371Y98723809D01*
X-1143515180Y98485714D02*
X-1144515180Y98485714D01*
X-1144515180Y98485714D02*
X-1144515180Y98866666D01*
X-1144515180Y98866666D02*
X-1144467561Y98961904D01*
X-1144467561Y98961904D02*
X-1144419942Y99009523D01*
X-1144419942Y99009523D02*
X-1144324704Y99057142D01*
X-1144324704Y99057142D02*
X-1144181847Y99057142D01*
X-1144181847Y99057142D02*
X-1144086609Y99009523D01*
X-1144086609Y99009523D02*
X-1144038990Y98961904D01*
X-1144038990Y98961904D02*
X-1143991371Y98866666D01*
X-1143991371Y98866666D02*
X-1143991371Y98485714D01*
X-1144419942Y99438095D02*
X-1144467561Y99485714D01*
X-1144467561Y99485714D02*
X-1144515180Y99580952D01*
X-1144515180Y99580952D02*
X-1144515180Y99819047D01*
X-1144515180Y99819047D02*
X-1144467561Y99914285D01*
X-1144467561Y99914285D02*
X-1144419942Y99961904D01*
X-1144419942Y99961904D02*
X-1144324704Y100009523D01*
X-1144324704Y100009523D02*
X-1144229466Y100009523D01*
X-1144229466Y100009523D02*
X-1144086609Y99961904D01*
X-1144086609Y99961904D02*
X-1143515180Y99390476D01*
X-1143515180Y99390476D02*
X-1143515180Y100009523D01*
X-1144515180Y100628571D02*
X-1144515180Y100723809D01*
X-1144515180Y100723809D02*
X-1144467561Y100819047D01*
X-1144467561Y100819047D02*
X-1144419942Y100866666D01*
X-1144419942Y100866666D02*
X-1144324704Y100914285D01*
X-1144324704Y100914285D02*
X-1144134228Y100961904D01*
X-1144134228Y100961904D02*
X-1143896133Y100961904D01*
X-1143896133Y100961904D02*
X-1143705657Y100914285D01*
X-1143705657Y100914285D02*
X-1143610419Y100866666D01*
X-1143610419Y100866666D02*
X-1143562800Y100819047D01*
X-1143562800Y100819047D02*
X-1143515180Y100723809D01*
X-1143515180Y100723809D02*
X-1143515180Y100628571D01*
X-1143515180Y100628571D02*
X-1143562800Y100533333D01*
X-1143562800Y100533333D02*
X-1143610419Y100485714D01*
X-1143610419Y100485714D02*
X-1143705657Y100438095D01*
X-1143705657Y100438095D02*
X-1143896133Y100390476D01*
X-1143896133Y100390476D02*
X-1144134228Y100390476D01*
X-1144134228Y100390476D02*
X-1144324704Y100438095D01*
X-1144324704Y100438095D02*
X-1144419942Y100485714D01*
X-1144419942Y100485714D02*
X-1144467561Y100533333D01*
X-1144467561Y100533333D02*
X-1144515180Y100628571D01*
X-1136013094Y53256180D02*
X-1136013094Y54256180D01*
X-1136013094Y54256180D02*
X-1135774999Y54256180D01*
X-1135774999Y54256180D02*
X-1135632142Y54208561D01*
X-1135632142Y54208561D02*
X-1135536904Y54113323D01*
X-1135536904Y54113323D02*
X-1135489285Y54018085D01*
X-1135489285Y54018085D02*
X-1135441666Y53827609D01*
X-1135441666Y53827609D02*
X-1135441666Y53684752D01*
X-1135441666Y53684752D02*
X-1135489285Y53494276D01*
X-1135489285Y53494276D02*
X-1135536904Y53399038D01*
X-1135536904Y53399038D02*
X-1135632142Y53303800D01*
X-1135632142Y53303800D02*
X-1135774999Y53256180D01*
X-1135774999Y53256180D02*
X-1136013094Y53256180D01*
X-1135108332Y54256180D02*
X-1134489285Y54256180D01*
X-1134489285Y54256180D02*
X-1134822618Y53875228D01*
X-1134822618Y53875228D02*
X-1134679761Y53875228D01*
X-1134679761Y53875228D02*
X-1134584523Y53827609D01*
X-1134584523Y53827609D02*
X-1134536904Y53779990D01*
X-1134536904Y53779990D02*
X-1134489285Y53684752D01*
X-1134489285Y53684752D02*
X-1134489285Y53446657D01*
X-1134489285Y53446657D02*
X-1134536904Y53351419D01*
X-1134536904Y53351419D02*
X-1134584523Y53303800D01*
X-1134584523Y53303800D02*
X-1134679761Y53256180D01*
X-1134679761Y53256180D02*
X-1134965475Y53256180D01*
X-1134965475Y53256180D02*
X-1135060713Y53303800D01*
X-1135060713Y53303800D02*
X-1135108332Y53351419D01*
X-1123175180Y63433333D02*
X-1123651371Y63100000D01*
X-1123175180Y62861905D02*
X-1124175180Y62861905D01*
X-1124175180Y62861905D02*
X-1124175180Y63242857D01*
X-1124175180Y63242857D02*
X-1124127561Y63338095D01*
X-1124127561Y63338095D02*
X-1124079942Y63385714D01*
X-1124079942Y63385714D02*
X-1123984704Y63433333D01*
X-1123984704Y63433333D02*
X-1123841847Y63433333D01*
X-1123841847Y63433333D02*
X-1123746609Y63385714D01*
X-1123746609Y63385714D02*
X-1123698990Y63338095D01*
X-1123698990Y63338095D02*
X-1123651371Y63242857D01*
X-1123651371Y63242857D02*
X-1123651371Y62861905D01*
X-1123746609Y64004762D02*
X-1123794228Y63909524D01*
X-1123794228Y63909524D02*
X-1123841847Y63861905D01*
X-1123841847Y63861905D02*
X-1123937085Y63814286D01*
X-1123937085Y63814286D02*
X-1123984704Y63814286D01*
X-1123984704Y63814286D02*
X-1124079942Y63861905D01*
X-1124079942Y63861905D02*
X-1124127561Y63909524D01*
X-1124127561Y63909524D02*
X-1124175180Y64004762D01*
X-1124175180Y64004762D02*
X-1124175180Y64195238D01*
X-1124175180Y64195238D02*
X-1124127561Y64290476D01*
X-1124127561Y64290476D02*
X-1124079942Y64338095D01*
X-1124079942Y64338095D02*
X-1123984704Y64385714D01*
X-1123984704Y64385714D02*
X-1123937085Y64385714D01*
X-1123937085Y64385714D02*
X-1123841847Y64338095D01*
X-1123841847Y64338095D02*
X-1123794228Y64290476D01*
X-1123794228Y64290476D02*
X-1123746609Y64195238D01*
X-1123746609Y64195238D02*
X-1123746609Y64004762D01*
X-1123746609Y64004762D02*
X-1123698990Y63909524D01*
X-1123698990Y63909524D02*
X-1123651371Y63861905D01*
X-1123651371Y63861905D02*
X-1123556133Y63814286D01*
X-1123556133Y63814286D02*
X-1123365657Y63814286D01*
X-1123365657Y63814286D02*
X-1123270419Y63861905D01*
X-1123270419Y63861905D02*
X-1123222800Y63909524D01*
X-1123222800Y63909524D02*
X-1123175180Y64004762D01*
X-1123175180Y64004762D02*
X-1123175180Y64195238D01*
X-1123175180Y64195238D02*
X-1123222800Y64290476D01*
X-1123222800Y64290476D02*
X-1123270419Y64338095D01*
X-1123270419Y64338095D02*
X-1123365657Y64385714D01*
X-1123365657Y64385714D02*
X-1123556133Y64385714D01*
X-1123556133Y64385714D02*
X-1123651371Y64338095D01*
X-1123651371Y64338095D02*
X-1123698990Y64290476D01*
X-1123698990Y64290476D02*
X-1123746609Y64195238D01*
X-1102675180Y50961905D02*
X-1103675180Y50961905D01*
X-1103675180Y50961905D02*
X-1103675180Y51200000D01*
X-1103675180Y51200000D02*
X-1103627561Y51342857D01*
X-1103627561Y51342857D02*
X-1103532323Y51438095D01*
X-1103532323Y51438095D02*
X-1103437085Y51485714D01*
X-1103437085Y51485714D02*
X-1103246609Y51533333D01*
X-1103246609Y51533333D02*
X-1103103752Y51533333D01*
X-1103103752Y51533333D02*
X-1102913276Y51485714D01*
X-1102913276Y51485714D02*
X-1102818038Y51438095D01*
X-1102818038Y51438095D02*
X-1102722800Y51342857D01*
X-1102722800Y51342857D02*
X-1102675180Y51200000D01*
X-1102675180Y51200000D02*
X-1102675180Y50961905D01*
X-1103246609Y52104762D02*
X-1103294228Y52009524D01*
X-1103294228Y52009524D02*
X-1103341847Y51961905D01*
X-1103341847Y51961905D02*
X-1103437085Y51914286D01*
X-1103437085Y51914286D02*
X-1103484704Y51914286D01*
X-1103484704Y51914286D02*
X-1103579942Y51961905D01*
X-1103579942Y51961905D02*
X-1103627561Y52009524D01*
X-1103627561Y52009524D02*
X-1103675180Y52104762D01*
X-1103675180Y52104762D02*
X-1103675180Y52295238D01*
X-1103675180Y52295238D02*
X-1103627561Y52390476D01*
X-1103627561Y52390476D02*
X-1103579942Y52438095D01*
X-1103579942Y52438095D02*
X-1103484704Y52485714D01*
X-1103484704Y52485714D02*
X-1103437085Y52485714D01*
X-1103437085Y52485714D02*
X-1103341847Y52438095D01*
X-1103341847Y52438095D02*
X-1103294228Y52390476D01*
X-1103294228Y52390476D02*
X-1103246609Y52295238D01*
X-1103246609Y52295238D02*
X-1103246609Y52104762D01*
X-1103246609Y52104762D02*
X-1103198990Y52009524D01*
X-1103198990Y52009524D02*
X-1103151371Y51961905D01*
X-1103151371Y51961905D02*
X-1103056133Y51914286D01*
X-1103056133Y51914286D02*
X-1102865657Y51914286D01*
X-1102865657Y51914286D02*
X-1102770419Y51961905D01*
X-1102770419Y51961905D02*
X-1102722800Y52009524D01*
X-1102722800Y52009524D02*
X-1102675180Y52104762D01*
X-1102675180Y52104762D02*
X-1102675180Y52295238D01*
X-1102675180Y52295238D02*
X-1102722800Y52390476D01*
X-1102722800Y52390476D02*
X-1102770419Y52438095D01*
X-1102770419Y52438095D02*
X-1102865657Y52485714D01*
X-1102865657Y52485714D02*
X-1103056133Y52485714D01*
X-1103056133Y52485714D02*
X-1103151371Y52438095D01*
X-1103151371Y52438095D02*
X-1103198990Y52390476D01*
X-1103198990Y52390476D02*
X-1103246609Y52295238D01*
X-1153775180Y51233333D02*
X-1154251371Y50900000D01*
X-1153775180Y50661905D02*
X-1154775180Y50661905D01*
X-1154775180Y50661905D02*
X-1154775180Y51042857D01*
X-1154775180Y51042857D02*
X-1154727561Y51138095D01*
X-1154727561Y51138095D02*
X-1154679942Y51185714D01*
X-1154679942Y51185714D02*
X-1154584704Y51233333D01*
X-1154584704Y51233333D02*
X-1154441847Y51233333D01*
X-1154441847Y51233333D02*
X-1154346609Y51185714D01*
X-1154346609Y51185714D02*
X-1154298990Y51138095D01*
X-1154298990Y51138095D02*
X-1154251371Y51042857D01*
X-1154251371Y51042857D02*
X-1154251371Y50661905D01*
X-1154679942Y51614286D02*
X-1154727561Y51661905D01*
X-1154727561Y51661905D02*
X-1154775180Y51757143D01*
X-1154775180Y51757143D02*
X-1154775180Y51995238D01*
X-1154775180Y51995238D02*
X-1154727561Y52090476D01*
X-1154727561Y52090476D02*
X-1154679942Y52138095D01*
X-1154679942Y52138095D02*
X-1154584704Y52185714D01*
X-1154584704Y52185714D02*
X-1154489466Y52185714D01*
X-1154489466Y52185714D02*
X-1154346609Y52138095D01*
X-1154346609Y52138095D02*
X-1153775180Y51566667D01*
X-1153775180Y51566667D02*
X-1153775180Y52185714D01*
X-1099815180Y55357142D02*
X-1100291371Y55023809D01*
X-1099815180Y54785714D02*
X-1100815180Y54785714D01*
X-1100815180Y54785714D02*
X-1100815180Y55166666D01*
X-1100815180Y55166666D02*
X-1100767561Y55261904D01*
X-1100767561Y55261904D02*
X-1100719942Y55309523D01*
X-1100719942Y55309523D02*
X-1100624704Y55357142D01*
X-1100624704Y55357142D02*
X-1100481847Y55357142D01*
X-1100481847Y55357142D02*
X-1100386609Y55309523D01*
X-1100386609Y55309523D02*
X-1100338990Y55261904D01*
X-1100338990Y55261904D02*
X-1100291371Y55166666D01*
X-1100291371Y55166666D02*
X-1100291371Y54785714D01*
X-1100719942Y55738095D02*
X-1100767561Y55785714D01*
X-1100767561Y55785714D02*
X-1100815180Y55880952D01*
X-1100815180Y55880952D02*
X-1100815180Y56119047D01*
X-1100815180Y56119047D02*
X-1100767561Y56214285D01*
X-1100767561Y56214285D02*
X-1100719942Y56261904D01*
X-1100719942Y56261904D02*
X-1100624704Y56309523D01*
X-1100624704Y56309523D02*
X-1100529466Y56309523D01*
X-1100529466Y56309523D02*
X-1100386609Y56261904D01*
X-1100386609Y56261904D02*
X-1099815180Y55690476D01*
X-1099815180Y55690476D02*
X-1099815180Y56309523D01*
X-1100481847Y57166666D02*
X-1099815180Y57166666D01*
X-1100862800Y56928571D02*
X-1100148514Y56690476D01*
X-1100148514Y56690476D02*
X-1100148514Y57309523D01*
X-1183045180Y104690476D02*
X-1182330895Y104690476D01*
X-1182330895Y104690476D02*
X-1182188038Y104642857D01*
X-1182188038Y104642857D02*
X-1182092800Y104547619D01*
X-1182092800Y104547619D02*
X-1182045180Y104404762D01*
X-1182045180Y104404762D02*
X-1182045180Y104309524D01*
X-1182045180Y105166667D02*
X-1183045180Y105166667D01*
X-1183045180Y105166667D02*
X-1183045180Y105547619D01*
X-1183045180Y105547619D02*
X-1182997561Y105642857D01*
X-1182997561Y105642857D02*
X-1182949942Y105690476D01*
X-1182949942Y105690476D02*
X-1182854704Y105738095D01*
X-1182854704Y105738095D02*
X-1182711847Y105738095D01*
X-1182711847Y105738095D02*
X-1182616609Y105690476D01*
X-1182616609Y105690476D02*
X-1182568990Y105642857D01*
X-1182568990Y105642857D02*
X-1182521371Y105547619D01*
X-1182521371Y105547619D02*
X-1182521371Y105166667D01*
X-1182045180Y106690476D02*
X-1182045180Y106119048D01*
X-1182045180Y106404762D02*
X-1183045180Y106404762D01*
X-1183045180Y106404762D02*
X-1182902323Y106309524D01*
X-1182902323Y106309524D02*
X-1182807085Y106214286D01*
X-1182807085Y106214286D02*
X-1182759466Y106119048D01*
X-1183045180Y107595238D02*
X-1183045180Y107119048D01*
X-1183045180Y107119048D02*
X-1182568990Y107071429D01*
X-1182568990Y107071429D02*
X-1182616609Y107119048D01*
X-1182616609Y107119048D02*
X-1182664228Y107214286D01*
X-1182664228Y107214286D02*
X-1182664228Y107452381D01*
X-1182664228Y107452381D02*
X-1182616609Y107547619D01*
X-1182616609Y107547619D02*
X-1182568990Y107595238D01*
X-1182568990Y107595238D02*
X-1182473752Y107642857D01*
X-1182473752Y107642857D02*
X-1182235657Y107642857D01*
X-1182235657Y107642857D02*
X-1182140419Y107595238D01*
X-1182140419Y107595238D02*
X-1182092800Y107547619D01*
X-1182092800Y107547619D02*
X-1182045180Y107452381D01*
X-1182045180Y107452381D02*
X-1182045180Y107214286D01*
X-1182045180Y107214286D02*
X-1182092800Y107119048D01*
X-1182092800Y107119048D02*
X-1182140419Y107071429D01*
X-1189645180Y105366666D02*
X-1188930895Y105366666D01*
X-1188930895Y105366666D02*
X-1188788038Y105319047D01*
X-1188788038Y105319047D02*
X-1188692800Y105223809D01*
X-1188692800Y105223809D02*
X-1188645180Y105080952D01*
X-1188645180Y105080952D02*
X-1188645180Y104985714D01*
X-1188645180Y105842857D02*
X-1189645180Y105842857D01*
X-1189645180Y105842857D02*
X-1189645180Y106223809D01*
X-1189645180Y106223809D02*
X-1189597561Y106319047D01*
X-1189597561Y106319047D02*
X-1189549942Y106366666D01*
X-1189549942Y106366666D02*
X-1189454704Y106414285D01*
X-1189454704Y106414285D02*
X-1189311847Y106414285D01*
X-1189311847Y106414285D02*
X-1189216609Y106366666D01*
X-1189216609Y106366666D02*
X-1189168990Y106319047D01*
X-1189168990Y106319047D02*
X-1189121371Y106223809D01*
X-1189121371Y106223809D02*
X-1189121371Y105842857D01*
X-1189645180Y106747619D02*
X-1189645180Y107414285D01*
X-1189645180Y107414285D02*
X-1188645180Y106985714D01*
X-1103542857Y104615180D02*
X-1103876190Y105091371D01*
X-1104114285Y104615180D02*
X-1104114285Y105615180D01*
X-1104114285Y105615180D02*
X-1103733333Y105615180D01*
X-1103733333Y105615180D02*
X-1103638095Y105567561D01*
X-1103638095Y105567561D02*
X-1103590476Y105519942D01*
X-1103590476Y105519942D02*
X-1103542857Y105424704D01*
X-1103542857Y105424704D02*
X-1103542857Y105281847D01*
X-1103542857Y105281847D02*
X-1103590476Y105186609D01*
X-1103590476Y105186609D02*
X-1103638095Y105138990D01*
X-1103638095Y105138990D02*
X-1103733333Y105091371D01*
X-1103733333Y105091371D02*
X-1104114285Y105091371D01*
X-1103161904Y105519942D02*
X-1103114285Y105567561D01*
X-1103114285Y105567561D02*
X-1103019047Y105615180D01*
X-1103019047Y105615180D02*
X-1102780952Y105615180D01*
X-1102780952Y105615180D02*
X-1102685714Y105567561D01*
X-1102685714Y105567561D02*
X-1102638095Y105519942D01*
X-1102638095Y105519942D02*
X-1102590476Y105424704D01*
X-1102590476Y105424704D02*
X-1102590476Y105329466D01*
X-1102590476Y105329466D02*
X-1102638095Y105186609D01*
X-1102638095Y105186609D02*
X-1103209523Y104615180D01*
X-1103209523Y104615180D02*
X-1102590476Y104615180D01*
X-1102019047Y105186609D02*
X-1102114285Y105234228D01*
X-1102114285Y105234228D02*
X-1102161904Y105281847D01*
X-1102161904Y105281847D02*
X-1102209523Y105377085D01*
X-1102209523Y105377085D02*
X-1102209523Y105424704D01*
X-1102209523Y105424704D02*
X-1102161904Y105519942D01*
X-1102161904Y105519942D02*
X-1102114285Y105567561D01*
X-1102114285Y105567561D02*
X-1102019047Y105615180D01*
X-1102019047Y105615180D02*
X-1101828571Y105615180D01*
X-1101828571Y105615180D02*
X-1101733333Y105567561D01*
X-1101733333Y105567561D02*
X-1101685714Y105519942D01*
X-1101685714Y105519942D02*
X-1101638095Y105424704D01*
X-1101638095Y105424704D02*
X-1101638095Y105377085D01*
X-1101638095Y105377085D02*
X-1101685714Y105281847D01*
X-1101685714Y105281847D02*
X-1101733333Y105234228D01*
X-1101733333Y105234228D02*
X-1101828571Y105186609D01*
X-1101828571Y105186609D02*
X-1102019047Y105186609D01*
X-1102019047Y105186609D02*
X-1102114285Y105138990D01*
X-1102114285Y105138990D02*
X-1102161904Y105091371D01*
X-1102161904Y105091371D02*
X-1102209523Y104996133D01*
X-1102209523Y104996133D02*
X-1102209523Y104805657D01*
X-1102209523Y104805657D02*
X-1102161904Y104710419D01*
X-1102161904Y104710419D02*
X-1102114285Y104662800D01*
X-1102114285Y104662800D02*
X-1102019047Y104615180D01*
X-1102019047Y104615180D02*
X-1101828571Y104615180D01*
X-1101828571Y104615180D02*
X-1101733333Y104662800D01*
X-1101733333Y104662800D02*
X-1101685714Y104710419D01*
X-1101685714Y104710419D02*
X-1101638095Y104805657D01*
X-1101638095Y104805657D02*
X-1101638095Y104996133D01*
X-1101638095Y104996133D02*
X-1101685714Y105091371D01*
X-1101685714Y105091371D02*
X-1101733333Y105138990D01*
X-1101733333Y105138990D02*
X-1101828571Y105186609D01*
X-1116275180Y55890476D02*
X-1115560895Y55890476D01*
X-1115560895Y55890476D02*
X-1115418038Y55842857D01*
X-1115418038Y55842857D02*
X-1115322800Y55747619D01*
X-1115322800Y55747619D02*
X-1115275180Y55604762D01*
X-1115275180Y55604762D02*
X-1115275180Y55509524D01*
X-1115275180Y56890476D02*
X-1115275180Y56319048D01*
X-1115275180Y56604762D02*
X-1116275180Y56604762D01*
X-1116275180Y56604762D02*
X-1116132323Y56509524D01*
X-1116132323Y56509524D02*
X-1116037085Y56414286D01*
X-1116037085Y56414286D02*
X-1115989466Y56319048D01*
X-1115275180Y57366667D02*
X-1115275180Y57557143D01*
X-1115275180Y57557143D02*
X-1115322800Y57652381D01*
X-1115322800Y57652381D02*
X-1115370419Y57700000D01*
X-1115370419Y57700000D02*
X-1115513276Y57795238D01*
X-1115513276Y57795238D02*
X-1115703752Y57842857D01*
X-1115703752Y57842857D02*
X-1116084704Y57842857D01*
X-1116084704Y57842857D02*
X-1116179942Y57795238D01*
X-1116179942Y57795238D02*
X-1116227561Y57747619D01*
X-1116227561Y57747619D02*
X-1116275180Y57652381D01*
X-1116275180Y57652381D02*
X-1116275180Y57461905D01*
X-1116275180Y57461905D02*
X-1116227561Y57366667D01*
X-1116227561Y57366667D02*
X-1116179942Y57319048D01*
X-1116179942Y57319048D02*
X-1116084704Y57271429D01*
X-1116084704Y57271429D02*
X-1115846609Y57271429D01*
X-1115846609Y57271429D02*
X-1115751371Y57319048D01*
X-1115751371Y57319048D02*
X-1115703752Y57366667D01*
X-1115703752Y57366667D02*
X-1115656133Y57461905D01*
X-1115656133Y57461905D02*
X-1115656133Y57652381D01*
X-1115656133Y57652381D02*
X-1115703752Y57747619D01*
X-1115703752Y57747619D02*
X-1115751371Y57795238D01*
X-1115751371Y57795238D02*
X-1115846609Y57842857D01*
X-1136045180Y79138095D02*
X-1135235657Y79138095D01*
X-1135235657Y79138095D02*
X-1135140419Y79185714D01*
X-1135140419Y79185714D02*
X-1135092800Y79233333D01*
X-1135092800Y79233333D02*
X-1135045180Y79328571D01*
X-1135045180Y79328571D02*
X-1135045180Y79519047D01*
X-1135045180Y79519047D02*
X-1135092800Y79614285D01*
X-1135092800Y79614285D02*
X-1135140419Y79661904D01*
X-1135140419Y79661904D02*
X-1135235657Y79709523D01*
X-1135235657Y79709523D02*
X-1136045180Y79709523D01*
X-1135711847Y80614285D02*
X-1135045180Y80614285D01*
X-1136092800Y80376190D02*
X-1135378514Y80138095D01*
X-1135378514Y80138095D02*
X-1135378514Y80757142D01*
X-1165140419Y114833333D02*
X-1165092800Y114785714D01*
X-1165092800Y114785714D02*
X-1165045180Y114642857D01*
X-1165045180Y114642857D02*
X-1165045180Y114547619D01*
X-1165045180Y114547619D02*
X-1165092800Y114404762D01*
X-1165092800Y114404762D02*
X-1165188038Y114309524D01*
X-1165188038Y114309524D02*
X-1165283276Y114261905D01*
X-1165283276Y114261905D02*
X-1165473752Y114214286D01*
X-1165473752Y114214286D02*
X-1165616609Y114214286D01*
X-1165616609Y114214286D02*
X-1165807085Y114261905D01*
X-1165807085Y114261905D02*
X-1165902323Y114309524D01*
X-1165902323Y114309524D02*
X-1165997561Y114404762D01*
X-1165997561Y114404762D02*
X-1166045180Y114547619D01*
X-1166045180Y114547619D02*
X-1166045180Y114642857D01*
X-1166045180Y114642857D02*
X-1165997561Y114785714D01*
X-1165997561Y114785714D02*
X-1165949942Y114833333D01*
X-1165045180Y115309524D02*
X-1165045180Y115500000D01*
X-1165045180Y115500000D02*
X-1165092800Y115595238D01*
X-1165092800Y115595238D02*
X-1165140419Y115642857D01*
X-1165140419Y115642857D02*
X-1165283276Y115738095D01*
X-1165283276Y115738095D02*
X-1165473752Y115785714D01*
X-1165473752Y115785714D02*
X-1165854704Y115785714D01*
X-1165854704Y115785714D02*
X-1165949942Y115738095D01*
X-1165949942Y115738095D02*
X-1165997561Y115690476D01*
X-1165997561Y115690476D02*
X-1166045180Y115595238D01*
X-1166045180Y115595238D02*
X-1166045180Y115404762D01*
X-1166045180Y115404762D02*
X-1165997561Y115309524D01*
X-1165997561Y115309524D02*
X-1165949942Y115261905D01*
X-1165949942Y115261905D02*
X-1165854704Y115214286D01*
X-1165854704Y115214286D02*
X-1165616609Y115214286D01*
X-1165616609Y115214286D02*
X-1165521371Y115261905D01*
X-1165521371Y115261905D02*
X-1165473752Y115309524D01*
X-1165473752Y115309524D02*
X-1165426133Y115404762D01*
X-1165426133Y115404762D02*
X-1165426133Y115595238D01*
X-1165426133Y115595238D02*
X-1165473752Y115690476D01*
X-1165473752Y115690476D02*
X-1165521371Y115738095D01*
X-1165521371Y115738095D02*
X-1165616609Y115785714D01*
X-1101366666Y91040419D02*
X-1101414285Y90992800D01*
X-1101414285Y90992800D02*
X-1101557142Y90945180D01*
X-1101557142Y90945180D02*
X-1101652380Y90945180D01*
X-1101652380Y90945180D02*
X-1101795237Y90992800D01*
X-1101795237Y90992800D02*
X-1101890475Y91088038D01*
X-1101890475Y91088038D02*
X-1101938094Y91183276D01*
X-1101938094Y91183276D02*
X-1101985713Y91373752D01*
X-1101985713Y91373752D02*
X-1101985713Y91516609D01*
X-1101985713Y91516609D02*
X-1101938094Y91707085D01*
X-1101938094Y91707085D02*
X-1101890475Y91802323D01*
X-1101890475Y91802323D02*
X-1101795237Y91897561D01*
X-1101795237Y91897561D02*
X-1101652380Y91945180D01*
X-1101652380Y91945180D02*
X-1101557142Y91945180D01*
X-1101557142Y91945180D02*
X-1101414285Y91897561D01*
X-1101414285Y91897561D02*
X-1101366666Y91849942D01*
X-1101033332Y91945180D02*
X-1100366666Y91945180D01*
X-1100366666Y91945180D02*
X-1100795237Y90945180D01*
D12*
X-1176820952Y62104729D02*
X-1176941904Y62165205D01*
X-1176941904Y62165205D02*
X-1177062857Y62286158D01*
X-1177062857Y62286158D02*
X-1177244285Y62467586D01*
X-1177244285Y62467586D02*
X-1177365238Y62528062D01*
X-1177365238Y62528062D02*
X-1177486190Y62528062D01*
X-1177425714Y62225681D02*
X-1177546666Y62286158D01*
X-1177546666Y62286158D02*
X-1177667619Y62407110D01*
X-1177667619Y62407110D02*
X-1177728095Y62649015D01*
X-1177728095Y62649015D02*
X-1177728095Y63072348D01*
X-1177728095Y63072348D02*
X-1177667619Y63314253D01*
X-1177667619Y63314253D02*
X-1177546666Y63435205D01*
X-1177546666Y63435205D02*
X-1177425714Y63495681D01*
X-1177425714Y63495681D02*
X-1177183809Y63495681D01*
X-1177183809Y63495681D02*
X-1177062857Y63435205D01*
X-1177062857Y63435205D02*
X-1176941904Y63314253D01*
X-1176941904Y63314253D02*
X-1176881428Y63072348D01*
X-1176881428Y63072348D02*
X-1176881428Y62649015D01*
X-1176881428Y62649015D02*
X-1176941904Y62407110D01*
X-1176941904Y62407110D02*
X-1177062857Y62286158D01*
X-1177062857Y62286158D02*
X-1177183809Y62225681D01*
X-1177183809Y62225681D02*
X-1177425714Y62225681D01*
X-1176458095Y63495681D02*
X-1175671904Y63495681D01*
X-1175671904Y63495681D02*
X-1176095238Y63011872D01*
X-1176095238Y63011872D02*
X-1175913809Y63011872D01*
X-1175913809Y63011872D02*
X-1175792857Y62951396D01*
X-1175792857Y62951396D02*
X-1175732381Y62890919D01*
X-1175732381Y62890919D02*
X-1175671904Y62769967D01*
X-1175671904Y62769967D02*
X-1175671904Y62467586D01*
X-1175671904Y62467586D02*
X-1175732381Y62346634D01*
X-1175732381Y62346634D02*
X-1175792857Y62286158D01*
X-1175792857Y62286158D02*
X-1175913809Y62225681D01*
X-1175913809Y62225681D02*
X-1176276666Y62225681D01*
X-1176276666Y62225681D02*
X-1176397619Y62286158D01*
X-1176397619Y62286158D02*
X-1176458095Y62346634D01*
D11*
X-1095661904Y126745180D02*
X-1095661904Y127745180D01*
X-1095661904Y127268990D02*
X-1095090476Y127268990D01*
X-1095090476Y126745180D02*
X-1095090476Y127745180D01*
X-1094709523Y127745180D02*
X-1094090476Y127745180D01*
X-1094090476Y127745180D02*
X-1094423809Y127364228D01*
X-1094423809Y127364228D02*
X-1094280952Y127364228D01*
X-1094280952Y127364228D02*
X-1094185714Y127316609D01*
X-1094185714Y127316609D02*
X-1094138095Y127268990D01*
X-1094138095Y127268990D02*
X-1094090476Y127173752D01*
X-1094090476Y127173752D02*
X-1094090476Y126935657D01*
X-1094090476Y126935657D02*
X-1094138095Y126840419D01*
X-1094138095Y126840419D02*
X-1094185714Y126792800D01*
X-1094185714Y126792800D02*
X-1094280952Y126745180D01*
X-1094280952Y126745180D02*
X-1094566666Y126745180D01*
X-1094566666Y126745180D02*
X-1094661904Y126792800D01*
X-1094661904Y126792800D02*
X-1094709523Y126840419D01*
X-1126840419Y75333333D02*
X-1126792800Y75285714D01*
X-1126792800Y75285714D02*
X-1126745180Y75142857D01*
X-1126745180Y75142857D02*
X-1126745180Y75047619D01*
X-1126745180Y75047619D02*
X-1126792800Y74904762D01*
X-1126792800Y74904762D02*
X-1126888038Y74809524D01*
X-1126888038Y74809524D02*
X-1126983276Y74761905D01*
X-1126983276Y74761905D02*
X-1127173752Y74714286D01*
X-1127173752Y74714286D02*
X-1127316609Y74714286D01*
X-1127316609Y74714286D02*
X-1127507085Y74761905D01*
X-1127507085Y74761905D02*
X-1127602323Y74809524D01*
X-1127602323Y74809524D02*
X-1127697561Y74904762D01*
X-1127697561Y74904762D02*
X-1127745180Y75047619D01*
X-1127745180Y75047619D02*
X-1127745180Y75142857D01*
X-1127745180Y75142857D02*
X-1127697561Y75285714D01*
X-1127697561Y75285714D02*
X-1127649942Y75333333D01*
X-1127411847Y76190476D02*
X-1126745180Y76190476D01*
X-1127792800Y75952381D02*
X-1127078514Y75714286D01*
X-1127078514Y75714286D02*
X-1127078514Y76333333D01*
X-1167533333Y91772180D02*
X-1167533333Y91057895D01*
X-1167533333Y91057895D02*
X-1167580952Y90915038D01*
X-1167580952Y90915038D02*
X-1167676190Y90819800D01*
X-1167676190Y90819800D02*
X-1167819047Y90772180D01*
X-1167819047Y90772180D02*
X-1167914285Y90772180D01*
X-1167009523Y90772180D02*
X-1166819047Y90772180D01*
X-1166819047Y90772180D02*
X-1166723809Y90819800D01*
X-1166723809Y90819800D02*
X-1166676190Y90867419D01*
X-1166676190Y90867419D02*
X-1166580952Y91010276D01*
X-1166580952Y91010276D02*
X-1166533333Y91200752D01*
X-1166533333Y91200752D02*
X-1166533333Y91581704D01*
X-1166533333Y91581704D02*
X-1166580952Y91676942D01*
X-1166580952Y91676942D02*
X-1166628571Y91724561D01*
X-1166628571Y91724561D02*
X-1166723809Y91772180D01*
X-1166723809Y91772180D02*
X-1166914285Y91772180D01*
X-1166914285Y91772180D02*
X-1167009523Y91724561D01*
X-1167009523Y91724561D02*
X-1167057142Y91676942D01*
X-1167057142Y91676942D02*
X-1167104761Y91581704D01*
X-1167104761Y91581704D02*
X-1167104761Y91343609D01*
X-1167104761Y91343609D02*
X-1167057142Y91248371D01*
X-1167057142Y91248371D02*
X-1167009523Y91200752D01*
X-1167009523Y91200752D02*
X-1166914285Y91153133D01*
X-1166914285Y91153133D02*
X-1166723809Y91153133D01*
X-1166723809Y91153133D02*
X-1166628571Y91200752D01*
X-1166628571Y91200752D02*
X-1166580952Y91248371D01*
X-1166580952Y91248371D02*
X-1166533333Y91343609D01*
X-1128975180Y63333333D02*
X-1129451371Y63000000D01*
X-1128975180Y62761905D02*
X-1129975180Y62761905D01*
X-1129975180Y62761905D02*
X-1129975180Y63142857D01*
X-1129975180Y63142857D02*
X-1129927561Y63238095D01*
X-1129927561Y63238095D02*
X-1129879942Y63285714D01*
X-1129879942Y63285714D02*
X-1129784704Y63333333D01*
X-1129784704Y63333333D02*
X-1129641847Y63333333D01*
X-1129641847Y63333333D02*
X-1129546609Y63285714D01*
X-1129546609Y63285714D02*
X-1129498990Y63238095D01*
X-1129498990Y63238095D02*
X-1129451371Y63142857D01*
X-1129451371Y63142857D02*
X-1129451371Y62761905D01*
X-1128975180Y63809524D02*
X-1128975180Y64000000D01*
X-1128975180Y64000000D02*
X-1129022800Y64095238D01*
X-1129022800Y64095238D02*
X-1129070419Y64142857D01*
X-1129070419Y64142857D02*
X-1129213276Y64238095D01*
X-1129213276Y64238095D02*
X-1129403752Y64285714D01*
X-1129403752Y64285714D02*
X-1129784704Y64285714D01*
X-1129784704Y64285714D02*
X-1129879942Y64238095D01*
X-1129879942Y64238095D02*
X-1129927561Y64190476D01*
X-1129927561Y64190476D02*
X-1129975180Y64095238D01*
X-1129975180Y64095238D02*
X-1129975180Y63904762D01*
X-1129975180Y63904762D02*
X-1129927561Y63809524D01*
X-1129927561Y63809524D02*
X-1129879942Y63761905D01*
X-1129879942Y63761905D02*
X-1129784704Y63714286D01*
X-1129784704Y63714286D02*
X-1129546609Y63714286D01*
X-1129546609Y63714286D02*
X-1129451371Y63761905D01*
X-1129451371Y63761905D02*
X-1129403752Y63809524D01*
X-1129403752Y63809524D02*
X-1129356133Y63904762D01*
X-1129356133Y63904762D02*
X-1129356133Y64095238D01*
X-1129356133Y64095238D02*
X-1129403752Y64190476D01*
X-1129403752Y64190476D02*
X-1129451371Y64238095D01*
X-1129451371Y64238095D02*
X-1129546609Y64285714D01*
X-1118845180Y63533333D02*
X-1119321371Y63200000D01*
X-1118845180Y62961905D02*
X-1119845180Y62961905D01*
X-1119845180Y62961905D02*
X-1119845180Y63342857D01*
X-1119845180Y63342857D02*
X-1119797561Y63438095D01*
X-1119797561Y63438095D02*
X-1119749942Y63485714D01*
X-1119749942Y63485714D02*
X-1119654704Y63533333D01*
X-1119654704Y63533333D02*
X-1119511847Y63533333D01*
X-1119511847Y63533333D02*
X-1119416609Y63485714D01*
X-1119416609Y63485714D02*
X-1119368990Y63438095D01*
X-1119368990Y63438095D02*
X-1119321371Y63342857D01*
X-1119321371Y63342857D02*
X-1119321371Y62961905D01*
X-1119845180Y63866667D02*
X-1119845180Y64533333D01*
X-1119845180Y64533333D02*
X-1118845180Y64104762D01*
X-1159173094Y45440180D02*
X-1159173094Y46440180D01*
X-1159173094Y46440180D02*
X-1158934999Y46440180D01*
X-1158934999Y46440180D02*
X-1158792142Y46392561D01*
X-1158792142Y46392561D02*
X-1158696904Y46297323D01*
X-1158696904Y46297323D02*
X-1158649285Y46202085D01*
X-1158649285Y46202085D02*
X-1158601666Y46011609D01*
X-1158601666Y46011609D02*
X-1158601666Y45868752D01*
X-1158601666Y45868752D02*
X-1158649285Y45678276D01*
X-1158649285Y45678276D02*
X-1158696904Y45583038D01*
X-1158696904Y45583038D02*
X-1158792142Y45487800D01*
X-1158792142Y45487800D02*
X-1158934999Y45440180D01*
X-1158934999Y45440180D02*
X-1159173094Y45440180D01*
X-1157649285Y45440180D02*
X-1158220713Y45440180D01*
X-1157934999Y45440180D02*
X-1157934999Y46440180D01*
X-1157934999Y46440180D02*
X-1158030237Y46297323D01*
X-1158030237Y46297323D02*
X-1158125475Y46202085D01*
X-1158125475Y46202085D02*
X-1158220713Y46154466D01*
X-1185145180Y112866666D02*
X-1184430895Y112866666D01*
X-1184430895Y112866666D02*
X-1184288038Y112819047D01*
X-1184288038Y112819047D02*
X-1184192800Y112723809D01*
X-1184192800Y112723809D02*
X-1184145180Y112580952D01*
X-1184145180Y112580952D02*
X-1184145180Y112485714D01*
X-1184145180Y113342857D02*
X-1185145180Y113342857D01*
X-1185145180Y113342857D02*
X-1185145180Y113723809D01*
X-1185145180Y113723809D02*
X-1185097561Y113819047D01*
X-1185097561Y113819047D02*
X-1185049942Y113866666D01*
X-1185049942Y113866666D02*
X-1184954704Y113914285D01*
X-1184954704Y113914285D02*
X-1184811847Y113914285D01*
X-1184811847Y113914285D02*
X-1184716609Y113866666D01*
X-1184716609Y113866666D02*
X-1184668990Y113819047D01*
X-1184668990Y113819047D02*
X-1184621371Y113723809D01*
X-1184621371Y113723809D02*
X-1184621371Y113342857D01*
X-1184811847Y114771428D02*
X-1184145180Y114771428D01*
X-1185192800Y114533333D02*
X-1184478514Y114295238D01*
X-1184478514Y114295238D02*
X-1184478514Y114914285D01*
X-1161242857Y67915180D02*
X-1161576190Y68391371D01*
X-1161814285Y67915180D02*
X-1161814285Y68915180D01*
X-1161814285Y68915180D02*
X-1161433333Y68915180D01*
X-1161433333Y68915180D02*
X-1161338095Y68867561D01*
X-1161338095Y68867561D02*
X-1161290476Y68819942D01*
X-1161290476Y68819942D02*
X-1161242857Y68724704D01*
X-1161242857Y68724704D02*
X-1161242857Y68581847D01*
X-1161242857Y68581847D02*
X-1161290476Y68486609D01*
X-1161290476Y68486609D02*
X-1161338095Y68438990D01*
X-1161338095Y68438990D02*
X-1161433333Y68391371D01*
X-1161433333Y68391371D02*
X-1161814285Y68391371D01*
X-1160290476Y67915180D02*
X-1160861904Y67915180D01*
X-1160576190Y67915180D02*
X-1160576190Y68915180D01*
X-1160576190Y68915180D02*
X-1160671428Y68772323D01*
X-1160671428Y68772323D02*
X-1160766666Y68677085D01*
X-1160766666Y68677085D02*
X-1160861904Y68629466D01*
X-1159385714Y68915180D02*
X-1159861904Y68915180D01*
X-1159861904Y68915180D02*
X-1159909523Y68438990D01*
X-1159909523Y68438990D02*
X-1159861904Y68486609D01*
X-1159861904Y68486609D02*
X-1159766666Y68534228D01*
X-1159766666Y68534228D02*
X-1159528571Y68534228D01*
X-1159528571Y68534228D02*
X-1159433333Y68486609D01*
X-1159433333Y68486609D02*
X-1159385714Y68438990D01*
X-1159385714Y68438990D02*
X-1159338095Y68343752D01*
X-1159338095Y68343752D02*
X-1159338095Y68105657D01*
X-1159338095Y68105657D02*
X-1159385714Y68010419D01*
X-1159385714Y68010419D02*
X-1159433333Y67962800D01*
X-1159433333Y67962800D02*
X-1159528571Y67915180D01*
X-1159528571Y67915180D02*
X-1159766666Y67915180D01*
X-1159766666Y67915180D02*
X-1159861904Y67962800D01*
X-1159861904Y67962800D02*
X-1159909523Y68010419D01*
D12*
X-1154020952Y72404729D02*
X-1154141904Y72465205D01*
X-1154141904Y72465205D02*
X-1154262857Y72586158D01*
X-1154262857Y72586158D02*
X-1154444285Y72767586D01*
X-1154444285Y72767586D02*
X-1154565238Y72828062D01*
X-1154565238Y72828062D02*
X-1154686190Y72828062D01*
X-1154625714Y72525681D02*
X-1154746666Y72586158D01*
X-1154746666Y72586158D02*
X-1154867619Y72707110D01*
X-1154867619Y72707110D02*
X-1154928095Y72949015D01*
X-1154928095Y72949015D02*
X-1154928095Y73372348D01*
X-1154928095Y73372348D02*
X-1154867619Y73614253D01*
X-1154867619Y73614253D02*
X-1154746666Y73735205D01*
X-1154746666Y73735205D02*
X-1154625714Y73795681D01*
X-1154625714Y73795681D02*
X-1154383809Y73795681D01*
X-1154383809Y73795681D02*
X-1154262857Y73735205D01*
X-1154262857Y73735205D02*
X-1154141904Y73614253D01*
X-1154141904Y73614253D02*
X-1154081428Y73372348D01*
X-1154081428Y73372348D02*
X-1154081428Y72949015D01*
X-1154081428Y72949015D02*
X-1154141904Y72707110D01*
X-1154141904Y72707110D02*
X-1154262857Y72586158D01*
X-1154262857Y72586158D02*
X-1154383809Y72525681D01*
X-1154383809Y72525681D02*
X-1154625714Y72525681D01*
X-1153597619Y73674729D02*
X-1153537143Y73735205D01*
X-1153537143Y73735205D02*
X-1153416190Y73795681D01*
X-1153416190Y73795681D02*
X-1153113809Y73795681D01*
X-1153113809Y73795681D02*
X-1152992857Y73735205D01*
X-1152992857Y73735205D02*
X-1152932381Y73674729D01*
X-1152932381Y73674729D02*
X-1152871904Y73553777D01*
X-1152871904Y73553777D02*
X-1152871904Y73432824D01*
X-1152871904Y73432824D02*
X-1152932381Y73251396D01*
X-1152932381Y73251396D02*
X-1153658095Y72525681D01*
X-1153658095Y72525681D02*
X-1152871904Y72525681D01*
X-1177120952Y72204729D02*
X-1177241904Y72265205D01*
X-1177241904Y72265205D02*
X-1177362857Y72386158D01*
X-1177362857Y72386158D02*
X-1177544285Y72567586D01*
X-1177544285Y72567586D02*
X-1177665238Y72628062D01*
X-1177665238Y72628062D02*
X-1177786190Y72628062D01*
X-1177725714Y72325681D02*
X-1177846666Y72386158D01*
X-1177846666Y72386158D02*
X-1177967619Y72507110D01*
X-1177967619Y72507110D02*
X-1178028095Y72749015D01*
X-1178028095Y72749015D02*
X-1178028095Y73172348D01*
X-1178028095Y73172348D02*
X-1177967619Y73414253D01*
X-1177967619Y73414253D02*
X-1177846666Y73535205D01*
X-1177846666Y73535205D02*
X-1177725714Y73595681D01*
X-1177725714Y73595681D02*
X-1177483809Y73595681D01*
X-1177483809Y73595681D02*
X-1177362857Y73535205D01*
X-1177362857Y73535205D02*
X-1177241904Y73414253D01*
X-1177241904Y73414253D02*
X-1177181428Y73172348D01*
X-1177181428Y73172348D02*
X-1177181428Y72749015D01*
X-1177181428Y72749015D02*
X-1177241904Y72507110D01*
X-1177241904Y72507110D02*
X-1177362857Y72386158D01*
X-1177362857Y72386158D02*
X-1177483809Y72325681D01*
X-1177483809Y72325681D02*
X-1177725714Y72325681D01*
X-1176092857Y73172348D02*
X-1176092857Y72325681D01*
X-1176395238Y73656158D02*
X-1176697619Y72749015D01*
X-1176697619Y72749015D02*
X-1175911428Y72749015D01*
D11*
X-1185045180Y107766666D02*
X-1184330895Y107766666D01*
X-1184330895Y107766666D02*
X-1184188038Y107719047D01*
X-1184188038Y107719047D02*
X-1184092800Y107623809D01*
X-1184092800Y107623809D02*
X-1184045180Y107480952D01*
X-1184045180Y107480952D02*
X-1184045180Y107385714D01*
X-1184045180Y108242857D02*
X-1185045180Y108242857D01*
X-1185045180Y108242857D02*
X-1185045180Y108623809D01*
X-1185045180Y108623809D02*
X-1184997561Y108719047D01*
X-1184997561Y108719047D02*
X-1184949942Y108766666D01*
X-1184949942Y108766666D02*
X-1184854704Y108814285D01*
X-1184854704Y108814285D02*
X-1184711847Y108814285D01*
X-1184711847Y108814285D02*
X-1184616609Y108766666D01*
X-1184616609Y108766666D02*
X-1184568990Y108719047D01*
X-1184568990Y108719047D02*
X-1184521371Y108623809D01*
X-1184521371Y108623809D02*
X-1184521371Y108242857D01*
X-1185045180Y109671428D02*
X-1185045180Y109480952D01*
X-1185045180Y109480952D02*
X-1184997561Y109385714D01*
X-1184997561Y109385714D02*
X-1184949942Y109338095D01*
X-1184949942Y109338095D02*
X-1184807085Y109242857D01*
X-1184807085Y109242857D02*
X-1184616609Y109195238D01*
X-1184616609Y109195238D02*
X-1184235657Y109195238D01*
X-1184235657Y109195238D02*
X-1184140419Y109242857D01*
X-1184140419Y109242857D02*
X-1184092800Y109290476D01*
X-1184092800Y109290476D02*
X-1184045180Y109385714D01*
X-1184045180Y109385714D02*
X-1184045180Y109576190D01*
X-1184045180Y109576190D02*
X-1184092800Y109671428D01*
X-1184092800Y109671428D02*
X-1184140419Y109719047D01*
X-1184140419Y109719047D02*
X-1184235657Y109766666D01*
X-1184235657Y109766666D02*
X-1184473752Y109766666D01*
X-1184473752Y109766666D02*
X-1184568990Y109719047D01*
X-1184568990Y109719047D02*
X-1184616609Y109671428D01*
X-1184616609Y109671428D02*
X-1184664228Y109576190D01*
X-1184664228Y109576190D02*
X-1184664228Y109385714D01*
X-1184664228Y109385714D02*
X-1184616609Y109290476D01*
X-1184616609Y109290476D02*
X-1184568990Y109242857D01*
X-1184568990Y109242857D02*
X-1184473752Y109195238D01*
X-1128842857Y69175180D02*
X-1129176190Y69651371D01*
X-1129414285Y69175180D02*
X-1129414285Y70175180D01*
X-1129414285Y70175180D02*
X-1129033333Y70175180D01*
X-1129033333Y70175180D02*
X-1128938095Y70127561D01*
X-1128938095Y70127561D02*
X-1128890476Y70079942D01*
X-1128890476Y70079942D02*
X-1128842857Y69984704D01*
X-1128842857Y69984704D02*
X-1128842857Y69841847D01*
X-1128842857Y69841847D02*
X-1128890476Y69746609D01*
X-1128890476Y69746609D02*
X-1128938095Y69698990D01*
X-1128938095Y69698990D02*
X-1129033333Y69651371D01*
X-1129033333Y69651371D02*
X-1129414285Y69651371D01*
X-1128461904Y70079942D02*
X-1128414285Y70127561D01*
X-1128414285Y70127561D02*
X-1128319047Y70175180D01*
X-1128319047Y70175180D02*
X-1128080952Y70175180D01*
X-1128080952Y70175180D02*
X-1127985714Y70127561D01*
X-1127985714Y70127561D02*
X-1127938095Y70079942D01*
X-1127938095Y70079942D02*
X-1127890476Y69984704D01*
X-1127890476Y69984704D02*
X-1127890476Y69889466D01*
X-1127890476Y69889466D02*
X-1127938095Y69746609D01*
X-1127938095Y69746609D02*
X-1128509523Y69175180D01*
X-1128509523Y69175180D02*
X-1127890476Y69175180D01*
X-1127557142Y70175180D02*
X-1126890476Y70175180D01*
X-1126890476Y70175180D02*
X-1127319047Y69175180D01*
X-1110942857Y59415180D02*
X-1111276190Y59891371D01*
X-1111514285Y59415180D02*
X-1111514285Y60415180D01*
X-1111514285Y60415180D02*
X-1111133333Y60415180D01*
X-1111133333Y60415180D02*
X-1111038095Y60367561D01*
X-1111038095Y60367561D02*
X-1110990476Y60319942D01*
X-1110990476Y60319942D02*
X-1110942857Y60224704D01*
X-1110942857Y60224704D02*
X-1110942857Y60081847D01*
X-1110942857Y60081847D02*
X-1110990476Y59986609D01*
X-1110990476Y59986609D02*
X-1111038095Y59938990D01*
X-1111038095Y59938990D02*
X-1111133333Y59891371D01*
X-1111133333Y59891371D02*
X-1111514285Y59891371D01*
X-1110561904Y60319942D02*
X-1110514285Y60367561D01*
X-1110514285Y60367561D02*
X-1110419047Y60415180D01*
X-1110419047Y60415180D02*
X-1110180952Y60415180D01*
X-1110180952Y60415180D02*
X-1110085714Y60367561D01*
X-1110085714Y60367561D02*
X-1110038095Y60319942D01*
X-1110038095Y60319942D02*
X-1109990476Y60224704D01*
X-1109990476Y60224704D02*
X-1109990476Y60129466D01*
X-1109990476Y60129466D02*
X-1110038095Y59986609D01*
X-1110038095Y59986609D02*
X-1110609523Y59415180D01*
X-1110609523Y59415180D02*
X-1109990476Y59415180D01*
X-1109657142Y60415180D02*
X-1109038095Y60415180D01*
X-1109038095Y60415180D02*
X-1109371428Y60034228D01*
X-1109371428Y60034228D02*
X-1109228571Y60034228D01*
X-1109228571Y60034228D02*
X-1109133333Y59986609D01*
X-1109133333Y59986609D02*
X-1109085714Y59938990D01*
X-1109085714Y59938990D02*
X-1109038095Y59843752D01*
X-1109038095Y59843752D02*
X-1109038095Y59605657D01*
X-1109038095Y59605657D02*
X-1109085714Y59510419D01*
X-1109085714Y59510419D02*
X-1109133333Y59462800D01*
X-1109133333Y59462800D02*
X-1109228571Y59415180D01*
X-1109228571Y59415180D02*
X-1109514285Y59415180D01*
X-1109514285Y59415180D02*
X-1109609523Y59462800D01*
X-1109609523Y59462800D02*
X-1109657142Y59510419D01*
X-1115995238Y59549942D02*
X-1116090476Y59597561D01*
X-1116090476Y59597561D02*
X-1116185714Y59692800D01*
X-1116185714Y59692800D02*
X-1116328571Y59835657D01*
X-1116328571Y59835657D02*
X-1116423809Y59883276D01*
X-1116423809Y59883276D02*
X-1116519047Y59883276D01*
X-1116471428Y59645180D02*
X-1116566666Y59692800D01*
X-1116566666Y59692800D02*
X-1116661904Y59788038D01*
X-1116661904Y59788038D02*
X-1116709523Y59978514D01*
X-1116709523Y59978514D02*
X-1116709523Y60311847D01*
X-1116709523Y60311847D02*
X-1116661904Y60502323D01*
X-1116661904Y60502323D02*
X-1116566666Y60597561D01*
X-1116566666Y60597561D02*
X-1116471428Y60645180D01*
X-1116471428Y60645180D02*
X-1116280952Y60645180D01*
X-1116280952Y60645180D02*
X-1116185714Y60597561D01*
X-1116185714Y60597561D02*
X-1116090476Y60502323D01*
X-1116090476Y60502323D02*
X-1116042857Y60311847D01*
X-1116042857Y60311847D02*
X-1116042857Y59978514D01*
X-1116042857Y59978514D02*
X-1116090476Y59788038D01*
X-1116090476Y59788038D02*
X-1116185714Y59692800D01*
X-1116185714Y59692800D02*
X-1116280952Y59645180D01*
X-1116280952Y59645180D02*
X-1116471428Y59645180D01*
X-1115138095Y60645180D02*
X-1115614285Y60645180D01*
X-1115614285Y60645180D02*
X-1115661904Y60168990D01*
X-1115661904Y60168990D02*
X-1115614285Y60216609D01*
X-1115614285Y60216609D02*
X-1115519047Y60264228D01*
X-1115519047Y60264228D02*
X-1115280952Y60264228D01*
X-1115280952Y60264228D02*
X-1115185714Y60216609D01*
X-1115185714Y60216609D02*
X-1115138095Y60168990D01*
X-1115138095Y60168990D02*
X-1115090476Y60073752D01*
X-1115090476Y60073752D02*
X-1115090476Y59835657D01*
X-1115090476Y59835657D02*
X-1115138095Y59740419D01*
X-1115138095Y59740419D02*
X-1115185714Y59692800D01*
X-1115185714Y59692800D02*
X-1115280952Y59645180D01*
X-1115280952Y59645180D02*
X-1115519047Y59645180D01*
X-1115519047Y59645180D02*
X-1115614285Y59692800D01*
X-1115614285Y59692800D02*
X-1115661904Y59740419D01*
X-1175675180Y51633333D02*
X-1176151371Y51300000D01*
X-1175675180Y51061905D02*
X-1176675180Y51061905D01*
X-1176675180Y51061905D02*
X-1176675180Y51442857D01*
X-1176675180Y51442857D02*
X-1176627561Y51538095D01*
X-1176627561Y51538095D02*
X-1176579942Y51585714D01*
X-1176579942Y51585714D02*
X-1176484704Y51633333D01*
X-1176484704Y51633333D02*
X-1176341847Y51633333D01*
X-1176341847Y51633333D02*
X-1176246609Y51585714D01*
X-1176246609Y51585714D02*
X-1176198990Y51538095D01*
X-1176198990Y51538095D02*
X-1176151371Y51442857D01*
X-1176151371Y51442857D02*
X-1176151371Y51061905D01*
X-1176675180Y52538095D02*
X-1176675180Y52061905D01*
X-1176675180Y52061905D02*
X-1176198990Y52014286D01*
X-1176198990Y52014286D02*
X-1176246609Y52061905D01*
X-1176246609Y52061905D02*
X-1176294228Y52157143D01*
X-1176294228Y52157143D02*
X-1176294228Y52395238D01*
X-1176294228Y52395238D02*
X-1176246609Y52490476D01*
X-1176246609Y52490476D02*
X-1176198990Y52538095D01*
X-1176198990Y52538095D02*
X-1176103752Y52585714D01*
X-1176103752Y52585714D02*
X-1175865657Y52585714D01*
X-1175865657Y52585714D02*
X-1175770419Y52538095D01*
X-1175770419Y52538095D02*
X-1175722800Y52490476D01*
X-1175722800Y52490476D02*
X-1175675180Y52395238D01*
X-1175675180Y52395238D02*
X-1175675180Y52157143D01*
X-1175675180Y52157143D02*
X-1175722800Y52061905D01*
X-1175722800Y52061905D02*
X-1175770419Y52014286D01*
X-1139825180Y98257142D02*
X-1140301371Y97923809D01*
X-1139825180Y97685714D02*
X-1140825180Y97685714D01*
X-1140825180Y97685714D02*
X-1140825180Y98066666D01*
X-1140825180Y98066666D02*
X-1140777561Y98161904D01*
X-1140777561Y98161904D02*
X-1140729942Y98209523D01*
X-1140729942Y98209523D02*
X-1140634704Y98257142D01*
X-1140634704Y98257142D02*
X-1140491847Y98257142D01*
X-1140491847Y98257142D02*
X-1140396609Y98209523D01*
X-1140396609Y98209523D02*
X-1140348990Y98161904D01*
X-1140348990Y98161904D02*
X-1140301371Y98066666D01*
X-1140301371Y98066666D02*
X-1140301371Y97685714D01*
X-1140729942Y98638095D02*
X-1140777561Y98685714D01*
X-1140777561Y98685714D02*
X-1140825180Y98780952D01*
X-1140825180Y98780952D02*
X-1140825180Y99019047D01*
X-1140825180Y99019047D02*
X-1140777561Y99114285D01*
X-1140777561Y99114285D02*
X-1140729942Y99161904D01*
X-1140729942Y99161904D02*
X-1140634704Y99209523D01*
X-1140634704Y99209523D02*
X-1140539466Y99209523D01*
X-1140539466Y99209523D02*
X-1140396609Y99161904D01*
X-1140396609Y99161904D02*
X-1139825180Y98590476D01*
X-1139825180Y98590476D02*
X-1139825180Y99209523D01*
X-1140825180Y100066666D02*
X-1140825180Y99876190D01*
X-1140825180Y99876190D02*
X-1140777561Y99780952D01*
X-1140777561Y99780952D02*
X-1140729942Y99733333D01*
X-1140729942Y99733333D02*
X-1140587085Y99638095D01*
X-1140587085Y99638095D02*
X-1140396609Y99590476D01*
X-1140396609Y99590476D02*
X-1140015657Y99590476D01*
X-1140015657Y99590476D02*
X-1139920419Y99638095D01*
X-1139920419Y99638095D02*
X-1139872800Y99685714D01*
X-1139872800Y99685714D02*
X-1139825180Y99780952D01*
X-1139825180Y99780952D02*
X-1139825180Y99971428D01*
X-1139825180Y99971428D02*
X-1139872800Y100066666D01*
X-1139872800Y100066666D02*
X-1139920419Y100114285D01*
X-1139920419Y100114285D02*
X-1140015657Y100161904D01*
X-1140015657Y100161904D02*
X-1140253752Y100161904D01*
X-1140253752Y100161904D02*
X-1140348990Y100114285D01*
X-1140348990Y100114285D02*
X-1140396609Y100066666D01*
X-1140396609Y100066666D02*
X-1140444228Y99971428D01*
X-1140444228Y99971428D02*
X-1140444228Y99780952D01*
X-1140444228Y99780952D02*
X-1140396609Y99685714D01*
X-1140396609Y99685714D02*
X-1140348990Y99638095D01*
X-1140348990Y99638095D02*
X-1140253752Y99590476D01*
X-1092598180Y76188095D02*
X-1091788657Y76188095D01*
X-1091788657Y76188095D02*
X-1091693419Y76235714D01*
X-1091693419Y76235714D02*
X-1091645800Y76283333D01*
X-1091645800Y76283333D02*
X-1091598180Y76378571D01*
X-1091598180Y76378571D02*
X-1091598180Y76569047D01*
X-1091598180Y76569047D02*
X-1091645800Y76664285D01*
X-1091645800Y76664285D02*
X-1091693419Y76711904D01*
X-1091693419Y76711904D02*
X-1091788657Y76759523D01*
X-1091788657Y76759523D02*
X-1092598180Y76759523D01*
X-1091598180Y77759523D02*
X-1091598180Y77188095D01*
X-1091598180Y77473809D02*
X-1092598180Y77473809D01*
X-1092598180Y77473809D02*
X-1092455323Y77378571D01*
X-1092455323Y77378571D02*
X-1092360085Y77283333D01*
X-1092360085Y77283333D02*
X-1092312466Y77188095D01*
X-1105533332Y92092800D02*
X-1105390475Y92045180D01*
X-1105390475Y92045180D02*
X-1105152380Y92045180D01*
X-1105152380Y92045180D02*
X-1105057142Y92092800D01*
X-1105057142Y92092800D02*
X-1105009523Y92140419D01*
X-1105009523Y92140419D02*
X-1104961904Y92235657D01*
X-1104961904Y92235657D02*
X-1104961904Y92330895D01*
X-1104961904Y92330895D02*
X-1105009523Y92426133D01*
X-1105009523Y92426133D02*
X-1105057142Y92473752D01*
X-1105057142Y92473752D02*
X-1105152380Y92521371D01*
X-1105152380Y92521371D02*
X-1105342856Y92568990D01*
X-1105342856Y92568990D02*
X-1105438094Y92616609D01*
X-1105438094Y92616609D02*
X-1105485713Y92664228D01*
X-1105485713Y92664228D02*
X-1105533332Y92759466D01*
X-1105533332Y92759466D02*
X-1105533332Y92854704D01*
X-1105533332Y92854704D02*
X-1105485713Y92949942D01*
X-1105485713Y92949942D02*
X-1105438094Y92997561D01*
X-1105438094Y92997561D02*
X-1105342856Y93045180D01*
X-1105342856Y93045180D02*
X-1105104761Y93045180D01*
X-1105104761Y93045180D02*
X-1104961904Y92997561D01*
X-1104628570Y93045180D02*
X-1104390475Y92045180D01*
X-1104390475Y92045180D02*
X-1104199999Y92759466D01*
X-1104199999Y92759466D02*
X-1104009523Y92045180D01*
X-1104009523Y92045180D02*
X-1103771428Y93045180D01*
X-1103438094Y92949942D02*
X-1103390475Y92997561D01*
X-1103390475Y92997561D02*
X-1103295237Y93045180D01*
X-1103295237Y93045180D02*
X-1103057142Y93045180D01*
X-1103057142Y93045180D02*
X-1102961904Y92997561D01*
X-1102961904Y92997561D02*
X-1102914285Y92949942D01*
X-1102914285Y92949942D02*
X-1102866666Y92854704D01*
X-1102866666Y92854704D02*
X-1102866666Y92759466D01*
X-1102866666Y92759466D02*
X-1102914285Y92616609D01*
X-1102914285Y92616609D02*
X-1103485713Y92045180D01*
X-1103485713Y92045180D02*
X-1102866666Y92045180D01*
X-1120803680Y72790476D02*
X-1120089395Y72790476D01*
X-1120089395Y72790476D02*
X-1119946538Y72742857D01*
X-1119946538Y72742857D02*
X-1119851300Y72647619D01*
X-1119851300Y72647619D02*
X-1119803680Y72504762D01*
X-1119803680Y72504762D02*
X-1119803680Y72409524D01*
X-1119803680Y73790476D02*
X-1119803680Y73219048D01*
X-1119803680Y73504762D02*
X-1120803680Y73504762D01*
X-1120803680Y73504762D02*
X-1120660823Y73409524D01*
X-1120660823Y73409524D02*
X-1120565585Y73314286D01*
X-1120565585Y73314286D02*
X-1120517966Y73219048D01*
X-1120708442Y74171429D02*
X-1120756061Y74219048D01*
X-1120756061Y74219048D02*
X-1120803680Y74314286D01*
X-1120803680Y74314286D02*
X-1120803680Y74552381D01*
X-1120803680Y74552381D02*
X-1120756061Y74647619D01*
X-1120756061Y74647619D02*
X-1120708442Y74695238D01*
X-1120708442Y74695238D02*
X-1120613204Y74742857D01*
X-1120613204Y74742857D02*
X-1120517966Y74742857D01*
X-1120517966Y74742857D02*
X-1120375109Y74695238D01*
X-1120375109Y74695238D02*
X-1119803680Y74123810D01*
X-1119803680Y74123810D02*
X-1119803680Y74742857D01*
X-1120733333Y46345180D02*
X-1120733333Y45630895D01*
X-1120733333Y45630895D02*
X-1120780952Y45488038D01*
X-1120780952Y45488038D02*
X-1120876190Y45392800D01*
X-1120876190Y45392800D02*
X-1121019047Y45345180D01*
X-1121019047Y45345180D02*
X-1121114285Y45345180D01*
X-1120352380Y46345180D02*
X-1119733333Y46345180D01*
X-1119733333Y46345180D02*
X-1120066666Y45964228D01*
X-1120066666Y45964228D02*
X-1119923809Y45964228D01*
X-1119923809Y45964228D02*
X-1119828571Y45916609D01*
X-1119828571Y45916609D02*
X-1119780952Y45868990D01*
X-1119780952Y45868990D02*
X-1119733333Y45773752D01*
X-1119733333Y45773752D02*
X-1119733333Y45535657D01*
X-1119733333Y45535657D02*
X-1119780952Y45440419D01*
X-1119780952Y45440419D02*
X-1119828571Y45392800D01*
X-1119828571Y45392800D02*
X-1119923809Y45345180D01*
X-1119923809Y45345180D02*
X-1120209523Y45345180D01*
X-1120209523Y45345180D02*
X-1120304761Y45392800D01*
X-1120304761Y45392800D02*
X-1120352380Y45440419D01*
X-1135495238Y59449942D02*
X-1135590476Y59497561D01*
X-1135590476Y59497561D02*
X-1135685714Y59592800D01*
X-1135685714Y59592800D02*
X-1135828571Y59735657D01*
X-1135828571Y59735657D02*
X-1135923809Y59783276D01*
X-1135923809Y59783276D02*
X-1136019047Y59783276D01*
X-1135971428Y59545180D02*
X-1136066666Y59592800D01*
X-1136066666Y59592800D02*
X-1136161904Y59688038D01*
X-1136161904Y59688038D02*
X-1136209523Y59878514D01*
X-1136209523Y59878514D02*
X-1136209523Y60211847D01*
X-1136209523Y60211847D02*
X-1136161904Y60402323D01*
X-1136161904Y60402323D02*
X-1136066666Y60497561D01*
X-1136066666Y60497561D02*
X-1135971428Y60545180D01*
X-1135971428Y60545180D02*
X-1135780952Y60545180D01*
X-1135780952Y60545180D02*
X-1135685714Y60497561D01*
X-1135685714Y60497561D02*
X-1135590476Y60402323D01*
X-1135590476Y60402323D02*
X-1135542857Y60211847D01*
X-1135542857Y60211847D02*
X-1135542857Y59878514D01*
X-1135542857Y59878514D02*
X-1135590476Y59688038D01*
X-1135590476Y59688038D02*
X-1135685714Y59592800D01*
X-1135685714Y59592800D02*
X-1135780952Y59545180D01*
X-1135780952Y59545180D02*
X-1135971428Y59545180D01*
X-1134971428Y60116609D02*
X-1135066666Y60164228D01*
X-1135066666Y60164228D02*
X-1135114285Y60211847D01*
X-1135114285Y60211847D02*
X-1135161904Y60307085D01*
X-1135161904Y60307085D02*
X-1135161904Y60354704D01*
X-1135161904Y60354704D02*
X-1135114285Y60449942D01*
X-1135114285Y60449942D02*
X-1135066666Y60497561D01*
X-1135066666Y60497561D02*
X-1134971428Y60545180D01*
X-1134971428Y60545180D02*
X-1134780952Y60545180D01*
X-1134780952Y60545180D02*
X-1134685714Y60497561D01*
X-1134685714Y60497561D02*
X-1134638095Y60449942D01*
X-1134638095Y60449942D02*
X-1134590476Y60354704D01*
X-1134590476Y60354704D02*
X-1134590476Y60307085D01*
X-1134590476Y60307085D02*
X-1134638095Y60211847D01*
X-1134638095Y60211847D02*
X-1134685714Y60164228D01*
X-1134685714Y60164228D02*
X-1134780952Y60116609D01*
X-1134780952Y60116609D02*
X-1134971428Y60116609D01*
X-1134971428Y60116609D02*
X-1135066666Y60068990D01*
X-1135066666Y60068990D02*
X-1135114285Y60021371D01*
X-1135114285Y60021371D02*
X-1135161904Y59926133D01*
X-1135161904Y59926133D02*
X-1135161904Y59735657D01*
X-1135161904Y59735657D02*
X-1135114285Y59640419D01*
X-1135114285Y59640419D02*
X-1135066666Y59592800D01*
X-1135066666Y59592800D02*
X-1134971428Y59545180D01*
X-1134971428Y59545180D02*
X-1134780952Y59545180D01*
X-1134780952Y59545180D02*
X-1134685714Y59592800D01*
X-1134685714Y59592800D02*
X-1134638095Y59640419D01*
X-1134638095Y59640419D02*
X-1134590476Y59735657D01*
X-1134590476Y59735657D02*
X-1134590476Y59926133D01*
X-1134590476Y59926133D02*
X-1134638095Y60021371D01*
X-1134638095Y60021371D02*
X-1134685714Y60068990D01*
X-1134685714Y60068990D02*
X-1134780952Y60116609D01*
X-1158545180Y39566666D02*
X-1157830895Y39566666D01*
X-1157830895Y39566666D02*
X-1157688038Y39519047D01*
X-1157688038Y39519047D02*
X-1157592800Y39423809D01*
X-1157592800Y39423809D02*
X-1157545180Y39280952D01*
X-1157545180Y39280952D02*
X-1157545180Y39185714D01*
X-1157545180Y40566666D02*
X-1157545180Y39995238D01*
X-1157545180Y40280952D02*
X-1158545180Y40280952D01*
X-1158545180Y40280952D02*
X-1158402323Y40185714D01*
X-1158402323Y40185714D02*
X-1158307085Y40090476D01*
X-1158307085Y40090476D02*
X-1158259466Y39995238D01*
X-1133775180Y62832142D02*
X-1134251371Y62498809D01*
X-1133775180Y62260714D02*
X-1134775180Y62260714D01*
X-1134775180Y62260714D02*
X-1134775180Y62641666D01*
X-1134775180Y62641666D02*
X-1134727561Y62736904D01*
X-1134727561Y62736904D02*
X-1134679942Y62784523D01*
X-1134679942Y62784523D02*
X-1134584704Y62832142D01*
X-1134584704Y62832142D02*
X-1134441847Y62832142D01*
X-1134441847Y62832142D02*
X-1134346609Y62784523D01*
X-1134346609Y62784523D02*
X-1134298990Y62736904D01*
X-1134298990Y62736904D02*
X-1134251371Y62641666D01*
X-1134251371Y62641666D02*
X-1134251371Y62260714D01*
X-1133775180Y63784523D02*
X-1133775180Y63213095D01*
X-1133775180Y63498809D02*
X-1134775180Y63498809D01*
X-1134775180Y63498809D02*
X-1134632323Y63403571D01*
X-1134632323Y63403571D02*
X-1134537085Y63308333D01*
X-1134537085Y63308333D02*
X-1134489466Y63213095D01*
X-1133775180Y64736904D02*
X-1133775180Y64165476D01*
X-1133775180Y64451190D02*
X-1134775180Y64451190D01*
X-1134775180Y64451190D02*
X-1134632323Y64355952D01*
X-1134632323Y64355952D02*
X-1134537085Y64260714D01*
X-1134537085Y64260714D02*
X-1134489466Y64165476D01*
X-1184333333Y99345180D02*
X-1184333333Y98630895D01*
X-1184333333Y98630895D02*
X-1184380952Y98488038D01*
X-1184380952Y98488038D02*
X-1184476190Y98392800D01*
X-1184476190Y98392800D02*
X-1184619047Y98345180D01*
X-1184619047Y98345180D02*
X-1184714285Y98345180D01*
X-1183428571Y99345180D02*
X-1183619047Y99345180D01*
X-1183619047Y99345180D02*
X-1183714285Y99297561D01*
X-1183714285Y99297561D02*
X-1183761904Y99249942D01*
X-1183761904Y99249942D02*
X-1183857142Y99107085D01*
X-1183857142Y99107085D02*
X-1183904761Y98916609D01*
X-1183904761Y98916609D02*
X-1183904761Y98535657D01*
X-1183904761Y98535657D02*
X-1183857142Y98440419D01*
X-1183857142Y98440419D02*
X-1183809523Y98392800D01*
X-1183809523Y98392800D02*
X-1183714285Y98345180D01*
X-1183714285Y98345180D02*
X-1183523809Y98345180D01*
X-1183523809Y98345180D02*
X-1183428571Y98392800D01*
X-1183428571Y98392800D02*
X-1183380952Y98440419D01*
X-1183380952Y98440419D02*
X-1183333333Y98535657D01*
X-1183333333Y98535657D02*
X-1183333333Y98773752D01*
X-1183333333Y98773752D02*
X-1183380952Y98868990D01*
X-1183380952Y98868990D02*
X-1183428571Y98916609D01*
X-1183428571Y98916609D02*
X-1183523809Y98964228D01*
X-1183523809Y98964228D02*
X-1183714285Y98964228D01*
X-1183714285Y98964228D02*
X-1183809523Y98916609D01*
X-1183809523Y98916609D02*
X-1183857142Y98868990D01*
X-1183857142Y98868990D02*
X-1183904761Y98773752D01*
D12*
X-1154520952Y61804729D02*
X-1154641904Y61865205D01*
X-1154641904Y61865205D02*
X-1154762857Y61986158D01*
X-1154762857Y61986158D02*
X-1154944285Y62167586D01*
X-1154944285Y62167586D02*
X-1155065238Y62228062D01*
X-1155065238Y62228062D02*
X-1155186190Y62228062D01*
X-1155125714Y61925681D02*
X-1155246666Y61986158D01*
X-1155246666Y61986158D02*
X-1155367619Y62107110D01*
X-1155367619Y62107110D02*
X-1155428095Y62349015D01*
X-1155428095Y62349015D02*
X-1155428095Y62772348D01*
X-1155428095Y62772348D02*
X-1155367619Y63014253D01*
X-1155367619Y63014253D02*
X-1155246666Y63135205D01*
X-1155246666Y63135205D02*
X-1155125714Y63195681D01*
X-1155125714Y63195681D02*
X-1154883809Y63195681D01*
X-1154883809Y63195681D02*
X-1154762857Y63135205D01*
X-1154762857Y63135205D02*
X-1154641904Y63014253D01*
X-1154641904Y63014253D02*
X-1154581428Y62772348D01*
X-1154581428Y62772348D02*
X-1154581428Y62349015D01*
X-1154581428Y62349015D02*
X-1154641904Y62107110D01*
X-1154641904Y62107110D02*
X-1154762857Y61986158D01*
X-1154762857Y61986158D02*
X-1154883809Y61925681D01*
X-1154883809Y61925681D02*
X-1155125714Y61925681D01*
X-1153371904Y61925681D02*
X-1154097619Y61925681D01*
X-1153734762Y61925681D02*
X-1153734762Y63195681D01*
X-1153734762Y63195681D02*
X-1153855714Y63014253D01*
X-1153855714Y63014253D02*
X-1153976666Y62893300D01*
X-1153976666Y62893300D02*
X-1154097619Y62832824D01*
D11*
X-1177030180Y39466666D02*
X-1176315895Y39466666D01*
X-1176315895Y39466666D02*
X-1176173038Y39419047D01*
X-1176173038Y39419047D02*
X-1176077800Y39323809D01*
X-1176077800Y39323809D02*
X-1176030180Y39180952D01*
X-1176030180Y39180952D02*
X-1176030180Y39085714D01*
X-1176934942Y39895238D02*
X-1176982561Y39942857D01*
X-1176982561Y39942857D02*
X-1177030180Y40038095D01*
X-1177030180Y40038095D02*
X-1177030180Y40276190D01*
X-1177030180Y40276190D02*
X-1176982561Y40371428D01*
X-1176982561Y40371428D02*
X-1176934942Y40419047D01*
X-1176934942Y40419047D02*
X-1176839704Y40466666D01*
X-1176839704Y40466666D02*
X-1176744466Y40466666D01*
X-1176744466Y40466666D02*
X-1176601609Y40419047D01*
X-1176601609Y40419047D02*
X-1176030180Y39847619D01*
X-1176030180Y39847619D02*
X-1176030180Y40466666D01*
X-1116825180Y46190476D02*
X-1116110895Y46190476D01*
X-1116110895Y46190476D02*
X-1115968038Y46142857D01*
X-1115968038Y46142857D02*
X-1115872800Y46047619D01*
X-1115872800Y46047619D02*
X-1115825180Y45904762D01*
X-1115825180Y45904762D02*
X-1115825180Y45809524D01*
X-1115825180Y47190476D02*
X-1115825180Y46619048D01*
X-1115825180Y46904762D02*
X-1116825180Y46904762D01*
X-1116825180Y46904762D02*
X-1116682323Y46809524D01*
X-1116682323Y46809524D02*
X-1116587085Y46714286D01*
X-1116587085Y46714286D02*
X-1116539466Y46619048D01*
X-1116825180Y47523810D02*
X-1116825180Y48190476D01*
X-1116825180Y48190476D02*
X-1115825180Y47761905D01*
X-1121238094Y67745180D02*
X-1121238094Y68745180D01*
X-1121238094Y68745180D02*
X-1120999999Y68745180D01*
X-1120999999Y68745180D02*
X-1120857142Y68697561D01*
X-1120857142Y68697561D02*
X-1120761904Y68602323D01*
X-1120761904Y68602323D02*
X-1120714285Y68507085D01*
X-1120714285Y68507085D02*
X-1120666666Y68316609D01*
X-1120666666Y68316609D02*
X-1120666666Y68173752D01*
X-1120666666Y68173752D02*
X-1120714285Y67983276D01*
X-1120714285Y67983276D02*
X-1120761904Y67888038D01*
X-1120761904Y67888038D02*
X-1120857142Y67792800D01*
X-1120857142Y67792800D02*
X-1120999999Y67745180D01*
X-1120999999Y67745180D02*
X-1121238094Y67745180D01*
X-1120333332Y68745180D02*
X-1119666666Y68745180D01*
X-1119666666Y68745180D02*
X-1120095237Y67745180D01*
X-1101545180Y118040476D02*
X-1100830895Y118040476D01*
X-1100830895Y118040476D02*
X-1100688038Y117992857D01*
X-1100688038Y117992857D02*
X-1100592800Y117897619D01*
X-1100592800Y117897619D02*
X-1100545180Y117754762D01*
X-1100545180Y117754762D02*
X-1100545180Y117659524D01*
X-1100545180Y119040476D02*
X-1100545180Y118469048D01*
X-1100545180Y118754762D02*
X-1101545180Y118754762D01*
X-1101545180Y118754762D02*
X-1101402323Y118659524D01*
X-1101402323Y118659524D02*
X-1101307085Y118564286D01*
X-1101307085Y118564286D02*
X-1101259466Y118469048D01*
X-1101211847Y119897619D02*
X-1100545180Y119897619D01*
X-1101592800Y119659524D02*
X-1100878514Y119421429D01*
X-1100878514Y119421429D02*
X-1100878514Y120040476D01*
X-1167345180Y115157142D02*
X-1167821371Y114823809D01*
X-1167345180Y114585714D02*
X-1168345180Y114585714D01*
X-1168345180Y114585714D02*
X-1168345180Y114966666D01*
X-1168345180Y114966666D02*
X-1168297561Y115061904D01*
X-1168297561Y115061904D02*
X-1168249942Y115109523D01*
X-1168249942Y115109523D02*
X-1168154704Y115157142D01*
X-1168154704Y115157142D02*
X-1168011847Y115157142D01*
X-1168011847Y115157142D02*
X-1167916609Y115109523D01*
X-1167916609Y115109523D02*
X-1167868990Y115061904D01*
X-1167868990Y115061904D02*
X-1167821371Y114966666D01*
X-1167821371Y114966666D02*
X-1167821371Y114585714D01*
X-1167345180Y116109523D02*
X-1167345180Y115538095D01*
X-1167345180Y115823809D02*
X-1168345180Y115823809D01*
X-1168345180Y115823809D02*
X-1168202323Y115728571D01*
X-1168202323Y115728571D02*
X-1168107085Y115633333D01*
X-1168107085Y115633333D02*
X-1168059466Y115538095D01*
X-1167916609Y116680952D02*
X-1167964228Y116585714D01*
X-1167964228Y116585714D02*
X-1168011847Y116538095D01*
X-1168011847Y116538095D02*
X-1168107085Y116490476D01*
X-1168107085Y116490476D02*
X-1168154704Y116490476D01*
X-1168154704Y116490476D02*
X-1168249942Y116538095D01*
X-1168249942Y116538095D02*
X-1168297561Y116585714D01*
X-1168297561Y116585714D02*
X-1168345180Y116680952D01*
X-1168345180Y116680952D02*
X-1168345180Y116871428D01*
X-1168345180Y116871428D02*
X-1168297561Y116966666D01*
X-1168297561Y116966666D02*
X-1168249942Y117014285D01*
X-1168249942Y117014285D02*
X-1168154704Y117061904D01*
X-1168154704Y117061904D02*
X-1168107085Y117061904D01*
X-1168107085Y117061904D02*
X-1168011847Y117014285D01*
X-1168011847Y117014285D02*
X-1167964228Y116966666D01*
X-1167964228Y116966666D02*
X-1167916609Y116871428D01*
X-1167916609Y116871428D02*
X-1167916609Y116680952D01*
X-1167916609Y116680952D02*
X-1167868990Y116585714D01*
X-1167868990Y116585714D02*
X-1167821371Y116538095D01*
X-1167821371Y116538095D02*
X-1167726133Y116490476D01*
X-1167726133Y116490476D02*
X-1167535657Y116490476D01*
X-1167535657Y116490476D02*
X-1167440419Y116538095D01*
X-1167440419Y116538095D02*
X-1167392800Y116585714D01*
X-1167392800Y116585714D02*
X-1167345180Y116680952D01*
X-1167345180Y116680952D02*
X-1167345180Y116871428D01*
X-1167345180Y116871428D02*
X-1167392800Y116966666D01*
X-1167392800Y116966666D02*
X-1167440419Y117014285D01*
X-1167440419Y117014285D02*
X-1167535657Y117061904D01*
X-1167535657Y117061904D02*
X-1167726133Y117061904D01*
X-1167726133Y117061904D02*
X-1167821371Y117014285D01*
X-1167821371Y117014285D02*
X-1167868990Y116966666D01*
X-1167868990Y116966666D02*
X-1167916609Y116871428D01*
X-1187061904Y43145180D02*
X-1187061904Y44145180D01*
X-1187061904Y43668990D02*
X-1186490476Y43668990D01*
X-1186490476Y43145180D02*
X-1186490476Y44145180D01*
X-1185490476Y43145180D02*
X-1186061904Y43145180D01*
X-1185776190Y43145180D02*
X-1185776190Y44145180D01*
X-1185776190Y44145180D02*
X-1185871428Y44002323D01*
X-1185871428Y44002323D02*
X-1185966666Y43907085D01*
X-1185966666Y43907085D02*
X-1186061904Y43859466D01*
D13*
X-1188200000Y104400000D02*
X-1185400000Y104400000D01*
X-1188200000Y102400000D02*
X-1188200000Y104400000D01*
X-1185400000Y104400000D02*
X-1185400000Y102400000D01*
X-1185400000Y102400000D02*
X-1188200000Y102400000D01*
X-1181550000Y122800000D02*
X-1178750000Y122800000D01*
X-1181550000Y120800000D02*
X-1181550000Y122800000D01*
X-1178750000Y122800000D02*
X-1178750000Y120800000D01*
X-1178750000Y120800000D02*
X-1181550000Y120800000D01*
X-1170062742Y121422500D02*
X-1170537258Y121422500D01*
X-1170062742Y120377500D02*
X-1170537258Y120377500D01*
D14*
X-1189110000Y50740000D02*
X-1189110000Y45660000D01*
X-1189110000Y48202500D02*
X-1186570000Y48202500D01*
X-1189110000Y45660000D02*
X-1181490000Y45660000D01*
X-1186570000Y48202500D02*
X-1186570000Y45660000D01*
X-1181490000Y50740000D02*
X-1189110000Y50740000D01*
X-1181490000Y45660000D02*
X-1186358500Y45660000D01*
X-1181490000Y45660000D02*
X-1181490000Y50740000D01*
D12*
X-1177360000Y85300000D02*
X-1177360000Y80300000D01*
X-1177360000Y80300000D02*
X-1157040000Y80300000D01*
X-1174820000Y82840000D02*
X-1177360000Y82840000D01*
X-1174820000Y80300000D02*
X-1174820000Y82840000D01*
X-1157040000Y85300000D02*
X-1177360000Y85300000D01*
X-1157040000Y80300000D02*
X-1157040000Y85300000D01*
D13*
X-1188200000Y120000000D02*
X-1185400000Y120000000D01*
X-1188200000Y118000000D02*
X-1188200000Y120000000D01*
X-1185400000Y120000000D02*
X-1185400000Y118000000D01*
X-1185400000Y118000000D02*
X-1188200000Y118000000D01*
D12*
X-1157538500Y125579000D02*
X-1157538500Y134579000D01*
X-1156141500Y126806500D02*
X-1156141500Y133376500D01*
X-1130741500Y133376500D02*
X-1156141500Y133376500D01*
X-1130640000Y134570500D02*
X-1130665500Y134596000D01*
X-1130640000Y132360500D02*
X-1130640000Y134570500D01*
X-1125433000Y132411500D02*
X-1125433000Y134570500D01*
X-1125433000Y132360500D02*
X-1130640000Y132360500D01*
X-1102395000Y133326000D02*
X-1102395000Y133351000D01*
X-1101709500Y132640000D02*
X-1102395000Y133326000D01*
X-1101074500Y133275000D02*
X-1101709500Y132640000D01*
X-1100041500Y126798000D02*
X-1156141500Y126798000D01*
X-1100033000Y133427500D02*
X-1125433000Y133427500D01*
X-1100033000Y133376500D02*
X-1100033000Y126806500D01*
X-1098664000Y134596000D02*
X-1157564000Y134596000D01*
X-1098638500Y125579000D02*
X-1157538500Y125579000D01*
X-1098610500Y134579000D02*
X-1098610500Y125579000D01*
D15*
X-1149826000Y101626000D02*
X-1149826000Y100594500D01*
X-1149826000Y98574000D02*
X-1149826000Y99605500D01*
X-1148374000Y101626000D02*
X-1149826000Y101626000D01*
X-1148374000Y100555500D02*
X-1148374000Y99644500D01*
X-1148374000Y98574000D02*
X-1149826000Y98574000D01*
D13*
X-1101140580Y87910000D02*
X-1100859420Y87910000D01*
X-1101140580Y86890000D02*
X-1100859420Y86890000D01*
X-1166285000Y70535000D02*
X-1166285000Y69065000D01*
X-1166285000Y69065000D02*
X-1164000000Y69065000D01*
X-1164000000Y70535000D02*
X-1166285000Y70535000D01*
D12*
X-1138580000Y121100000D02*
X-1128420000Y121100000D01*
X-1138580000Y119535000D02*
X-1138580000Y121100000D01*
X-1138580000Y118256000D02*
X-1138580000Y116700000D01*
X-1138580000Y116700000D02*
X-1128420000Y116700000D01*
X-1128420000Y121100000D02*
X-1128420000Y116741000D01*
X-1138580000Y119535000D02*
G75*
G02*
X-1138580000Y118256000I0J-639500D01*
G01*
D16*
G36*
X-1138222000Y117630000D02*
G01*
X-1138222000Y117630000D01*
G75*
G02*
X-1137160000Y117630000I531000J3500D01*
G01*
X-1137160000Y117630000D01*
G75*
G02*
X-1138222000Y117630000I-531000J-3500D01*
G01*
X-1138222000Y117630000D01*
G37*
D12*
X-1170150000Y134400000D02*
X-1170150000Y122900000D01*
X-1170150000Y134400000D02*
X-1157650000Y134400000D01*
X-1169080000Y125200000D02*
X-1168681000Y125200000D01*
X-1169080000Y125200000D02*
X-1167683000Y125200000D01*
X-1169080000Y122914000D02*
X-1170150000Y122914000D01*
X-1169080000Y122914000D02*
X-1169080000Y125200000D01*
X-1166619000Y125200000D02*
X-1166181000Y125200000D01*
X-1164119000Y125200000D02*
X-1163681000Y125200000D01*
X-1161619000Y125200000D02*
X-1161181000Y125200000D01*
X-1159963000Y125200000D02*
X-1160090000Y125327000D01*
X-1159119000Y125200000D02*
X-1158820000Y125200000D01*
X-1158820000Y125200000D02*
X-1159963000Y125200000D01*
X-1158820000Y122914000D02*
X-1158820000Y125200000D01*
X-1158820000Y122914000D02*
X-1157650000Y122914000D01*
X-1157650000Y134400000D02*
X-1157650000Y122898500D01*
D13*
X-1126137258Y117122500D02*
X-1125662742Y117122500D01*
X-1126137258Y116077500D02*
X-1125662742Y116077500D01*
X-1181600000Y120200000D02*
X-1178800000Y120200000D01*
X-1181600000Y118200000D02*
X-1181600000Y120200000D01*
X-1178800000Y120200000D02*
X-1178800000Y118200000D01*
X-1178800000Y118200000D02*
X-1181600000Y118200000D01*
D17*
X-1132900000Y74175000D02*
X-1132900000Y71025000D01*
X-1132900000Y72923500D02*
X-1131300000Y72920000D01*
X-1131300000Y74200000D02*
X-1131300000Y71000000D01*
D13*
X-1188200000Y112200000D02*
X-1185400000Y112200000D01*
X-1188200000Y110200000D02*
X-1188200000Y112200000D01*
X-1185400000Y112200000D02*
X-1185400000Y110200000D01*
X-1185400000Y110200000D02*
X-1188200000Y110200000D01*
X-1151022500Y97037258D02*
X-1151022500Y96562742D01*
X-1149977500Y97037258D02*
X-1149977500Y96562742D01*
D12*
X-1142901000Y51600000D02*
X-1142901000Y36000000D01*
X-1142901000Y51600000D02*
X-1123701000Y51600000D01*
X-1142901000Y36000000D02*
X-1123701000Y36000000D01*
D18*
X-1139568500Y48057000D02*
X-1139568500Y44112500D01*
D12*
X-1139499500Y39553000D02*
X-1139499500Y41780500D01*
D18*
X-1138550000Y43099000D02*
X-1140200500Y41491000D01*
X-1138044500Y43097000D02*
X-1138552500Y43097000D01*
X-1134028500Y43097000D02*
X-1138044500Y43097000D01*
X-1134004500Y43073000D02*
X-1134028500Y43097000D01*
X-1134004500Y40073000D02*
X-1134004500Y43073000D01*
D12*
X-1131625000Y44800000D02*
X-1128625000Y44800000D01*
X-1131625000Y42800000D02*
X-1131625000Y44800000D01*
D18*
X-1130108000Y49800000D02*
X-1130108000Y44851500D01*
X-1130108000Y49800000D02*
X-1129090000Y49800000D01*
X-1130108000Y42749000D02*
X-1130108000Y37800000D01*
X-1130108000Y37800000D02*
X-1129090000Y37800000D01*
D12*
X-1128625000Y44800000D02*
X-1128625000Y42800000D01*
X-1128625000Y42800000D02*
X-1131625000Y42800000D01*
D18*
X-1125368500Y42000000D02*
X-1125368500Y40073000D01*
X-1125368500Y40073000D02*
X-1134004500Y40073000D01*
D12*
X-1123701000Y44094500D02*
X-1123701000Y51600000D01*
X-1123701000Y36000000D02*
X-1123701000Y43505500D01*
X-1124300000Y50600000D02*
G75*
G02*
X-1125300000Y50600000I-500000J0D01*
G01*
X-1125300000Y50600000D02*
G75*
G02*
X-1124300000Y50600000I500000J0D01*
G01*
D13*
X-1125330000Y82670000D02*
X-1125330000Y87810000D01*
X-1122670000Y87810000D02*
X-1125330000Y87810000D01*
X-1122670000Y82670000D02*
X-1125330000Y82670000D01*
X-1122670000Y82670000D02*
X-1122670000Y87810000D01*
X-1122670000Y81400000D02*
X-1122670000Y80070000D01*
X-1122670000Y80070000D02*
X-1124000000Y80070000D01*
X-1110487742Y95522500D02*
X-1110962258Y95522500D01*
X-1110487742Y94477500D02*
X-1110962258Y94477500D01*
D12*
X-1105425000Y62300000D02*
X-1105425000Y62031000D01*
X-1105425000Y59569000D02*
X-1105425000Y59300000D01*
X-1105425000Y59300000D02*
X-1100425000Y59300000D01*
D15*
X-1100425000Y62300000D02*
X-1105425000Y62300000D01*
D12*
X-1100425000Y62300000D02*
X-1105425000Y62300000D01*
X-1100425000Y62300000D02*
X-1100425000Y62031000D01*
X-1100425000Y59569000D02*
X-1100425000Y59300000D01*
D15*
X-1100425000Y59300000D02*
X-1105425000Y59300000D01*
D19*
X-1101782000Y60800000D02*
G75*
G02*
X-1104068000Y60800000I-1143000J0D01*
G01*
X-1104068000Y60800000D02*
G75*
G02*
X-1101782000Y60800000I1143000J0D01*
G01*
D13*
X-1129510000Y73140580D02*
X-1129510000Y72859420D01*
X-1128490000Y73140580D02*
X-1128490000Y72859420D01*
X-1133922500Y97287742D02*
X-1133922500Y97762258D01*
X-1132877500Y97287742D02*
X-1132877500Y97762258D01*
X-1181600000Y117600000D02*
X-1178800000Y117600000D01*
X-1181600000Y115600000D02*
X-1181600000Y117600000D01*
X-1178800000Y117600000D02*
X-1178800000Y115600000D01*
X-1178800000Y115600000D02*
X-1181600000Y115600000D01*
X-1143010000Y109527064D02*
X-1143010000Y108072936D01*
X-1141190000Y109527064D02*
X-1141190000Y108072936D01*
X-1102862742Y110822500D02*
X-1103337258Y110822500D01*
X-1102862742Y109777500D02*
X-1103337258Y109777500D01*
X-1105540580Y98010000D02*
X-1105259420Y98010000D01*
X-1105540580Y96990000D02*
X-1105259420Y96990000D01*
X-1131122500Y97262742D02*
X-1131122500Y97737258D01*
X-1130077500Y97262742D02*
X-1130077500Y97737258D01*
X-1114630000Y50970000D02*
X-1114630000Y52300000D01*
X-1113300000Y50970000D02*
X-1114630000Y50970000D01*
X-1112030000Y53630000D02*
X-1106890000Y53630000D01*
X-1112030000Y50970000D02*
X-1112030000Y53630000D01*
X-1112030000Y50970000D02*
X-1106890000Y50970000D01*
X-1106890000Y50970000D02*
X-1106890000Y53630000D01*
X-1181600000Y112200000D02*
X-1178800000Y112200000D01*
X-1181600000Y110200000D02*
X-1181600000Y112200000D01*
X-1178800000Y112200000D02*
X-1178800000Y110200000D01*
X-1178800000Y110200000D02*
X-1181600000Y110200000D01*
X-1181600000Y109600000D02*
X-1178800000Y109600000D01*
X-1181600000Y107600000D02*
X-1181600000Y109600000D01*
X-1178800000Y109600000D02*
X-1178800000Y107600000D01*
X-1178800000Y107600000D02*
X-1181600000Y107600000D01*
X-1148962742Y48322500D02*
X-1149437258Y48322500D01*
X-1148962742Y47277500D02*
X-1149437258Y47277500D01*
D20*
X-1123560000Y59879000D02*
X-1123560000Y59150000D01*
X-1123560000Y59150000D02*
X-1122821000Y59150000D01*
X-1121379000Y59150000D02*
X-1120640000Y59150000D01*
X-1120640000Y59150000D02*
X-1120640000Y59879000D01*
D21*
X-1121050000Y61935000D02*
G75*
G02*
X-1121250000Y61935000I-100000J0D01*
G01*
X-1121250000Y61935000D02*
G75*
G02*
X-1121050000Y61935000I100000J0D01*
G01*
D13*
X-1170662742Y47922500D02*
X-1171137258Y47922500D01*
X-1170662742Y46877500D02*
X-1171137258Y46877500D01*
X-1188200000Y117400000D02*
X-1185400000Y117400000D01*
X-1188200000Y115400000D02*
X-1188200000Y117400000D01*
X-1185400000Y117400000D02*
X-1185400000Y115400000D01*
X-1185400000Y115400000D02*
X-1188200000Y115400000D01*
D20*
X-1128960000Y59879000D02*
X-1128960000Y59150000D01*
X-1128960000Y59150000D02*
X-1128221000Y59150000D01*
X-1126779000Y59150000D02*
X-1126040000Y59150000D01*
X-1126040000Y59150000D02*
X-1126040000Y59879000D01*
D21*
X-1126450000Y61935000D02*
G75*
G02*
X-1126650000Y61935000I-100000J0D01*
G01*
X-1126650000Y61935000D02*
G75*
G02*
X-1126450000Y61935000I100000J0D01*
G01*
D11*
X-1162150000Y116837500D02*
X-1161750000Y116837500D01*
X-1162150000Y116437500D02*
X-1162150000Y116837500D01*
X-1162150000Y112637500D02*
X-1162150000Y113042000D01*
X-1161750000Y112637500D02*
X-1162150000Y112637500D01*
X-1158450000Y116842000D02*
X-1157950000Y116842000D01*
X-1158350000Y112642000D02*
X-1157950000Y112642000D01*
X-1157950000Y116842000D02*
X-1157950000Y116442000D01*
X-1157950000Y112642000D02*
X-1157950000Y113042000D01*
D12*
X-1161828000Y112202000D02*
G75*
G02*
X-1162082000Y112202000I-127000J0D01*
G01*
X-1162082000Y112202000D02*
G75*
G02*
X-1161828000Y112202000I127000J0D01*
G01*
X-1127860000Y124800000D02*
X-1127860000Y119800000D01*
X-1127860000Y119800000D02*
X-1107540000Y119800000D01*
X-1110080000Y124800000D02*
X-1110080000Y122260000D01*
X-1110080000Y122260000D02*
X-1107540000Y122260000D01*
X-1107540000Y124800000D02*
X-1127860000Y124800000D01*
X-1107540000Y119800000D02*
X-1107540000Y124800000D01*
X-1182300500Y134500000D02*
X-1172300500Y134500000D01*
X-1182300500Y126400000D02*
X-1182300500Y134500000D01*
X-1172300500Y134500000D02*
X-1172300500Y126400000D01*
X-1172300500Y126400000D02*
X-1182300500Y126400000D01*
X-1171800500Y127750000D02*
X-1172300500Y127629000D01*
X-1171800500Y127250000D02*
X-1172300500Y127369000D01*
X-1171800500Y127250000D02*
X-1171800500Y127750000D01*
X-1171799500Y133650000D02*
X-1172300500Y133530000D01*
X-1171799500Y133150000D02*
X-1172300500Y133270000D01*
X-1171799500Y133150000D02*
X-1171799500Y133650000D01*
D16*
G36*
X-1179809000Y132850000D02*
G01*
X-1180309000Y133350000D01*
X-1179309000Y133350000D01*
X-1179809000Y132850000D01*
G37*
G36*
X-1174800000Y132850000D02*
G01*
X-1175300000Y133350000D01*
X-1174300000Y133350000D01*
X-1174800000Y132850000D01*
G37*
G36*
X-1179559000Y133350000D02*
G01*
X-1180059000Y133350000D01*
X-1180059000Y134350000D01*
X-1179559000Y134350000D01*
X-1179559000Y133350000D01*
G37*
G36*
X-1174550000Y133350000D02*
G01*
X-1175050000Y133350000D01*
X-1175050000Y134350000D01*
X-1174550000Y134350000D01*
X-1174550000Y133350000D01*
G37*
D13*
X-1181600000Y114800000D02*
X-1178800000Y114800000D01*
X-1181600000Y112800000D02*
X-1181600000Y114800000D01*
X-1178800000Y114800000D02*
X-1178800000Y112800000D01*
X-1178800000Y112800000D02*
X-1181600000Y112800000D01*
X-1188200000Y122600000D02*
X-1185400000Y122600000D01*
X-1188200000Y120600000D02*
X-1188200000Y122600000D01*
X-1185400000Y122600000D02*
X-1185400000Y120600000D01*
X-1185400000Y120600000D02*
X-1188200000Y120600000D01*
D12*
X-1143599500Y104469000D02*
X-1143599500Y103731000D01*
X-1141799500Y105600000D02*
X-1143186000Y105600000D01*
X-1141799500Y105600000D02*
X-1141799500Y104681000D01*
X-1141799500Y103519000D02*
X-1141799500Y102600000D01*
X-1141799500Y102600000D02*
X-1143186000Y102600000D01*
D13*
X-1185737258Y64822500D02*
X-1185262742Y64822500D01*
X-1185737258Y63777500D02*
X-1185262742Y63777500D01*
X-1131010000Y73140580D02*
X-1131010000Y72859420D01*
X-1129990000Y73140580D02*
X-1129990000Y72859420D01*
X-1162237258Y63722500D02*
X-1161762742Y63722500D01*
X-1162237258Y62677500D02*
X-1161762742Y62677500D01*
D12*
X-1095777000Y112500000D02*
X-1097590000Y112500000D01*
X-1095777000Y103500000D02*
X-1097590000Y103500000D01*
X-1092038500Y112500000D02*
X-1093560000Y112500000D01*
X-1092038500Y112500000D02*
X-1092038500Y103500000D01*
X-1092038500Y103500000D02*
X-1093560000Y103500000D01*
X-1190100000Y83900000D02*
X-1178598500Y83900000D01*
X-1190100000Y73900000D02*
X-1190100000Y83900000D01*
X-1190100000Y73900000D02*
X-1178600000Y73900000D01*
X-1180900000Y82710000D02*
X-1180900000Y81440000D01*
X-1180900000Y82504500D02*
X-1180900000Y82431000D01*
X-1180900000Y80369000D02*
X-1180900000Y79931000D01*
X-1180900000Y77868500D02*
X-1180900000Y77431000D01*
X-1180900000Y75369000D02*
X-1180900000Y74970000D01*
X-1180900000Y74970000D02*
X-1180900000Y76367000D01*
X-1178614000Y82710000D02*
X-1180900000Y82710000D01*
X-1178614000Y74970000D02*
X-1180900000Y74970000D01*
X-1178598500Y73900000D02*
X-1178598500Y83900000D01*
D13*
X-1181550000Y104400000D02*
X-1178750000Y104400000D01*
X-1181550000Y102400000D02*
X-1181550000Y104400000D01*
X-1178750000Y104400000D02*
X-1178750000Y102400000D01*
X-1178750000Y102400000D02*
X-1181550000Y102400000D01*
D20*
X-1179701250Y48215000D02*
X-1177051250Y48215000D01*
X-1179701250Y48119000D02*
X-1179701250Y48215000D01*
X-1179701250Y46665000D02*
X-1179701250Y46761000D01*
X-1177051250Y48215000D02*
X-1177051250Y48119000D01*
X-1177051250Y46761000D02*
X-1177051250Y46665000D01*
X-1177051250Y46665000D02*
X-1179701250Y46665000D01*
D21*
X-1175426250Y47440000D02*
G75*
G02*
X-1175626250Y47440000I-100000J0D01*
G01*
X-1175626250Y47440000D02*
G75*
G02*
X-1175426250Y47440000I100000J0D01*
G01*
D13*
X-1149422500Y105837258D02*
X-1149422500Y105362742D01*
X-1148377500Y105837258D02*
X-1148377500Y105362742D01*
D22*
X-1171590000Y111730000D02*
X-1171590000Y111570000D01*
X-1171590000Y111580000D02*
X-1171590000Y107240000D01*
X-1171590000Y107240000D02*
X-1168850000Y107240000D01*
X-1171570000Y111730000D02*
X-1171590000Y111730000D01*
X-1168850000Y107240000D02*
X-1168800000Y107240000D01*
X-1168800000Y111730000D02*
X-1171570000Y111730000D01*
X-1168800000Y111660000D02*
X-1168800000Y111730000D01*
X-1168800000Y107240000D02*
X-1168800000Y111660000D01*
D13*
X-1131140580Y113810000D02*
X-1130859420Y113810000D01*
X-1131140580Y112790000D02*
X-1130859420Y112790000D01*
X-1145922500Y99937258D02*
X-1145922500Y99462742D01*
X-1144877500Y99937258D02*
X-1144877500Y99462742D01*
D23*
X-1136550000Y54500000D02*
X-1136550000Y55900000D01*
X-1134250000Y54500000D02*
X-1134250000Y55900000D01*
X-1134000000Y55900000D02*
X-1136550000Y55900000D01*
X-1134000000Y54500000D02*
X-1136550000Y54500000D01*
X-1134000000Y54500000D02*
X-1134000000Y55900000D01*
D13*
X-1122722500Y63362742D02*
X-1122722500Y63837258D01*
X-1121677500Y63362742D02*
X-1121677500Y63837258D01*
X-1102435000Y52500000D02*
X-1102435000Y50215000D01*
X-1102435000Y50215000D02*
X-1100965000Y50215000D01*
X-1100965000Y50215000D02*
X-1100965000Y52500000D01*
X-1153322500Y51162742D02*
X-1153322500Y51637258D01*
X-1152277500Y51162742D02*
X-1152277500Y51637258D01*
X-1102222500Y56237258D02*
X-1102222500Y55762742D01*
X-1101177500Y56237258D02*
X-1101177500Y55762742D01*
X-1181550000Y107000000D02*
X-1178750000Y107000000D01*
X-1181550000Y105000000D02*
X-1181550000Y107000000D01*
X-1178750000Y107000000D02*
X-1178750000Y105000000D01*
X-1178750000Y105000000D02*
X-1181550000Y105000000D01*
X-1188200000Y107000000D02*
X-1185400000Y107000000D01*
X-1188200000Y105000000D02*
X-1188200000Y107000000D01*
X-1185400000Y107000000D02*
X-1185400000Y105000000D01*
X-1185400000Y105000000D02*
X-1188200000Y105000000D01*
X-1102662742Y107022500D02*
X-1103137258Y107022500D01*
X-1102662742Y105977500D02*
X-1103137258Y105977500D01*
X-1114730000Y55370000D02*
X-1114730000Y56700000D01*
X-1113400000Y55370000D02*
X-1114730000Y55370000D01*
X-1112130000Y58030000D02*
X-1106990000Y58030000D01*
X-1112130000Y55370000D02*
X-1112130000Y58030000D01*
X-1112130000Y55370000D02*
X-1106990000Y55370000D01*
X-1106990000Y55370000D02*
X-1106990000Y58030000D01*
D15*
X-1134326000Y81371500D02*
X-1127674000Y81371500D01*
X-1134326000Y78428500D02*
X-1134326000Y81371500D01*
X-1127674000Y81371500D02*
X-1127674000Y78428500D01*
X-1127674000Y78428500D02*
X-1134326000Y78428500D01*
D13*
X-1164710000Y115115580D02*
X-1164710000Y114834420D01*
X-1163690000Y115115580D02*
X-1163690000Y114834420D01*
X-1102411252Y90410000D02*
X-1100988748Y90410000D01*
X-1102411252Y88590000D02*
X-1100988748Y88590000D01*
D21*
X-1173131250Y55500000D02*
X-1172481250Y55500000D01*
X-1172481250Y62100000D02*
X-1173131250Y62100000D01*
X-1172481250Y55500000D02*
X-1172481250Y62100000D01*
D22*
X-1169031250Y56520000D02*
X-1169031250Y56520000D01*
X-1168931250Y56520000D02*
X-1168931250Y56520000D01*
X-1169031250Y56520000D02*
G75*
G02*
X-1168931250Y56520000I50000J0D01*
G01*
X-1168931250Y56520000D02*
G75*
G02*
X-1169031250Y56520000I-50000J0D01*
G01*
D17*
X-1128100000Y74075000D02*
X-1128100000Y70925000D01*
X-1128100000Y72823500D02*
X-1126500000Y72820000D01*
X-1126500000Y74100000D02*
X-1126500000Y70900000D01*
D12*
X-1177360000Y90400000D02*
X-1177360000Y85400000D01*
X-1177360000Y85400000D02*
X-1157040000Y85400000D01*
X-1174820000Y87940000D02*
X-1177360000Y87940000D01*
X-1174820000Y85400000D02*
X-1174820000Y87940000D01*
X-1157040000Y90400000D02*
X-1177360000Y90400000D01*
X-1157040000Y85400000D02*
X-1157040000Y90400000D01*
D13*
X-1128522500Y63262742D02*
X-1128522500Y63737258D01*
X-1127477500Y63262742D02*
X-1127477500Y63737258D01*
X-1118422500Y63437742D02*
X-1118422500Y63912258D01*
X-1117377500Y63437742D02*
X-1117377500Y63912258D01*
D20*
X-1159125000Y48575000D02*
X-1156475000Y48575000D01*
X-1159125000Y48479000D02*
X-1159125000Y48575000D01*
X-1159125000Y47025000D02*
X-1159125000Y47121000D01*
X-1156475000Y48575000D02*
X-1156475000Y48479000D01*
X-1156475000Y47121000D02*
X-1156475000Y47025000D01*
X-1156475000Y47025000D02*
X-1159125000Y47025000D01*
D21*
X-1154850000Y47800000D02*
G75*
G02*
X-1155050000Y47800000I-100000J0D01*
G01*
X-1155050000Y47800000D02*
G75*
G02*
X-1154850000Y47800000I100000J0D01*
G01*
D13*
X-1188200000Y114800000D02*
X-1185400000Y114800000D01*
X-1188200000Y112800000D02*
X-1188200000Y114800000D01*
X-1185400000Y114800000D02*
X-1185400000Y112800000D01*
X-1185400000Y112800000D02*
X-1188200000Y112800000D01*
X-1160362742Y70322500D02*
X-1160837258Y70322500D01*
X-1160362742Y69277500D02*
X-1160837258Y69277500D01*
D21*
X-1150000000Y65900000D02*
X-1149350000Y65900000D01*
X-1149350000Y72500000D02*
X-1150000000Y72500000D01*
X-1149350000Y65900000D02*
X-1149350000Y72500000D01*
D22*
X-1145900000Y66920000D02*
X-1145900000Y66920000D01*
X-1145800000Y66920000D02*
X-1145800000Y66920000D01*
X-1145900000Y66920000D02*
G75*
G02*
X-1145800000Y66920000I50000J0D01*
G01*
X-1145800000Y66920000D02*
G75*
G02*
X-1145900000Y66920000I-50000J0D01*
G01*
D21*
X-1173731250Y65700000D02*
X-1173081250Y65700000D01*
X-1173081250Y72300000D02*
X-1173731250Y72300000D01*
X-1173081250Y65700000D02*
X-1173081250Y72300000D01*
D22*
X-1169631250Y66720000D02*
X-1169631250Y66720000D01*
X-1169531250Y66720000D02*
X-1169531250Y66720000D01*
X-1169631250Y66720000D02*
G75*
G02*
X-1169531250Y66720000I50000J0D01*
G01*
X-1169531250Y66720000D02*
G75*
G02*
X-1169631250Y66720000I-50000J0D01*
G01*
D13*
X-1188200000Y109600000D02*
X-1185400000Y109600000D01*
X-1188200000Y107600000D02*
X-1188200000Y109600000D01*
X-1185400000Y109600000D02*
X-1185400000Y107600000D01*
X-1185400000Y107600000D02*
X-1188200000Y107600000D01*
X-1128437258Y68722500D02*
X-1127962742Y68722500D01*
X-1128437258Y67677500D02*
X-1127962742Y67677500D01*
X-1110062742Y61822500D02*
X-1110537258Y61822500D01*
X-1110062742Y60777500D02*
X-1110537258Y60777500D01*
D20*
X-1119960000Y59879000D02*
X-1119960000Y59150000D01*
X-1119960000Y59150000D02*
X-1119221000Y59150000D01*
X-1117779000Y59150000D02*
X-1117040000Y59150000D01*
X-1117040000Y59150000D02*
X-1117040000Y59879000D01*
D21*
X-1117450000Y61935000D02*
G75*
G02*
X-1117650000Y61935000I-100000J0D01*
G01*
X-1117650000Y61935000D02*
G75*
G02*
X-1117450000Y61935000I100000J0D01*
G01*
D13*
X-1175222500Y51562742D02*
X-1175222500Y52037258D01*
X-1174177500Y51562742D02*
X-1174177500Y52037258D01*
X-1143010000Y99627064D02*
X-1143010000Y98172936D01*
X-1141190000Y99627064D02*
X-1141190000Y98172936D01*
D12*
X-1118419000Y85950000D02*
X-1118419000Y84616000D01*
X-1118419000Y69284000D02*
X-1118419000Y67933000D01*
X-1118419000Y67933000D02*
X-1117571000Y67933000D01*
X-1117571000Y85950000D02*
X-1118419000Y85950000D01*
X-1099699000Y67933000D02*
X-1092892000Y67933000D01*
X-1098919500Y85950000D02*
X-1098919500Y67933000D01*
X-1098919500Y71685000D02*
X-1094035000Y71685000D01*
X-1098919500Y69653000D02*
X-1094035000Y69653000D01*
X-1096194000Y81903000D02*
X-1094035000Y81903000D01*
X-1096194000Y79617000D02*
X-1096194000Y81903000D01*
X-1096194000Y77077000D02*
X-1094035000Y77077000D01*
X-1096194000Y74537000D02*
X-1096194000Y77077000D01*
X-1094035000Y84189000D02*
X-1097718000Y84189000D01*
X-1094035000Y81903000D02*
X-1094035000Y84189000D01*
X-1094035000Y79617000D02*
X-1096194000Y79617000D01*
X-1094035000Y77077000D02*
X-1094035000Y79617000D01*
X-1094035000Y74537000D02*
X-1096194000Y74537000D01*
X-1094035000Y71685000D02*
X-1094035000Y74537000D01*
X-1094035000Y69653000D02*
X-1094035000Y71888000D01*
X-1092880000Y85950000D02*
X-1099699000Y85950000D01*
X-1092880000Y67950000D02*
X-1092880000Y85950000D01*
D16*
G36*
X-1100175000Y84478500D02*
G01*
X-1100175000Y84478500D01*
G75*
G02*
X-1100175000Y83421500I0J-528500D01*
G01*
X-1100175000Y83421500D01*
G75*
G02*
X-1100175000Y84478500I0J528500D01*
G01*
X-1100175000Y84478500D01*
G37*
D12*
X-1106700000Y96600000D02*
X-1106700000Y96331000D01*
X-1106700000Y93869000D02*
X-1106700000Y93600000D01*
X-1106700000Y93600000D02*
X-1101700000Y93600000D01*
D15*
X-1101700000Y96600000D02*
X-1106700000Y96600000D01*
D12*
X-1101700000Y96600000D02*
X-1106700000Y96600000D01*
X-1101700000Y96600000D02*
X-1101700000Y96331000D01*
X-1101700000Y93869000D02*
X-1101700000Y93600000D01*
D15*
X-1101700000Y93600000D02*
X-1106700000Y93600000D01*
D19*
X-1103057000Y95100000D02*
G75*
G02*
X-1105343000Y95100000I-1143000J0D01*
G01*
X-1105343000Y95100000D02*
G75*
G02*
X-1103057000Y95100000I1143000J0D01*
G01*
D14*
X-1126140000Y77410000D02*
X-1126140000Y69790000D01*
X-1126140000Y69790000D02*
X-1126140000Y74658500D01*
X-1126140000Y69790000D02*
X-1121060000Y69790000D01*
X-1123597500Y77410000D02*
X-1123597500Y74870000D01*
X-1123597500Y74870000D02*
X-1126140000Y74870000D01*
X-1121060000Y77410000D02*
X-1126140000Y77410000D01*
X-1121060000Y69790000D02*
X-1121060000Y77410000D01*
D20*
X-1122817500Y44700000D02*
X-1122217500Y44700000D01*
X-1122817500Y36500000D02*
X-1122817500Y44700000D01*
X-1122817500Y36500000D02*
X-1122217500Y36500000D01*
X-1122217500Y44700000D02*
X-1092217500Y44700000D01*
X-1122217500Y36500000D02*
X-1122217500Y44700000D01*
X-1092217500Y44700000D02*
X-1092217500Y36500000D01*
X-1092217500Y36500000D02*
X-1122217500Y36500000D01*
D21*
X-1123467500Y40600000D02*
G75*
G02*
X-1123667500Y40600000I-100000J0D01*
G01*
X-1123667500Y40600000D02*
G75*
G02*
X-1123467500Y40600000I100000J0D01*
G01*
D20*
X-1134060000Y59979000D02*
X-1134060000Y59250000D01*
X-1134060000Y59250000D02*
X-1133321000Y59250000D01*
X-1131879000Y59250000D02*
X-1131140000Y59250000D01*
X-1131140000Y59250000D02*
X-1131140000Y59979000D01*
D21*
X-1131550000Y62035000D02*
G75*
G02*
X-1131750000Y62035000I-100000J0D01*
G01*
X-1131750000Y62035000D02*
G75*
G02*
X-1131550000Y62035000I100000J0D01*
G01*
D20*
X-1156600000Y44300000D02*
X-1154620000Y44300000D01*
X-1156600000Y29900000D02*
X-1156600000Y44300000D01*
X-1147600000Y44300000D02*
X-1149580000Y44300000D01*
X-1147600000Y44300000D02*
X-1147600000Y42920000D01*
X-1147600000Y38280000D02*
X-1147600000Y29900000D01*
X-1147600000Y29900000D02*
X-1156600000Y29900000D01*
D21*
X-1152000000Y45700000D02*
G75*
G02*
X-1152200000Y45700000I-100000J0D01*
G01*
X-1152200000Y45700000D02*
G75*
G02*
X-1152000000Y45700000I100000J0D01*
G01*
D13*
X-1133322500Y63237742D02*
X-1133322500Y63712258D01*
X-1132277500Y63237742D02*
X-1132277500Y63712258D01*
D12*
X-1190100000Y97650000D02*
X-1178598500Y97650000D01*
X-1190100000Y85150000D02*
X-1190100000Y97650000D01*
X-1190100000Y85150000D02*
X-1178600000Y85150000D01*
X-1180900000Y96480000D02*
X-1180900000Y95337000D01*
X-1180900000Y96181000D02*
X-1180900000Y96480000D01*
X-1180900000Y95337000D02*
X-1181027000Y95210000D01*
X-1180900000Y93681000D02*
X-1180900000Y94119000D01*
X-1180900000Y91181000D02*
X-1180900000Y91619000D01*
X-1180900000Y88681000D02*
X-1180900000Y89119000D01*
X-1180900000Y86220000D02*
X-1180900000Y87617000D01*
X-1180900000Y86220000D02*
X-1180900000Y86619000D01*
X-1178614000Y96480000D02*
X-1180900000Y96480000D01*
X-1178614000Y96480000D02*
X-1178614000Y97650000D01*
X-1178614000Y86220000D02*
X-1180900000Y86220000D01*
X-1178614000Y86220000D02*
X-1178614000Y85150000D01*
D21*
X-1150800000Y54900000D02*
X-1150150000Y54900000D01*
X-1150150000Y61500000D02*
X-1150800000Y61500000D01*
X-1150150000Y54900000D02*
X-1150150000Y61500000D01*
D22*
X-1146700000Y55920000D02*
X-1146700000Y55920000D01*
X-1146600000Y55920000D02*
X-1146600000Y55920000D01*
X-1146700000Y55920000D02*
G75*
G02*
X-1146600000Y55920000I50000J0D01*
G01*
X-1146600000Y55920000D02*
G75*
G02*
X-1146700000Y55920000I-50000J0D01*
G01*
D20*
X-1174600000Y43800000D02*
X-1172620000Y43800000D01*
X-1174600000Y29400000D02*
X-1174600000Y43800000D01*
X-1165600000Y43800000D02*
X-1167580000Y43800000D01*
X-1165600000Y43800000D02*
X-1165600000Y42420000D01*
X-1165600000Y37780000D02*
X-1165600000Y29400000D01*
X-1165600000Y29400000D02*
X-1174600000Y29400000D01*
D21*
X-1170000000Y45200000D02*
G75*
G02*
X-1170200000Y45200000I-100000J0D01*
G01*
X-1170200000Y45200000D02*
G75*
G02*
X-1170000000Y45200000I100000J0D01*
G01*
D13*
X-1115280000Y45670000D02*
X-1115280000Y47000000D01*
X-1113950000Y45670000D02*
X-1115280000Y45670000D01*
X-1112680000Y48330000D02*
X-1099920000Y48330000D01*
X-1112680000Y45670000D02*
X-1112680000Y48330000D01*
X-1112680000Y45670000D02*
X-1099920000Y45670000D01*
X-1099920000Y45670000D02*
X-1099920000Y48330000D01*
X-1123800000Y67465000D02*
X-1121515000Y67465000D01*
X-1121515000Y68935000D02*
X-1123800000Y68935000D01*
X-1121515000Y67465000D02*
X-1121515000Y68935000D01*
D12*
X-1099800000Y124100500D02*
X-1091700000Y124100500D01*
X-1099800000Y114100500D02*
X-1099800000Y124100500D01*
X-1098950000Y113600500D02*
X-1098831000Y114100500D01*
X-1098950000Y113600500D02*
X-1098450000Y113600500D01*
X-1098450000Y113600500D02*
X-1098571000Y114100500D01*
X-1093050000Y113599500D02*
X-1092930000Y114100500D01*
X-1093050000Y113599500D02*
X-1092550000Y113599500D01*
X-1092550000Y113599500D02*
X-1092670000Y114100500D01*
X-1091700000Y124100500D02*
X-1091700000Y114100500D01*
X-1091700000Y114100500D02*
X-1099800000Y114100500D01*
D16*
G36*
X-1092850000Y121109000D02*
G01*
X-1093350000Y121609000D01*
X-1092850000Y122109000D01*
X-1092850000Y121109000D01*
G37*
G36*
X-1092850000Y116100000D02*
G01*
X-1093350000Y116600000D01*
X-1092850000Y117100000D01*
X-1092850000Y116100000D01*
G37*
G36*
X-1091850000Y121359000D02*
G01*
X-1092850000Y121359000D01*
X-1092850000Y121859000D01*
X-1091850000Y121859000D01*
X-1091850000Y121359000D01*
G37*
G36*
X-1091850000Y116350000D02*
G01*
X-1092850000Y116350000D01*
X-1092850000Y116850000D01*
X-1091850000Y116850000D01*
X-1091850000Y116350000D01*
G37*
D22*
X-1171590000Y118030000D02*
X-1171590000Y117870000D01*
X-1171590000Y117880000D02*
X-1171590000Y113540000D01*
X-1171590000Y113540000D02*
X-1168850000Y113540000D01*
X-1171570000Y118030000D02*
X-1171590000Y118030000D01*
X-1168850000Y113540000D02*
X-1168800000Y113540000D01*
X-1168800000Y118030000D02*
X-1171570000Y118030000D01*
X-1168800000Y117960000D02*
X-1168800000Y118030000D01*
X-1168800000Y113540000D02*
X-1168800000Y117960000D01*
%LPC*%
D24*
X-1187450000Y103400000D03*
X-1186150000Y103400000D03*
X-1180800000Y121800000D03*
X-1179500000Y121800000D03*
D25*
X-1169475000Y120900000D03*
X-1171125000Y120900000D03*
D26*
X-1187840000Y46930000D03*
D27*
X-1187840000Y49470000D03*
X-1185300000Y46930000D03*
X-1185300000Y49470000D03*
X-1182760000Y46930000D03*
X-1182760000Y49470000D03*
D26*
X-1176090000Y81530000D03*
D27*
X-1176090000Y84070000D03*
X-1173550000Y81530000D03*
X-1173550000Y84070000D03*
X-1171010000Y81530000D03*
X-1171010000Y84070000D03*
X-1168470000Y81530000D03*
X-1168470000Y84070000D03*
X-1165930000Y81530000D03*
X-1165930000Y84070000D03*
X-1163390000Y81530000D03*
X-1163390000Y84070000D03*
X-1160850000Y81530000D03*
X-1160850000Y84070000D03*
X-1158310000Y81530000D03*
X-1158310000Y84070000D03*
D24*
X-1187450000Y119000000D03*
X-1186150000Y119000000D03*
D28*
X-1103970000Y131370000D03*
X-1103970000Y128830000D03*
X-1106510000Y131370000D03*
X-1106510000Y128830000D03*
X-1109050000Y131370000D03*
X-1109050000Y128830000D03*
X-1111590000Y131370000D03*
X-1111590000Y128830000D03*
X-1114130000Y131370000D03*
X-1114130000Y128830000D03*
X-1116670000Y131370000D03*
X-1116670000Y128830000D03*
X-1119210000Y131370000D03*
X-1119210000Y128830000D03*
X-1121750000Y131370000D03*
X-1121750000Y128830000D03*
X-1124290000Y131370000D03*
X-1124290000Y128830000D03*
X-1126830000Y131370000D03*
X-1126830000Y128830000D03*
X-1129370000Y131370000D03*
X-1129370000Y128830000D03*
X-1131910000Y131370000D03*
X-1131910000Y128830000D03*
X-1134450000Y131370000D03*
X-1134450000Y128830000D03*
X-1136990000Y131370000D03*
X-1136990000Y128830000D03*
X-1139530000Y131370000D03*
X-1139530000Y128830000D03*
X-1142070000Y131370000D03*
X-1142070000Y128830000D03*
X-1144610000Y131370000D03*
X-1144610000Y128830000D03*
X-1147150000Y131370000D03*
X-1147150000Y128830000D03*
X-1149690000Y131370000D03*
X-1149690000Y128830000D03*
X-1152230000Y131370000D03*
X-1152230000Y128830000D03*
D29*
X-1148100000Y99150000D03*
X-1148100000Y101050000D03*
X-1150100000Y100100000D03*
D30*
X-1101775000Y87400000D03*
X-1100225000Y87400000D03*
D31*
X-1165587500Y69800000D03*
X-1164012500Y69800000D03*
D32*
X-1137725000Y115445000D03*
X-1137075000Y115445000D03*
X-1136425000Y115445000D03*
X-1135775000Y115445000D03*
X-1135125000Y115445000D03*
X-1134475000Y115445000D03*
X-1133825000Y115445000D03*
X-1133175000Y115445000D03*
X-1132525000Y115445000D03*
X-1131875000Y115445000D03*
X-1131225000Y115445000D03*
X-1130575000Y115445000D03*
X-1129925000Y115445000D03*
X-1129275000Y115445000D03*
X-1129275000Y122355000D03*
X-1129925000Y122355000D03*
X-1130575000Y122355000D03*
X-1131225000Y122355000D03*
X-1131875000Y122355000D03*
X-1132525000Y122355000D03*
X-1133175000Y122355000D03*
X-1133825000Y122355000D03*
X-1134475000Y122355000D03*
X-1135125000Y122355000D03*
X-1135775000Y122355000D03*
X-1136425000Y122355000D03*
X-1137075000Y122355000D03*
X-1137725000Y122355000D03*
D33*
X-1160150000Y125200000D03*
D34*
X-1162650000Y125200000D03*
X-1165150000Y125200000D03*
X-1167650000Y125200000D03*
D35*
X-1126725000Y116600000D03*
X-1125075000Y116600000D03*
D24*
X-1180850000Y119200000D03*
X-1179550000Y119200000D03*
D36*
X-1132100000Y73800000D03*
X-1132100000Y71400000D03*
D24*
X-1187450000Y111200000D03*
X-1186150000Y111200000D03*
D37*
X-1186200000Y131000000D03*
D38*
X-1150500000Y97625000D03*
X-1150500000Y95975000D03*
D39*
X-1127300000Y49800000D03*
X-1139500000Y49799500D03*
X-1139500000Y37800500D03*
X-1127300000Y37800000D03*
X-1125300000Y43800000D03*
D40*
X-1124000000Y81400000D03*
D41*
X-1124000000Y83940000D03*
X-1124000000Y86480000D03*
D25*
X-1109900000Y95000000D03*
X-1111550000Y95000000D03*
D42*
X-1105150000Y60800000D03*
X-1100700000Y60800000D03*
D43*
X-1129000000Y73775000D03*
X-1129000000Y72225000D03*
D44*
X-1133400000Y96700000D03*
X-1133400000Y98350000D03*
D24*
X-1180850000Y116600000D03*
X-1179550000Y116600000D03*
D45*
X-1142100000Y110262500D03*
X-1142100000Y107337500D03*
D25*
X-1102275000Y110300000D03*
X-1103925000Y110300000D03*
D30*
X-1106175000Y97500000D03*
X-1104625000Y97500000D03*
D44*
X-1130600000Y96675000D03*
X-1130600000Y98325000D03*
D40*
X-1113300000Y52300000D03*
D41*
X-1110760000Y52300000D03*
X-1108220000Y52300000D03*
D24*
X-1180850000Y111200000D03*
X-1179550000Y111200000D03*
X-1180850000Y108600000D03*
X-1179550000Y108600000D03*
D25*
X-1148375000Y47800000D03*
X-1150025000Y47800000D03*
D46*
X-1121150000Y60685000D03*
X-1123050000Y60685000D03*
X-1122100000Y58915000D03*
D25*
X-1170075000Y47400000D03*
X-1171725000Y47400000D03*
D24*
X-1187450000Y116400000D03*
X-1186150000Y116400000D03*
D46*
X-1126550000Y60685000D03*
X-1128450000Y60685000D03*
X-1127500000Y58915000D03*
D47*
X-1161300000Y112800000D03*
X-1160800000Y112800000D03*
X-1160300000Y112800000D03*
X-1159800000Y112800000D03*
X-1159300000Y112800000D03*
X-1158800000Y112800000D03*
D48*
X-1158102000Y113492000D03*
X-1158102000Y113992000D03*
X-1158102000Y114492000D03*
X-1158102000Y114992000D03*
X-1158102000Y115492000D03*
X-1158102000Y115992000D03*
D47*
X-1158800000Y116684000D03*
X-1159300000Y116684000D03*
X-1159800000Y116684000D03*
X-1160300000Y116684000D03*
X-1160800000Y116684000D03*
X-1161300000Y116684000D03*
D48*
X-1161998000Y115992000D03*
X-1161998000Y115492000D03*
X-1161998000Y114992000D03*
X-1161998000Y114492000D03*
X-1161998000Y113992000D03*
X-1161998000Y113492000D03*
D49*
X-1160049500Y114741000D03*
D26*
X-1108810000Y123570000D03*
D27*
X-1108810000Y121030000D03*
X-1111350000Y123570000D03*
X-1111350000Y121030000D03*
X-1113890000Y123570000D03*
X-1113890000Y121030000D03*
X-1116430000Y123570000D03*
X-1116430000Y121030000D03*
X-1118970000Y123570000D03*
X-1118970000Y121030000D03*
X-1121510000Y123570000D03*
X-1121510000Y121030000D03*
X-1124050000Y123570000D03*
X-1124050000Y121030000D03*
X-1126590000Y123570000D03*
X-1126590000Y121030000D03*
D50*
X-1174795500Y130600000D03*
X-1179804500Y130600000D03*
D24*
X-1180850000Y113800000D03*
X-1179550000Y113800000D03*
X-1187450000Y121600000D03*
X-1186150000Y121600000D03*
D51*
X-1143900000Y105050000D03*
X-1143900000Y103150000D03*
X-1141500000Y104100000D03*
D35*
X-1186325000Y64300000D03*
X-1184675000Y64300000D03*
D43*
X-1130500000Y73775000D03*
X-1130500000Y72225000D03*
D35*
X-1162825000Y63200000D03*
X-1161175000Y63200000D03*
D52*
X-1098848500Y103680000D03*
X-1098848500Y112320000D03*
D53*
X-1094668500Y112320000D03*
X-1094668500Y103680000D03*
D54*
X-1099468500Y104800000D03*
X-1099468500Y105600000D03*
D55*
X-1099468500Y106750000D03*
X-1099468500Y107750000D03*
X-1099468500Y108250000D03*
X-1099468500Y109250000D03*
D54*
X-1099468500Y111200000D03*
X-1099468500Y110400000D03*
D55*
X-1099468500Y109750000D03*
X-1099468500Y108750000D03*
X-1099468500Y107250000D03*
X-1099468500Y106250000D03*
D33*
X-1180900000Y81400000D03*
D34*
X-1180900000Y78900000D03*
X-1180900000Y76400000D03*
D24*
X-1180800000Y103400000D03*
X-1179500000Y103400000D03*
D56*
X-1176696250Y47440000D03*
X-1180056250Y47440000D03*
D38*
X-1148900000Y106425000D03*
X-1148900000Y104775000D03*
D57*
X-1171000000Y111275000D03*
D58*
X-1171000000Y110700000D03*
X-1171000000Y110200000D03*
X-1171000000Y109700000D03*
X-1171000000Y109200000D03*
X-1171000000Y108700000D03*
X-1171000000Y108200000D03*
D57*
X-1171000000Y107625000D03*
X-1169400000Y107625000D03*
D58*
X-1169400000Y108200000D03*
X-1169400000Y108700000D03*
X-1169400000Y109200000D03*
X-1169400000Y109700000D03*
X-1169400000Y110200000D03*
X-1169400000Y110700000D03*
D57*
X-1169400000Y111275000D03*
D30*
X-1131775000Y113300000D03*
X-1130225000Y113300000D03*
D38*
X-1145400000Y100525000D03*
X-1145400000Y98875000D03*
D59*
X-1134800000Y55200000D03*
X-1136000000Y55200000D03*
D44*
X-1122200000Y62775000D03*
X-1122200000Y64425000D03*
D60*
X-1101700000Y50912500D03*
X-1101700000Y52487500D03*
D44*
X-1152800000Y50575000D03*
X-1152800000Y52225000D03*
D38*
X-1101700000Y56825000D03*
X-1101700000Y55175000D03*
D24*
X-1180800000Y106000000D03*
X-1179500000Y106000000D03*
X-1187450000Y106000000D03*
X-1186150000Y106000000D03*
D25*
X-1102075000Y106500000D03*
X-1103725000Y106500000D03*
D40*
X-1113400000Y56700000D03*
D41*
X-1110860000Y56700000D03*
X-1108320000Y56700000D03*
D61*
X-1133300000Y76830000D03*
X-1131000000Y76830000D03*
X-1128700000Y76830000D03*
D62*
X-1131000000Y82770000D03*
D43*
X-1164200000Y115750000D03*
X-1164200000Y114200000D03*
D63*
X-1103175000Y89500000D03*
X-1100225000Y89500000D03*
D64*
X-1170499250Y56520000D03*
D65*
X-1176799250Y58800000D03*
D64*
X-1170499250Y61080000D03*
D37*
X-1094900000Y130800000D03*
D36*
X-1127300000Y73700000D03*
X-1127300000Y71300000D03*
D26*
X-1176090000Y86630000D03*
D27*
X-1176090000Y89170000D03*
X-1173550000Y86630000D03*
X-1173550000Y89170000D03*
X-1171010000Y86630000D03*
X-1171010000Y89170000D03*
X-1168470000Y86630000D03*
X-1168470000Y89170000D03*
X-1165930000Y86630000D03*
X-1165930000Y89170000D03*
X-1163390000Y86630000D03*
X-1163390000Y89170000D03*
X-1160850000Y86630000D03*
X-1160850000Y89170000D03*
X-1158310000Y86630000D03*
X-1158310000Y89170000D03*
D44*
X-1128000000Y62675000D03*
X-1128000000Y64325000D03*
X-1117900000Y62850000D03*
X-1117900000Y64500000D03*
D56*
X-1156120000Y47800000D03*
X-1159480000Y47800000D03*
D24*
X-1187450000Y113800000D03*
X-1186150000Y113800000D03*
D25*
X-1159775000Y69800000D03*
X-1161425000Y69800000D03*
D64*
X-1147368000Y66920000D03*
D65*
X-1153668000Y69200000D03*
D64*
X-1147368000Y71480000D03*
X-1171099250Y66720000D03*
D65*
X-1177399250Y69000000D03*
D64*
X-1171099250Y71280000D03*
D24*
X-1187450000Y108600000D03*
X-1186150000Y108600000D03*
D35*
X-1129025000Y68200000D03*
X-1127375000Y68200000D03*
D25*
X-1109475000Y61300000D03*
X-1111125000Y61300000D03*
D46*
X-1117550000Y60685000D03*
X-1119450000Y60685000D03*
X-1118500000Y58915000D03*
D44*
X-1174700000Y50975000D03*
X-1174700000Y52625000D03*
D45*
X-1142100000Y100362500D03*
X-1142100000Y97437500D03*
D66*
X-1100380000Y85700000D03*
X-1101650000Y85700000D03*
X-1102920000Y85700000D03*
X-1104190000Y85700000D03*
X-1105460000Y85700000D03*
X-1106730000Y85700000D03*
X-1108000000Y85700000D03*
X-1109270000Y85700000D03*
X-1110540000Y85700000D03*
X-1111810000Y85700000D03*
X-1113080000Y85700000D03*
X-1114350000Y85700000D03*
X-1115620000Y85700000D03*
X-1116890000Y85700000D03*
D67*
X-1118170000Y83935000D03*
X-1118170000Y82665000D03*
X-1118170000Y81395000D03*
X-1118170000Y80125000D03*
X-1118170000Y78855000D03*
X-1118170000Y77585000D03*
X-1118170000Y76315000D03*
X-1118170000Y75045000D03*
X-1118170000Y73775000D03*
X-1118170000Y72505000D03*
X-1118170000Y71235000D03*
X-1118140000Y69965000D03*
D66*
X-1116890000Y68200000D03*
X-1115620000Y68200000D03*
X-1114350000Y68200000D03*
X-1113080000Y68200000D03*
X-1111810000Y68200000D03*
X-1110540000Y68200000D03*
X-1109270000Y68200000D03*
X-1108000000Y68200000D03*
X-1106730000Y68200000D03*
X-1105460000Y68200000D03*
X-1104190000Y68200000D03*
X-1102920000Y68200000D03*
X-1101650000Y68200000D03*
X-1100380000Y68200000D03*
D68*
X-1106700000Y79850000D03*
X-1108100000Y79850000D03*
X-1109500000Y79850000D03*
X-1106700000Y78450000D03*
X-1108100000Y78450000D03*
X-1109500000Y78450000D03*
X-1106700000Y77050000D03*
X-1108100000Y77050000D03*
X-1109500000Y77050000D03*
D42*
X-1106425000Y95100000D03*
X-1101975000Y95100000D03*
D26*
X-1124870000Y76140000D03*
D27*
X-1122330000Y76140000D03*
X-1124870000Y73600000D03*
X-1122330000Y73600000D03*
X-1124870000Y71060000D03*
X-1122330000Y71060000D03*
D69*
X-1119717500Y40600000D03*
D70*
X-1114717500Y40600000D03*
X-1109717500Y40600000D03*
X-1104717500Y40600000D03*
X-1099717500Y40600000D03*
X-1094717500Y40600000D03*
D46*
X-1131650000Y60785000D03*
X-1133550000Y60785000D03*
X-1132600000Y59015000D03*
D71*
X-1152100000Y43600000D03*
D72*
X-1152100000Y37600000D03*
D73*
X-1147400000Y40600000D03*
D44*
X-1132800000Y62650000D03*
X-1132800000Y64300000D03*
D33*
X-1180900000Y95150000D03*
D34*
X-1180900000Y92650000D03*
X-1180900000Y90150000D03*
X-1180900000Y87650000D03*
D64*
X-1148168000Y55920000D03*
D65*
X-1154468000Y58200000D03*
D64*
X-1148168000Y60480000D03*
D71*
X-1170100000Y43100000D03*
D72*
X-1170100000Y37100000D03*
D73*
X-1165400000Y40100000D03*
D40*
X-1113950000Y47000000D03*
D41*
X-1111410000Y47000000D03*
X-1108870000Y47000000D03*
X-1106330000Y47000000D03*
X-1103790000Y47000000D03*
X-1101250000Y47000000D03*
D74*
X-1122212500Y68200000D03*
X-1123787500Y68200000D03*
D50*
X-1095600000Y116595500D03*
X-1095600000Y121604500D03*
D57*
X-1171000000Y117575000D03*
D58*
X-1171000000Y117000000D03*
X-1171000000Y116500000D03*
X-1171000000Y116000000D03*
X-1171000000Y115500000D03*
X-1171000000Y115000000D03*
X-1171000000Y114500000D03*
D57*
X-1171000000Y113925000D03*
X-1169400000Y113925000D03*
D58*
X-1169400000Y114500000D03*
X-1169400000Y115000000D03*
X-1169400000Y115500000D03*
X-1169400000Y116000000D03*
X-1169400000Y116500000D03*
X-1169400000Y117000000D03*
D57*
X-1169400000Y117575000D03*
D37*
X-1186200000Y39500000D03*
%LPD*%
M02*
